%TF.GenerationSoftware,KiCad,Pcbnew,(5.1.9)-1*%
%TF.CreationDate,2021-11-09T18:36:26+00:00*%
%TF.ProjectId,Bluetooth_ignite_receiver,426c7565-746f-46f7-9468-5f69676e6974,rev?*%
%TF.SameCoordinates,Original*%
%TF.FileFunction,Legend,Top*%
%TF.FilePolarity,Positive*%
%FSLAX46Y46*%
G04 Gerber Fmt 4.6, Leading zero omitted, Abs format (unit mm)*
G04 Created by KiCad (PCBNEW (5.1.9)-1) date 2021-11-09 18:36:26*
%MOMM*%
%LPD*%
G01*
G04 APERTURE LIST*
%ADD10C,0.120000*%
%ADD11C,0.150000*%
G04 APERTURE END LIST*
D10*
%TO.C,J10*%
X98606300Y-97450600D02*
X99936300Y-97450600D01*
X98606300Y-98780600D02*
X98606300Y-97450600D01*
X98606300Y-100050600D02*
X101266300Y-100050600D01*
X101266300Y-100050600D02*
X101266300Y-102650600D01*
X98606300Y-100050600D02*
X98606300Y-102650600D01*
X98606300Y-102650600D02*
X101266300Y-102650600D01*
%TO.C,J9*%
X96554600Y-78990500D02*
X96554600Y-76330500D01*
X81254600Y-78990500D02*
X96554600Y-78990500D01*
X81254600Y-76330500D02*
X96554600Y-76330500D01*
X81254600Y-78990500D02*
X81254600Y-76330500D01*
X79984600Y-78990500D02*
X78654600Y-78990500D01*
X78654600Y-78990500D02*
X78654600Y-77660500D01*
%TO.C,J8*%
X105870700Y-83130700D02*
X105870700Y-81800700D01*
X107200700Y-83130700D02*
X105870700Y-83130700D01*
X108470700Y-83130700D02*
X108470700Y-80470700D01*
X108470700Y-80470700D02*
X116150700Y-80470700D01*
X108470700Y-83130700D02*
X116150700Y-83130700D01*
X116150700Y-83130700D02*
X116150700Y-80470700D01*
%TO.C,J5*%
X151041500Y-84053300D02*
X151041500Y-93213300D01*
X151041500Y-93213300D02*
X149336500Y-93213300D01*
X149336500Y-84053300D02*
X151041500Y-84053300D01*
X147326500Y-84053300D02*
X145406500Y-84053300D01*
X145406500Y-93213300D02*
X147326500Y-93213300D01*
%TO.C,D6*%
X113830900Y-87672200D02*
X113830900Y-90157200D01*
X115200900Y-87672200D02*
X113830900Y-87672200D01*
X115200900Y-90157200D02*
X115200900Y-87672200D01*
%TO.C,R11*%
X112380500Y-85411542D02*
X112380500Y-85886058D01*
X113425500Y-85411542D02*
X113425500Y-85886058D01*
%TO.C,R14*%
X112317000Y-89107742D02*
X112317000Y-89582258D01*
X113362000Y-89107742D02*
X113362000Y-89582258D01*
%TO.C,Q3*%
X111996100Y-93685900D02*
X111996100Y-92225900D01*
X115156100Y-93685900D02*
X115156100Y-91525900D01*
X115156100Y-93685900D02*
X114226100Y-93685900D01*
X111996100Y-93685900D02*
X112926100Y-93685900D01*
%TO.C,D4*%
X113869000Y-84027300D02*
X113869000Y-86512300D01*
X115239000Y-84027300D02*
X113869000Y-84027300D01*
X115239000Y-86512300D02*
X115239000Y-84027300D01*
%TO.C,D5*%
X119795800Y-76882900D02*
X119795800Y-80732900D01*
X117795800Y-76882900D02*
X117795800Y-80732900D01*
X119795800Y-76882900D02*
X117795800Y-76882900D01*
%TO.C,R12*%
X118626658Y-83615000D02*
X118152142Y-83615000D01*
X118626658Y-84660000D02*
X118152142Y-84660000D01*
%TO.C,J4*%
X118905700Y-99555300D02*
G75*
G03*
X118905700Y-99555300I-2180000J0D01*
G01*
X123905700Y-99555300D02*
G75*
G03*
X123905700Y-99555300I-2180000J0D01*
G01*
X114165700Y-104155300D02*
X124285700Y-104155300D01*
X114165700Y-103055300D02*
X124285700Y-103055300D01*
X114165700Y-95495300D02*
X124285700Y-95495300D01*
X114165700Y-104615300D02*
X124285700Y-104615300D01*
X114165700Y-95495300D02*
X114165700Y-104615300D01*
X124285700Y-95495300D02*
X124285700Y-104615300D01*
X118379700Y-98167300D02*
X118272700Y-98274300D01*
X115443700Y-101102300D02*
X115337700Y-101209300D01*
X118113700Y-97901300D02*
X118006700Y-98008300D01*
X115177700Y-100836300D02*
X115071700Y-100943300D01*
X123379700Y-98167300D02*
X122984700Y-98563300D01*
X120718700Y-100829300D02*
X120338700Y-101209300D01*
X123113700Y-97901300D02*
X122733700Y-98281300D01*
X120467700Y-100547300D02*
X120072700Y-100943300D01*
X113925700Y-104215300D02*
X113925700Y-104855300D01*
X113925700Y-104855300D02*
X114325700Y-104855300D01*
%TO.C,J3*%
X130564300Y-99593400D02*
G75*
G03*
X130564300Y-99593400I-2180000J0D01*
G01*
X135564300Y-99593400D02*
G75*
G03*
X135564300Y-99593400I-2180000J0D01*
G01*
X125824300Y-104193400D02*
X135944300Y-104193400D01*
X125824300Y-103093400D02*
X135944300Y-103093400D01*
X125824300Y-95533400D02*
X135944300Y-95533400D01*
X125824300Y-104653400D02*
X135944300Y-104653400D01*
X125824300Y-95533400D02*
X125824300Y-104653400D01*
X135944300Y-95533400D02*
X135944300Y-104653400D01*
X130038300Y-98205400D02*
X129931300Y-98312400D01*
X127102300Y-101140400D02*
X126996300Y-101247400D01*
X129772300Y-97939400D02*
X129665300Y-98046400D01*
X126836300Y-100874400D02*
X126730300Y-100981400D01*
X135038300Y-98205400D02*
X134643300Y-98601400D01*
X132377300Y-100867400D02*
X131997300Y-101247400D01*
X134772300Y-97939400D02*
X134392300Y-98319400D01*
X132126300Y-100585400D02*
X131731300Y-100981400D01*
X125584300Y-104253400D02*
X125584300Y-104893400D01*
X125584300Y-104893400D02*
X125984300Y-104893400D01*
%TO.C,J2*%
X107336000Y-99517200D02*
G75*
G03*
X107336000Y-99517200I-2180000J0D01*
G01*
X112336000Y-99517200D02*
G75*
G03*
X112336000Y-99517200I-2180000J0D01*
G01*
X102596000Y-104117200D02*
X112716000Y-104117200D01*
X102596000Y-103017200D02*
X112716000Y-103017200D01*
X102596000Y-95457200D02*
X112716000Y-95457200D01*
X102596000Y-104577200D02*
X112716000Y-104577200D01*
X102596000Y-95457200D02*
X102596000Y-104577200D01*
X112716000Y-95457200D02*
X112716000Y-104577200D01*
X106810000Y-98129200D02*
X106703000Y-98236200D01*
X103874000Y-101064200D02*
X103768000Y-101171200D01*
X106544000Y-97863200D02*
X106437000Y-97970200D01*
X103608000Y-100798200D02*
X103502000Y-100905200D01*
X111810000Y-98129200D02*
X111415000Y-98525200D01*
X109149000Y-100791200D02*
X108769000Y-101171200D01*
X111544000Y-97863200D02*
X111164000Y-98243200D01*
X108898000Y-100509200D02*
X108503000Y-100905200D01*
X102356000Y-104177200D02*
X102356000Y-104817200D01*
X102356000Y-104817200D02*
X102756000Y-104817200D01*
%TO.C,J1*%
X142032400Y-99695000D02*
G75*
G03*
X142032400Y-99695000I-2180000J0D01*
G01*
X147032400Y-99695000D02*
G75*
G03*
X147032400Y-99695000I-2180000J0D01*
G01*
X137292400Y-104295000D02*
X147412400Y-104295000D01*
X137292400Y-103195000D02*
X147412400Y-103195000D01*
X137292400Y-95635000D02*
X147412400Y-95635000D01*
X137292400Y-104755000D02*
X147412400Y-104755000D01*
X137292400Y-95635000D02*
X137292400Y-104755000D01*
X147412400Y-95635000D02*
X147412400Y-104755000D01*
X141506400Y-98307000D02*
X141399400Y-98414000D01*
X138570400Y-101242000D02*
X138464400Y-101349000D01*
X141240400Y-98041000D02*
X141133400Y-98148000D01*
X138304400Y-100976000D02*
X138198400Y-101083000D01*
X146506400Y-98307000D02*
X146111400Y-98703000D01*
X143845400Y-100969000D02*
X143465400Y-101349000D01*
X146240400Y-98041000D02*
X145860400Y-98421000D01*
X143594400Y-100687000D02*
X143199400Y-101083000D01*
X137052400Y-104355000D02*
X137052400Y-104995000D01*
X137052400Y-104995000D02*
X137452400Y-104995000D01*
%TO.C,R13*%
X118804458Y-81786200D02*
X118329942Y-81786200D01*
X118804458Y-82831200D02*
X118329942Y-82831200D01*
%TO.C,U3*%
X125161800Y-78349800D02*
X122926800Y-78349800D01*
X122926800Y-78349800D02*
X122926800Y-88629800D01*
X122926800Y-88629800D02*
X129396800Y-88629800D01*
X129396800Y-88629800D02*
X129396800Y-78349800D01*
X129396800Y-78349800D02*
X127161800Y-78349800D01*
X127161800Y-78349800D02*
G75*
G02*
X125161800Y-78349800I-1000000J0D01*
G01*
%TO.C,J7*%
X100295400Y-75962200D02*
X100295400Y-78622200D01*
X102895400Y-75962200D02*
X100295400Y-75962200D01*
X102895400Y-78622200D02*
X100295400Y-78622200D01*
X102895400Y-75962200D02*
X102895400Y-78622200D01*
X104165400Y-75962200D02*
X105495400Y-75962200D01*
X105495400Y-75962200D02*
X105495400Y-77292200D01*
%TO.C,J6*%
X93138300Y-104746100D02*
X93138300Y-102086100D01*
X90538300Y-104746100D02*
X93138300Y-104746100D01*
X90538300Y-102086100D02*
X93138300Y-102086100D01*
X90538300Y-104746100D02*
X90538300Y-102086100D01*
X89268300Y-104746100D02*
X87938300Y-104746100D01*
X87938300Y-104746100D02*
X87938300Y-103416100D01*
%TO.C,U2*%
X76648300Y-98820100D02*
X76648300Y-99200100D01*
X70228300Y-98820100D02*
X76648300Y-98820100D01*
X70228300Y-80580100D02*
X76648300Y-80580100D01*
X70228300Y-98820100D02*
X70228300Y-80580100D01*
X95973300Y-80580100D02*
X95973300Y-81580100D01*
X95193300Y-80580100D02*
X95973300Y-80580100D01*
X95973300Y-98820100D02*
X95973300Y-97820100D01*
X95193300Y-98820100D02*
X95973300Y-98820100D01*
%TO.C,C6*%
X98946580Y-91412600D02*
X98665420Y-91412600D01*
X98946580Y-92432600D02*
X98665420Y-92432600D01*
%TO.C,R25*%
X110600758Y-76786000D02*
X110126242Y-76786000D01*
X110600758Y-75741000D02*
X110126242Y-75741000D01*
%TO.C,R24*%
X110612958Y-78487800D02*
X110138442Y-78487800D01*
X110612958Y-77442800D02*
X110138442Y-77442800D01*
%TO.C,D13*%
X112890400Y-77037400D02*
X115375400Y-77037400D01*
X115375400Y-77037400D02*
X115375400Y-75667400D01*
X115375400Y-75667400D02*
X112890400Y-75667400D01*
%TO.C,D12*%
X112890100Y-78650300D02*
X115375100Y-78650300D01*
X115375100Y-78650300D02*
X115375100Y-77280300D01*
X115375100Y-77280300D02*
X112890100Y-77280300D01*
%TO.C,Q1*%
X102639900Y-82313000D02*
X104039900Y-82313000D01*
X104039900Y-79993000D02*
X102139900Y-79993000D01*
%TO.C,U5*%
X101372400Y-92455000D02*
X101372400Y-92205000D01*
X104672400Y-92205000D02*
X104672400Y-92455000D01*
X104672400Y-89405000D02*
X104672400Y-89155000D01*
X101372400Y-92455000D02*
X102037400Y-92455000D01*
X104007400Y-89155000D02*
X104672400Y-89155000D01*
X101372400Y-89155000D02*
X102037400Y-89155000D01*
X104007400Y-92455000D02*
X104672400Y-92455000D01*
%TO.C,U1*%
X134122900Y-84947000D02*
X134122900Y-85422000D01*
X138342900Y-81202000D02*
X137867900Y-81202000D01*
X138342900Y-81677000D02*
X138342900Y-81202000D01*
X138342900Y-85422000D02*
X137867900Y-85422000D01*
X138342900Y-84947000D02*
X138342900Y-85422000D01*
X134122900Y-81202000D02*
X134597900Y-81202000D01*
X134122900Y-81677000D02*
X134122900Y-81202000D01*
%TO.C,R23*%
X138536142Y-78183000D02*
X139010658Y-78183000D01*
X138536142Y-77138000D02*
X139010658Y-77138000D01*
%TO.C,R22*%
X135771658Y-77138000D02*
X135297142Y-77138000D01*
X135771658Y-78183000D02*
X135297142Y-78183000D01*
%TO.C,R21*%
X103424758Y-93127300D02*
X102950242Y-93127300D01*
X103424758Y-94172300D02*
X102950242Y-94172300D01*
%TO.C,R20*%
X106182900Y-90516942D02*
X106182900Y-90991458D01*
X107227900Y-90516942D02*
X107227900Y-90991458D01*
%TO.C,R19*%
X108957842Y-90438500D02*
X109432358Y-90438500D01*
X108957842Y-89393500D02*
X109432358Y-89393500D01*
%TO.C,R18*%
X125111742Y-92495900D02*
X125586258Y-92495900D01*
X125111742Y-91450900D02*
X125586258Y-91450900D01*
%TO.C,R17*%
X118613958Y-89952300D02*
X118139442Y-89952300D01*
X118613958Y-90997300D02*
X118139442Y-90997300D01*
%TO.C,R16*%
X130986000Y-90961442D02*
X130986000Y-91435958D01*
X132031000Y-90961442D02*
X132031000Y-91435958D01*
%TO.C,R15*%
X121708142Y-92889600D02*
X122182658Y-92889600D01*
X121708142Y-91844600D02*
X122182658Y-91844600D01*
%TO.C,R10*%
X106335300Y-77232742D02*
X106335300Y-77707258D01*
X107380300Y-77232742D02*
X107380300Y-77707258D01*
%TO.C,R9*%
X93940100Y-103115342D02*
X93940100Y-103589858D01*
X94985100Y-103115342D02*
X94985100Y-103589858D01*
%TO.C,R8*%
X115758700Y-76915742D02*
X115758700Y-77390258D01*
X116803700Y-76915742D02*
X116803700Y-77390258D01*
%TO.C,R7*%
X95591100Y-103115342D02*
X95591100Y-103589858D01*
X96636100Y-103115342D02*
X96636100Y-103589858D01*
%TO.C,R6*%
X88654658Y-100099600D02*
X88180142Y-100099600D01*
X88654658Y-101144600D02*
X88180142Y-101144600D01*
%TO.C,R5*%
X140286000Y-82431658D02*
X140286000Y-81957142D01*
X139241000Y-82431658D02*
X139241000Y-81957142D01*
%TO.C,R4*%
X135314458Y-86307400D02*
X134839942Y-86307400D01*
X135314458Y-87352400D02*
X134839942Y-87352400D01*
%TO.C,R3*%
X138451358Y-86332800D02*
X137976842Y-86332800D01*
X138451358Y-87377800D02*
X137976842Y-87377800D01*
%TO.C,R2*%
X99475558Y-82941900D02*
X99001042Y-82941900D01*
X99475558Y-83986900D02*
X99001042Y-83986900D01*
%TO.C,R1*%
X103603058Y-82929200D02*
X103128542Y-82929200D01*
X103603058Y-83974200D02*
X103128542Y-83974200D01*
%TO.C,Q4*%
X129690400Y-92778700D02*
X128230400Y-92778700D01*
X129690400Y-89618700D02*
X127530400Y-89618700D01*
X129690400Y-89618700D02*
X129690400Y-90548700D01*
X129690400Y-92778700D02*
X129690400Y-91848700D01*
%TO.C,Q2*%
X98563200Y-82338400D02*
X99963200Y-82338400D01*
X99963200Y-80018400D02*
X98063200Y-80018400D01*
%TO.C,L1*%
X101471600Y-88328300D02*
X104471600Y-88328300D01*
X101471600Y-85128300D02*
X104471600Y-85128300D01*
%TO.C,D11*%
X136973600Y-79882200D02*
X139458600Y-79882200D01*
X136973600Y-78512200D02*
X136973600Y-79882200D01*
X139458600Y-78512200D02*
X136973600Y-78512200D01*
%TO.C,D10*%
X133391900Y-79869500D02*
X135876900Y-79869500D01*
X133391900Y-78499500D02*
X133391900Y-79869500D01*
X135876900Y-78499500D02*
X133391900Y-78499500D01*
%TO.C,D9*%
X123727200Y-90982000D02*
X126212200Y-90982000D01*
X123727200Y-89612000D02*
X123727200Y-90982000D01*
X126212200Y-89612000D02*
X123727200Y-89612000D01*
%TO.C,D8*%
X117630700Y-89398200D02*
X117630700Y-85548200D01*
X119630700Y-89398200D02*
X119630700Y-85548200D01*
X117630700Y-89398200D02*
X119630700Y-89398200D01*
%TO.C,D7*%
X119955600Y-90982000D02*
X122440600Y-90982000D01*
X119955600Y-89612000D02*
X119955600Y-90982000D01*
X122440600Y-89612000D02*
X119955600Y-89612000D01*
%TO.C,D3*%
X86280000Y-99937100D02*
X83795000Y-99937100D01*
X86280000Y-101307100D02*
X86280000Y-99937100D01*
X83795000Y-101307100D02*
X86280000Y-101307100D01*
%TO.C,D2*%
X137780700Y-90471700D02*
X134830700Y-90471700D01*
X135380700Y-93571700D02*
X137780700Y-93571700D01*
%TO.C,D1*%
X134375800Y-87938100D02*
X138225800Y-87938100D01*
X134375800Y-89938100D02*
X138225800Y-89938100D01*
X134375800Y-87938100D02*
X134375800Y-89938100D01*
%TO.C,C12*%
X105712800Y-86854420D02*
X105712800Y-87135580D01*
X106732800Y-86854420D02*
X106732800Y-87135580D01*
%TO.C,C11*%
X110530100Y-87110180D02*
X110530100Y-86829020D01*
X109510100Y-87110180D02*
X109510100Y-86829020D01*
%TO.C,C10*%
X108663200Y-87123180D02*
X108663200Y-86842020D01*
X107643200Y-87123180D02*
X107643200Y-86842020D01*
%TO.C,C9*%
X109322180Y-91082400D02*
X109041020Y-91082400D01*
X109322180Y-92102400D02*
X109041020Y-92102400D01*
%TO.C,C8*%
X109041020Y-93816900D02*
X109322180Y-93816900D01*
X109041020Y-92796900D02*
X109322180Y-92796900D01*
%TO.C,C7*%
X98958980Y-89736200D02*
X98677820Y-89736200D01*
X98958980Y-90756200D02*
X98677820Y-90756200D01*
%TO.C,C5*%
X99481100Y-77458180D02*
X99481100Y-77177020D01*
X98461100Y-77458180D02*
X98461100Y-77177020D01*
%TO.C,C4*%
X87136700Y-103315380D02*
X87136700Y-103034220D01*
X86116700Y-103315380D02*
X86116700Y-103034220D01*
%TO.C,C3*%
X85600000Y-103327780D02*
X85600000Y-103046620D01*
X84580000Y-103327780D02*
X84580000Y-103046620D01*
%TO.C,C2*%
X92101280Y-100150200D02*
X91820120Y-100150200D01*
X92101280Y-101170200D02*
X91820120Y-101170200D01*
%TO.C,C1*%
X95377880Y-100086700D02*
X95096720Y-100086700D01*
X95377880Y-101106700D02*
X95096720Y-101106700D01*
%TO.C,REF\u002A\u002A*%
D11*
X144932566Y-75636780D02*
X144599233Y-75160590D01*
X144361138Y-75636780D02*
X144361138Y-74636780D01*
X144742090Y-74636780D01*
X144837328Y-74684400D01*
X144884947Y-74732019D01*
X144932566Y-74827257D01*
X144932566Y-74970114D01*
X144884947Y-75065352D01*
X144837328Y-75112971D01*
X144742090Y-75160590D01*
X144361138Y-75160590D01*
X145361138Y-75112971D02*
X145694471Y-75112971D01*
X145837328Y-75636780D02*
X145361138Y-75636780D01*
X145361138Y-74636780D01*
X145837328Y-74636780D01*
X146599233Y-75112971D02*
X146265900Y-75112971D01*
X146265900Y-75636780D02*
X146265900Y-74636780D01*
X146742090Y-74636780D01*
X147265900Y-74636780D02*
X147265900Y-74874876D01*
X147027804Y-74779638D02*
X147265900Y-74874876D01*
X147503995Y-74779638D01*
X147123042Y-75065352D02*
X147265900Y-74874876D01*
X147408757Y-75065352D01*
X148027804Y-74636780D02*
X148027804Y-74874876D01*
X147789709Y-74779638D02*
X148027804Y-74874876D01*
X148265900Y-74779638D01*
X147884947Y-75065352D02*
X148027804Y-74874876D01*
X148170661Y-75065352D01*
X78143266Y-99614380D02*
X77809933Y-99138190D01*
X77571838Y-99614380D02*
X77571838Y-98614380D01*
X77952790Y-98614380D01*
X78048028Y-98662000D01*
X78095647Y-98709619D01*
X78143266Y-98804857D01*
X78143266Y-98947714D01*
X78095647Y-99042952D01*
X78048028Y-99090571D01*
X77952790Y-99138190D01*
X77571838Y-99138190D01*
X78571838Y-99090571D02*
X78905171Y-99090571D01*
X79048028Y-99614380D02*
X78571838Y-99614380D01*
X78571838Y-98614380D01*
X79048028Y-98614380D01*
X79809933Y-99090571D02*
X79476600Y-99090571D01*
X79476600Y-99614380D02*
X79476600Y-98614380D01*
X79952790Y-98614380D01*
X80476600Y-98614380D02*
X80476600Y-98852476D01*
X80238504Y-98757238D02*
X80476600Y-98852476D01*
X80714695Y-98757238D01*
X80333742Y-99042952D02*
X80476600Y-98852476D01*
X80619457Y-99042952D01*
X81238504Y-98614380D02*
X81238504Y-98852476D01*
X81000409Y-98757238D02*
X81238504Y-98852476D01*
X81476600Y-98757238D01*
X81095647Y-99042952D02*
X81238504Y-98852476D01*
X81381361Y-99042952D01*
%TO.C,J10*%
X99126776Y-95902980D02*
X99126776Y-96617266D01*
X99079157Y-96760123D01*
X98983919Y-96855361D01*
X98841061Y-96902980D01*
X98745823Y-96902980D01*
X100126776Y-96902980D02*
X99555347Y-96902980D01*
X99841061Y-96902980D02*
X99841061Y-95902980D01*
X99745823Y-96045838D01*
X99650585Y-96141076D01*
X99555347Y-96188695D01*
X100745823Y-95902980D02*
X100841061Y-95902980D01*
X100936300Y-95950600D01*
X100983919Y-95998219D01*
X101031538Y-96093457D01*
X101079157Y-96283933D01*
X101079157Y-96522028D01*
X101031538Y-96712504D01*
X100983919Y-96807742D01*
X100936300Y-96855361D01*
X100841061Y-96902980D01*
X100745823Y-96902980D01*
X100650585Y-96855361D01*
X100602966Y-96807742D01*
X100555347Y-96712504D01*
X100507728Y-96522028D01*
X100507728Y-96283933D01*
X100555347Y-96093457D01*
X100602966Y-95998219D01*
X100650585Y-95950600D01*
X100745823Y-95902980D01*
%TO.C,J9*%
X77106980Y-77993833D02*
X77821266Y-77993833D01*
X77964123Y-78041452D01*
X78059361Y-78136690D01*
X78106980Y-78279547D01*
X78106980Y-78374785D01*
X78106980Y-77470023D02*
X78106980Y-77279547D01*
X78059361Y-77184309D01*
X78011742Y-77136690D01*
X77868885Y-77041452D01*
X77678409Y-76993833D01*
X77297457Y-76993833D01*
X77202219Y-77041452D01*
X77154600Y-77089071D01*
X77106980Y-77184309D01*
X77106980Y-77374785D01*
X77154600Y-77470023D01*
X77202219Y-77517642D01*
X77297457Y-77565261D01*
X77535552Y-77565261D01*
X77630790Y-77517642D01*
X77678409Y-77470023D01*
X77726028Y-77374785D01*
X77726028Y-77184309D01*
X77678409Y-77089071D01*
X77630790Y-77041452D01*
X77535552Y-76993833D01*
%TO.C,J8*%
X104323080Y-82134033D02*
X105037366Y-82134033D01*
X105180223Y-82181652D01*
X105275461Y-82276890D01*
X105323080Y-82419747D01*
X105323080Y-82514985D01*
X104751652Y-81514985D02*
X104704033Y-81610223D01*
X104656414Y-81657842D01*
X104561176Y-81705461D01*
X104513557Y-81705461D01*
X104418319Y-81657842D01*
X104370700Y-81610223D01*
X104323080Y-81514985D01*
X104323080Y-81324509D01*
X104370700Y-81229271D01*
X104418319Y-81181652D01*
X104513557Y-81134033D01*
X104561176Y-81134033D01*
X104656414Y-81181652D01*
X104704033Y-81229271D01*
X104751652Y-81324509D01*
X104751652Y-81514985D01*
X104799271Y-81610223D01*
X104846890Y-81657842D01*
X104942128Y-81705461D01*
X105132604Y-81705461D01*
X105227842Y-81657842D01*
X105275461Y-81610223D01*
X105323080Y-81514985D01*
X105323080Y-81324509D01*
X105275461Y-81229271D01*
X105227842Y-81181652D01*
X105132604Y-81134033D01*
X104942128Y-81134033D01*
X104846890Y-81181652D01*
X104799271Y-81229271D01*
X104751652Y-81324509D01*
%TO.C,J5*%
X140993880Y-88966633D02*
X141708166Y-88966633D01*
X141851023Y-89014252D01*
X141946261Y-89109490D01*
X141993880Y-89252347D01*
X141993880Y-89347585D01*
X140993880Y-88014252D02*
X140993880Y-88490442D01*
X141470071Y-88538061D01*
X141422452Y-88490442D01*
X141374833Y-88395204D01*
X141374833Y-88157109D01*
X141422452Y-88061871D01*
X141470071Y-88014252D01*
X141565309Y-87966633D01*
X141803404Y-87966633D01*
X141898642Y-88014252D01*
X141946261Y-88061871D01*
X141993880Y-88157109D01*
X141993880Y-88395204D01*
X141946261Y-88490442D01*
X141898642Y-88538061D01*
%TO.C,D6*%
X116348280Y-90095295D02*
X115348280Y-90095295D01*
X115348280Y-89857200D01*
X115395900Y-89714342D01*
X115491138Y-89619104D01*
X115586376Y-89571485D01*
X115776852Y-89523866D01*
X115919709Y-89523866D01*
X116110185Y-89571485D01*
X116205423Y-89619104D01*
X116300661Y-89714342D01*
X116348280Y-89857200D01*
X116348280Y-90095295D01*
X115348280Y-88666723D02*
X115348280Y-88857200D01*
X115395900Y-88952438D01*
X115443519Y-89000057D01*
X115586376Y-89095295D01*
X115776852Y-89142914D01*
X116157804Y-89142914D01*
X116253042Y-89095295D01*
X116300661Y-89047676D01*
X116348280Y-88952438D01*
X116348280Y-88761961D01*
X116300661Y-88666723D01*
X116253042Y-88619104D01*
X116157804Y-88571485D01*
X115919709Y-88571485D01*
X115824471Y-88619104D01*
X115776852Y-88666723D01*
X115729233Y-88761961D01*
X115729233Y-88952438D01*
X115776852Y-89047676D01*
X115824471Y-89095295D01*
X115919709Y-89142914D01*
%TO.C,R11*%
X114785380Y-86291657D02*
X114309190Y-86624990D01*
X114785380Y-86863085D02*
X113785380Y-86863085D01*
X113785380Y-86482133D01*
X113833000Y-86386895D01*
X113880619Y-86339276D01*
X113975857Y-86291657D01*
X114118714Y-86291657D01*
X114213952Y-86339276D01*
X114261571Y-86386895D01*
X114309190Y-86482133D01*
X114309190Y-86863085D01*
X114785380Y-85339276D02*
X114785380Y-85910704D01*
X114785380Y-85624990D02*
X113785380Y-85624990D01*
X113928238Y-85720228D01*
X114023476Y-85815466D01*
X114071095Y-85910704D01*
X114785380Y-84386895D02*
X114785380Y-84958323D01*
X114785380Y-84672609D02*
X113785380Y-84672609D01*
X113928238Y-84767847D01*
X114023476Y-84863085D01*
X114071095Y-84958323D01*
%TO.C,R14*%
X114721880Y-89987857D02*
X114245690Y-90321190D01*
X114721880Y-90559285D02*
X113721880Y-90559285D01*
X113721880Y-90178333D01*
X113769500Y-90083095D01*
X113817119Y-90035476D01*
X113912357Y-89987857D01*
X114055214Y-89987857D01*
X114150452Y-90035476D01*
X114198071Y-90083095D01*
X114245690Y-90178333D01*
X114245690Y-90559285D01*
X114721880Y-89035476D02*
X114721880Y-89606904D01*
X114721880Y-89321190D02*
X113721880Y-89321190D01*
X113864738Y-89416428D01*
X113959976Y-89511666D01*
X114007595Y-89606904D01*
X114055214Y-88178333D02*
X114721880Y-88178333D01*
X113674261Y-88416428D02*
X114388547Y-88654523D01*
X114388547Y-88035476D01*
%TO.C,Q3*%
X116623719Y-93021138D02*
X116576100Y-93116376D01*
X116480861Y-93211614D01*
X116338004Y-93354471D01*
X116290385Y-93449709D01*
X116290385Y-93544947D01*
X116528480Y-93497328D02*
X116480861Y-93592566D01*
X116385623Y-93687804D01*
X116195147Y-93735423D01*
X115861814Y-93735423D01*
X115671338Y-93687804D01*
X115576100Y-93592566D01*
X115528480Y-93497328D01*
X115528480Y-93306852D01*
X115576100Y-93211614D01*
X115671338Y-93116376D01*
X115861814Y-93068757D01*
X116195147Y-93068757D01*
X116385623Y-93116376D01*
X116480861Y-93211614D01*
X116528480Y-93306852D01*
X116528480Y-93497328D01*
X115528480Y-92735423D02*
X115528480Y-92116376D01*
X115909433Y-92449709D01*
X115909433Y-92306852D01*
X115957052Y-92211614D01*
X116004671Y-92163995D01*
X116099909Y-92116376D01*
X116338004Y-92116376D01*
X116433242Y-92163995D01*
X116480861Y-92211614D01*
X116528480Y-92306852D01*
X116528480Y-92592566D01*
X116480861Y-92687804D01*
X116433242Y-92735423D01*
%TO.C,D4*%
X116386380Y-86450395D02*
X115386380Y-86450395D01*
X115386380Y-86212300D01*
X115434000Y-86069442D01*
X115529238Y-85974204D01*
X115624476Y-85926585D01*
X115814952Y-85878966D01*
X115957809Y-85878966D01*
X116148285Y-85926585D01*
X116243523Y-85974204D01*
X116338761Y-86069442D01*
X116386380Y-86212300D01*
X116386380Y-86450395D01*
X115719714Y-85021823D02*
X116386380Y-85021823D01*
X115338761Y-85259919D02*
X116053047Y-85498014D01*
X116053047Y-84878966D01*
%TO.C,D5*%
X121153180Y-79693995D02*
X120153180Y-79693995D01*
X120153180Y-79455900D01*
X120200800Y-79313042D01*
X120296038Y-79217804D01*
X120391276Y-79170185D01*
X120581752Y-79122566D01*
X120724609Y-79122566D01*
X120915085Y-79170185D01*
X121010323Y-79217804D01*
X121105561Y-79313042D01*
X121153180Y-79455900D01*
X121153180Y-79693995D01*
X120153180Y-78217804D02*
X120153180Y-78693995D01*
X120629371Y-78741614D01*
X120581752Y-78693995D01*
X120534133Y-78598757D01*
X120534133Y-78360661D01*
X120581752Y-78265423D01*
X120629371Y-78217804D01*
X120724609Y-78170185D01*
X120962704Y-78170185D01*
X121057942Y-78217804D01*
X121105561Y-78265423D01*
X121153180Y-78360661D01*
X121153180Y-78598757D01*
X121105561Y-78693995D01*
X121057942Y-78741614D01*
%TO.C,R12*%
X117746542Y-86019880D02*
X117413209Y-85543690D01*
X117175114Y-86019880D02*
X117175114Y-85019880D01*
X117556066Y-85019880D01*
X117651304Y-85067500D01*
X117698923Y-85115119D01*
X117746542Y-85210357D01*
X117746542Y-85353214D01*
X117698923Y-85448452D01*
X117651304Y-85496071D01*
X117556066Y-85543690D01*
X117175114Y-85543690D01*
X118698923Y-86019880D02*
X118127495Y-86019880D01*
X118413209Y-86019880D02*
X118413209Y-85019880D01*
X118317971Y-85162738D01*
X118222733Y-85257976D01*
X118127495Y-85305595D01*
X119079876Y-85115119D02*
X119127495Y-85067500D01*
X119222733Y-85019880D01*
X119460828Y-85019880D01*
X119556066Y-85067500D01*
X119603685Y-85115119D01*
X119651304Y-85210357D01*
X119651304Y-85305595D01*
X119603685Y-85448452D01*
X119032257Y-86019880D01*
X119651304Y-86019880D01*
%TO.C,J4*%
X118892366Y-93947680D02*
X118892366Y-94661966D01*
X118844747Y-94804823D01*
X118749509Y-94900061D01*
X118606652Y-94947680D01*
X118511414Y-94947680D01*
X119797128Y-94281014D02*
X119797128Y-94947680D01*
X119559033Y-93900061D02*
X119320938Y-94614347D01*
X119939985Y-94614347D01*
%TO.C,J3*%
X130550966Y-93985780D02*
X130550966Y-94700066D01*
X130503347Y-94842923D01*
X130408109Y-94938161D01*
X130265252Y-94985780D01*
X130170014Y-94985780D01*
X130931919Y-93985780D02*
X131550966Y-93985780D01*
X131217633Y-94366733D01*
X131360490Y-94366733D01*
X131455728Y-94414352D01*
X131503347Y-94461971D01*
X131550966Y-94557209D01*
X131550966Y-94795304D01*
X131503347Y-94890542D01*
X131455728Y-94938161D01*
X131360490Y-94985780D01*
X131074776Y-94985780D01*
X130979538Y-94938161D01*
X130931919Y-94890542D01*
%TO.C,J2*%
X107322666Y-93909580D02*
X107322666Y-94623866D01*
X107275047Y-94766723D01*
X107179809Y-94861961D01*
X107036952Y-94909580D01*
X106941714Y-94909580D01*
X107751238Y-94004819D02*
X107798857Y-93957200D01*
X107894095Y-93909580D01*
X108132190Y-93909580D01*
X108227428Y-93957200D01*
X108275047Y-94004819D01*
X108322666Y-94100057D01*
X108322666Y-94195295D01*
X108275047Y-94338152D01*
X107703619Y-94909580D01*
X108322666Y-94909580D01*
%TO.C,J1*%
X142019066Y-94087380D02*
X142019066Y-94801666D01*
X141971447Y-94944523D01*
X141876209Y-95039761D01*
X141733352Y-95087380D01*
X141638114Y-95087380D01*
X143019066Y-95087380D02*
X142447638Y-95087380D01*
X142733352Y-95087380D02*
X142733352Y-94087380D01*
X142638114Y-94230238D01*
X142542876Y-94325476D01*
X142447638Y-94373095D01*
%TO.C,R13*%
X117924342Y-84191080D02*
X117591009Y-83714890D01*
X117352914Y-84191080D02*
X117352914Y-83191080D01*
X117733866Y-83191080D01*
X117829104Y-83238700D01*
X117876723Y-83286319D01*
X117924342Y-83381557D01*
X117924342Y-83524414D01*
X117876723Y-83619652D01*
X117829104Y-83667271D01*
X117733866Y-83714890D01*
X117352914Y-83714890D01*
X118876723Y-84191080D02*
X118305295Y-84191080D01*
X118591009Y-84191080D02*
X118591009Y-83191080D01*
X118495771Y-83333938D01*
X118400533Y-83429176D01*
X118305295Y-83476795D01*
X119210057Y-83191080D02*
X119829104Y-83191080D01*
X119495771Y-83572033D01*
X119638628Y-83572033D01*
X119733866Y-83619652D01*
X119781485Y-83667271D01*
X119829104Y-83762509D01*
X119829104Y-84000604D01*
X119781485Y-84095842D01*
X119733866Y-84143461D01*
X119638628Y-84191080D01*
X119352914Y-84191080D01*
X119257676Y-84143461D01*
X119210057Y-84095842D01*
%TO.C,U3*%
X125399895Y-76802180D02*
X125399895Y-77611704D01*
X125447514Y-77706942D01*
X125495133Y-77754561D01*
X125590371Y-77802180D01*
X125780847Y-77802180D01*
X125876085Y-77754561D01*
X125923704Y-77706942D01*
X125971323Y-77611704D01*
X125971323Y-76802180D01*
X126352276Y-76802180D02*
X126971323Y-76802180D01*
X126637990Y-77183133D01*
X126780847Y-77183133D01*
X126876085Y-77230752D01*
X126923704Y-77278371D01*
X126971323Y-77373609D01*
X126971323Y-77611704D01*
X126923704Y-77706942D01*
X126876085Y-77754561D01*
X126780847Y-77802180D01*
X126495133Y-77802180D01*
X126399895Y-77754561D01*
X126352276Y-77706942D01*
%TO.C,J7*%
X105947780Y-77625533D02*
X106662066Y-77625533D01*
X106804923Y-77673152D01*
X106900161Y-77768390D01*
X106947780Y-77911247D01*
X106947780Y-78006485D01*
X105947780Y-77244580D02*
X105947780Y-76577914D01*
X106947780Y-77006485D01*
%TO.C,J6*%
X86390680Y-103749433D02*
X87104966Y-103749433D01*
X87247823Y-103797052D01*
X87343061Y-103892290D01*
X87390680Y-104035147D01*
X87390680Y-104130385D01*
X86390680Y-102844671D02*
X86390680Y-103035147D01*
X86438300Y-103130385D01*
X86485919Y-103178004D01*
X86628776Y-103273242D01*
X86819252Y-103320861D01*
X87200204Y-103320861D01*
X87295442Y-103273242D01*
X87343061Y-103225623D01*
X87390680Y-103130385D01*
X87390680Y-102939909D01*
X87343061Y-102844671D01*
X87295442Y-102797052D01*
X87200204Y-102749433D01*
X86962109Y-102749433D01*
X86866871Y-102797052D01*
X86819252Y-102844671D01*
X86771633Y-102939909D01*
X86771633Y-103130385D01*
X86819252Y-103225623D01*
X86866871Y-103273242D01*
X86962109Y-103320861D01*
%TO.C,U2*%
X93761395Y-99762480D02*
X93761395Y-100572004D01*
X93809014Y-100667242D01*
X93856633Y-100714861D01*
X93951871Y-100762480D01*
X94142347Y-100762480D01*
X94237585Y-100714861D01*
X94285204Y-100667242D01*
X94332823Y-100572004D01*
X94332823Y-99762480D01*
X94761395Y-99857719D02*
X94809014Y-99810100D01*
X94904252Y-99762480D01*
X95142347Y-99762480D01*
X95237585Y-99810100D01*
X95285204Y-99857719D01*
X95332823Y-99952957D01*
X95332823Y-100048195D01*
X95285204Y-100191052D01*
X94713776Y-100762480D01*
X95332823Y-100762480D01*
%TO.C,C6*%
X99058433Y-93194142D02*
X99010814Y-93241761D01*
X98867957Y-93289380D01*
X98772719Y-93289380D01*
X98629861Y-93241761D01*
X98534623Y-93146523D01*
X98487004Y-93051285D01*
X98439385Y-92860809D01*
X98439385Y-92717952D01*
X98487004Y-92527476D01*
X98534623Y-92432238D01*
X98629861Y-92337000D01*
X98772719Y-92289380D01*
X98867957Y-92289380D01*
X99010814Y-92337000D01*
X99058433Y-92384619D01*
X99915576Y-92289380D02*
X99725100Y-92289380D01*
X99629861Y-92337000D01*
X99582242Y-92384619D01*
X99487004Y-92527476D01*
X99439385Y-92717952D01*
X99439385Y-93098904D01*
X99487004Y-93194142D01*
X99534623Y-93241761D01*
X99629861Y-93289380D01*
X99820338Y-93289380D01*
X99915576Y-93241761D01*
X99963195Y-93194142D01*
X100010814Y-93098904D01*
X100010814Y-92860809D01*
X99963195Y-92765571D01*
X99915576Y-92717952D01*
X99820338Y-92670333D01*
X99629861Y-92670333D01*
X99534623Y-92717952D01*
X99487004Y-92765571D01*
X99439385Y-92860809D01*
%TO.C,R25*%
X109720642Y-78145880D02*
X109387309Y-77669690D01*
X109149214Y-78145880D02*
X109149214Y-77145880D01*
X109530166Y-77145880D01*
X109625404Y-77193500D01*
X109673023Y-77241119D01*
X109720642Y-77336357D01*
X109720642Y-77479214D01*
X109673023Y-77574452D01*
X109625404Y-77622071D01*
X109530166Y-77669690D01*
X109149214Y-77669690D01*
X110101595Y-77241119D02*
X110149214Y-77193500D01*
X110244452Y-77145880D01*
X110482547Y-77145880D01*
X110577785Y-77193500D01*
X110625404Y-77241119D01*
X110673023Y-77336357D01*
X110673023Y-77431595D01*
X110625404Y-77574452D01*
X110053976Y-78145880D01*
X110673023Y-78145880D01*
X111577785Y-77145880D02*
X111101595Y-77145880D01*
X111053976Y-77622071D01*
X111101595Y-77574452D01*
X111196833Y-77526833D01*
X111434928Y-77526833D01*
X111530166Y-77574452D01*
X111577785Y-77622071D01*
X111625404Y-77717309D01*
X111625404Y-77955404D01*
X111577785Y-78050642D01*
X111530166Y-78098261D01*
X111434928Y-78145880D01*
X111196833Y-78145880D01*
X111101595Y-78098261D01*
X111053976Y-78050642D01*
%TO.C,R24*%
X109732842Y-79847680D02*
X109399509Y-79371490D01*
X109161414Y-79847680D02*
X109161414Y-78847680D01*
X109542366Y-78847680D01*
X109637604Y-78895300D01*
X109685223Y-78942919D01*
X109732842Y-79038157D01*
X109732842Y-79181014D01*
X109685223Y-79276252D01*
X109637604Y-79323871D01*
X109542366Y-79371490D01*
X109161414Y-79371490D01*
X110113795Y-78942919D02*
X110161414Y-78895300D01*
X110256652Y-78847680D01*
X110494747Y-78847680D01*
X110589985Y-78895300D01*
X110637604Y-78942919D01*
X110685223Y-79038157D01*
X110685223Y-79133395D01*
X110637604Y-79276252D01*
X110066176Y-79847680D01*
X110685223Y-79847680D01*
X111542366Y-79181014D02*
X111542366Y-79847680D01*
X111304271Y-78800061D02*
X111066176Y-79514347D01*
X111685223Y-79514347D01*
%TO.C,D13*%
X112476114Y-78184780D02*
X112476114Y-77184780D01*
X112714209Y-77184780D01*
X112857066Y-77232400D01*
X112952304Y-77327638D01*
X112999923Y-77422876D01*
X113047542Y-77613352D01*
X113047542Y-77756209D01*
X112999923Y-77946685D01*
X112952304Y-78041923D01*
X112857066Y-78137161D01*
X112714209Y-78184780D01*
X112476114Y-78184780D01*
X113999923Y-78184780D02*
X113428495Y-78184780D01*
X113714209Y-78184780D02*
X113714209Y-77184780D01*
X113618971Y-77327638D01*
X113523733Y-77422876D01*
X113428495Y-77470495D01*
X114333257Y-77184780D02*
X114952304Y-77184780D01*
X114618971Y-77565733D01*
X114761828Y-77565733D01*
X114857066Y-77613352D01*
X114904685Y-77660971D01*
X114952304Y-77756209D01*
X114952304Y-77994304D01*
X114904685Y-78089542D01*
X114857066Y-78137161D01*
X114761828Y-78184780D01*
X114476114Y-78184780D01*
X114380876Y-78137161D01*
X114333257Y-78089542D01*
%TO.C,D12*%
X112475814Y-79797680D02*
X112475814Y-78797680D01*
X112713909Y-78797680D01*
X112856766Y-78845300D01*
X112952004Y-78940538D01*
X112999623Y-79035776D01*
X113047242Y-79226252D01*
X113047242Y-79369109D01*
X112999623Y-79559585D01*
X112952004Y-79654823D01*
X112856766Y-79750061D01*
X112713909Y-79797680D01*
X112475814Y-79797680D01*
X113999623Y-79797680D02*
X113428195Y-79797680D01*
X113713909Y-79797680D02*
X113713909Y-78797680D01*
X113618671Y-78940538D01*
X113523433Y-79035776D01*
X113428195Y-79083395D01*
X114380576Y-78892919D02*
X114428195Y-78845300D01*
X114523433Y-78797680D01*
X114761528Y-78797680D01*
X114856766Y-78845300D01*
X114904385Y-78892919D01*
X114952004Y-78988157D01*
X114952004Y-79083395D01*
X114904385Y-79226252D01*
X114332957Y-79797680D01*
X114952004Y-79797680D01*
%TO.C,Q1*%
X103244661Y-79700619D02*
X103149423Y-79653000D01*
X103054185Y-79557761D01*
X102911328Y-79414904D01*
X102816090Y-79367285D01*
X102720852Y-79367285D01*
X102768471Y-79605380D02*
X102673233Y-79557761D01*
X102577995Y-79462523D01*
X102530376Y-79272047D01*
X102530376Y-78938714D01*
X102577995Y-78748238D01*
X102673233Y-78653000D01*
X102768471Y-78605380D01*
X102958947Y-78605380D01*
X103054185Y-78653000D01*
X103149423Y-78748238D01*
X103197042Y-78938714D01*
X103197042Y-79272047D01*
X103149423Y-79462523D01*
X103054185Y-79557761D01*
X102958947Y-79605380D01*
X102768471Y-79605380D01*
X104149423Y-79605380D02*
X103577995Y-79605380D01*
X103863709Y-79605380D02*
X103863709Y-78605380D01*
X103768471Y-78748238D01*
X103673233Y-78843476D01*
X103577995Y-78891095D01*
%TO.C,U5*%
X102260495Y-87457380D02*
X102260495Y-88266904D01*
X102308114Y-88362142D01*
X102355733Y-88409761D01*
X102450971Y-88457380D01*
X102641447Y-88457380D01*
X102736685Y-88409761D01*
X102784304Y-88362142D01*
X102831923Y-88266904D01*
X102831923Y-87457380D01*
X103784304Y-87457380D02*
X103308114Y-87457380D01*
X103260495Y-87933571D01*
X103308114Y-87885952D01*
X103403352Y-87838333D01*
X103641447Y-87838333D01*
X103736685Y-87885952D01*
X103784304Y-87933571D01*
X103831923Y-88028809D01*
X103831923Y-88266904D01*
X103784304Y-88362142D01*
X103736685Y-88409761D01*
X103641447Y-88457380D01*
X103403352Y-88457380D01*
X103308114Y-88409761D01*
X103260495Y-88362142D01*
%TO.C,U1*%
X132385280Y-84073904D02*
X133194804Y-84073904D01*
X133290042Y-84026285D01*
X133337661Y-83978666D01*
X133385280Y-83883428D01*
X133385280Y-83692952D01*
X133337661Y-83597714D01*
X133290042Y-83550095D01*
X133194804Y-83502476D01*
X132385280Y-83502476D01*
X133385280Y-82502476D02*
X133385280Y-83073904D01*
X133385280Y-82788190D02*
X132385280Y-82788190D01*
X132528138Y-82883428D01*
X132623376Y-82978666D01*
X132670995Y-83073904D01*
%TO.C,R23*%
X138130542Y-76682880D02*
X137797209Y-76206690D01*
X137559114Y-76682880D02*
X137559114Y-75682880D01*
X137940066Y-75682880D01*
X138035304Y-75730500D01*
X138082923Y-75778119D01*
X138130542Y-75873357D01*
X138130542Y-76016214D01*
X138082923Y-76111452D01*
X138035304Y-76159071D01*
X137940066Y-76206690D01*
X137559114Y-76206690D01*
X138511495Y-75778119D02*
X138559114Y-75730500D01*
X138654352Y-75682880D01*
X138892447Y-75682880D01*
X138987685Y-75730500D01*
X139035304Y-75778119D01*
X139082923Y-75873357D01*
X139082923Y-75968595D01*
X139035304Y-76111452D01*
X138463876Y-76682880D01*
X139082923Y-76682880D01*
X139416257Y-75682880D02*
X140035304Y-75682880D01*
X139701971Y-76063833D01*
X139844828Y-76063833D01*
X139940066Y-76111452D01*
X139987685Y-76159071D01*
X140035304Y-76254309D01*
X140035304Y-76492404D01*
X139987685Y-76587642D01*
X139940066Y-76635261D01*
X139844828Y-76682880D01*
X139559114Y-76682880D01*
X139463876Y-76635261D01*
X139416257Y-76587642D01*
%TO.C,R22*%
X134891542Y-79542880D02*
X134558209Y-79066690D01*
X134320114Y-79542880D02*
X134320114Y-78542880D01*
X134701066Y-78542880D01*
X134796304Y-78590500D01*
X134843923Y-78638119D01*
X134891542Y-78733357D01*
X134891542Y-78876214D01*
X134843923Y-78971452D01*
X134796304Y-79019071D01*
X134701066Y-79066690D01*
X134320114Y-79066690D01*
X135272495Y-78638119D02*
X135320114Y-78590500D01*
X135415352Y-78542880D01*
X135653447Y-78542880D01*
X135748685Y-78590500D01*
X135796304Y-78638119D01*
X135843923Y-78733357D01*
X135843923Y-78828595D01*
X135796304Y-78971452D01*
X135224876Y-79542880D01*
X135843923Y-79542880D01*
X136224876Y-78638119D02*
X136272495Y-78590500D01*
X136367733Y-78542880D01*
X136605828Y-78542880D01*
X136701066Y-78590500D01*
X136748685Y-78638119D01*
X136796304Y-78733357D01*
X136796304Y-78828595D01*
X136748685Y-78971452D01*
X136177257Y-79542880D01*
X136796304Y-79542880D01*
%TO.C,R21*%
X102544642Y-95532180D02*
X102211309Y-95055990D01*
X101973214Y-95532180D02*
X101973214Y-94532180D01*
X102354166Y-94532180D01*
X102449404Y-94579800D01*
X102497023Y-94627419D01*
X102544642Y-94722657D01*
X102544642Y-94865514D01*
X102497023Y-94960752D01*
X102449404Y-95008371D01*
X102354166Y-95055990D01*
X101973214Y-95055990D01*
X102925595Y-94627419D02*
X102973214Y-94579800D01*
X103068452Y-94532180D01*
X103306547Y-94532180D01*
X103401785Y-94579800D01*
X103449404Y-94627419D01*
X103497023Y-94722657D01*
X103497023Y-94817895D01*
X103449404Y-94960752D01*
X102877976Y-95532180D01*
X103497023Y-95532180D01*
X104449404Y-95532180D02*
X103877976Y-95532180D01*
X104163690Y-95532180D02*
X104163690Y-94532180D01*
X104068452Y-94675038D01*
X103973214Y-94770276D01*
X103877976Y-94817895D01*
%TO.C,R20*%
X108587780Y-91397057D02*
X108111590Y-91730390D01*
X108587780Y-91968485D02*
X107587780Y-91968485D01*
X107587780Y-91587533D01*
X107635400Y-91492295D01*
X107683019Y-91444676D01*
X107778257Y-91397057D01*
X107921114Y-91397057D01*
X108016352Y-91444676D01*
X108063971Y-91492295D01*
X108111590Y-91587533D01*
X108111590Y-91968485D01*
X107683019Y-91016104D02*
X107635400Y-90968485D01*
X107587780Y-90873247D01*
X107587780Y-90635152D01*
X107635400Y-90539914D01*
X107683019Y-90492295D01*
X107778257Y-90444676D01*
X107873495Y-90444676D01*
X108016352Y-90492295D01*
X108587780Y-91063723D01*
X108587780Y-90444676D01*
X107587780Y-89825628D02*
X107587780Y-89730390D01*
X107635400Y-89635152D01*
X107683019Y-89587533D01*
X107778257Y-89539914D01*
X107968733Y-89492295D01*
X108206828Y-89492295D01*
X108397304Y-89539914D01*
X108492542Y-89587533D01*
X108540161Y-89635152D01*
X108587780Y-89730390D01*
X108587780Y-89825628D01*
X108540161Y-89920866D01*
X108492542Y-89968485D01*
X108397304Y-90016104D01*
X108206828Y-90063723D01*
X107968733Y-90063723D01*
X107778257Y-90016104D01*
X107683019Y-89968485D01*
X107635400Y-89920866D01*
X107587780Y-89825628D01*
%TO.C,R19*%
X108552242Y-88938380D02*
X108218909Y-88462190D01*
X107980814Y-88938380D02*
X107980814Y-87938380D01*
X108361766Y-87938380D01*
X108457004Y-87986000D01*
X108504623Y-88033619D01*
X108552242Y-88128857D01*
X108552242Y-88271714D01*
X108504623Y-88366952D01*
X108457004Y-88414571D01*
X108361766Y-88462190D01*
X107980814Y-88462190D01*
X109504623Y-88938380D02*
X108933195Y-88938380D01*
X109218909Y-88938380D02*
X109218909Y-87938380D01*
X109123671Y-88081238D01*
X109028433Y-88176476D01*
X108933195Y-88224095D01*
X109980814Y-88938380D02*
X110171290Y-88938380D01*
X110266528Y-88890761D01*
X110314147Y-88843142D01*
X110409385Y-88700285D01*
X110457004Y-88509809D01*
X110457004Y-88128857D01*
X110409385Y-88033619D01*
X110361766Y-87986000D01*
X110266528Y-87938380D01*
X110076052Y-87938380D01*
X109980814Y-87986000D01*
X109933195Y-88033619D01*
X109885576Y-88128857D01*
X109885576Y-88366952D01*
X109933195Y-88462190D01*
X109980814Y-88509809D01*
X110076052Y-88557428D01*
X110266528Y-88557428D01*
X110361766Y-88509809D01*
X110409385Y-88462190D01*
X110457004Y-88366952D01*
%TO.C,R18*%
X124706142Y-90995780D02*
X124372809Y-90519590D01*
X124134714Y-90995780D02*
X124134714Y-89995780D01*
X124515666Y-89995780D01*
X124610904Y-90043400D01*
X124658523Y-90091019D01*
X124706142Y-90186257D01*
X124706142Y-90329114D01*
X124658523Y-90424352D01*
X124610904Y-90471971D01*
X124515666Y-90519590D01*
X124134714Y-90519590D01*
X125658523Y-90995780D02*
X125087095Y-90995780D01*
X125372809Y-90995780D02*
X125372809Y-89995780D01*
X125277571Y-90138638D01*
X125182333Y-90233876D01*
X125087095Y-90281495D01*
X126229952Y-90424352D02*
X126134714Y-90376733D01*
X126087095Y-90329114D01*
X126039476Y-90233876D01*
X126039476Y-90186257D01*
X126087095Y-90091019D01*
X126134714Y-90043400D01*
X126229952Y-89995780D01*
X126420428Y-89995780D01*
X126515666Y-90043400D01*
X126563285Y-90091019D01*
X126610904Y-90186257D01*
X126610904Y-90233876D01*
X126563285Y-90329114D01*
X126515666Y-90376733D01*
X126420428Y-90424352D01*
X126229952Y-90424352D01*
X126134714Y-90471971D01*
X126087095Y-90519590D01*
X126039476Y-90614828D01*
X126039476Y-90805304D01*
X126087095Y-90900542D01*
X126134714Y-90948161D01*
X126229952Y-90995780D01*
X126420428Y-90995780D01*
X126515666Y-90948161D01*
X126563285Y-90900542D01*
X126610904Y-90805304D01*
X126610904Y-90614828D01*
X126563285Y-90519590D01*
X126515666Y-90471971D01*
X126420428Y-90424352D01*
%TO.C,R17*%
X117733842Y-92357180D02*
X117400509Y-91880990D01*
X117162414Y-92357180D02*
X117162414Y-91357180D01*
X117543366Y-91357180D01*
X117638604Y-91404800D01*
X117686223Y-91452419D01*
X117733842Y-91547657D01*
X117733842Y-91690514D01*
X117686223Y-91785752D01*
X117638604Y-91833371D01*
X117543366Y-91880990D01*
X117162414Y-91880990D01*
X118686223Y-92357180D02*
X118114795Y-92357180D01*
X118400509Y-92357180D02*
X118400509Y-91357180D01*
X118305271Y-91500038D01*
X118210033Y-91595276D01*
X118114795Y-91642895D01*
X119019557Y-91357180D02*
X119686223Y-91357180D01*
X119257652Y-92357180D01*
%TO.C,R16*%
X133390880Y-91841557D02*
X132914690Y-92174890D01*
X133390880Y-92412985D02*
X132390880Y-92412985D01*
X132390880Y-92032033D01*
X132438500Y-91936795D01*
X132486119Y-91889176D01*
X132581357Y-91841557D01*
X132724214Y-91841557D01*
X132819452Y-91889176D01*
X132867071Y-91936795D01*
X132914690Y-92032033D01*
X132914690Y-92412985D01*
X133390880Y-90889176D02*
X133390880Y-91460604D01*
X133390880Y-91174890D02*
X132390880Y-91174890D01*
X132533738Y-91270128D01*
X132628976Y-91365366D01*
X132676595Y-91460604D01*
X132390880Y-90032033D02*
X132390880Y-90222509D01*
X132438500Y-90317747D01*
X132486119Y-90365366D01*
X132628976Y-90460604D01*
X132819452Y-90508223D01*
X133200404Y-90508223D01*
X133295642Y-90460604D01*
X133343261Y-90412985D01*
X133390880Y-90317747D01*
X133390880Y-90127271D01*
X133343261Y-90032033D01*
X133295642Y-89984414D01*
X133200404Y-89936795D01*
X132962309Y-89936795D01*
X132867071Y-89984414D01*
X132819452Y-90032033D01*
X132771833Y-90127271D01*
X132771833Y-90317747D01*
X132819452Y-90412985D01*
X132867071Y-90460604D01*
X132962309Y-90508223D01*
%TO.C,R15*%
X121302542Y-91389480D02*
X120969209Y-90913290D01*
X120731114Y-91389480D02*
X120731114Y-90389480D01*
X121112066Y-90389480D01*
X121207304Y-90437100D01*
X121254923Y-90484719D01*
X121302542Y-90579957D01*
X121302542Y-90722814D01*
X121254923Y-90818052D01*
X121207304Y-90865671D01*
X121112066Y-90913290D01*
X120731114Y-90913290D01*
X122254923Y-91389480D02*
X121683495Y-91389480D01*
X121969209Y-91389480D02*
X121969209Y-90389480D01*
X121873971Y-90532338D01*
X121778733Y-90627576D01*
X121683495Y-90675195D01*
X123159685Y-90389480D02*
X122683495Y-90389480D01*
X122635876Y-90865671D01*
X122683495Y-90818052D01*
X122778733Y-90770433D01*
X123016828Y-90770433D01*
X123112066Y-90818052D01*
X123159685Y-90865671D01*
X123207304Y-90960909D01*
X123207304Y-91199004D01*
X123159685Y-91294242D01*
X123112066Y-91341861D01*
X123016828Y-91389480D01*
X122778733Y-91389480D01*
X122683495Y-91341861D01*
X122635876Y-91294242D01*
%TO.C,R10*%
X108740180Y-78112857D02*
X108263990Y-78446190D01*
X108740180Y-78684285D02*
X107740180Y-78684285D01*
X107740180Y-78303333D01*
X107787800Y-78208095D01*
X107835419Y-78160476D01*
X107930657Y-78112857D01*
X108073514Y-78112857D01*
X108168752Y-78160476D01*
X108216371Y-78208095D01*
X108263990Y-78303333D01*
X108263990Y-78684285D01*
X108740180Y-77160476D02*
X108740180Y-77731904D01*
X108740180Y-77446190D02*
X107740180Y-77446190D01*
X107883038Y-77541428D01*
X107978276Y-77636666D01*
X108025895Y-77731904D01*
X107740180Y-76541428D02*
X107740180Y-76446190D01*
X107787800Y-76350952D01*
X107835419Y-76303333D01*
X107930657Y-76255714D01*
X108121133Y-76208095D01*
X108359228Y-76208095D01*
X108549704Y-76255714D01*
X108644942Y-76303333D01*
X108692561Y-76350952D01*
X108740180Y-76446190D01*
X108740180Y-76541428D01*
X108692561Y-76636666D01*
X108644942Y-76684285D01*
X108549704Y-76731904D01*
X108359228Y-76779523D01*
X108121133Y-76779523D01*
X107930657Y-76731904D01*
X107835419Y-76684285D01*
X107787800Y-76636666D01*
X107740180Y-76541428D01*
%TO.C,R9*%
X96344980Y-103519266D02*
X95868790Y-103852600D01*
X96344980Y-104090695D02*
X95344980Y-104090695D01*
X95344980Y-103709742D01*
X95392600Y-103614504D01*
X95440219Y-103566885D01*
X95535457Y-103519266D01*
X95678314Y-103519266D01*
X95773552Y-103566885D01*
X95821171Y-103614504D01*
X95868790Y-103709742D01*
X95868790Y-104090695D01*
X96344980Y-103043076D02*
X96344980Y-102852600D01*
X96297361Y-102757361D01*
X96249742Y-102709742D01*
X96106885Y-102614504D01*
X95916409Y-102566885D01*
X95535457Y-102566885D01*
X95440219Y-102614504D01*
X95392600Y-102662123D01*
X95344980Y-102757361D01*
X95344980Y-102947838D01*
X95392600Y-103043076D01*
X95440219Y-103090695D01*
X95535457Y-103138314D01*
X95773552Y-103138314D01*
X95868790Y-103090695D01*
X95916409Y-103043076D01*
X95964028Y-102947838D01*
X95964028Y-102757361D01*
X95916409Y-102662123D01*
X95868790Y-102614504D01*
X95773552Y-102566885D01*
%TO.C,R8*%
X118163580Y-77319666D02*
X117687390Y-77653000D01*
X118163580Y-77891095D02*
X117163580Y-77891095D01*
X117163580Y-77510142D01*
X117211200Y-77414904D01*
X117258819Y-77367285D01*
X117354057Y-77319666D01*
X117496914Y-77319666D01*
X117592152Y-77367285D01*
X117639771Y-77414904D01*
X117687390Y-77510142D01*
X117687390Y-77891095D01*
X117592152Y-76748238D02*
X117544533Y-76843476D01*
X117496914Y-76891095D01*
X117401676Y-76938714D01*
X117354057Y-76938714D01*
X117258819Y-76891095D01*
X117211200Y-76843476D01*
X117163580Y-76748238D01*
X117163580Y-76557761D01*
X117211200Y-76462523D01*
X117258819Y-76414904D01*
X117354057Y-76367285D01*
X117401676Y-76367285D01*
X117496914Y-76414904D01*
X117544533Y-76462523D01*
X117592152Y-76557761D01*
X117592152Y-76748238D01*
X117639771Y-76843476D01*
X117687390Y-76891095D01*
X117782628Y-76938714D01*
X117973104Y-76938714D01*
X118068342Y-76891095D01*
X118115961Y-76843476D01*
X118163580Y-76748238D01*
X118163580Y-76557761D01*
X118115961Y-76462523D01*
X118068342Y-76414904D01*
X117973104Y-76367285D01*
X117782628Y-76367285D01*
X117687390Y-76414904D01*
X117639771Y-76462523D01*
X117592152Y-76557761D01*
%TO.C,R7*%
X97995980Y-103519266D02*
X97519790Y-103852600D01*
X97995980Y-104090695D02*
X96995980Y-104090695D01*
X96995980Y-103709742D01*
X97043600Y-103614504D01*
X97091219Y-103566885D01*
X97186457Y-103519266D01*
X97329314Y-103519266D01*
X97424552Y-103566885D01*
X97472171Y-103614504D01*
X97519790Y-103709742D01*
X97519790Y-104090695D01*
X96995980Y-103185933D02*
X96995980Y-102519266D01*
X97995980Y-102947838D01*
%TO.C,R6*%
X88250733Y-102504480D02*
X87917400Y-102028290D01*
X87679304Y-102504480D02*
X87679304Y-101504480D01*
X88060257Y-101504480D01*
X88155495Y-101552100D01*
X88203114Y-101599719D01*
X88250733Y-101694957D01*
X88250733Y-101837814D01*
X88203114Y-101933052D01*
X88155495Y-101980671D01*
X88060257Y-102028290D01*
X87679304Y-102028290D01*
X89107876Y-101504480D02*
X88917400Y-101504480D01*
X88822161Y-101552100D01*
X88774542Y-101599719D01*
X88679304Y-101742576D01*
X88631685Y-101933052D01*
X88631685Y-102314004D01*
X88679304Y-102409242D01*
X88726923Y-102456861D01*
X88822161Y-102504480D01*
X89012638Y-102504480D01*
X89107876Y-102456861D01*
X89155495Y-102409242D01*
X89203114Y-102314004D01*
X89203114Y-102075909D01*
X89155495Y-101980671D01*
X89107876Y-101933052D01*
X89012638Y-101885433D01*
X88822161Y-101885433D01*
X88726923Y-101933052D01*
X88679304Y-101980671D01*
X88631685Y-102075909D01*
%TO.C,R5*%
X138785880Y-82361066D02*
X138309690Y-82694400D01*
X138785880Y-82932495D02*
X137785880Y-82932495D01*
X137785880Y-82551542D01*
X137833500Y-82456304D01*
X137881119Y-82408685D01*
X137976357Y-82361066D01*
X138119214Y-82361066D01*
X138214452Y-82408685D01*
X138262071Y-82456304D01*
X138309690Y-82551542D01*
X138309690Y-82932495D01*
X137785880Y-81456304D02*
X137785880Y-81932495D01*
X138262071Y-81980114D01*
X138214452Y-81932495D01*
X138166833Y-81837257D01*
X138166833Y-81599161D01*
X138214452Y-81503923D01*
X138262071Y-81456304D01*
X138357309Y-81408685D01*
X138595404Y-81408685D01*
X138690642Y-81456304D01*
X138738261Y-81503923D01*
X138785880Y-81599161D01*
X138785880Y-81837257D01*
X138738261Y-81932495D01*
X138690642Y-81980114D01*
%TO.C,R4*%
X134910533Y-88712280D02*
X134577200Y-88236090D01*
X134339104Y-88712280D02*
X134339104Y-87712280D01*
X134720057Y-87712280D01*
X134815295Y-87759900D01*
X134862914Y-87807519D01*
X134910533Y-87902757D01*
X134910533Y-88045614D01*
X134862914Y-88140852D01*
X134815295Y-88188471D01*
X134720057Y-88236090D01*
X134339104Y-88236090D01*
X135767676Y-88045614D02*
X135767676Y-88712280D01*
X135529580Y-87664661D02*
X135291485Y-88378947D01*
X135910533Y-88378947D01*
%TO.C,R3*%
X138047433Y-88737680D02*
X137714100Y-88261490D01*
X137476004Y-88737680D02*
X137476004Y-87737680D01*
X137856957Y-87737680D01*
X137952195Y-87785300D01*
X137999814Y-87832919D01*
X138047433Y-87928157D01*
X138047433Y-88071014D01*
X137999814Y-88166252D01*
X137952195Y-88213871D01*
X137856957Y-88261490D01*
X137476004Y-88261490D01*
X138380766Y-87737680D02*
X138999814Y-87737680D01*
X138666480Y-88118633D01*
X138809338Y-88118633D01*
X138904576Y-88166252D01*
X138952195Y-88213871D01*
X138999814Y-88309109D01*
X138999814Y-88547204D01*
X138952195Y-88642442D01*
X138904576Y-88690061D01*
X138809338Y-88737680D01*
X138523623Y-88737680D01*
X138428385Y-88690061D01*
X138380766Y-88642442D01*
%TO.C,R2*%
X99071633Y-85346780D02*
X98738300Y-84870590D01*
X98500204Y-85346780D02*
X98500204Y-84346780D01*
X98881157Y-84346780D01*
X98976395Y-84394400D01*
X99024014Y-84442019D01*
X99071633Y-84537257D01*
X99071633Y-84680114D01*
X99024014Y-84775352D01*
X98976395Y-84822971D01*
X98881157Y-84870590D01*
X98500204Y-84870590D01*
X99452585Y-84442019D02*
X99500204Y-84394400D01*
X99595442Y-84346780D01*
X99833538Y-84346780D01*
X99928776Y-84394400D01*
X99976395Y-84442019D01*
X100024014Y-84537257D01*
X100024014Y-84632495D01*
X99976395Y-84775352D01*
X99404966Y-85346780D01*
X100024014Y-85346780D01*
%TO.C,R1*%
X103199133Y-85334080D02*
X102865800Y-84857890D01*
X102627704Y-85334080D02*
X102627704Y-84334080D01*
X103008657Y-84334080D01*
X103103895Y-84381700D01*
X103151514Y-84429319D01*
X103199133Y-84524557D01*
X103199133Y-84667414D01*
X103151514Y-84762652D01*
X103103895Y-84810271D01*
X103008657Y-84857890D01*
X102627704Y-84857890D01*
X104151514Y-85334080D02*
X103580085Y-85334080D01*
X103865800Y-85334080D02*
X103865800Y-84334080D01*
X103770561Y-84476938D01*
X103675323Y-84572176D01*
X103580085Y-84619795D01*
%TO.C,Q4*%
X128835161Y-89246319D02*
X128739923Y-89198700D01*
X128644685Y-89103461D01*
X128501828Y-88960604D01*
X128406590Y-88912985D01*
X128311352Y-88912985D01*
X128358971Y-89151080D02*
X128263733Y-89103461D01*
X128168495Y-89008223D01*
X128120876Y-88817747D01*
X128120876Y-88484414D01*
X128168495Y-88293938D01*
X128263733Y-88198700D01*
X128358971Y-88151080D01*
X128549447Y-88151080D01*
X128644685Y-88198700D01*
X128739923Y-88293938D01*
X128787542Y-88484414D01*
X128787542Y-88817747D01*
X128739923Y-89008223D01*
X128644685Y-89103461D01*
X128549447Y-89151080D01*
X128358971Y-89151080D01*
X129644685Y-88484414D02*
X129644685Y-89151080D01*
X129406590Y-88103461D02*
X129168495Y-88817747D01*
X129787542Y-88817747D01*
%TO.C,Q2*%
X99167961Y-79726019D02*
X99072723Y-79678400D01*
X98977485Y-79583161D01*
X98834628Y-79440304D01*
X98739390Y-79392685D01*
X98644152Y-79392685D01*
X98691771Y-79630780D02*
X98596533Y-79583161D01*
X98501295Y-79487923D01*
X98453676Y-79297447D01*
X98453676Y-78964114D01*
X98501295Y-78773638D01*
X98596533Y-78678400D01*
X98691771Y-78630780D01*
X98882247Y-78630780D01*
X98977485Y-78678400D01*
X99072723Y-78773638D01*
X99120342Y-78964114D01*
X99120342Y-79297447D01*
X99072723Y-79487923D01*
X98977485Y-79583161D01*
X98882247Y-79630780D01*
X98691771Y-79630780D01*
X99501295Y-78726019D02*
X99548914Y-78678400D01*
X99644152Y-78630780D01*
X99882247Y-78630780D01*
X99977485Y-78678400D01*
X100025104Y-78726019D01*
X100072723Y-78821257D01*
X100072723Y-78916495D01*
X100025104Y-79059352D01*
X99453676Y-79630780D01*
X100072723Y-79630780D01*
%TO.C,L1*%
X102804933Y-84680680D02*
X102328742Y-84680680D01*
X102328742Y-83680680D01*
X103662076Y-84680680D02*
X103090647Y-84680680D01*
X103376361Y-84680680D02*
X103376361Y-83680680D01*
X103281123Y-83823538D01*
X103185885Y-83918776D01*
X103090647Y-83966395D01*
%TO.C,D11*%
X137444314Y-78269580D02*
X137444314Y-77269580D01*
X137682409Y-77269580D01*
X137825266Y-77317200D01*
X137920504Y-77412438D01*
X137968123Y-77507676D01*
X138015742Y-77698152D01*
X138015742Y-77841009D01*
X137968123Y-78031485D01*
X137920504Y-78126723D01*
X137825266Y-78221961D01*
X137682409Y-78269580D01*
X137444314Y-78269580D01*
X138968123Y-78269580D02*
X138396695Y-78269580D01*
X138682409Y-78269580D02*
X138682409Y-77269580D01*
X138587171Y-77412438D01*
X138491933Y-77507676D01*
X138396695Y-77555295D01*
X139920504Y-78269580D02*
X139349076Y-78269580D01*
X139634790Y-78269580D02*
X139634790Y-77269580D01*
X139539552Y-77412438D01*
X139444314Y-77507676D01*
X139349076Y-77555295D01*
%TO.C,D10*%
X133862614Y-78256880D02*
X133862614Y-77256880D01*
X134100709Y-77256880D01*
X134243566Y-77304500D01*
X134338804Y-77399738D01*
X134386423Y-77494976D01*
X134434042Y-77685452D01*
X134434042Y-77828309D01*
X134386423Y-78018785D01*
X134338804Y-78114023D01*
X134243566Y-78209261D01*
X134100709Y-78256880D01*
X133862614Y-78256880D01*
X135386423Y-78256880D02*
X134814995Y-78256880D01*
X135100709Y-78256880D02*
X135100709Y-77256880D01*
X135005471Y-77399738D01*
X134910233Y-77494976D01*
X134814995Y-77542595D01*
X136005471Y-77256880D02*
X136100709Y-77256880D01*
X136195947Y-77304500D01*
X136243566Y-77352119D01*
X136291185Y-77447357D01*
X136338804Y-77637833D01*
X136338804Y-77875928D01*
X136291185Y-78066404D01*
X136243566Y-78161642D01*
X136195947Y-78209261D01*
X136100709Y-78256880D01*
X136005471Y-78256880D01*
X135910233Y-78209261D01*
X135862614Y-78161642D01*
X135814995Y-78066404D01*
X135767376Y-77875928D01*
X135767376Y-77637833D01*
X135814995Y-77447357D01*
X135862614Y-77352119D01*
X135910233Y-77304500D01*
X136005471Y-77256880D01*
%TO.C,D9*%
X124674104Y-89369380D02*
X124674104Y-88369380D01*
X124912200Y-88369380D01*
X125055057Y-88417000D01*
X125150295Y-88512238D01*
X125197914Y-88607476D01*
X125245533Y-88797952D01*
X125245533Y-88940809D01*
X125197914Y-89131285D01*
X125150295Y-89226523D01*
X125055057Y-89321761D01*
X124912200Y-89369380D01*
X124674104Y-89369380D01*
X125721723Y-89369380D02*
X125912200Y-89369380D01*
X126007438Y-89321761D01*
X126055057Y-89274142D01*
X126150295Y-89131285D01*
X126197914Y-88940809D01*
X126197914Y-88559857D01*
X126150295Y-88464619D01*
X126102676Y-88417000D01*
X126007438Y-88369380D01*
X125816961Y-88369380D01*
X125721723Y-88417000D01*
X125674104Y-88464619D01*
X125626485Y-88559857D01*
X125626485Y-88797952D01*
X125674104Y-88893190D01*
X125721723Y-88940809D01*
X125816961Y-88988428D01*
X126007438Y-88988428D01*
X126102676Y-88940809D01*
X126150295Y-88893190D01*
X126197914Y-88797952D01*
%TO.C,D8*%
X120695980Y-87694995D02*
X119695980Y-87694995D01*
X119695980Y-87456900D01*
X119743600Y-87314042D01*
X119838838Y-87218804D01*
X119934076Y-87171185D01*
X120124552Y-87123566D01*
X120267409Y-87123566D01*
X120457885Y-87171185D01*
X120553123Y-87218804D01*
X120648361Y-87314042D01*
X120695980Y-87456900D01*
X120695980Y-87694995D01*
X120124552Y-86552138D02*
X120076933Y-86647376D01*
X120029314Y-86694995D01*
X119934076Y-86742614D01*
X119886457Y-86742614D01*
X119791219Y-86694995D01*
X119743600Y-86647376D01*
X119695980Y-86552138D01*
X119695980Y-86361661D01*
X119743600Y-86266423D01*
X119791219Y-86218804D01*
X119886457Y-86171185D01*
X119934076Y-86171185D01*
X120029314Y-86218804D01*
X120076933Y-86266423D01*
X120124552Y-86361661D01*
X120124552Y-86552138D01*
X120172171Y-86647376D01*
X120219790Y-86694995D01*
X120315028Y-86742614D01*
X120505504Y-86742614D01*
X120600742Y-86694995D01*
X120648361Y-86647376D01*
X120695980Y-86552138D01*
X120695980Y-86361661D01*
X120648361Y-86266423D01*
X120600742Y-86218804D01*
X120505504Y-86171185D01*
X120315028Y-86171185D01*
X120219790Y-86218804D01*
X120172171Y-86266423D01*
X120124552Y-86361661D01*
%TO.C,D7*%
X120902504Y-89369380D02*
X120902504Y-88369380D01*
X121140600Y-88369380D01*
X121283457Y-88417000D01*
X121378695Y-88512238D01*
X121426314Y-88607476D01*
X121473933Y-88797952D01*
X121473933Y-88940809D01*
X121426314Y-89131285D01*
X121378695Y-89226523D01*
X121283457Y-89321761D01*
X121140600Y-89369380D01*
X120902504Y-89369380D01*
X121807266Y-88369380D02*
X122473933Y-88369380D01*
X122045361Y-89369380D01*
%TO.C,D3*%
X83856904Y-102454480D02*
X83856904Y-101454480D01*
X84095000Y-101454480D01*
X84237857Y-101502100D01*
X84333095Y-101597338D01*
X84380714Y-101692576D01*
X84428333Y-101883052D01*
X84428333Y-102025909D01*
X84380714Y-102216385D01*
X84333095Y-102311623D01*
X84237857Y-102406861D01*
X84095000Y-102454480D01*
X83856904Y-102454480D01*
X84761666Y-101454480D02*
X85380714Y-101454480D01*
X85047380Y-101835433D01*
X85190238Y-101835433D01*
X85285476Y-101883052D01*
X85333095Y-101930671D01*
X85380714Y-102025909D01*
X85380714Y-102264004D01*
X85333095Y-102359242D01*
X85285476Y-102406861D01*
X85190238Y-102454480D01*
X84904523Y-102454480D01*
X84809285Y-102406861D01*
X84761666Y-102359242D01*
%TO.C,D2*%
X135862604Y-90094080D02*
X135862604Y-89094080D01*
X136100700Y-89094080D01*
X136243557Y-89141700D01*
X136338795Y-89236938D01*
X136386414Y-89332176D01*
X136434033Y-89522652D01*
X136434033Y-89665509D01*
X136386414Y-89855985D01*
X136338795Y-89951223D01*
X136243557Y-90046461D01*
X136100700Y-90094080D01*
X135862604Y-90094080D01*
X136814985Y-89189319D02*
X136862604Y-89141700D01*
X136957842Y-89094080D01*
X137195938Y-89094080D01*
X137291176Y-89141700D01*
X137338795Y-89189319D01*
X137386414Y-89284557D01*
X137386414Y-89379795D01*
X137338795Y-89522652D01*
X136767366Y-90094080D01*
X137386414Y-90094080D01*
%TO.C,D1*%
X135710704Y-87485480D02*
X135710704Y-86485480D01*
X135948800Y-86485480D01*
X136091657Y-86533100D01*
X136186895Y-86628338D01*
X136234514Y-86723576D01*
X136282133Y-86914052D01*
X136282133Y-87056909D01*
X136234514Y-87247385D01*
X136186895Y-87342623D01*
X136091657Y-87437861D01*
X135948800Y-87485480D01*
X135710704Y-87485480D01*
X137234514Y-87485480D02*
X136663085Y-87485480D01*
X136948800Y-87485480D02*
X136948800Y-86485480D01*
X136853561Y-86628338D01*
X136758323Y-86723576D01*
X136663085Y-86771195D01*
%TO.C,C12*%
X108009942Y-87637857D02*
X108057561Y-87685476D01*
X108105180Y-87828333D01*
X108105180Y-87923571D01*
X108057561Y-88066428D01*
X107962323Y-88161666D01*
X107867085Y-88209285D01*
X107676609Y-88256904D01*
X107533752Y-88256904D01*
X107343276Y-88209285D01*
X107248038Y-88161666D01*
X107152800Y-88066428D01*
X107105180Y-87923571D01*
X107105180Y-87828333D01*
X107152800Y-87685476D01*
X107200419Y-87637857D01*
X108105180Y-86685476D02*
X108105180Y-87256904D01*
X108105180Y-86971190D02*
X107105180Y-86971190D01*
X107248038Y-87066428D01*
X107343276Y-87161666D01*
X107390895Y-87256904D01*
X107200419Y-86304523D02*
X107152800Y-86256904D01*
X107105180Y-86161666D01*
X107105180Y-85923571D01*
X107152800Y-85828333D01*
X107200419Y-85780714D01*
X107295657Y-85733095D01*
X107390895Y-85733095D01*
X107533752Y-85780714D01*
X108105180Y-86352142D01*
X108105180Y-85733095D01*
%TO.C,C11*%
X108947242Y-87612457D02*
X108994861Y-87660076D01*
X109042480Y-87802933D01*
X109042480Y-87898171D01*
X108994861Y-88041028D01*
X108899623Y-88136266D01*
X108804385Y-88183885D01*
X108613909Y-88231504D01*
X108471052Y-88231504D01*
X108280576Y-88183885D01*
X108185338Y-88136266D01*
X108090100Y-88041028D01*
X108042480Y-87898171D01*
X108042480Y-87802933D01*
X108090100Y-87660076D01*
X108137719Y-87612457D01*
X109042480Y-86660076D02*
X109042480Y-87231504D01*
X109042480Y-86945790D02*
X108042480Y-86945790D01*
X108185338Y-87041028D01*
X108280576Y-87136266D01*
X108328195Y-87231504D01*
X109042480Y-85707695D02*
X109042480Y-86279123D01*
X109042480Y-85993409D02*
X108042480Y-85993409D01*
X108185338Y-86088647D01*
X108280576Y-86183885D01*
X108328195Y-86279123D01*
%TO.C,C10*%
X107080342Y-87625457D02*
X107127961Y-87673076D01*
X107175580Y-87815933D01*
X107175580Y-87911171D01*
X107127961Y-88054028D01*
X107032723Y-88149266D01*
X106937485Y-88196885D01*
X106747009Y-88244504D01*
X106604152Y-88244504D01*
X106413676Y-88196885D01*
X106318438Y-88149266D01*
X106223200Y-88054028D01*
X106175580Y-87911171D01*
X106175580Y-87815933D01*
X106223200Y-87673076D01*
X106270819Y-87625457D01*
X107175580Y-86673076D02*
X107175580Y-87244504D01*
X107175580Y-86958790D02*
X106175580Y-86958790D01*
X106318438Y-87054028D01*
X106413676Y-87149266D01*
X106461295Y-87244504D01*
X106175580Y-86054028D02*
X106175580Y-85958790D01*
X106223200Y-85863552D01*
X106270819Y-85815933D01*
X106366057Y-85768314D01*
X106556533Y-85720695D01*
X106794628Y-85720695D01*
X106985104Y-85768314D01*
X107080342Y-85815933D01*
X107127961Y-85863552D01*
X107175580Y-85958790D01*
X107175580Y-86054028D01*
X107127961Y-86149266D01*
X107080342Y-86196885D01*
X106985104Y-86244504D01*
X106794628Y-86292123D01*
X106556533Y-86292123D01*
X106366057Y-86244504D01*
X106270819Y-86196885D01*
X106223200Y-86149266D01*
X106175580Y-86054028D01*
%TO.C,C9*%
X109014933Y-93379542D02*
X108967314Y-93427161D01*
X108824457Y-93474780D01*
X108729219Y-93474780D01*
X108586361Y-93427161D01*
X108491123Y-93331923D01*
X108443504Y-93236685D01*
X108395885Y-93046209D01*
X108395885Y-92903352D01*
X108443504Y-92712876D01*
X108491123Y-92617638D01*
X108586361Y-92522400D01*
X108729219Y-92474780D01*
X108824457Y-92474780D01*
X108967314Y-92522400D01*
X109014933Y-92570019D01*
X109491123Y-93474780D02*
X109681600Y-93474780D01*
X109776838Y-93427161D01*
X109824457Y-93379542D01*
X109919695Y-93236685D01*
X109967314Y-93046209D01*
X109967314Y-92665257D01*
X109919695Y-92570019D01*
X109872076Y-92522400D01*
X109776838Y-92474780D01*
X109586361Y-92474780D01*
X109491123Y-92522400D01*
X109443504Y-92570019D01*
X109395885Y-92665257D01*
X109395885Y-92903352D01*
X109443504Y-92998590D01*
X109491123Y-93046209D01*
X109586361Y-93093828D01*
X109776838Y-93093828D01*
X109872076Y-93046209D01*
X109919695Y-92998590D01*
X109967314Y-92903352D01*
%TO.C,C8*%
X109014933Y-92234042D02*
X108967314Y-92281661D01*
X108824457Y-92329280D01*
X108729219Y-92329280D01*
X108586361Y-92281661D01*
X108491123Y-92186423D01*
X108443504Y-92091185D01*
X108395885Y-91900709D01*
X108395885Y-91757852D01*
X108443504Y-91567376D01*
X108491123Y-91472138D01*
X108586361Y-91376900D01*
X108729219Y-91329280D01*
X108824457Y-91329280D01*
X108967314Y-91376900D01*
X109014933Y-91424519D01*
X109586361Y-91757852D02*
X109491123Y-91710233D01*
X109443504Y-91662614D01*
X109395885Y-91567376D01*
X109395885Y-91519757D01*
X109443504Y-91424519D01*
X109491123Y-91376900D01*
X109586361Y-91329280D01*
X109776838Y-91329280D01*
X109872076Y-91376900D01*
X109919695Y-91424519D01*
X109967314Y-91519757D01*
X109967314Y-91567376D01*
X109919695Y-91662614D01*
X109872076Y-91710233D01*
X109776838Y-91757852D01*
X109586361Y-91757852D01*
X109491123Y-91805471D01*
X109443504Y-91853090D01*
X109395885Y-91948328D01*
X109395885Y-92138804D01*
X109443504Y-92234042D01*
X109491123Y-92281661D01*
X109586361Y-92329280D01*
X109776838Y-92329280D01*
X109872076Y-92281661D01*
X109919695Y-92234042D01*
X109967314Y-92138804D01*
X109967314Y-91948328D01*
X109919695Y-91853090D01*
X109872076Y-91805471D01*
X109776838Y-91757852D01*
%TO.C,C7*%
X98651733Y-92033342D02*
X98604114Y-92080961D01*
X98461257Y-92128580D01*
X98366019Y-92128580D01*
X98223161Y-92080961D01*
X98127923Y-91985723D01*
X98080304Y-91890485D01*
X98032685Y-91700009D01*
X98032685Y-91557152D01*
X98080304Y-91366676D01*
X98127923Y-91271438D01*
X98223161Y-91176200D01*
X98366019Y-91128580D01*
X98461257Y-91128580D01*
X98604114Y-91176200D01*
X98651733Y-91223819D01*
X98985066Y-91128580D02*
X99651733Y-91128580D01*
X99223161Y-92128580D01*
%TO.C,C5*%
X97898242Y-77484266D02*
X97945861Y-77531885D01*
X97993480Y-77674742D01*
X97993480Y-77769980D01*
X97945861Y-77912838D01*
X97850623Y-78008076D01*
X97755385Y-78055695D01*
X97564909Y-78103314D01*
X97422052Y-78103314D01*
X97231576Y-78055695D01*
X97136338Y-78008076D01*
X97041100Y-77912838D01*
X96993480Y-77769980D01*
X96993480Y-77674742D01*
X97041100Y-77531885D01*
X97088719Y-77484266D01*
X96993480Y-76579504D02*
X96993480Y-77055695D01*
X97469671Y-77103314D01*
X97422052Y-77055695D01*
X97374433Y-76960457D01*
X97374433Y-76722361D01*
X97422052Y-76627123D01*
X97469671Y-76579504D01*
X97564909Y-76531885D01*
X97803004Y-76531885D01*
X97898242Y-76579504D01*
X97945861Y-76627123D01*
X97993480Y-76722361D01*
X97993480Y-76960457D01*
X97945861Y-77055695D01*
X97898242Y-77103314D01*
%TO.C,C4*%
X85553842Y-103341466D02*
X85601461Y-103389085D01*
X85649080Y-103531942D01*
X85649080Y-103627180D01*
X85601461Y-103770038D01*
X85506223Y-103865276D01*
X85410985Y-103912895D01*
X85220509Y-103960514D01*
X85077652Y-103960514D01*
X84887176Y-103912895D01*
X84791938Y-103865276D01*
X84696700Y-103770038D01*
X84649080Y-103627180D01*
X84649080Y-103531942D01*
X84696700Y-103389085D01*
X84744319Y-103341466D01*
X84982414Y-102484323D02*
X85649080Y-102484323D01*
X84601461Y-102722419D02*
X85315747Y-102960514D01*
X85315747Y-102341466D01*
%TO.C,C3*%
X84017142Y-103353866D02*
X84064761Y-103401485D01*
X84112380Y-103544342D01*
X84112380Y-103639580D01*
X84064761Y-103782438D01*
X83969523Y-103877676D01*
X83874285Y-103925295D01*
X83683809Y-103972914D01*
X83540952Y-103972914D01*
X83350476Y-103925295D01*
X83255238Y-103877676D01*
X83160000Y-103782438D01*
X83112380Y-103639580D01*
X83112380Y-103544342D01*
X83160000Y-103401485D01*
X83207619Y-103353866D01*
X83112380Y-103020533D02*
X83112380Y-102401485D01*
X83493333Y-102734819D01*
X83493333Y-102591961D01*
X83540952Y-102496723D01*
X83588571Y-102449104D01*
X83683809Y-102401485D01*
X83921904Y-102401485D01*
X84017142Y-102449104D01*
X84064761Y-102496723D01*
X84112380Y-102591961D01*
X84112380Y-102877676D01*
X84064761Y-102972914D01*
X84017142Y-103020533D01*
%TO.C,C2*%
X91794033Y-102447342D02*
X91746414Y-102494961D01*
X91603557Y-102542580D01*
X91508319Y-102542580D01*
X91365461Y-102494961D01*
X91270223Y-102399723D01*
X91222604Y-102304485D01*
X91174985Y-102114009D01*
X91174985Y-101971152D01*
X91222604Y-101780676D01*
X91270223Y-101685438D01*
X91365461Y-101590200D01*
X91508319Y-101542580D01*
X91603557Y-101542580D01*
X91746414Y-101590200D01*
X91794033Y-101637819D01*
X92174985Y-101637819D02*
X92222604Y-101590200D01*
X92317842Y-101542580D01*
X92555938Y-101542580D01*
X92651176Y-101590200D01*
X92698795Y-101637819D01*
X92746414Y-101733057D01*
X92746414Y-101828295D01*
X92698795Y-101971152D01*
X92127366Y-102542580D01*
X92746414Y-102542580D01*
%TO.C,C1*%
X95070633Y-102383842D02*
X95023014Y-102431461D01*
X94880157Y-102479080D01*
X94784919Y-102479080D01*
X94642061Y-102431461D01*
X94546823Y-102336223D01*
X94499204Y-102240985D01*
X94451585Y-102050509D01*
X94451585Y-101907652D01*
X94499204Y-101717176D01*
X94546823Y-101621938D01*
X94642061Y-101526700D01*
X94784919Y-101479080D01*
X94880157Y-101479080D01*
X95023014Y-101526700D01*
X95070633Y-101574319D01*
X96023014Y-102479080D02*
X95451585Y-102479080D01*
X95737300Y-102479080D02*
X95737300Y-101479080D01*
X95642061Y-101621938D01*
X95546823Y-101717176D01*
X95451585Y-101764795D01*
%TD*%
M02*
