%TF.GenerationSoftware,KiCad,Pcbnew,(6.0.1-0)*%
%TF.CreationDate,2022-03-21T22:53:48+00:00*%
%TF.ProjectId,PickleRick,5069636b-6c65-4526-9963-6b2e6b696361,rev?*%
%TF.SameCoordinates,Original*%
%TF.FileFunction,Paste,Top*%
%TF.FilePolarity,Positive*%
%FSLAX46Y46*%
G04 Gerber Fmt 4.6, Leading zero omitted, Abs format (unit mm)*
G04 Created by KiCad (PCBNEW (6.0.1-0)) date 2022-03-21 22:53:48*
%MOMM*%
%LPD*%
G01*
G04 APERTURE LIST*
G04 Aperture macros list*
%AMRoundRect*
0 Rectangle with rounded corners*
0 $1 Rounding radius*
0 $2 $3 $4 $5 $6 $7 $8 $9 X,Y pos of 4 corners*
0 Add a 4 corners polygon primitive as box body*
4,1,4,$2,$3,$4,$5,$6,$7,$8,$9,$2,$3,0*
0 Add four circle primitives for the rounded corners*
1,1,$1+$1,$2,$3*
1,1,$1+$1,$4,$5*
1,1,$1+$1,$6,$7*
1,1,$1+$1,$8,$9*
0 Add four rect primitives between the rounded corners*
20,1,$1+$1,$2,$3,$4,$5,0*
20,1,$1+$1,$4,$5,$6,$7,0*
20,1,$1+$1,$6,$7,$8,$9,0*
20,1,$1+$1,$8,$9,$2,$3,0*%
G04 Aperture macros list end*
%ADD10C,0.010000*%
%ADD11R,2.000000X1.000000*%
%ADD12RoundRect,0.175000X0.725000X0.175000X-0.725000X0.175000X-0.725000X-0.175000X0.725000X-0.175000X0*%
%ADD13RoundRect,0.200000X0.700000X0.200000X-0.700000X0.200000X-0.700000X-0.200000X0.700000X-0.200000X0*%
%ADD14R,0.550000X0.950000*%
%ADD15RoundRect,0.200000X-0.275000X0.200000X-0.275000X-0.200000X0.275000X-0.200000X0.275000X0.200000X0*%
%ADD16R,5.000000X5.000000*%
%ADD17R,0.900000X2.000000*%
%ADD18R,2.000000X0.900000*%
%ADD19RoundRect,0.200000X0.275000X-0.200000X0.275000X0.200000X-0.275000X0.200000X-0.275000X-0.200000X0*%
%ADD20RoundRect,0.225000X-0.225000X-0.250000X0.225000X-0.250000X0.225000X0.250000X-0.225000X0.250000X0*%
%ADD21RoundRect,0.225000X-0.250000X0.225000X-0.250000X-0.225000X0.250000X-0.225000X0.250000X0.225000X0*%
%ADD22R,2.200000X1.600000*%
%ADD23RoundRect,0.218750X0.256250X-0.218750X0.256250X0.218750X-0.256250X0.218750X-0.256250X-0.218750X0*%
%ADD24RoundRect,0.225000X0.250000X-0.225000X0.250000X0.225000X-0.250000X0.225000X-0.250000X-0.225000X0*%
%ADD25RoundRect,0.225000X0.225000X0.250000X-0.225000X0.250000X-0.225000X-0.250000X0.225000X-0.250000X0*%
%ADD26RoundRect,0.200000X0.200000X0.275000X-0.200000X0.275000X-0.200000X-0.275000X0.200000X-0.275000X0*%
%ADD27R,1.000000X2.800000*%
%ADD28R,1.000000X1.200000*%
%ADD29R,1.300000X1.900000*%
%ADD30R,1.000000X0.800000*%
%ADD31R,0.700000X1.200000*%
%ADD32RoundRect,0.150000X-0.150000X0.825000X-0.150000X-0.825000X0.150000X-0.825000X0.150000X0.825000X0*%
%ADD33RoundRect,0.200000X-0.200000X-0.275000X0.200000X-0.275000X0.200000X0.275000X-0.200000X0.275000X0*%
%ADD34RoundRect,0.150000X-0.587500X-0.150000X0.587500X-0.150000X0.587500X0.150000X-0.587500X0.150000X0*%
%ADD35RoundRect,0.150000X-0.150000X0.512500X-0.150000X-0.512500X0.150000X-0.512500X0.150000X0.512500X0*%
%ADD36R,5.080000X2.290000*%
%ADD37R,5.080000X2.420000*%
%ADD38R,1.560000X0.650000*%
%ADD39R,1.400000X1.000000*%
%ADD40R,1.400000X1.200000*%
%ADD41R,0.254000X0.900000*%
%ADD42R,0.900000X0.254000*%
%ADD43RoundRect,0.150000X0.825000X0.150000X-0.825000X0.150000X-0.825000X-0.150000X0.825000X-0.150000X0*%
%ADD44R,0.300000X0.450000*%
%ADD45R,0.450000X0.300000*%
%ADD46RoundRect,0.150000X0.150000X-0.587500X0.150000X0.587500X-0.150000X0.587500X-0.150000X-0.587500X0*%
%ADD47RoundRect,0.218750X-0.256250X0.218750X-0.256250X-0.218750X0.256250X-0.218750X0.256250X0.218750X0*%
%ADD48R,0.490000X0.350000*%
%ADD49R,0.350000X0.490000*%
%ADD50RoundRect,0.150000X0.512500X0.150000X-0.512500X0.150000X-0.512500X-0.150000X0.512500X-0.150000X0*%
%ADD51RoundRect,0.218750X0.218750X0.256250X-0.218750X0.256250X-0.218750X-0.256250X0.218750X-0.256250X0*%
%ADD52R,0.400000X0.650000*%
%ADD53R,1.500000X2.000000*%
%ADD54R,3.800000X2.000000*%
%ADD55RoundRect,0.150000X0.150000X-0.512500X0.150000X0.512500X-0.150000X0.512500X-0.150000X-0.512500X0*%
G04 APERTURE END LIST*
D10*
%TO.C,U18*%
X173940000Y-93220080D02*
X173940000Y-94470000D01*
X173940000Y-94470000D02*
X172689520Y-94470000D01*
X172689520Y-94470000D02*
X172689520Y-93220080D01*
X172689520Y-93220080D02*
X173940000Y-93220080D01*
G36*
X173940000Y-94470000D02*
G01*
X172689520Y-94470000D01*
X172689520Y-93220080D01*
X173940000Y-93220080D01*
X173940000Y-94470000D01*
G37*
X173940000Y-94470000D02*
X172689520Y-94470000D01*
X172689520Y-93220080D01*
X173940000Y-93220080D01*
X173940000Y-94470000D01*
X173940000Y-91467990D02*
X173940000Y-92720000D01*
X173940000Y-92720000D02*
X172687990Y-92720000D01*
X172687990Y-92720000D02*
X172687990Y-91467990D01*
X172687990Y-91467990D02*
X173940000Y-91467990D01*
G36*
X173940000Y-92720000D02*
G01*
X172687990Y-92720000D01*
X172687990Y-91467990D01*
X173940000Y-91467990D01*
X173940000Y-92720000D01*
G37*
X173940000Y-92720000D02*
X172687990Y-92720000D01*
X172687990Y-91467990D01*
X173940000Y-91467990D01*
X173940000Y-92720000D01*
X175690000Y-91469180D02*
X175690000Y-92720000D01*
X175690000Y-92720000D02*
X174440137Y-92720000D01*
X174440137Y-92720000D02*
X174440137Y-91469180D01*
X174440137Y-91469180D02*
X175690000Y-91469180D01*
G36*
X175690000Y-92720000D02*
G01*
X174440137Y-92720000D01*
X174440137Y-91469180D01*
X175690000Y-91469180D01*
X175690000Y-92720000D01*
G37*
X175690000Y-92720000D02*
X174440137Y-92720000D01*
X174440137Y-91469180D01*
X175690000Y-91469180D01*
X175690000Y-92720000D01*
X175690000Y-93220446D02*
X175690000Y-94470000D01*
X175690000Y-94470000D02*
X174440446Y-94470000D01*
X174440446Y-94470000D02*
X174440446Y-93220446D01*
X174440446Y-93220446D02*
X175690000Y-93220446D01*
G36*
X175690000Y-94470000D02*
G01*
X174440446Y-94470000D01*
X174440446Y-93220446D01*
X175690000Y-93220446D01*
X175690000Y-94470000D01*
G37*
X175690000Y-94470000D02*
X174440446Y-94470000D01*
X174440446Y-93220446D01*
X175690000Y-93220446D01*
X175690000Y-94470000D01*
%TD*%
D11*
%TO.C,U19*%
X125900000Y-95375000D03*
X125900000Y-93375000D03*
X125900000Y-91375000D03*
X125900000Y-89375000D03*
X125900000Y-87375000D03*
X125900000Y-85375000D03*
X125900000Y-83375000D03*
X125900000Y-81375000D03*
X109900000Y-81375000D03*
X109900000Y-83375000D03*
X109900000Y-85375000D03*
X109900000Y-87375000D03*
X109900000Y-89375000D03*
X109900000Y-91375000D03*
X109900000Y-93375000D03*
X109900000Y-95375000D03*
%TD*%
D12*
%TO.C,U17*%
X121360000Y-76170000D03*
D13*
X121360000Y-75070000D03*
X121360000Y-73970000D03*
X121360000Y-72870000D03*
X121360000Y-71770000D03*
X121360000Y-70670000D03*
X121360000Y-69570000D03*
X121360000Y-68470000D03*
D12*
X121360000Y-67370000D03*
X111860000Y-67370000D03*
D13*
X111860000Y-68470000D03*
X111860000Y-69570000D03*
X111860000Y-70670000D03*
X111860000Y-71770000D03*
X111860000Y-72870000D03*
X111860000Y-73970000D03*
X111860000Y-75070000D03*
D12*
X111860000Y-76170000D03*
%TD*%
D14*
%TO.C,U3*%
X157550000Y-77125000D03*
X156300000Y-77125000D03*
X155050000Y-77125000D03*
X153800000Y-77125000D03*
X153800000Y-79275000D03*
X155050000Y-79275000D03*
X156300000Y-79275000D03*
X157550000Y-79275000D03*
%TD*%
D15*
%TO.C,R43*%
X109700000Y-71500000D03*
X109700000Y-73150000D03*
%TD*%
D16*
%TO.C,U2*%
X191045000Y-77880000D03*
D17*
X198545000Y-87380000D03*
X197275000Y-87380000D03*
X196005000Y-87380000D03*
X194735000Y-87380000D03*
X193465000Y-87380000D03*
X192195000Y-87380000D03*
X190925000Y-87380000D03*
X189655000Y-87380000D03*
X188385000Y-87380000D03*
X187115000Y-87380000D03*
X185845000Y-87380000D03*
X184575000Y-87380000D03*
X183305000Y-87380000D03*
X182035000Y-87380000D03*
D18*
X181035000Y-84595000D03*
X181035000Y-83325000D03*
X181035000Y-82055000D03*
X181035000Y-80785000D03*
X181035000Y-79515000D03*
X181035000Y-78245000D03*
X181035000Y-76975000D03*
X181035000Y-75705000D03*
X181035000Y-74435000D03*
X181035000Y-73165000D03*
D17*
X182035000Y-70380000D03*
X183305000Y-70380000D03*
X184575000Y-70380000D03*
X185845000Y-70380000D03*
X187115000Y-70380000D03*
X188385000Y-70380000D03*
X189655000Y-70380000D03*
X190925000Y-70380000D03*
X192195000Y-70380000D03*
X193465000Y-70380000D03*
X194735000Y-70380000D03*
X196005000Y-70380000D03*
X197275000Y-70380000D03*
X198545000Y-70380000D03*
%TD*%
D19*
%TO.C,R42*%
X123300000Y-69575000D03*
X123300000Y-67925000D03*
%TD*%
%TO.C,R49*%
X171420000Y-67920359D03*
X171420000Y-66270359D03*
%TD*%
D20*
%TO.C,C1*%
X193975000Y-66710000D03*
X195525000Y-66710000D03*
%TD*%
D21*
%TO.C,C5*%
X198520000Y-66765000D03*
X198520000Y-68315000D03*
%TD*%
D22*
%TO.C,C30*%
X167600000Y-87370000D03*
X170600000Y-87370000D03*
%TD*%
D23*
%TO.C,D1*%
X179055000Y-95795000D03*
X179055000Y-94220000D03*
%TD*%
D24*
%TO.C,C35*%
X107890000Y-96075000D03*
X107890000Y-94525000D03*
%TD*%
D25*
%TO.C,C6*%
X156700000Y-75150000D03*
X155150000Y-75150000D03*
%TD*%
%TO.C,C11*%
X172550000Y-84130000D03*
X171000000Y-84130000D03*
%TD*%
D26*
%TO.C,R3*%
X195575000Y-68220000D03*
X193925000Y-68220000D03*
%TD*%
D15*
%TO.C,R1*%
X172770000Y-86385000D03*
X172770000Y-88035000D03*
%TD*%
D27*
%TO.C,J4*%
X128175000Y-95025000D03*
D28*
X139325000Y-80375000D03*
D29*
X141675000Y-95475000D03*
D28*
X128175000Y-84675000D03*
D30*
X128175000Y-90875000D03*
D31*
X129125000Y-80375000D03*
X130075000Y-80375000D03*
X131175000Y-80375000D03*
X132275000Y-80375000D03*
X133375000Y-80375000D03*
X134475000Y-80375000D03*
X135575000Y-80375000D03*
X136675000Y-80375000D03*
X137775000Y-80375000D03*
%TD*%
D32*
%TO.C,Q7*%
X138370000Y-68200000D03*
X137100000Y-68200000D03*
X135830000Y-68200000D03*
X134560000Y-68200000D03*
X134560000Y-73150000D03*
X135830000Y-73150000D03*
X137100000Y-73150000D03*
X138370000Y-73150000D03*
%TD*%
D33*
%TO.C,R17*%
X187145000Y-89400000D03*
X188795000Y-89400000D03*
%TD*%
D23*
%TO.C,D3*%
X145950000Y-95625000D03*
X145950000Y-94050000D03*
%TD*%
D25*
%TO.C,C23*%
X156930000Y-82960000D03*
X155380000Y-82960000D03*
%TD*%
D34*
%TO.C,Q10*%
X155512500Y-87125000D03*
X155512500Y-89025000D03*
X157387500Y-88075000D03*
%TD*%
D33*
%TO.C,R15*%
X145675000Y-79225000D03*
X144025000Y-79225000D03*
%TD*%
D26*
%TO.C,R20*%
X170205000Y-75993500D03*
X168555000Y-75993500D03*
%TD*%
D15*
%TO.C,R7*%
X179035000Y-91170000D03*
X179035000Y-92820000D03*
%TD*%
D35*
%TO.C,U15*%
X152025000Y-79912500D03*
X151075000Y-79912500D03*
X150125000Y-79912500D03*
X150125000Y-82187500D03*
X151075000Y-82187500D03*
X152025000Y-82187500D03*
%TD*%
D21*
%TO.C,C15*%
X164970000Y-78008500D03*
X164970000Y-79558500D03*
%TD*%
D36*
%TO.C,J18*%
X103020000Y-84720000D03*
D37*
X103020000Y-80340000D03*
X103020000Y-89100000D03*
%TD*%
D24*
%TO.C,C32*%
X169850000Y-95650000D03*
X169850000Y-94100000D03*
%TD*%
D33*
%TO.C,R41*%
X172930000Y-72750000D03*
X174580000Y-72750000D03*
%TD*%
D21*
%TO.C,C29*%
X108190000Y-73365000D03*
X108190000Y-74915000D03*
%TD*%
%TO.C,C13*%
X159230000Y-75563500D03*
X159230000Y-77113500D03*
%TD*%
%TO.C,C24*%
X153750000Y-84975000D03*
X153750000Y-86525000D03*
%TD*%
D38*
%TO.C,U11*%
X148175000Y-82750000D03*
X148175000Y-81800000D03*
X148175000Y-80850000D03*
X145475000Y-80850000D03*
X145475000Y-82750000D03*
%TD*%
D39*
%TO.C,D20*%
X165025000Y-87050000D03*
X165025000Y-88950000D03*
X162825000Y-88950000D03*
D40*
X162825000Y-87230000D03*
%TD*%
D26*
%TO.C,R40*%
X182095000Y-67310000D03*
X180445000Y-67310000D03*
%TD*%
D24*
%TO.C,C26*%
X144430000Y-91095000D03*
X144430000Y-89545000D03*
%TD*%
D19*
%TO.C,R5*%
X178925000Y-87900000D03*
X178925000Y-86250000D03*
%TD*%
D24*
%TO.C,C18*%
X178150000Y-78128873D03*
X178150000Y-76578873D03*
%TD*%
D15*
%TO.C,R47*%
X166830000Y-94060000D03*
X166830000Y-95710000D03*
%TD*%
D25*
%TO.C,C20*%
X148625000Y-79225000D03*
X147075000Y-79225000D03*
%TD*%
D24*
%TO.C,C34*%
X107890000Y-93065000D03*
X107890000Y-91515000D03*
%TD*%
D19*
%TO.C,R19*%
X166480000Y-79608500D03*
X166480000Y-77958500D03*
%TD*%
%TO.C,R18*%
X179025000Y-82900000D03*
X179025000Y-81250000D03*
%TD*%
D41*
%TO.C,U18*%
X175690000Y-90380000D03*
X175190000Y-90380000D03*
X174690000Y-90380000D03*
X174190000Y-90380000D03*
X173690000Y-90380000D03*
X173190000Y-90380000D03*
X172690000Y-90380000D03*
D42*
X171600000Y-91470000D03*
X171600000Y-91970000D03*
X171600000Y-92470000D03*
X171600000Y-92970000D03*
X171600000Y-93470000D03*
X171600000Y-93970000D03*
X171600000Y-94470000D03*
D41*
X172690000Y-95560000D03*
X173190000Y-95560000D03*
X173690000Y-95560000D03*
X174190000Y-95560000D03*
X174690000Y-95560000D03*
X175190000Y-95560000D03*
X175690000Y-95560000D03*
D42*
X176780000Y-94470000D03*
X176780000Y-93970000D03*
X176780000Y-93470000D03*
X176780000Y-92970000D03*
X176780000Y-92470000D03*
X176780000Y-91970000D03*
X176780000Y-91470000D03*
%TD*%
D23*
%TO.C,D4*%
X144440000Y-94050000D03*
X144440000Y-95625000D03*
%TD*%
D43*
%TO.C,U1*%
X178505000Y-71175000D03*
X178505000Y-69905000D03*
X178505000Y-68635000D03*
X178505000Y-67365000D03*
X173555000Y-67365000D03*
X173555000Y-68635000D03*
X173555000Y-69905000D03*
X173555000Y-71175000D03*
%TD*%
D44*
%TO.C,U7*%
X168360000Y-79978500D03*
X168860000Y-79978500D03*
X169360000Y-79978500D03*
X169860000Y-79978500D03*
D45*
X170385000Y-79453500D03*
X170385000Y-78953500D03*
X170385000Y-78453500D03*
X170385000Y-77953500D03*
D44*
X169860000Y-77428500D03*
X169360000Y-77428500D03*
X168860000Y-77428500D03*
X168360000Y-77428500D03*
D45*
X167835000Y-77953500D03*
X167835000Y-78453500D03*
X167835000Y-78953500D03*
X167835000Y-79453500D03*
%TD*%
D46*
%TO.C,Q9*%
X150325000Y-86287500D03*
X152225000Y-86287500D03*
X151275000Y-84412500D03*
%TD*%
D25*
%TO.C,C37*%
X171444641Y-69375000D03*
X169894641Y-69375000D03*
%TD*%
D15*
%TO.C,R46*%
X169850000Y-91040000D03*
X169850000Y-92690000D03*
%TD*%
D20*
%TO.C,C12*%
X174020000Y-84130000D03*
X175570000Y-84130000D03*
%TD*%
D19*
%TO.C,R2*%
X177130000Y-88025000D03*
X177130000Y-86375000D03*
%TD*%
D23*
%TO.C,D2*%
X180555000Y-95795000D03*
X180555000Y-94220000D03*
%TD*%
D25*
%TO.C,C19*%
X145960000Y-88040000D03*
X144410000Y-88040000D03*
%TD*%
D19*
%TO.C,R45*%
X154720000Y-95120000D03*
X154720000Y-93470000D03*
%TD*%
D24*
%TO.C,C22*%
X143675000Y-82900000D03*
X143675000Y-81350000D03*
%TD*%
%TO.C,C33*%
X166830000Y-92640000D03*
X166830000Y-91090000D03*
%TD*%
D25*
%TO.C,C17*%
X176095000Y-75993500D03*
X174545000Y-75993500D03*
%TD*%
D43*
%TO.C,Q8*%
X148370000Y-73410000D03*
X148370000Y-72140000D03*
X148370000Y-70870000D03*
X148370000Y-69600000D03*
X143420000Y-69600000D03*
X143420000Y-70870000D03*
X143420000Y-72140000D03*
X143420000Y-73410000D03*
%TD*%
D25*
%TO.C,C28*%
X178375000Y-74230000D03*
X176825000Y-74230000D03*
%TD*%
D47*
%TO.C,D21*%
X168330000Y-94095000D03*
X168330000Y-95670000D03*
%TD*%
D24*
%TO.C,C14*%
X159220000Y-80138500D03*
X159220000Y-78588500D03*
%TD*%
%TO.C,C38*%
X169902500Y-72450000D03*
X169902500Y-70900000D03*
%TD*%
D35*
%TO.C,U13*%
X132960000Y-67280000D03*
X132010000Y-67280000D03*
X131060000Y-67280000D03*
X131060000Y-69555000D03*
X132010000Y-69555000D03*
X132960000Y-69555000D03*
%TD*%
D48*
%TO.C,U8*%
X160630000Y-79071000D03*
X160630000Y-78571000D03*
X160630000Y-78071000D03*
D49*
X160890000Y-77311000D03*
X161390000Y-77311000D03*
X161890000Y-77311000D03*
X162390000Y-77311000D03*
X162890000Y-77311000D03*
D48*
X163150000Y-78071000D03*
X163150000Y-78571000D03*
X163150000Y-79071000D03*
D49*
X162890000Y-79831000D03*
X162390000Y-79831000D03*
X161890000Y-79831000D03*
X161390000Y-79831000D03*
X160890000Y-79831000D03*
%TD*%
D36*
%TO.C,J16*%
X103030000Y-72190000D03*
D37*
X103030000Y-76570000D03*
X103030000Y-67810000D03*
%TD*%
D34*
%TO.C,D19*%
X166269641Y-68415359D03*
X166269641Y-70315359D03*
X168144641Y-69365359D03*
%TD*%
D20*
%TO.C,C2*%
X191400000Y-92625000D03*
X192950000Y-92625000D03*
%TD*%
D26*
%TO.C,R14*%
X163300000Y-83100000D03*
X161650000Y-83100000D03*
%TD*%
D24*
%TO.C,C21*%
X144000000Y-86550000D03*
X144000000Y-85000000D03*
%TD*%
D38*
%TO.C,U10*%
X148500000Y-86400000D03*
X148500000Y-85450000D03*
X148500000Y-84500000D03*
X145800000Y-84500000D03*
X145800000Y-86400000D03*
%TD*%
D33*
%TO.C,R12*%
X190475000Y-89400000D03*
X192125000Y-89400000D03*
%TD*%
D21*
%TO.C,C4*%
X197010000Y-66765000D03*
X197010000Y-68315000D03*
%TD*%
D20*
%TO.C,C3*%
X183340000Y-90890000D03*
X184890000Y-90890000D03*
%TD*%
D44*
%TO.C,U9*%
X174860000Y-79783500D03*
X175360000Y-79783500D03*
X175860000Y-79783500D03*
X176360000Y-79783500D03*
D45*
X176885000Y-79258500D03*
X176885000Y-78758500D03*
X176885000Y-78258500D03*
X176885000Y-77758500D03*
D44*
X176360000Y-77233500D03*
X175860000Y-77233500D03*
X175360000Y-77233500D03*
X174860000Y-77233500D03*
D45*
X174335000Y-77758500D03*
X174335000Y-78258500D03*
X174335000Y-78758500D03*
X174335000Y-79258500D03*
%TD*%
D24*
%TO.C,C25*%
X145940000Y-91090000D03*
X145940000Y-89540000D03*
%TD*%
D33*
%TO.C,R4*%
X188350000Y-92625000D03*
X190000000Y-92625000D03*
%TD*%
D50*
%TO.C,U14*%
X146787500Y-76890000D03*
X146787500Y-75940000D03*
X146787500Y-74990000D03*
X144512500Y-74990000D03*
X144512500Y-75940000D03*
X144512500Y-76890000D03*
%TD*%
D26*
%TO.C,R39*%
X182085000Y-65790000D03*
X180435000Y-65790000D03*
%TD*%
D25*
%TO.C,C16*%
X162825000Y-75578500D03*
X161275000Y-75578500D03*
%TD*%
D51*
%TO.C,D5*%
X145975000Y-92575000D03*
X144400000Y-92575000D03*
%TD*%
D33*
%TO.C,R6*%
X183290000Y-89380000D03*
X184940000Y-89380000D03*
%TD*%
D23*
%TO.C,L2*%
X109920000Y-70067500D03*
X109920000Y-68492500D03*
%TD*%
D24*
%TO.C,C31*%
X168340000Y-92640000D03*
X168340000Y-91090000D03*
%TD*%
D52*
%TO.C,Q1*%
X175600000Y-86370000D03*
X174950000Y-86370000D03*
X174300000Y-86370000D03*
X174300000Y-88270000D03*
X174950000Y-88270000D03*
X175600000Y-88270000D03*
%TD*%
D19*
%TO.C,R48*%
X171420000Y-72500000D03*
X171420000Y-70850000D03*
%TD*%
D21*
%TO.C,C39*%
X169900000Y-66300000D03*
X169900000Y-67850000D03*
%TD*%
D26*
%TO.C,R13*%
X197625000Y-89420000D03*
X195975000Y-89420000D03*
%TD*%
D20*
%TO.C,C27*%
X176825000Y-72720000D03*
X178375000Y-72720000D03*
%TD*%
D15*
%TO.C,R44*%
X154740000Y-90465000D03*
X154740000Y-92115000D03*
%TD*%
D20*
%TO.C,C36*%
X172985000Y-74260000D03*
X174535000Y-74260000D03*
%TD*%
D15*
%TO.C,R8*%
X180545000Y-91170000D03*
X180545000Y-92820000D03*
%TD*%
D53*
%TO.C,U12*%
X152620000Y-88550000D03*
D54*
X150320000Y-94850000D03*
D53*
X150320000Y-88550000D03*
X148020000Y-88550000D03*
%TD*%
D55*
%TO.C,U16*%
X159150000Y-87912500D03*
X160100000Y-87912500D03*
X161050000Y-87912500D03*
X161050000Y-85637500D03*
X160100000Y-85637500D03*
X159150000Y-85637500D03*
%TD*%
M02*
