%TF.GenerationSoftware,KiCad,Pcbnew,(6.0.1-0)*%
%TF.CreationDate,2022-03-21T22:53:49+00:00*%
%TF.ProjectId,PickleRick,5069636b-6c65-4526-9963-6b2e6b696361,rev?*%
%TF.SameCoordinates,Original*%
%TF.FileFunction,Legend,Bot*%
%TF.FilePolarity,Positive*%
%FSLAX46Y46*%
G04 Gerber Fmt 4.6, Leading zero omitted, Abs format (unit mm)*
G04 Created by KiCad (PCBNEW (6.0.1-0)) date 2022-03-21 22:53:49*
%MOMM*%
%LPD*%
G01*
G04 APERTURE LIST*
%ADD10C,0.150000*%
%ADD11C,0.120000*%
%ADD12C,0.100000*%
%ADD13C,0.010000*%
%ADD14C,0.200000*%
%ADD15C,0.127000*%
G04 APERTURE END LIST*
D10*
X147632619Y-88576666D02*
X148632619Y-88576666D01*
X148632619Y-88338571D01*
X148585000Y-88195714D01*
X148489761Y-88100476D01*
X148394523Y-88052857D01*
X148204047Y-88005238D01*
X148061190Y-88005238D01*
X147870714Y-88052857D01*
X147775476Y-88100476D01*
X147680238Y-88195714D01*
X147632619Y-88338571D01*
X147632619Y-88576666D01*
X147680238Y-87195714D02*
X147632619Y-87290952D01*
X147632619Y-87481428D01*
X147680238Y-87576666D01*
X147775476Y-87624285D01*
X148156428Y-87624285D01*
X148251666Y-87576666D01*
X148299285Y-87481428D01*
X148299285Y-87290952D01*
X148251666Y-87195714D01*
X148156428Y-87148095D01*
X148061190Y-87148095D01*
X147965952Y-87624285D01*
X147680238Y-86767142D02*
X147632619Y-86671904D01*
X147632619Y-86481428D01*
X147680238Y-86386190D01*
X147775476Y-86338571D01*
X147823095Y-86338571D01*
X147918333Y-86386190D01*
X147965952Y-86481428D01*
X147965952Y-86624285D01*
X148013571Y-86719523D01*
X148108809Y-86767142D01*
X148156428Y-86767142D01*
X148251666Y-86719523D01*
X148299285Y-86624285D01*
X148299285Y-86481428D01*
X148251666Y-86386190D01*
X147632619Y-85910000D02*
X148299285Y-85910000D01*
X148632619Y-85910000D02*
X148585000Y-85957619D01*
X148537380Y-85910000D01*
X148585000Y-85862380D01*
X148632619Y-85910000D01*
X148537380Y-85910000D01*
X148299285Y-85005238D02*
X147489761Y-85005238D01*
X147394523Y-85052857D01*
X147346904Y-85100476D01*
X147299285Y-85195714D01*
X147299285Y-85338571D01*
X147346904Y-85433809D01*
X147680238Y-85005238D02*
X147632619Y-85100476D01*
X147632619Y-85290952D01*
X147680238Y-85386190D01*
X147727857Y-85433809D01*
X147823095Y-85481428D01*
X148108809Y-85481428D01*
X148204047Y-85433809D01*
X148251666Y-85386190D01*
X148299285Y-85290952D01*
X148299285Y-85100476D01*
X148251666Y-85005238D01*
X148299285Y-84529047D02*
X147632619Y-84529047D01*
X148204047Y-84529047D02*
X148251666Y-84481428D01*
X148299285Y-84386190D01*
X148299285Y-84243333D01*
X148251666Y-84148095D01*
X148156428Y-84100476D01*
X147632619Y-84100476D01*
X147680238Y-83243333D02*
X147632619Y-83338571D01*
X147632619Y-83529047D01*
X147680238Y-83624285D01*
X147775476Y-83671904D01*
X148156428Y-83671904D01*
X148251666Y-83624285D01*
X148299285Y-83529047D01*
X148299285Y-83338571D01*
X148251666Y-83243333D01*
X148156428Y-83195714D01*
X148061190Y-83195714D01*
X147965952Y-83671904D01*
X147632619Y-82338571D02*
X148632619Y-82338571D01*
X147680238Y-82338571D02*
X147632619Y-82433809D01*
X147632619Y-82624285D01*
X147680238Y-82719523D01*
X147727857Y-82767142D01*
X147823095Y-82814761D01*
X148108809Y-82814761D01*
X148204047Y-82767142D01*
X148251666Y-82719523D01*
X148299285Y-82624285D01*
X148299285Y-82433809D01*
X148251666Y-82338571D01*
X148156428Y-80767142D02*
X148108809Y-80624285D01*
X148061190Y-80576666D01*
X147965952Y-80529047D01*
X147823095Y-80529047D01*
X147727857Y-80576666D01*
X147680238Y-80624285D01*
X147632619Y-80719523D01*
X147632619Y-81100476D01*
X148632619Y-81100476D01*
X148632619Y-80767142D01*
X148585000Y-80671904D01*
X148537380Y-80624285D01*
X148442142Y-80576666D01*
X148346904Y-80576666D01*
X148251666Y-80624285D01*
X148204047Y-80671904D01*
X148156428Y-80767142D01*
X148156428Y-81100476D01*
X148299285Y-80195714D02*
X147632619Y-79957619D01*
X148299285Y-79719523D02*
X147632619Y-79957619D01*
X147394523Y-80052857D01*
X147346904Y-80100476D01*
X147299285Y-80195714D01*
X147632619Y-78576666D02*
X148632619Y-78576666D01*
X147632619Y-78005238D02*
X148204047Y-78433809D01*
X148632619Y-78005238D02*
X148061190Y-78576666D01*
X147632619Y-77576666D02*
X148299285Y-77576666D01*
X148632619Y-77576666D02*
X148585000Y-77624285D01*
X148537380Y-77576666D01*
X148585000Y-77529047D01*
X148632619Y-77576666D01*
X148537380Y-77576666D01*
X147632619Y-77100476D02*
X148299285Y-77100476D01*
X148108809Y-77100476D02*
X148204047Y-77052857D01*
X148251666Y-77005238D01*
X148299285Y-76910000D01*
X148299285Y-76814761D01*
X147632619Y-76052857D02*
X148156428Y-76052857D01*
X148251666Y-76100476D01*
X148299285Y-76195714D01*
X148299285Y-76386190D01*
X148251666Y-76481428D01*
X147680238Y-76052857D02*
X147632619Y-76148095D01*
X147632619Y-76386190D01*
X147680238Y-76481428D01*
X147775476Y-76529047D01*
X147870714Y-76529047D01*
X147965952Y-76481428D01*
X148013571Y-76386190D01*
X148013571Y-76148095D01*
X148061190Y-76052857D01*
X148299285Y-75576666D02*
X147632619Y-75576666D01*
X148204047Y-75576666D02*
X148251666Y-75529047D01*
X148299285Y-75433809D01*
X148299285Y-75290952D01*
X148251666Y-75195714D01*
X148156428Y-75148095D01*
X147632619Y-75148095D01*
X147632619Y-73481428D02*
X148632619Y-73481428D01*
X147680238Y-73481428D02*
X147632619Y-73576666D01*
X147632619Y-73767142D01*
X147680238Y-73862380D01*
X147727857Y-73910000D01*
X147823095Y-73957619D01*
X148108809Y-73957619D01*
X148204047Y-73910000D01*
X148251666Y-73862380D01*
X148299285Y-73767142D01*
X148299285Y-73576666D01*
X148251666Y-73481428D01*
X147680238Y-72624285D02*
X147632619Y-72719523D01*
X147632619Y-72910000D01*
X147680238Y-73005238D01*
X147775476Y-73052857D01*
X148156428Y-73052857D01*
X148251666Y-73005238D01*
X148299285Y-72910000D01*
X148299285Y-72719523D01*
X148251666Y-72624285D01*
X148156428Y-72576666D01*
X148061190Y-72576666D01*
X147965952Y-73052857D01*
X147680238Y-71433809D02*
X147632619Y-71290952D01*
X147632619Y-71052857D01*
X147680238Y-70957619D01*
X147727857Y-70910000D01*
X147823095Y-70862380D01*
X147918333Y-70862380D01*
X148013571Y-70910000D01*
X148061190Y-70957619D01*
X148108809Y-71052857D01*
X148156428Y-71243333D01*
X148204047Y-71338571D01*
X148251666Y-71386190D01*
X148346904Y-71433809D01*
X148442142Y-71433809D01*
X148537380Y-71386190D01*
X148585000Y-71338571D01*
X148632619Y-71243333D01*
X148632619Y-71005238D01*
X148585000Y-70862380D01*
X147632619Y-70433809D02*
X148299285Y-70433809D01*
X148632619Y-70433809D02*
X148585000Y-70481428D01*
X148537380Y-70433809D01*
X148585000Y-70386190D01*
X148632619Y-70433809D01*
X148537380Y-70433809D01*
X147632619Y-69814761D02*
X147680238Y-69910000D01*
X147775476Y-69957619D01*
X148632619Y-69957619D01*
X148299285Y-69529047D02*
X147632619Y-69290952D01*
X148299285Y-69052857D01*
X147632619Y-68243333D02*
X148156428Y-68243333D01*
X148251666Y-68290952D01*
X148299285Y-68386190D01*
X148299285Y-68576666D01*
X148251666Y-68671904D01*
X147680238Y-68243333D02*
X147632619Y-68338571D01*
X147632619Y-68576666D01*
X147680238Y-68671904D01*
X147775476Y-68719523D01*
X147870714Y-68719523D01*
X147965952Y-68671904D01*
X148013571Y-68576666D01*
X148013571Y-68338571D01*
X148061190Y-68243333D01*
X146546428Y-88933809D02*
X146546428Y-88600476D01*
X146022619Y-88457619D02*
X146022619Y-88933809D01*
X147022619Y-88933809D01*
X147022619Y-88457619D01*
X146022619Y-87886190D02*
X146070238Y-87981428D01*
X146165476Y-88029047D01*
X147022619Y-88029047D01*
X146070238Y-87124285D02*
X146022619Y-87219523D01*
X146022619Y-87410000D01*
X146070238Y-87505238D01*
X146165476Y-87552857D01*
X146546428Y-87552857D01*
X146641666Y-87505238D01*
X146689285Y-87410000D01*
X146689285Y-87219523D01*
X146641666Y-87124285D01*
X146546428Y-87076666D01*
X146451190Y-87076666D01*
X146355952Y-87552857D01*
X146070238Y-86219523D02*
X146022619Y-86314761D01*
X146022619Y-86505238D01*
X146070238Y-86600476D01*
X146117857Y-86648095D01*
X146213095Y-86695714D01*
X146498809Y-86695714D01*
X146594047Y-86648095D01*
X146641666Y-86600476D01*
X146689285Y-86505238D01*
X146689285Y-86314761D01*
X146641666Y-86219523D01*
X146689285Y-85933809D02*
X146689285Y-85552857D01*
X147022619Y-85790952D02*
X146165476Y-85790952D01*
X146070238Y-85743333D01*
X146022619Y-85648095D01*
X146022619Y-85552857D01*
X146022619Y-85219523D02*
X146689285Y-85219523D01*
X146498809Y-85219523D02*
X146594047Y-85171904D01*
X146641666Y-85124285D01*
X146689285Y-85029047D01*
X146689285Y-84933809D01*
X146022619Y-84457619D02*
X146070238Y-84552857D01*
X146117857Y-84600476D01*
X146213095Y-84648095D01*
X146498809Y-84648095D01*
X146594047Y-84600476D01*
X146641666Y-84552857D01*
X146689285Y-84457619D01*
X146689285Y-84314761D01*
X146641666Y-84219523D01*
X146594047Y-84171904D01*
X146498809Y-84124285D01*
X146213095Y-84124285D01*
X146117857Y-84171904D01*
X146070238Y-84219523D01*
X146022619Y-84314761D01*
X146022619Y-84457619D01*
X146689285Y-83695714D02*
X146022619Y-83695714D01*
X146594047Y-83695714D02*
X146641666Y-83648095D01*
X146689285Y-83552857D01*
X146689285Y-83410000D01*
X146641666Y-83314761D01*
X146546428Y-83267142D01*
X146022619Y-83267142D01*
X146022619Y-82790952D02*
X146689285Y-82790952D01*
X147022619Y-82790952D02*
X146975000Y-82838571D01*
X146927380Y-82790952D01*
X146975000Y-82743333D01*
X147022619Y-82790952D01*
X146927380Y-82790952D01*
X146070238Y-81886190D02*
X146022619Y-81981428D01*
X146022619Y-82171904D01*
X146070238Y-82267142D01*
X146117857Y-82314761D01*
X146213095Y-82362380D01*
X146498809Y-82362380D01*
X146594047Y-82314761D01*
X146641666Y-82267142D01*
X146689285Y-82171904D01*
X146689285Y-81981428D01*
X146641666Y-81886190D01*
X146070238Y-81505238D02*
X146022619Y-81410000D01*
X146022619Y-81219523D01*
X146070238Y-81124285D01*
X146165476Y-81076666D01*
X146213095Y-81076666D01*
X146308333Y-81124285D01*
X146355952Y-81219523D01*
X146355952Y-81362380D01*
X146403571Y-81457619D01*
X146498809Y-81505238D01*
X146546428Y-81505238D01*
X146641666Y-81457619D01*
X146689285Y-81362380D01*
X146689285Y-81219523D01*
X146641666Y-81124285D01*
X146022619Y-79076666D02*
X146022619Y-79124285D01*
X146070238Y-79219523D01*
X146213095Y-79362380D01*
X146498809Y-79600476D01*
X146641666Y-79695714D01*
X146784523Y-79743333D01*
X146879761Y-79743333D01*
X146975000Y-79695714D01*
X147022619Y-79600476D01*
X147022619Y-79552857D01*
X146975000Y-79457619D01*
X146879761Y-79410000D01*
X146832142Y-79410000D01*
X146736904Y-79457619D01*
X146689285Y-79505238D01*
X146498809Y-79790952D01*
X146451190Y-79838571D01*
X146355952Y-79886190D01*
X146213095Y-79886190D01*
X146117857Y-79838571D01*
X146070238Y-79790952D01*
X146022619Y-79695714D01*
X146022619Y-79552857D01*
X146070238Y-79457619D01*
X146117857Y-79410000D01*
X146308333Y-79267142D01*
X146451190Y-79219523D01*
X146546428Y-79219523D01*
X146022619Y-77886190D02*
X147022619Y-77886190D01*
X147022619Y-77505238D01*
X146975000Y-77410000D01*
X146927380Y-77362380D01*
X146832142Y-77314761D01*
X146689285Y-77314761D01*
X146594047Y-77362380D01*
X146546428Y-77410000D01*
X146498809Y-77505238D01*
X146498809Y-77886190D01*
X146022619Y-76457619D02*
X146546428Y-76457619D01*
X146641666Y-76505238D01*
X146689285Y-76600476D01*
X146689285Y-76790952D01*
X146641666Y-76886190D01*
X146070238Y-76457619D02*
X146022619Y-76552857D01*
X146022619Y-76790952D01*
X146070238Y-76886190D01*
X146165476Y-76933809D01*
X146260714Y-76933809D01*
X146355952Y-76886190D01*
X146403571Y-76790952D01*
X146403571Y-76552857D01*
X146451190Y-76457619D01*
X146689285Y-76076666D02*
X146022619Y-75838571D01*
X146689285Y-75600476D02*
X146022619Y-75838571D01*
X145784523Y-75933809D01*
X145736904Y-75981428D01*
X145689285Y-76076666D01*
X146022619Y-75076666D02*
X146070238Y-75171904D01*
X146165476Y-75219523D01*
X147022619Y-75219523D01*
X146022619Y-74552857D02*
X146070238Y-74648095D01*
X146117857Y-74695714D01*
X146213095Y-74743333D01*
X146498809Y-74743333D01*
X146594047Y-74695714D01*
X146641666Y-74648095D01*
X146689285Y-74552857D01*
X146689285Y-74410000D01*
X146641666Y-74314761D01*
X146594047Y-74267142D01*
X146498809Y-74219523D01*
X146213095Y-74219523D01*
X146117857Y-74267142D01*
X146070238Y-74314761D01*
X146022619Y-74410000D01*
X146022619Y-74552857D01*
X146022619Y-73362380D02*
X146546428Y-73362380D01*
X146641666Y-73410000D01*
X146689285Y-73505238D01*
X146689285Y-73695714D01*
X146641666Y-73790952D01*
X146070238Y-73362380D02*
X146022619Y-73457619D01*
X146022619Y-73695714D01*
X146070238Y-73790952D01*
X146165476Y-73838571D01*
X146260714Y-73838571D01*
X146355952Y-73790952D01*
X146403571Y-73695714D01*
X146403571Y-73457619D01*
X146451190Y-73362380D01*
X146022619Y-72457619D02*
X147022619Y-72457619D01*
X146070238Y-72457619D02*
X146022619Y-72552857D01*
X146022619Y-72743333D01*
X146070238Y-72838571D01*
X146117857Y-72886190D01*
X146213095Y-72933809D01*
X146498809Y-72933809D01*
X146594047Y-72886190D01*
X146641666Y-72838571D01*
X146689285Y-72743333D01*
X146689285Y-72552857D01*
X146641666Y-72457619D01*
X146927380Y-71267142D02*
X146975000Y-71219523D01*
X147022619Y-71124285D01*
X147022619Y-70886190D01*
X146975000Y-70790952D01*
X146927380Y-70743333D01*
X146832142Y-70695714D01*
X146736904Y-70695714D01*
X146594047Y-70743333D01*
X146022619Y-71314761D01*
X146022619Y-70695714D01*
X147022619Y-70076666D02*
X147022619Y-69981428D01*
X146975000Y-69886190D01*
X146927380Y-69838571D01*
X146832142Y-69790952D01*
X146641666Y-69743333D01*
X146403571Y-69743333D01*
X146213095Y-69790952D01*
X146117857Y-69838571D01*
X146070238Y-69886190D01*
X146022619Y-69981428D01*
X146022619Y-70076666D01*
X146070238Y-70171904D01*
X146117857Y-70219523D01*
X146213095Y-70267142D01*
X146403571Y-70314761D01*
X146641666Y-70314761D01*
X146832142Y-70267142D01*
X146927380Y-70219523D01*
X146975000Y-70171904D01*
X147022619Y-70076666D01*
X146927380Y-69362380D02*
X146975000Y-69314761D01*
X147022619Y-69219523D01*
X147022619Y-68981428D01*
X146975000Y-68886190D01*
X146927380Y-68838571D01*
X146832142Y-68790952D01*
X146736904Y-68790952D01*
X146594047Y-68838571D01*
X146022619Y-69410000D01*
X146022619Y-68790952D01*
X146927380Y-68410000D02*
X146975000Y-68362380D01*
X147022619Y-68267142D01*
X147022619Y-68029047D01*
X146975000Y-67933809D01*
X146927380Y-67886190D01*
X146832142Y-67838571D01*
X146736904Y-67838571D01*
X146594047Y-67886190D01*
X146022619Y-68457619D01*
X146022619Y-67838571D01*
%TO.C,U4*%
X114262380Y-85068095D02*
X115071904Y-85068095D01*
X115167142Y-85115714D01*
X115214761Y-85163333D01*
X115262380Y-85258571D01*
X115262380Y-85449047D01*
X115214761Y-85544285D01*
X115167142Y-85591904D01*
X115071904Y-85639523D01*
X114262380Y-85639523D01*
X114595714Y-86544285D02*
X115262380Y-86544285D01*
X114214761Y-86306190D02*
X114929047Y-86068095D01*
X114929047Y-86687142D01*
%TO.C,R25*%
X118757380Y-93662142D02*
X118281190Y-93328809D01*
X118757380Y-93090714D02*
X117757380Y-93090714D01*
X117757380Y-93471666D01*
X117805000Y-93566904D01*
X117852619Y-93614523D01*
X117947857Y-93662142D01*
X118090714Y-93662142D01*
X118185952Y-93614523D01*
X118233571Y-93566904D01*
X118281190Y-93471666D01*
X118281190Y-93090714D01*
X117852619Y-94043095D02*
X117805000Y-94090714D01*
X117757380Y-94185952D01*
X117757380Y-94424047D01*
X117805000Y-94519285D01*
X117852619Y-94566904D01*
X117947857Y-94614523D01*
X118043095Y-94614523D01*
X118185952Y-94566904D01*
X118757380Y-93995476D01*
X118757380Y-94614523D01*
X117757380Y-95519285D02*
X117757380Y-95043095D01*
X118233571Y-94995476D01*
X118185952Y-95043095D01*
X118138333Y-95138333D01*
X118138333Y-95376428D01*
X118185952Y-95471666D01*
X118233571Y-95519285D01*
X118328809Y-95566904D01*
X118566904Y-95566904D01*
X118662142Y-95519285D01*
X118709761Y-95471666D01*
X118757380Y-95376428D01*
X118757380Y-95138333D01*
X118709761Y-95043095D01*
X118662142Y-94995476D01*
%TO.C,R34*%
X111492380Y-93877142D02*
X111016190Y-93543809D01*
X111492380Y-93305714D02*
X110492380Y-93305714D01*
X110492380Y-93686666D01*
X110540000Y-93781904D01*
X110587619Y-93829523D01*
X110682857Y-93877142D01*
X110825714Y-93877142D01*
X110920952Y-93829523D01*
X110968571Y-93781904D01*
X111016190Y-93686666D01*
X111016190Y-93305714D01*
X110492380Y-94210476D02*
X110492380Y-94829523D01*
X110873333Y-94496190D01*
X110873333Y-94639047D01*
X110920952Y-94734285D01*
X110968571Y-94781904D01*
X111063809Y-94829523D01*
X111301904Y-94829523D01*
X111397142Y-94781904D01*
X111444761Y-94734285D01*
X111492380Y-94639047D01*
X111492380Y-94353333D01*
X111444761Y-94258095D01*
X111397142Y-94210476D01*
X110825714Y-95686666D02*
X111492380Y-95686666D01*
X110444761Y-95448571D02*
X111159047Y-95210476D01*
X111159047Y-95829523D01*
%TO.C,R33*%
X120382380Y-93592142D02*
X119906190Y-93258809D01*
X120382380Y-93020714D02*
X119382380Y-93020714D01*
X119382380Y-93401666D01*
X119430000Y-93496904D01*
X119477619Y-93544523D01*
X119572857Y-93592142D01*
X119715714Y-93592142D01*
X119810952Y-93544523D01*
X119858571Y-93496904D01*
X119906190Y-93401666D01*
X119906190Y-93020714D01*
X119382380Y-93925476D02*
X119382380Y-94544523D01*
X119763333Y-94211190D01*
X119763333Y-94354047D01*
X119810952Y-94449285D01*
X119858571Y-94496904D01*
X119953809Y-94544523D01*
X120191904Y-94544523D01*
X120287142Y-94496904D01*
X120334761Y-94449285D01*
X120382380Y-94354047D01*
X120382380Y-94068333D01*
X120334761Y-93973095D01*
X120287142Y-93925476D01*
X119382380Y-94877857D02*
X119382380Y-95496904D01*
X119763333Y-95163571D01*
X119763333Y-95306428D01*
X119810952Y-95401666D01*
X119858571Y-95449285D01*
X119953809Y-95496904D01*
X120191904Y-95496904D01*
X120287142Y-95449285D01*
X120334761Y-95401666D01*
X120382380Y-95306428D01*
X120382380Y-95020714D01*
X120334761Y-94925476D01*
X120287142Y-94877857D01*
%TO.C,R26*%
X110152380Y-93877142D02*
X109676190Y-93543809D01*
X110152380Y-93305714D02*
X109152380Y-93305714D01*
X109152380Y-93686666D01*
X109200000Y-93781904D01*
X109247619Y-93829523D01*
X109342857Y-93877142D01*
X109485714Y-93877142D01*
X109580952Y-93829523D01*
X109628571Y-93781904D01*
X109676190Y-93686666D01*
X109676190Y-93305714D01*
X109247619Y-94258095D02*
X109200000Y-94305714D01*
X109152380Y-94400952D01*
X109152380Y-94639047D01*
X109200000Y-94734285D01*
X109247619Y-94781904D01*
X109342857Y-94829523D01*
X109438095Y-94829523D01*
X109580952Y-94781904D01*
X110152380Y-94210476D01*
X110152380Y-94829523D01*
X109152380Y-95686666D02*
X109152380Y-95496190D01*
X109200000Y-95400952D01*
X109247619Y-95353333D01*
X109390476Y-95258095D01*
X109580952Y-95210476D01*
X109961904Y-95210476D01*
X110057142Y-95258095D01*
X110104761Y-95305714D01*
X110152380Y-95400952D01*
X110152380Y-95591428D01*
X110104761Y-95686666D01*
X110057142Y-95734285D01*
X109961904Y-95781904D01*
X109723809Y-95781904D01*
X109628571Y-95734285D01*
X109580952Y-95686666D01*
X109533333Y-95591428D01*
X109533333Y-95400952D01*
X109580952Y-95305714D01*
X109628571Y-95258095D01*
X109723809Y-95210476D01*
%TO.C,R10*%
X148722857Y-94012380D02*
X149056190Y-93536190D01*
X149294285Y-94012380D02*
X149294285Y-93012380D01*
X148913333Y-93012380D01*
X148818095Y-93060000D01*
X148770476Y-93107619D01*
X148722857Y-93202857D01*
X148722857Y-93345714D01*
X148770476Y-93440952D01*
X148818095Y-93488571D01*
X148913333Y-93536190D01*
X149294285Y-93536190D01*
X147770476Y-94012380D02*
X148341904Y-94012380D01*
X148056190Y-94012380D02*
X148056190Y-93012380D01*
X148151428Y-93155238D01*
X148246666Y-93250476D01*
X148341904Y-93298095D01*
X147151428Y-93012380D02*
X147056190Y-93012380D01*
X146960952Y-93060000D01*
X146913333Y-93107619D01*
X146865714Y-93202857D01*
X146818095Y-93393333D01*
X146818095Y-93631428D01*
X146865714Y-93821904D01*
X146913333Y-93917142D01*
X146960952Y-93964761D01*
X147056190Y-94012380D01*
X147151428Y-94012380D01*
X147246666Y-93964761D01*
X147294285Y-93917142D01*
X147341904Y-93821904D01*
X147389523Y-93631428D01*
X147389523Y-93393333D01*
X147341904Y-93202857D01*
X147294285Y-93107619D01*
X147246666Y-93060000D01*
X147151428Y-93012380D01*
%TO.C,TP31*%
X160478095Y-88752380D02*
X159906666Y-88752380D01*
X160192380Y-89752380D02*
X160192380Y-88752380D01*
X159573333Y-89752380D02*
X159573333Y-88752380D01*
X159192380Y-88752380D01*
X159097142Y-88800000D01*
X159049523Y-88847619D01*
X159001904Y-88942857D01*
X159001904Y-89085714D01*
X159049523Y-89180952D01*
X159097142Y-89228571D01*
X159192380Y-89276190D01*
X159573333Y-89276190D01*
X158668571Y-88752380D02*
X158049523Y-88752380D01*
X158382857Y-89133333D01*
X158240000Y-89133333D01*
X158144761Y-89180952D01*
X158097142Y-89228571D01*
X158049523Y-89323809D01*
X158049523Y-89561904D01*
X158097142Y-89657142D01*
X158144761Y-89704761D01*
X158240000Y-89752380D01*
X158525714Y-89752380D01*
X158620952Y-89704761D01*
X158668571Y-89657142D01*
X157097142Y-89752380D02*
X157668571Y-89752380D01*
X157382857Y-89752380D02*
X157382857Y-88752380D01*
X157478095Y-88895238D01*
X157573333Y-88990476D01*
X157668571Y-89038095D01*
%TO.C,TP30*%
X167918095Y-88592380D02*
X167346666Y-88592380D01*
X167632380Y-89592380D02*
X167632380Y-88592380D01*
X167013333Y-89592380D02*
X167013333Y-88592380D01*
X166632380Y-88592380D01*
X166537142Y-88640000D01*
X166489523Y-88687619D01*
X166441904Y-88782857D01*
X166441904Y-88925714D01*
X166489523Y-89020952D01*
X166537142Y-89068571D01*
X166632380Y-89116190D01*
X167013333Y-89116190D01*
X166108571Y-88592380D02*
X165489523Y-88592380D01*
X165822857Y-88973333D01*
X165680000Y-88973333D01*
X165584761Y-89020952D01*
X165537142Y-89068571D01*
X165489523Y-89163809D01*
X165489523Y-89401904D01*
X165537142Y-89497142D01*
X165584761Y-89544761D01*
X165680000Y-89592380D01*
X165965714Y-89592380D01*
X166060952Y-89544761D01*
X166108571Y-89497142D01*
X164870476Y-88592380D02*
X164775238Y-88592380D01*
X164680000Y-88640000D01*
X164632380Y-88687619D01*
X164584761Y-88782857D01*
X164537142Y-88973333D01*
X164537142Y-89211428D01*
X164584761Y-89401904D01*
X164632380Y-89497142D01*
X164680000Y-89544761D01*
X164775238Y-89592380D01*
X164870476Y-89592380D01*
X164965714Y-89544761D01*
X165013333Y-89497142D01*
X165060952Y-89401904D01*
X165108571Y-89211428D01*
X165108571Y-88973333D01*
X165060952Y-88782857D01*
X165013333Y-88687619D01*
X164965714Y-88640000D01*
X164870476Y-88592380D01*
%TO.C,TP17*%
X134328095Y-83264380D02*
X133756666Y-83264380D01*
X134042380Y-84264380D02*
X134042380Y-83264380D01*
X133423333Y-84264380D02*
X133423333Y-83264380D01*
X133042380Y-83264380D01*
X132947142Y-83312000D01*
X132899523Y-83359619D01*
X132851904Y-83454857D01*
X132851904Y-83597714D01*
X132899523Y-83692952D01*
X132947142Y-83740571D01*
X133042380Y-83788190D01*
X133423333Y-83788190D01*
X131899523Y-84264380D02*
X132470952Y-84264380D01*
X132185238Y-84264380D02*
X132185238Y-83264380D01*
X132280476Y-83407238D01*
X132375714Y-83502476D01*
X132470952Y-83550095D01*
X131566190Y-83264380D02*
X130899523Y-83264380D01*
X131328095Y-84264380D01*
%TO.C,TP19*%
X130703095Y-83237380D02*
X130131666Y-83237380D01*
X130417380Y-84237380D02*
X130417380Y-83237380D01*
X129798333Y-84237380D02*
X129798333Y-83237380D01*
X129417380Y-83237380D01*
X129322142Y-83285000D01*
X129274523Y-83332619D01*
X129226904Y-83427857D01*
X129226904Y-83570714D01*
X129274523Y-83665952D01*
X129322142Y-83713571D01*
X129417380Y-83761190D01*
X129798333Y-83761190D01*
X128274523Y-84237380D02*
X128845952Y-84237380D01*
X128560238Y-84237380D02*
X128560238Y-83237380D01*
X128655476Y-83380238D01*
X128750714Y-83475476D01*
X128845952Y-83523095D01*
X127798333Y-84237380D02*
X127607857Y-84237380D01*
X127512619Y-84189761D01*
X127465000Y-84142142D01*
X127369761Y-83999285D01*
X127322142Y-83808809D01*
X127322142Y-83427857D01*
X127369761Y-83332619D01*
X127417380Y-83285000D01*
X127512619Y-83237380D01*
X127703095Y-83237380D01*
X127798333Y-83285000D01*
X127845952Y-83332619D01*
X127893571Y-83427857D01*
X127893571Y-83665952D01*
X127845952Y-83761190D01*
X127798333Y-83808809D01*
X127703095Y-83856428D01*
X127512619Y-83856428D01*
X127417380Y-83808809D01*
X127369761Y-83761190D01*
X127322142Y-83665952D01*
%TO.C,R9*%
X148026666Y-95562380D02*
X148360000Y-95086190D01*
X148598095Y-95562380D02*
X148598095Y-94562380D01*
X148217142Y-94562380D01*
X148121904Y-94610000D01*
X148074285Y-94657619D01*
X148026666Y-94752857D01*
X148026666Y-94895714D01*
X148074285Y-94990952D01*
X148121904Y-95038571D01*
X148217142Y-95086190D01*
X148598095Y-95086190D01*
X147550476Y-95562380D02*
X147360000Y-95562380D01*
X147264761Y-95514761D01*
X147217142Y-95467142D01*
X147121904Y-95324285D01*
X147074285Y-95133809D01*
X147074285Y-94752857D01*
X147121904Y-94657619D01*
X147169523Y-94610000D01*
X147264761Y-94562380D01*
X147455238Y-94562380D01*
X147550476Y-94610000D01*
X147598095Y-94657619D01*
X147645714Y-94752857D01*
X147645714Y-94990952D01*
X147598095Y-95086190D01*
X147550476Y-95133809D01*
X147455238Y-95181428D01*
X147264761Y-95181428D01*
X147169523Y-95133809D01*
X147121904Y-95086190D01*
X147074285Y-94990952D01*
%TO.C,TP32*%
X164358095Y-94742380D02*
X163786666Y-94742380D01*
X164072380Y-95742380D02*
X164072380Y-94742380D01*
X163453333Y-95742380D02*
X163453333Y-94742380D01*
X163072380Y-94742380D01*
X162977142Y-94790000D01*
X162929523Y-94837619D01*
X162881904Y-94932857D01*
X162881904Y-95075714D01*
X162929523Y-95170952D01*
X162977142Y-95218571D01*
X163072380Y-95266190D01*
X163453333Y-95266190D01*
X162548571Y-94742380D02*
X161929523Y-94742380D01*
X162262857Y-95123333D01*
X162120000Y-95123333D01*
X162024761Y-95170952D01*
X161977142Y-95218571D01*
X161929523Y-95313809D01*
X161929523Y-95551904D01*
X161977142Y-95647142D01*
X162024761Y-95694761D01*
X162120000Y-95742380D01*
X162405714Y-95742380D01*
X162500952Y-95694761D01*
X162548571Y-95647142D01*
X161548571Y-94837619D02*
X161500952Y-94790000D01*
X161405714Y-94742380D01*
X161167619Y-94742380D01*
X161072380Y-94790000D01*
X161024761Y-94837619D01*
X160977142Y-94932857D01*
X160977142Y-95028095D01*
X161024761Y-95170952D01*
X161596190Y-95742380D01*
X160977142Y-95742380D01*
%TO.C,D6*%
X190927380Y-65371904D02*
X189927380Y-65371904D01*
X189927380Y-65610000D01*
X189975000Y-65752857D01*
X190070238Y-65848095D01*
X190165476Y-65895714D01*
X190355952Y-65943333D01*
X190498809Y-65943333D01*
X190689285Y-65895714D01*
X190784523Y-65848095D01*
X190879761Y-65752857D01*
X190927380Y-65610000D01*
X190927380Y-65371904D01*
X189927380Y-66800476D02*
X189927380Y-66610000D01*
X189975000Y-66514761D01*
X190022619Y-66467142D01*
X190165476Y-66371904D01*
X190355952Y-66324285D01*
X190736904Y-66324285D01*
X190832142Y-66371904D01*
X190879761Y-66419523D01*
X190927380Y-66514761D01*
X190927380Y-66705238D01*
X190879761Y-66800476D01*
X190832142Y-66848095D01*
X190736904Y-66895714D01*
X190498809Y-66895714D01*
X190403571Y-66848095D01*
X190355952Y-66800476D01*
X190308333Y-66705238D01*
X190308333Y-66514761D01*
X190355952Y-66419523D01*
X190403571Y-66371904D01*
X190498809Y-66324285D01*
%TO.C,R11*%
X148682857Y-92442380D02*
X149016190Y-91966190D01*
X149254285Y-92442380D02*
X149254285Y-91442380D01*
X148873333Y-91442380D01*
X148778095Y-91490000D01*
X148730476Y-91537619D01*
X148682857Y-91632857D01*
X148682857Y-91775714D01*
X148730476Y-91870952D01*
X148778095Y-91918571D01*
X148873333Y-91966190D01*
X149254285Y-91966190D01*
X147730476Y-92442380D02*
X148301904Y-92442380D01*
X148016190Y-92442380D02*
X148016190Y-91442380D01*
X148111428Y-91585238D01*
X148206666Y-91680476D01*
X148301904Y-91728095D01*
X146778095Y-92442380D02*
X147349523Y-92442380D01*
X147063809Y-92442380D02*
X147063809Y-91442380D01*
X147159047Y-91585238D01*
X147254285Y-91680476D01*
X147349523Y-91728095D01*
%TO.C,TP18*%
X138133095Y-83357380D02*
X137561666Y-83357380D01*
X137847380Y-84357380D02*
X137847380Y-83357380D01*
X137228333Y-84357380D02*
X137228333Y-83357380D01*
X136847380Y-83357380D01*
X136752142Y-83405000D01*
X136704523Y-83452619D01*
X136656904Y-83547857D01*
X136656904Y-83690714D01*
X136704523Y-83785952D01*
X136752142Y-83833571D01*
X136847380Y-83881190D01*
X137228333Y-83881190D01*
X135704523Y-84357380D02*
X136275952Y-84357380D01*
X135990238Y-84357380D02*
X135990238Y-83357380D01*
X136085476Y-83500238D01*
X136180714Y-83595476D01*
X136275952Y-83643095D01*
X135133095Y-83785952D02*
X135228333Y-83738333D01*
X135275952Y-83690714D01*
X135323571Y-83595476D01*
X135323571Y-83547857D01*
X135275952Y-83452619D01*
X135228333Y-83405000D01*
X135133095Y-83357380D01*
X134942619Y-83357380D01*
X134847380Y-83405000D01*
X134799761Y-83452619D01*
X134752142Y-83547857D01*
X134752142Y-83595476D01*
X134799761Y-83690714D01*
X134847380Y-83738333D01*
X134942619Y-83785952D01*
X135133095Y-83785952D01*
X135228333Y-83833571D01*
X135275952Y-83881190D01*
X135323571Y-83976428D01*
X135323571Y-84166904D01*
X135275952Y-84262142D01*
X135228333Y-84309761D01*
X135133095Y-84357380D01*
X134942619Y-84357380D01*
X134847380Y-84309761D01*
X134799761Y-84262142D01*
X134752142Y-84166904D01*
X134752142Y-83976428D01*
X134799761Y-83881190D01*
X134847380Y-83833571D01*
X134942619Y-83785952D01*
%TO.C,Q2*%
X185515238Y-69457619D02*
X185610476Y-69410000D01*
X185705714Y-69314761D01*
X185848571Y-69171904D01*
X185943809Y-69124285D01*
X186039047Y-69124285D01*
X185991428Y-69362380D02*
X186086666Y-69314761D01*
X186181904Y-69219523D01*
X186229523Y-69029047D01*
X186229523Y-68695714D01*
X186181904Y-68505238D01*
X186086666Y-68410000D01*
X185991428Y-68362380D01*
X185800952Y-68362380D01*
X185705714Y-68410000D01*
X185610476Y-68505238D01*
X185562857Y-68695714D01*
X185562857Y-69029047D01*
X185610476Y-69219523D01*
X185705714Y-69314761D01*
X185800952Y-69362380D01*
X185991428Y-69362380D01*
X185181904Y-68457619D02*
X185134285Y-68410000D01*
X185039047Y-68362380D01*
X184800952Y-68362380D01*
X184705714Y-68410000D01*
X184658095Y-68457619D01*
X184610476Y-68552857D01*
X184610476Y-68648095D01*
X184658095Y-68790952D01*
X185229523Y-69362380D01*
X184610476Y-69362380D01*
%TO.C,R27*%
X120842857Y-80032380D02*
X121176190Y-79556190D01*
X121414285Y-80032380D02*
X121414285Y-79032380D01*
X121033333Y-79032380D01*
X120938095Y-79080000D01*
X120890476Y-79127619D01*
X120842857Y-79222857D01*
X120842857Y-79365714D01*
X120890476Y-79460952D01*
X120938095Y-79508571D01*
X121033333Y-79556190D01*
X121414285Y-79556190D01*
X120461904Y-79127619D02*
X120414285Y-79080000D01*
X120319047Y-79032380D01*
X120080952Y-79032380D01*
X119985714Y-79080000D01*
X119938095Y-79127619D01*
X119890476Y-79222857D01*
X119890476Y-79318095D01*
X119938095Y-79460952D01*
X120509523Y-80032380D01*
X119890476Y-80032380D01*
X119557142Y-79032380D02*
X118890476Y-79032380D01*
X119319047Y-80032380D01*
%TO.C,Q4*%
X126257619Y-72814761D02*
X126210000Y-72719523D01*
X126114761Y-72624285D01*
X125971904Y-72481428D01*
X125924285Y-72386190D01*
X125924285Y-72290952D01*
X126162380Y-72338571D02*
X126114761Y-72243333D01*
X126019523Y-72148095D01*
X125829047Y-72100476D01*
X125495714Y-72100476D01*
X125305238Y-72148095D01*
X125210000Y-72243333D01*
X125162380Y-72338571D01*
X125162380Y-72529047D01*
X125210000Y-72624285D01*
X125305238Y-72719523D01*
X125495714Y-72767142D01*
X125829047Y-72767142D01*
X126019523Y-72719523D01*
X126114761Y-72624285D01*
X126162380Y-72529047D01*
X126162380Y-72338571D01*
X125495714Y-73624285D02*
X126162380Y-73624285D01*
X125114761Y-73386190D02*
X125829047Y-73148095D01*
X125829047Y-73767142D01*
%TO.C,U6*%
X176571904Y-72062380D02*
X176571904Y-72871904D01*
X176524285Y-72967142D01*
X176476666Y-73014761D01*
X176381428Y-73062380D01*
X176190952Y-73062380D01*
X176095714Y-73014761D01*
X176048095Y-72967142D01*
X176000476Y-72871904D01*
X176000476Y-72062380D01*
X175095714Y-72062380D02*
X175286190Y-72062380D01*
X175381428Y-72110000D01*
X175429047Y-72157619D01*
X175524285Y-72300476D01*
X175571904Y-72490952D01*
X175571904Y-72871904D01*
X175524285Y-72967142D01*
X175476666Y-73014761D01*
X175381428Y-73062380D01*
X175190952Y-73062380D01*
X175095714Y-73014761D01*
X175048095Y-72967142D01*
X175000476Y-72871904D01*
X175000476Y-72633809D01*
X175048095Y-72538571D01*
X175095714Y-72490952D01*
X175190952Y-72443333D01*
X175381428Y-72443333D01*
X175476666Y-72490952D01*
X175524285Y-72538571D01*
X175571904Y-72633809D01*
%TO.C,C8*%
X124594642Y-92828333D02*
X124642261Y-92780714D01*
X124689880Y-92637857D01*
X124689880Y-92542619D01*
X124642261Y-92399761D01*
X124547023Y-92304523D01*
X124451785Y-92256904D01*
X124261309Y-92209285D01*
X124118452Y-92209285D01*
X123927976Y-92256904D01*
X123832738Y-92304523D01*
X123737500Y-92399761D01*
X123689880Y-92542619D01*
X123689880Y-92637857D01*
X123737500Y-92780714D01*
X123785119Y-92828333D01*
X124118452Y-93399761D02*
X124070833Y-93304523D01*
X124023214Y-93256904D01*
X123927976Y-93209285D01*
X123880357Y-93209285D01*
X123785119Y-93256904D01*
X123737500Y-93304523D01*
X123689880Y-93399761D01*
X123689880Y-93590238D01*
X123737500Y-93685476D01*
X123785119Y-93733095D01*
X123880357Y-93780714D01*
X123927976Y-93780714D01*
X124023214Y-93733095D01*
X124070833Y-93685476D01*
X124118452Y-93590238D01*
X124118452Y-93399761D01*
X124166071Y-93304523D01*
X124213690Y-93256904D01*
X124308928Y-93209285D01*
X124499404Y-93209285D01*
X124594642Y-93256904D01*
X124642261Y-93304523D01*
X124689880Y-93399761D01*
X124689880Y-93590238D01*
X124642261Y-93685476D01*
X124594642Y-93733095D01*
X124499404Y-93780714D01*
X124308928Y-93780714D01*
X124213690Y-93733095D01*
X124166071Y-93685476D01*
X124118452Y-93590238D01*
%TO.C,R36*%
X111342857Y-80062380D02*
X111676190Y-79586190D01*
X111914285Y-80062380D02*
X111914285Y-79062380D01*
X111533333Y-79062380D01*
X111438095Y-79110000D01*
X111390476Y-79157619D01*
X111342857Y-79252857D01*
X111342857Y-79395714D01*
X111390476Y-79490952D01*
X111438095Y-79538571D01*
X111533333Y-79586190D01*
X111914285Y-79586190D01*
X111009523Y-79062380D02*
X110390476Y-79062380D01*
X110723809Y-79443333D01*
X110580952Y-79443333D01*
X110485714Y-79490952D01*
X110438095Y-79538571D01*
X110390476Y-79633809D01*
X110390476Y-79871904D01*
X110438095Y-79967142D01*
X110485714Y-80014761D01*
X110580952Y-80062380D01*
X110866666Y-80062380D01*
X110961904Y-80014761D01*
X111009523Y-79967142D01*
X109533333Y-79062380D02*
X109723809Y-79062380D01*
X109819047Y-79110000D01*
X109866666Y-79157619D01*
X109961904Y-79300476D01*
X110009523Y-79490952D01*
X110009523Y-79871904D01*
X109961904Y-79967142D01*
X109914285Y-80014761D01*
X109819047Y-80062380D01*
X109628571Y-80062380D01*
X109533333Y-80014761D01*
X109485714Y-79967142D01*
X109438095Y-79871904D01*
X109438095Y-79633809D01*
X109485714Y-79538571D01*
X109533333Y-79490952D01*
X109628571Y-79443333D01*
X109819047Y-79443333D01*
X109914285Y-79490952D01*
X109961904Y-79538571D01*
X110009523Y-79633809D01*
%TO.C,D8*%
X137548095Y-69082380D02*
X137548095Y-68082380D01*
X137310000Y-68082380D01*
X137167142Y-68130000D01*
X137071904Y-68225238D01*
X137024285Y-68320476D01*
X136976666Y-68510952D01*
X136976666Y-68653809D01*
X137024285Y-68844285D01*
X137071904Y-68939523D01*
X137167142Y-69034761D01*
X137310000Y-69082380D01*
X137548095Y-69082380D01*
X136405238Y-68510952D02*
X136500476Y-68463333D01*
X136548095Y-68415714D01*
X136595714Y-68320476D01*
X136595714Y-68272857D01*
X136548095Y-68177619D01*
X136500476Y-68130000D01*
X136405238Y-68082380D01*
X136214761Y-68082380D01*
X136119523Y-68130000D01*
X136071904Y-68177619D01*
X136024285Y-68272857D01*
X136024285Y-68320476D01*
X136071904Y-68415714D01*
X136119523Y-68463333D01*
X136214761Y-68510952D01*
X136405238Y-68510952D01*
X136500476Y-68558571D01*
X136548095Y-68606190D01*
X136595714Y-68701428D01*
X136595714Y-68891904D01*
X136548095Y-68987142D01*
X136500476Y-69034761D01*
X136405238Y-69082380D01*
X136214761Y-69082380D01*
X136119523Y-69034761D01*
X136071904Y-68987142D01*
X136024285Y-68891904D01*
X136024285Y-68701428D01*
X136071904Y-68606190D01*
X136119523Y-68558571D01*
X136214761Y-68510952D01*
%TO.C,C9*%
X185186666Y-81577142D02*
X185234285Y-81624761D01*
X185377142Y-81672380D01*
X185472380Y-81672380D01*
X185615238Y-81624761D01*
X185710476Y-81529523D01*
X185758095Y-81434285D01*
X185805714Y-81243809D01*
X185805714Y-81100952D01*
X185758095Y-80910476D01*
X185710476Y-80815238D01*
X185615238Y-80720000D01*
X185472380Y-80672380D01*
X185377142Y-80672380D01*
X185234285Y-80720000D01*
X185186666Y-80767619D01*
X184710476Y-81672380D02*
X184520000Y-81672380D01*
X184424761Y-81624761D01*
X184377142Y-81577142D01*
X184281904Y-81434285D01*
X184234285Y-81243809D01*
X184234285Y-80862857D01*
X184281904Y-80767619D01*
X184329523Y-80720000D01*
X184424761Y-80672380D01*
X184615238Y-80672380D01*
X184710476Y-80720000D01*
X184758095Y-80767619D01*
X184805714Y-80862857D01*
X184805714Y-81100952D01*
X184758095Y-81196190D01*
X184710476Y-81243809D01*
X184615238Y-81291428D01*
X184424761Y-81291428D01*
X184329523Y-81243809D01*
X184281904Y-81196190D01*
X184234285Y-81100952D01*
%TO.C,D10*%
X123864285Y-68962380D02*
X123864285Y-67962380D01*
X123626190Y-67962380D01*
X123483333Y-68010000D01*
X123388095Y-68105238D01*
X123340476Y-68200476D01*
X123292857Y-68390952D01*
X123292857Y-68533809D01*
X123340476Y-68724285D01*
X123388095Y-68819523D01*
X123483333Y-68914761D01*
X123626190Y-68962380D01*
X123864285Y-68962380D01*
X122340476Y-68962380D02*
X122911904Y-68962380D01*
X122626190Y-68962380D02*
X122626190Y-67962380D01*
X122721428Y-68105238D01*
X122816666Y-68200476D01*
X122911904Y-68248095D01*
X121721428Y-67962380D02*
X121626190Y-67962380D01*
X121530952Y-68010000D01*
X121483333Y-68057619D01*
X121435714Y-68152857D01*
X121388095Y-68343333D01*
X121388095Y-68581428D01*
X121435714Y-68771904D01*
X121483333Y-68867142D01*
X121530952Y-68914761D01*
X121626190Y-68962380D01*
X121721428Y-68962380D01*
X121816666Y-68914761D01*
X121864285Y-68867142D01*
X121911904Y-68771904D01*
X121959523Y-68581428D01*
X121959523Y-68343333D01*
X121911904Y-68152857D01*
X121864285Y-68057619D01*
X121816666Y-68010000D01*
X121721428Y-67962380D01*
%TO.C,R29*%
X114332857Y-80002380D02*
X114666190Y-79526190D01*
X114904285Y-80002380D02*
X114904285Y-79002380D01*
X114523333Y-79002380D01*
X114428095Y-79050000D01*
X114380476Y-79097619D01*
X114332857Y-79192857D01*
X114332857Y-79335714D01*
X114380476Y-79430952D01*
X114428095Y-79478571D01*
X114523333Y-79526190D01*
X114904285Y-79526190D01*
X113951904Y-79097619D02*
X113904285Y-79050000D01*
X113809047Y-79002380D01*
X113570952Y-79002380D01*
X113475714Y-79050000D01*
X113428095Y-79097619D01*
X113380476Y-79192857D01*
X113380476Y-79288095D01*
X113428095Y-79430952D01*
X113999523Y-80002380D01*
X113380476Y-80002380D01*
X112904285Y-80002380D02*
X112713809Y-80002380D01*
X112618571Y-79954761D01*
X112570952Y-79907142D01*
X112475714Y-79764285D01*
X112428095Y-79573809D01*
X112428095Y-79192857D01*
X112475714Y-79097619D01*
X112523333Y-79050000D01*
X112618571Y-79002380D01*
X112809047Y-79002380D01*
X112904285Y-79050000D01*
X112951904Y-79097619D01*
X112999523Y-79192857D01*
X112999523Y-79430952D01*
X112951904Y-79526190D01*
X112904285Y-79573809D01*
X112809047Y-79621428D01*
X112618571Y-79621428D01*
X112523333Y-79573809D01*
X112475714Y-79526190D01*
X112428095Y-79430952D01*
%TO.C,Q6*%
X118287619Y-72784761D02*
X118240000Y-72689523D01*
X118144761Y-72594285D01*
X118001904Y-72451428D01*
X117954285Y-72356190D01*
X117954285Y-72260952D01*
X118192380Y-72308571D02*
X118144761Y-72213333D01*
X118049523Y-72118095D01*
X117859047Y-72070476D01*
X117525714Y-72070476D01*
X117335238Y-72118095D01*
X117240000Y-72213333D01*
X117192380Y-72308571D01*
X117192380Y-72499047D01*
X117240000Y-72594285D01*
X117335238Y-72689523D01*
X117525714Y-72737142D01*
X117859047Y-72737142D01*
X118049523Y-72689523D01*
X118144761Y-72594285D01*
X118192380Y-72499047D01*
X118192380Y-72308571D01*
X117192380Y-73594285D02*
X117192380Y-73403809D01*
X117240000Y-73308571D01*
X117287619Y-73260952D01*
X117430476Y-73165714D01*
X117620952Y-73118095D01*
X118001904Y-73118095D01*
X118097142Y-73165714D01*
X118144761Y-73213333D01*
X118192380Y-73308571D01*
X118192380Y-73499047D01*
X118144761Y-73594285D01*
X118097142Y-73641904D01*
X118001904Y-73689523D01*
X117763809Y-73689523D01*
X117668571Y-73641904D01*
X117620952Y-73594285D01*
X117573333Y-73499047D01*
X117573333Y-73308571D01*
X117620952Y-73213333D01*
X117668571Y-73165714D01*
X117763809Y-73118095D01*
%TO.C,C10*%
X184242857Y-77917142D02*
X184290476Y-77964761D01*
X184433333Y-78012380D01*
X184528571Y-78012380D01*
X184671428Y-77964761D01*
X184766666Y-77869523D01*
X184814285Y-77774285D01*
X184861904Y-77583809D01*
X184861904Y-77440952D01*
X184814285Y-77250476D01*
X184766666Y-77155238D01*
X184671428Y-77060000D01*
X184528571Y-77012380D01*
X184433333Y-77012380D01*
X184290476Y-77060000D01*
X184242857Y-77107619D01*
X183290476Y-78012380D02*
X183861904Y-78012380D01*
X183576190Y-78012380D02*
X183576190Y-77012380D01*
X183671428Y-77155238D01*
X183766666Y-77250476D01*
X183861904Y-77298095D01*
X182671428Y-77012380D02*
X182576190Y-77012380D01*
X182480952Y-77060000D01*
X182433333Y-77107619D01*
X182385714Y-77202857D01*
X182338095Y-77393333D01*
X182338095Y-77631428D01*
X182385714Y-77821904D01*
X182433333Y-77917142D01*
X182480952Y-77964761D01*
X182576190Y-78012380D01*
X182671428Y-78012380D01*
X182766666Y-77964761D01*
X182814285Y-77917142D01*
X182861904Y-77821904D01*
X182909523Y-77631428D01*
X182909523Y-77393333D01*
X182861904Y-77202857D01*
X182814285Y-77107619D01*
X182766666Y-77060000D01*
X182671428Y-77012380D01*
%TO.C,D16*%
X115974285Y-68872380D02*
X115974285Y-67872380D01*
X115736190Y-67872380D01*
X115593333Y-67920000D01*
X115498095Y-68015238D01*
X115450476Y-68110476D01*
X115402857Y-68300952D01*
X115402857Y-68443809D01*
X115450476Y-68634285D01*
X115498095Y-68729523D01*
X115593333Y-68824761D01*
X115736190Y-68872380D01*
X115974285Y-68872380D01*
X114450476Y-68872380D02*
X115021904Y-68872380D01*
X114736190Y-68872380D02*
X114736190Y-67872380D01*
X114831428Y-68015238D01*
X114926666Y-68110476D01*
X115021904Y-68158095D01*
X113593333Y-67872380D02*
X113783809Y-67872380D01*
X113879047Y-67920000D01*
X113926666Y-67967619D01*
X114021904Y-68110476D01*
X114069523Y-68300952D01*
X114069523Y-68681904D01*
X114021904Y-68777142D01*
X113974285Y-68824761D01*
X113879047Y-68872380D01*
X113688571Y-68872380D01*
X113593333Y-68824761D01*
X113545714Y-68777142D01*
X113498095Y-68681904D01*
X113498095Y-68443809D01*
X113545714Y-68348571D01*
X113593333Y-68300952D01*
X113688571Y-68253333D01*
X113879047Y-68253333D01*
X113974285Y-68300952D01*
X114021904Y-68348571D01*
X114069523Y-68443809D01*
%TO.C,C7*%
X124587142Y-88368333D02*
X124634761Y-88320714D01*
X124682380Y-88177857D01*
X124682380Y-88082619D01*
X124634761Y-87939761D01*
X124539523Y-87844523D01*
X124444285Y-87796904D01*
X124253809Y-87749285D01*
X124110952Y-87749285D01*
X123920476Y-87796904D01*
X123825238Y-87844523D01*
X123730000Y-87939761D01*
X123682380Y-88082619D01*
X123682380Y-88177857D01*
X123730000Y-88320714D01*
X123777619Y-88368333D01*
X123682380Y-88701666D02*
X123682380Y-89368333D01*
X124682380Y-88939761D01*
%TO.C,D15*%
X131434285Y-69072380D02*
X131434285Y-68072380D01*
X131196190Y-68072380D01*
X131053333Y-68120000D01*
X130958095Y-68215238D01*
X130910476Y-68310476D01*
X130862857Y-68500952D01*
X130862857Y-68643809D01*
X130910476Y-68834285D01*
X130958095Y-68929523D01*
X131053333Y-69024761D01*
X131196190Y-69072380D01*
X131434285Y-69072380D01*
X129910476Y-69072380D02*
X130481904Y-69072380D01*
X130196190Y-69072380D02*
X130196190Y-68072380D01*
X130291428Y-68215238D01*
X130386666Y-68310476D01*
X130481904Y-68358095D01*
X129005714Y-68072380D02*
X129481904Y-68072380D01*
X129529523Y-68548571D01*
X129481904Y-68500952D01*
X129386666Y-68453333D01*
X129148571Y-68453333D01*
X129053333Y-68500952D01*
X129005714Y-68548571D01*
X128958095Y-68643809D01*
X128958095Y-68881904D01*
X129005714Y-68977142D01*
X129053333Y-69024761D01*
X129148571Y-69072380D01*
X129386666Y-69072380D01*
X129481904Y-69024761D01*
X129529523Y-68977142D01*
%TO.C,R35*%
X117852857Y-80052380D02*
X118186190Y-79576190D01*
X118424285Y-80052380D02*
X118424285Y-79052380D01*
X118043333Y-79052380D01*
X117948095Y-79100000D01*
X117900476Y-79147619D01*
X117852857Y-79242857D01*
X117852857Y-79385714D01*
X117900476Y-79480952D01*
X117948095Y-79528571D01*
X118043333Y-79576190D01*
X118424285Y-79576190D01*
X117519523Y-79052380D02*
X116900476Y-79052380D01*
X117233809Y-79433333D01*
X117090952Y-79433333D01*
X116995714Y-79480952D01*
X116948095Y-79528571D01*
X116900476Y-79623809D01*
X116900476Y-79861904D01*
X116948095Y-79957142D01*
X116995714Y-80004761D01*
X117090952Y-80052380D01*
X117376666Y-80052380D01*
X117471904Y-80004761D01*
X117519523Y-79957142D01*
X115995714Y-79052380D02*
X116471904Y-79052380D01*
X116519523Y-79528571D01*
X116471904Y-79480952D01*
X116376666Y-79433333D01*
X116138571Y-79433333D01*
X116043333Y-79480952D01*
X115995714Y-79528571D01*
X115948095Y-79623809D01*
X115948095Y-79861904D01*
X115995714Y-79957142D01*
X116043333Y-80004761D01*
X116138571Y-80052380D01*
X116376666Y-80052380D01*
X116471904Y-80004761D01*
X116519523Y-79957142D01*
%TO.C,Q3*%
X141577619Y-72824761D02*
X141530000Y-72729523D01*
X141434761Y-72634285D01*
X141291904Y-72491428D01*
X141244285Y-72396190D01*
X141244285Y-72300952D01*
X141482380Y-72348571D02*
X141434761Y-72253333D01*
X141339523Y-72158095D01*
X141149047Y-72110476D01*
X140815714Y-72110476D01*
X140625238Y-72158095D01*
X140530000Y-72253333D01*
X140482380Y-72348571D01*
X140482380Y-72539047D01*
X140530000Y-72634285D01*
X140625238Y-72729523D01*
X140815714Y-72777142D01*
X141149047Y-72777142D01*
X141339523Y-72729523D01*
X141434761Y-72634285D01*
X141482380Y-72539047D01*
X141482380Y-72348571D01*
X140482380Y-73110476D02*
X140482380Y-73729523D01*
X140863333Y-73396190D01*
X140863333Y-73539047D01*
X140910952Y-73634285D01*
X140958571Y-73681904D01*
X141053809Y-73729523D01*
X141291904Y-73729523D01*
X141387142Y-73681904D01*
X141434761Y-73634285D01*
X141482380Y-73539047D01*
X141482380Y-73253333D01*
X141434761Y-73158095D01*
X141387142Y-73110476D01*
%TO.C,Q5*%
X133947619Y-72744761D02*
X133900000Y-72649523D01*
X133804761Y-72554285D01*
X133661904Y-72411428D01*
X133614285Y-72316190D01*
X133614285Y-72220952D01*
X133852380Y-72268571D02*
X133804761Y-72173333D01*
X133709523Y-72078095D01*
X133519047Y-72030476D01*
X133185714Y-72030476D01*
X132995238Y-72078095D01*
X132900000Y-72173333D01*
X132852380Y-72268571D01*
X132852380Y-72459047D01*
X132900000Y-72554285D01*
X132995238Y-72649523D01*
X133185714Y-72697142D01*
X133519047Y-72697142D01*
X133709523Y-72649523D01*
X133804761Y-72554285D01*
X133852380Y-72459047D01*
X133852380Y-72268571D01*
X132852380Y-73601904D02*
X132852380Y-73125714D01*
X133328571Y-73078095D01*
X133280952Y-73125714D01*
X133233333Y-73220952D01*
X133233333Y-73459047D01*
X133280952Y-73554285D01*
X133328571Y-73601904D01*
X133423809Y-73649523D01*
X133661904Y-73649523D01*
X133757142Y-73601904D01*
X133804761Y-73554285D01*
X133852380Y-73459047D01*
X133852380Y-73220952D01*
X133804761Y-73125714D01*
X133757142Y-73078095D01*
%TO.C,R21*%
X134252857Y-88452380D02*
X134586190Y-87976190D01*
X134824285Y-88452380D02*
X134824285Y-87452380D01*
X134443333Y-87452380D01*
X134348095Y-87500000D01*
X134300476Y-87547619D01*
X134252857Y-87642857D01*
X134252857Y-87785714D01*
X134300476Y-87880952D01*
X134348095Y-87928571D01*
X134443333Y-87976190D01*
X134824285Y-87976190D01*
X133871904Y-87547619D02*
X133824285Y-87500000D01*
X133729047Y-87452380D01*
X133490952Y-87452380D01*
X133395714Y-87500000D01*
X133348095Y-87547619D01*
X133300476Y-87642857D01*
X133300476Y-87738095D01*
X133348095Y-87880952D01*
X133919523Y-88452380D01*
X133300476Y-88452380D01*
X132348095Y-88452380D02*
X132919523Y-88452380D01*
X132633809Y-88452380D02*
X132633809Y-87452380D01*
X132729047Y-87595238D01*
X132824285Y-87690476D01*
X132919523Y-87738095D01*
%TO.C,U5*%
X115591904Y-95852380D02*
X115591904Y-96661904D01*
X115544285Y-96757142D01*
X115496666Y-96804761D01*
X115401428Y-96852380D01*
X115210952Y-96852380D01*
X115115714Y-96804761D01*
X115068095Y-96757142D01*
X115020476Y-96661904D01*
X115020476Y-95852380D01*
X114068095Y-95852380D02*
X114544285Y-95852380D01*
X114591904Y-96328571D01*
X114544285Y-96280952D01*
X114449047Y-96233333D01*
X114210952Y-96233333D01*
X114115714Y-96280952D01*
X114068095Y-96328571D01*
X114020476Y-96423809D01*
X114020476Y-96661904D01*
X114068095Y-96757142D01*
X114115714Y-96804761D01*
X114210952Y-96852380D01*
X114449047Y-96852380D01*
X114544285Y-96804761D01*
X114591904Y-96757142D01*
%TO.C,R16*%
X134292857Y-89982380D02*
X134626190Y-89506190D01*
X134864285Y-89982380D02*
X134864285Y-88982380D01*
X134483333Y-88982380D01*
X134388095Y-89030000D01*
X134340476Y-89077619D01*
X134292857Y-89172857D01*
X134292857Y-89315714D01*
X134340476Y-89410952D01*
X134388095Y-89458571D01*
X134483333Y-89506190D01*
X134864285Y-89506190D01*
X133340476Y-89982380D02*
X133911904Y-89982380D01*
X133626190Y-89982380D02*
X133626190Y-88982380D01*
X133721428Y-89125238D01*
X133816666Y-89220476D01*
X133911904Y-89268095D01*
X132483333Y-88982380D02*
X132673809Y-88982380D01*
X132769047Y-89030000D01*
X132816666Y-89077619D01*
X132911904Y-89220476D01*
X132959523Y-89410952D01*
X132959523Y-89791904D01*
X132911904Y-89887142D01*
X132864285Y-89934761D01*
X132769047Y-89982380D01*
X132578571Y-89982380D01*
X132483333Y-89934761D01*
X132435714Y-89887142D01*
X132388095Y-89791904D01*
X132388095Y-89553809D01*
X132435714Y-89458571D01*
X132483333Y-89410952D01*
X132578571Y-89363333D01*
X132769047Y-89363333D01*
X132864285Y-89410952D01*
X132911904Y-89458571D01*
X132959523Y-89553809D01*
%TO.C,J5*%
X134853333Y-95032380D02*
X134853333Y-95746666D01*
X134900952Y-95889523D01*
X134996190Y-95984761D01*
X135139047Y-96032380D01*
X135234285Y-96032380D01*
X133900952Y-95032380D02*
X134377142Y-95032380D01*
X134424761Y-95508571D01*
X134377142Y-95460952D01*
X134281904Y-95413333D01*
X134043809Y-95413333D01*
X133948571Y-95460952D01*
X133900952Y-95508571D01*
X133853333Y-95603809D01*
X133853333Y-95841904D01*
X133900952Y-95937142D01*
X133948571Y-95984761D01*
X134043809Y-96032380D01*
X134281904Y-96032380D01*
X134377142Y-95984761D01*
X134424761Y-95937142D01*
%TO.C,JP2*%
X167382380Y-61596666D02*
X168096666Y-61596666D01*
X168239523Y-61549047D01*
X168334761Y-61453809D01*
X168382380Y-61310952D01*
X168382380Y-61215714D01*
X168382380Y-62072857D02*
X167382380Y-62072857D01*
X167382380Y-62453809D01*
X167430000Y-62549047D01*
X167477619Y-62596666D01*
X167572857Y-62644285D01*
X167715714Y-62644285D01*
X167810952Y-62596666D01*
X167858571Y-62549047D01*
X167906190Y-62453809D01*
X167906190Y-62072857D01*
X167477619Y-63025238D02*
X167430000Y-63072857D01*
X167382380Y-63168095D01*
X167382380Y-63406190D01*
X167430000Y-63501428D01*
X167477619Y-63549047D01*
X167572857Y-63596666D01*
X167668095Y-63596666D01*
X167810952Y-63549047D01*
X168382380Y-62977619D01*
X168382380Y-63596666D01*
%TO.C,R22*%
X136522380Y-88167142D02*
X136046190Y-87833809D01*
X136522380Y-87595714D02*
X135522380Y-87595714D01*
X135522380Y-87976666D01*
X135570000Y-88071904D01*
X135617619Y-88119523D01*
X135712857Y-88167142D01*
X135855714Y-88167142D01*
X135950952Y-88119523D01*
X135998571Y-88071904D01*
X136046190Y-87976666D01*
X136046190Y-87595714D01*
X135617619Y-88548095D02*
X135570000Y-88595714D01*
X135522380Y-88690952D01*
X135522380Y-88929047D01*
X135570000Y-89024285D01*
X135617619Y-89071904D01*
X135712857Y-89119523D01*
X135808095Y-89119523D01*
X135950952Y-89071904D01*
X136522380Y-88500476D01*
X136522380Y-89119523D01*
X135617619Y-89500476D02*
X135570000Y-89548095D01*
X135522380Y-89643333D01*
X135522380Y-89881428D01*
X135570000Y-89976666D01*
X135617619Y-90024285D01*
X135712857Y-90071904D01*
X135808095Y-90071904D01*
X135950952Y-90024285D01*
X136522380Y-89452857D01*
X136522380Y-90071904D01*
D11*
%TO.C,U4*%
X120300000Y-83425000D02*
X120300000Y-88225000D01*
X109900000Y-83425000D02*
X109900000Y-82025000D01*
X109500000Y-83425000D02*
X109900000Y-83425000D01*
X109500000Y-83425000D02*
X109500000Y-88225000D01*
D12*
%TO.C,REF\u002A\u002A*%
X196680000Y-83220000D02*
X186680000Y-83220000D01*
X186680000Y-83220000D02*
X186680000Y-73220000D01*
X186680000Y-73220000D02*
X196680000Y-73220000D01*
X196680000Y-73220000D02*
X196680000Y-83220000D01*
G36*
X196680000Y-83220000D02*
G01*
X186680000Y-83220000D01*
X186680000Y-73220000D01*
X196680000Y-73220000D01*
X196680000Y-83220000D01*
G37*
X196680000Y-83220000D02*
X186680000Y-83220000D01*
X186680000Y-73220000D01*
X196680000Y-73220000D01*
X196680000Y-83220000D01*
D13*
%TO.C,G\u002A\u002A\u002A*%
X178627457Y-78478858D02*
X178558742Y-78133484D01*
X178558742Y-78133484D02*
X178443066Y-77804898D01*
X178443066Y-77804898D02*
X178285398Y-77511098D01*
X178285398Y-77511098D02*
X178090704Y-77270083D01*
X178090704Y-77270083D02*
X178084096Y-77263616D01*
X178084096Y-77263616D02*
X177974671Y-77178748D01*
X177974671Y-77178748D02*
X177876323Y-77139273D01*
X177876323Y-77139273D02*
X177804095Y-77147571D01*
X177804095Y-77147571D02*
X177773033Y-77206023D01*
X177773033Y-77206023D02*
X177772769Y-77214358D01*
X177772769Y-77214358D02*
X177794221Y-77284453D01*
X177794221Y-77284453D02*
X177850451Y-77393394D01*
X177850451Y-77393394D02*
X177929026Y-77517204D01*
X177929026Y-77517204D02*
X178007126Y-77636288D01*
X178007126Y-77636288D02*
X178063169Y-77734276D01*
X178063169Y-77734276D02*
X178085317Y-77790421D01*
X178085317Y-77790421D02*
X178085334Y-77791154D01*
X178085334Y-77791154D02*
X178106787Y-77836591D01*
X178106787Y-77836591D02*
X178119153Y-77840000D01*
X178119153Y-77840000D02*
X178159446Y-77875875D01*
X178159446Y-77875875D02*
X178203692Y-77971572D01*
X178203692Y-77971572D02*
X178247565Y-78109197D01*
X178247565Y-78109197D02*
X178286736Y-78270858D01*
X178286736Y-78270858D02*
X178316879Y-78438664D01*
X178316879Y-78438664D02*
X178333664Y-78594722D01*
X178333664Y-78594722D02*
X178332765Y-78721138D01*
X178332765Y-78721138D02*
X178332614Y-78722545D01*
X178332614Y-78722545D02*
X178320909Y-78816832D01*
X178320909Y-78816832D02*
X178303797Y-78941214D01*
X178303797Y-78941214D02*
X178285396Y-79067301D01*
X178285396Y-79067301D02*
X178269823Y-79166706D01*
X178269823Y-79166706D02*
X178262232Y-79207693D01*
X178262232Y-79207693D02*
X178215905Y-79347089D01*
X178215905Y-79347089D02*
X178139631Y-79527480D01*
X178139631Y-79527480D02*
X178045268Y-79723825D01*
X178045268Y-79723825D02*
X177944671Y-79911083D01*
X177944671Y-79911083D02*
X177873688Y-80028308D01*
X177873688Y-80028308D02*
X177821805Y-80124895D01*
X177821805Y-80124895D02*
X177800196Y-80199614D01*
X177800196Y-80199614D02*
X177801679Y-80213923D01*
X177801679Y-80213923D02*
X177851462Y-80258321D01*
X177851462Y-80258321D02*
X177941968Y-80251978D01*
X177941968Y-80251978D02*
X178057570Y-80198311D01*
X178057570Y-80198311D02*
X178137819Y-80140450D01*
X178137819Y-80140450D02*
X178330341Y-79940100D01*
X178330341Y-79940100D02*
X178463696Y-79700618D01*
X178463696Y-79700618D02*
X178539283Y-79441047D01*
X178539283Y-79441047D02*
X178553976Y-79372377D01*
X178553976Y-79372377D02*
X178579837Y-79255775D01*
X178579837Y-79255775D02*
X178604137Y-79147970D01*
X178604137Y-79147970D02*
X178644245Y-78823019D01*
X178644245Y-78823019D02*
X178627457Y-78478858D01*
X178627457Y-78478858D02*
X178627457Y-78478858D01*
G36*
X177974671Y-77178748D02*
G01*
X178084096Y-77263616D01*
X178090704Y-77270083D01*
X178285398Y-77511098D01*
X178443066Y-77804898D01*
X178558742Y-78133484D01*
X178627457Y-78478858D01*
X178644245Y-78823019D01*
X178604137Y-79147970D01*
X178579837Y-79255775D01*
X178553976Y-79372377D01*
X178539283Y-79441047D01*
X178463696Y-79700618D01*
X178330341Y-79940100D01*
X178137819Y-80140450D01*
X178057570Y-80198311D01*
X177941968Y-80251978D01*
X177851462Y-80258321D01*
X177801679Y-80213923D01*
X177800196Y-80199614D01*
X177821805Y-80124895D01*
X177873688Y-80028308D01*
X177944671Y-79911083D01*
X178045268Y-79723825D01*
X178139631Y-79527480D01*
X178215905Y-79347089D01*
X178262232Y-79207693D01*
X178269823Y-79166706D01*
X178285396Y-79067301D01*
X178303797Y-78941214D01*
X178320909Y-78816832D01*
X178332614Y-78722545D01*
X178332765Y-78721138D01*
X178333664Y-78594722D01*
X178316879Y-78438664D01*
X178286736Y-78270858D01*
X178247565Y-78109197D01*
X178203692Y-77971572D01*
X178159446Y-77875875D01*
X178119153Y-77840000D01*
X178106787Y-77836591D01*
X178085334Y-77791154D01*
X178085317Y-77790421D01*
X178063169Y-77734276D01*
X178007126Y-77636288D01*
X177929026Y-77517204D01*
X177850451Y-77393394D01*
X177794221Y-77284453D01*
X177772769Y-77214358D01*
X177773033Y-77206023D01*
X177804095Y-77147571D01*
X177876323Y-77139273D01*
X177974671Y-77178748D01*
G37*
X177974671Y-77178748D02*
X178084096Y-77263616D01*
X178090704Y-77270083D01*
X178285398Y-77511098D01*
X178443066Y-77804898D01*
X178558742Y-78133484D01*
X178627457Y-78478858D01*
X178644245Y-78823019D01*
X178604137Y-79147970D01*
X178579837Y-79255775D01*
X178553976Y-79372377D01*
X178539283Y-79441047D01*
X178463696Y-79700618D01*
X178330341Y-79940100D01*
X178137819Y-80140450D01*
X178057570Y-80198311D01*
X177941968Y-80251978D01*
X177851462Y-80258321D01*
X177801679Y-80213923D01*
X177800196Y-80199614D01*
X177821805Y-80124895D01*
X177873688Y-80028308D01*
X177944671Y-79911083D01*
X178045268Y-79723825D01*
X178139631Y-79527480D01*
X178215905Y-79347089D01*
X178262232Y-79207693D01*
X178269823Y-79166706D01*
X178285396Y-79067301D01*
X178303797Y-78941214D01*
X178320909Y-78816832D01*
X178332614Y-78722545D01*
X178332765Y-78721138D01*
X178333664Y-78594722D01*
X178316879Y-78438664D01*
X178286736Y-78270858D01*
X178247565Y-78109197D01*
X178203692Y-77971572D01*
X178159446Y-77875875D01*
X178119153Y-77840000D01*
X178106787Y-77836591D01*
X178085334Y-77791154D01*
X178085317Y-77790421D01*
X178063169Y-77734276D01*
X178007126Y-77636288D01*
X177929026Y-77517204D01*
X177850451Y-77393394D01*
X177794221Y-77284453D01*
X177772769Y-77214358D01*
X177773033Y-77206023D01*
X177804095Y-77147571D01*
X177876323Y-77139273D01*
X177974671Y-77178748D01*
X177055267Y-77309469D02*
X176952927Y-77077548D01*
X176952927Y-77077548D02*
X176782404Y-76873428D01*
X176782404Y-76873428D02*
X176574564Y-76720607D01*
X176574564Y-76720607D02*
X176393287Y-76649898D01*
X176393287Y-76649898D02*
X176176345Y-76618780D01*
X176176345Y-76618780D02*
X175949356Y-76626167D01*
X175949356Y-76626167D02*
X175737944Y-76670974D01*
X175737944Y-76670974D02*
X175567729Y-76752116D01*
X175567729Y-76752116D02*
X175551679Y-76763941D01*
X175551679Y-76763941D02*
X175378110Y-76920710D01*
X175378110Y-76920710D02*
X175252452Y-77080811D01*
X175252452Y-77080811D02*
X175201385Y-77184209D01*
X175201385Y-77184209D02*
X175150212Y-77403609D01*
X175150212Y-77403609D02*
X175133865Y-77648575D01*
X175133865Y-77648575D02*
X175152519Y-77885818D01*
X175152519Y-77885818D02*
X175196831Y-78058661D01*
X175196831Y-78058661D02*
X175323391Y-78295778D01*
X175323391Y-78295778D02*
X175498677Y-78471850D01*
X175498677Y-78471850D02*
X175722390Y-78586699D01*
X175722390Y-78586699D02*
X175994235Y-78640146D01*
X175994235Y-78640146D02*
X176098705Y-78641840D01*
X176098705Y-78641840D02*
X176098705Y-77717034D01*
X176098705Y-77717034D02*
X176046344Y-77669578D01*
X176046344Y-77669578D02*
X176041245Y-77654385D01*
X176041245Y-77654385D02*
X176023960Y-77593320D01*
X176023960Y-77593320D02*
X176018841Y-77579427D01*
X176018841Y-77579427D02*
X176026688Y-77543119D01*
X176026688Y-77543119D02*
X176038027Y-77511043D01*
X176038027Y-77511043D02*
X176079409Y-77464220D01*
X176079409Y-77464220D02*
X176134500Y-77449041D01*
X176134500Y-77449041D02*
X176169134Y-77472538D01*
X176169134Y-77472538D02*
X176170616Y-77483751D01*
X176170616Y-77483751D02*
X176203208Y-77519982D01*
X176203208Y-77519982D02*
X176251016Y-77539295D01*
X176251016Y-77539295D02*
X176305205Y-77558963D01*
X176305205Y-77558963D02*
X176302201Y-77591210D01*
X176302201Y-77591210D02*
X176261870Y-77641545D01*
X176261870Y-77641545D02*
X176177603Y-77707279D01*
X176177603Y-77707279D02*
X176098705Y-77717034D01*
X176098705Y-77717034D02*
X176098705Y-78641840D01*
X176098705Y-78641840D02*
X176171708Y-78643025D01*
X176171708Y-78643025D02*
X176362462Y-78625239D01*
X176362462Y-78625239D02*
X176508005Y-78580279D01*
X176508005Y-78580279D02*
X176638976Y-78494486D01*
X176638976Y-78494486D02*
X176760451Y-78380560D01*
X176760451Y-78380560D02*
X176838931Y-78294298D01*
X176838931Y-78294298D02*
X176898203Y-78208551D01*
X176898203Y-78208551D02*
X176948844Y-78102494D01*
X176948844Y-78102494D02*
X177001432Y-77955302D01*
X177001432Y-77955302D02*
X177042279Y-77825722D01*
X177042279Y-77825722D02*
X177086144Y-77561443D01*
X177086144Y-77561443D02*
X177055267Y-77309469D01*
X177055267Y-77309469D02*
X177055267Y-77309469D01*
G36*
X175722390Y-78586699D02*
G01*
X175498677Y-78471850D01*
X175323391Y-78295778D01*
X175196831Y-78058661D01*
X175152519Y-77885818D01*
X175133865Y-77648575D01*
X175138479Y-77579427D01*
X176018841Y-77579427D01*
X176023960Y-77593320D01*
X176041245Y-77654385D01*
X176046344Y-77669578D01*
X176098705Y-77717034D01*
X176177603Y-77707279D01*
X176261870Y-77641545D01*
X176302201Y-77591210D01*
X176305205Y-77558963D01*
X176251016Y-77539295D01*
X176203208Y-77519982D01*
X176170616Y-77483751D01*
X176169134Y-77472538D01*
X176134500Y-77449041D01*
X176079409Y-77464220D01*
X176038027Y-77511043D01*
X176026688Y-77543119D01*
X176018841Y-77579427D01*
X175138479Y-77579427D01*
X175150212Y-77403609D01*
X175201385Y-77184209D01*
X175252452Y-77080811D01*
X175378110Y-76920710D01*
X175551679Y-76763941D01*
X175567729Y-76752116D01*
X175737944Y-76670974D01*
X175949356Y-76626167D01*
X176176345Y-76618780D01*
X176393287Y-76649898D01*
X176574564Y-76720607D01*
X176782404Y-76873428D01*
X176952927Y-77077548D01*
X177055267Y-77309469D01*
X177086144Y-77561443D01*
X177042279Y-77825722D01*
X177001432Y-77955302D01*
X176948844Y-78102494D01*
X176898203Y-78208551D01*
X176838931Y-78294298D01*
X176760451Y-78380560D01*
X176638976Y-78494486D01*
X176508005Y-78580279D01*
X176362462Y-78625239D01*
X176171708Y-78643025D01*
X176098705Y-78641840D01*
X175994235Y-78640146D01*
X175722390Y-78586699D01*
G37*
X175722390Y-78586699D02*
X175498677Y-78471850D01*
X175323391Y-78295778D01*
X175196831Y-78058661D01*
X175152519Y-77885818D01*
X175133865Y-77648575D01*
X175138479Y-77579427D01*
X176018841Y-77579427D01*
X176023960Y-77593320D01*
X176041245Y-77654385D01*
X176046344Y-77669578D01*
X176098705Y-77717034D01*
X176177603Y-77707279D01*
X176261870Y-77641545D01*
X176302201Y-77591210D01*
X176305205Y-77558963D01*
X176251016Y-77539295D01*
X176203208Y-77519982D01*
X176170616Y-77483751D01*
X176169134Y-77472538D01*
X176134500Y-77449041D01*
X176079409Y-77464220D01*
X176038027Y-77511043D01*
X176026688Y-77543119D01*
X176018841Y-77579427D01*
X175138479Y-77579427D01*
X175150212Y-77403609D01*
X175201385Y-77184209D01*
X175252452Y-77080811D01*
X175378110Y-76920710D01*
X175551679Y-76763941D01*
X175567729Y-76752116D01*
X175737944Y-76670974D01*
X175949356Y-76626167D01*
X176176345Y-76618780D01*
X176393287Y-76649898D01*
X176574564Y-76720607D01*
X176782404Y-76873428D01*
X176952927Y-77077548D01*
X177055267Y-77309469D01*
X177086144Y-77561443D01*
X177042279Y-77825722D01*
X177001432Y-77955302D01*
X176948844Y-78102494D01*
X176898203Y-78208551D01*
X176838931Y-78294298D01*
X176760451Y-78380560D01*
X176638976Y-78494486D01*
X176508005Y-78580279D01*
X176362462Y-78625239D01*
X176171708Y-78643025D01*
X176098705Y-78641840D01*
X175994235Y-78640146D01*
X175722390Y-78586699D01*
X176940811Y-79486970D02*
X176887859Y-79280606D01*
X176887859Y-79280606D02*
X176773703Y-79075628D01*
X176773703Y-79075628D02*
X176595674Y-78913513D01*
X176595674Y-78913513D02*
X176413797Y-78818721D01*
X176413797Y-78818721D02*
X176308160Y-78795441D01*
X176308160Y-78795441D02*
X176159744Y-78785261D01*
X176159744Y-78785261D02*
X175995629Y-78787394D01*
X175995629Y-78787394D02*
X175842890Y-78801054D01*
X175842890Y-78801054D02*
X175728607Y-78825454D01*
X175728607Y-78825454D02*
X175697251Y-78839534D01*
X175697251Y-78839534D02*
X175622837Y-78874015D01*
X175622837Y-78874015D02*
X175599187Y-78880024D01*
X175599187Y-78880024D02*
X175429763Y-78943369D01*
X175429763Y-78943369D02*
X175280840Y-79070762D01*
X175280840Y-79070762D02*
X175161194Y-79248983D01*
X175161194Y-79248983D02*
X175079599Y-79464813D01*
X175079599Y-79464813D02*
X175044830Y-79705030D01*
X175044830Y-79705030D02*
X175044519Y-79715693D01*
X175044519Y-79715693D02*
X175050022Y-79877393D01*
X175050022Y-79877393D02*
X175070647Y-80032341D01*
X175070647Y-80032341D02*
X175093560Y-80121125D01*
X175093560Y-80121125D02*
X175205730Y-80319025D01*
X175205730Y-80319025D02*
X175388661Y-80498994D01*
X175388661Y-80498994D02*
X175575724Y-80622229D01*
X175575724Y-80622229D02*
X175787333Y-80701238D01*
X175787333Y-80701238D02*
X176023693Y-80725637D01*
X176023693Y-80725637D02*
X176059545Y-80721738D01*
X176059545Y-80721738D02*
X176059545Y-80090367D01*
X176059545Y-80090367D02*
X176055097Y-80087981D01*
X176055097Y-80087981D02*
X176021220Y-80030384D01*
X176021220Y-80030384D02*
X176016450Y-79949181D01*
X176016450Y-79949181D02*
X176036109Y-79902302D01*
X176036109Y-79902302D02*
X176092189Y-79890778D01*
X176092189Y-79890778D02*
X176163270Y-79914805D01*
X176163270Y-79914805D02*
X176207647Y-79958247D01*
X176207647Y-79958247D02*
X176209692Y-79969466D01*
X176209692Y-79969466D02*
X176182101Y-80035569D01*
X176182101Y-80035569D02*
X176121144Y-80084232D01*
X176121144Y-80084232D02*
X176059545Y-80090367D01*
X176059545Y-80090367D02*
X176059545Y-80721738D01*
X176059545Y-80721738D02*
X176265619Y-80699322D01*
X176265619Y-80699322D02*
X176493923Y-80626191D01*
X176493923Y-80626191D02*
X176689420Y-80510142D01*
X176689420Y-80510142D02*
X176823910Y-80368674D01*
X176823910Y-80368674D02*
X176903586Y-80197130D01*
X176903586Y-80197130D02*
X176950546Y-79977395D01*
X176950546Y-79977395D02*
X176963412Y-79732874D01*
X176963412Y-79732874D02*
X176940811Y-79486970D01*
X176940811Y-79486970D02*
X176940811Y-79486970D01*
G36*
X176023693Y-80725637D02*
G01*
X175787333Y-80701238D01*
X175575724Y-80622229D01*
X175388661Y-80498994D01*
X175205730Y-80319025D01*
X175093560Y-80121125D01*
X175070647Y-80032341D01*
X175059578Y-79949181D01*
X176016450Y-79949181D01*
X176021220Y-80030384D01*
X176055097Y-80087981D01*
X176059545Y-80090367D01*
X176121144Y-80084232D01*
X176182101Y-80035569D01*
X176209692Y-79969466D01*
X176207647Y-79958247D01*
X176163270Y-79914805D01*
X176092189Y-79890778D01*
X176036109Y-79902302D01*
X176016450Y-79949181D01*
X175059578Y-79949181D01*
X175050022Y-79877393D01*
X175044519Y-79715693D01*
X175044830Y-79705030D01*
X175079599Y-79464813D01*
X175161194Y-79248983D01*
X175280840Y-79070762D01*
X175429763Y-78943369D01*
X175599187Y-78880024D01*
X175622837Y-78874015D01*
X175697251Y-78839534D01*
X175728607Y-78825454D01*
X175842890Y-78801054D01*
X175995629Y-78787394D01*
X176159744Y-78785261D01*
X176308160Y-78795441D01*
X176413797Y-78818721D01*
X176595674Y-78913513D01*
X176773703Y-79075628D01*
X176887859Y-79280606D01*
X176940811Y-79486970D01*
X176963412Y-79732874D01*
X176950546Y-79977395D01*
X176903586Y-80197130D01*
X176823910Y-80368674D01*
X176689420Y-80510142D01*
X176493923Y-80626191D01*
X176265619Y-80699322D01*
X176059545Y-80721738D01*
X176023693Y-80725637D01*
G37*
X176023693Y-80725637D02*
X175787333Y-80701238D01*
X175575724Y-80622229D01*
X175388661Y-80498994D01*
X175205730Y-80319025D01*
X175093560Y-80121125D01*
X175070647Y-80032341D01*
X175059578Y-79949181D01*
X176016450Y-79949181D01*
X176021220Y-80030384D01*
X176055097Y-80087981D01*
X176059545Y-80090367D01*
X176121144Y-80084232D01*
X176182101Y-80035569D01*
X176209692Y-79969466D01*
X176207647Y-79958247D01*
X176163270Y-79914805D01*
X176092189Y-79890778D01*
X176036109Y-79902302D01*
X176016450Y-79949181D01*
X175059578Y-79949181D01*
X175050022Y-79877393D01*
X175044519Y-79715693D01*
X175044830Y-79705030D01*
X175079599Y-79464813D01*
X175161194Y-79248983D01*
X175280840Y-79070762D01*
X175429763Y-78943369D01*
X175599187Y-78880024D01*
X175622837Y-78874015D01*
X175697251Y-78839534D01*
X175728607Y-78825454D01*
X175842890Y-78801054D01*
X175995629Y-78787394D01*
X176159744Y-78785261D01*
X176308160Y-78795441D01*
X176413797Y-78818721D01*
X176595674Y-78913513D01*
X176773703Y-79075628D01*
X176887859Y-79280606D01*
X176940811Y-79486970D01*
X176963412Y-79732874D01*
X176950546Y-79977395D01*
X176903586Y-80197130D01*
X176823910Y-80368674D01*
X176689420Y-80510142D01*
X176493923Y-80626191D01*
X176265619Y-80699322D01*
X176059545Y-80721738D01*
X176023693Y-80725637D01*
X174229893Y-77122562D02*
X174186078Y-77068067D01*
X174186078Y-77068067D02*
X174101453Y-77079930D01*
X174101453Y-77079930D02*
X174040622Y-77113682D01*
X174040622Y-77113682D02*
X173959707Y-77201116D01*
X173959707Y-77201116D02*
X173949025Y-77302330D01*
X173949025Y-77302330D02*
X173973137Y-77355458D01*
X173973137Y-77355458D02*
X174028135Y-77406031D01*
X174028135Y-77406031D02*
X174090349Y-77445066D01*
X174090349Y-77445066D02*
X174146487Y-77469627D01*
X174146487Y-77469627D02*
X174181316Y-77460747D01*
X174181316Y-77460747D02*
X174204124Y-77405004D01*
X174204124Y-77405004D02*
X174224200Y-77288978D01*
X174224200Y-77288978D02*
X174230851Y-77242035D01*
X174230851Y-77242035D02*
X174229893Y-77122562D01*
X174229893Y-77122562D02*
X174229893Y-77122562D01*
G36*
X174229893Y-77122562D02*
G01*
X174230851Y-77242035D01*
X174224200Y-77288978D01*
X174204124Y-77405004D01*
X174181316Y-77460747D01*
X174146487Y-77469627D01*
X174090349Y-77445066D01*
X174028135Y-77406031D01*
X173973137Y-77355458D01*
X173949025Y-77302330D01*
X173959707Y-77201116D01*
X174040622Y-77113682D01*
X174101453Y-77079930D01*
X174186078Y-77068067D01*
X174229893Y-77122562D01*
G37*
X174229893Y-77122562D02*
X174230851Y-77242035D01*
X174224200Y-77288978D01*
X174204124Y-77405004D01*
X174181316Y-77460747D01*
X174146487Y-77469627D01*
X174090349Y-77445066D01*
X174028135Y-77406031D01*
X173973137Y-77355458D01*
X173949025Y-77302330D01*
X173959707Y-77201116D01*
X174040622Y-77113682D01*
X174101453Y-77079930D01*
X174186078Y-77068067D01*
X174229893Y-77122562D01*
X174115274Y-79899034D02*
X174052022Y-79838864D01*
X174052022Y-79838864D02*
X174017204Y-79832923D01*
X174017204Y-79832923D02*
X173958735Y-79861774D01*
X173958735Y-79861774D02*
X173944259Y-79929286D01*
X173944259Y-79929286D02*
X173977898Y-80006905D01*
X173977898Y-80006905D02*
X173990123Y-80020493D01*
X173990123Y-80020493D02*
X174060676Y-80062710D01*
X174060676Y-80062710D02*
X174119055Y-80055420D01*
X174119055Y-80055420D02*
X174138616Y-80011966D01*
X174138616Y-80011966D02*
X174115274Y-79899034D01*
X174115274Y-79899034D02*
X174115274Y-79899034D01*
G36*
X174052022Y-79838864D02*
G01*
X174115274Y-79899034D01*
X174138616Y-80011966D01*
X174119055Y-80055420D01*
X174060676Y-80062710D01*
X173990123Y-80020493D01*
X173977898Y-80006905D01*
X173944259Y-79929286D01*
X173958735Y-79861774D01*
X174017204Y-79832923D01*
X174052022Y-79838864D01*
G37*
X174052022Y-79838864D02*
X174115274Y-79899034D01*
X174138616Y-80011966D01*
X174119055Y-80055420D01*
X174060676Y-80062710D01*
X173990123Y-80020493D01*
X173977898Y-80006905D01*
X173944259Y-79929286D01*
X173958735Y-79861774D01*
X174017204Y-79832923D01*
X174052022Y-79838864D01*
X174101013Y-77685995D02*
X174030310Y-77706331D01*
X174030310Y-77706331D02*
X173939494Y-77764507D01*
X173939494Y-77764507D02*
X173853857Y-77834186D01*
X173853857Y-77834186D02*
X173832495Y-77887550D01*
X173832495Y-77887550D02*
X173871098Y-77945752D01*
X173871098Y-77945752D02*
X173897462Y-77970713D01*
X173897462Y-77970713D02*
X173983218Y-78032016D01*
X173983218Y-78032016D02*
X174044000Y-78029925D01*
X174044000Y-78029925D02*
X174087787Y-77959390D01*
X174087787Y-77959390D02*
X174119878Y-77829934D01*
X174119878Y-77829934D02*
X174128882Y-77726475D01*
X174128882Y-77726475D02*
X174101013Y-77685995D01*
X174101013Y-77685995D02*
X174101013Y-77685995D01*
G36*
X174128882Y-77726475D02*
G01*
X174119878Y-77829934D01*
X174087787Y-77959390D01*
X174044000Y-78029925D01*
X173983218Y-78032016D01*
X173897462Y-77970713D01*
X173871098Y-77945752D01*
X173832495Y-77887550D01*
X173853857Y-77834186D01*
X173939494Y-77764507D01*
X174030310Y-77706331D01*
X174101013Y-77685995D01*
X174128882Y-77726475D01*
G37*
X174128882Y-77726475D02*
X174119878Y-77829934D01*
X174087787Y-77959390D01*
X174044000Y-78029925D01*
X173983218Y-78032016D01*
X173897462Y-77970713D01*
X173871098Y-77945752D01*
X173832495Y-77887550D01*
X173853857Y-77834186D01*
X173939494Y-77764507D01*
X174030310Y-77706331D01*
X174101013Y-77685995D01*
X174128882Y-77726475D01*
X173984870Y-79468431D02*
X173922185Y-79384909D01*
X173922185Y-79384909D02*
X173835868Y-79366443D01*
X173835868Y-79366443D02*
X173755662Y-79410893D01*
X173755662Y-79410893D02*
X173714887Y-79490493D01*
X173714887Y-79490493D02*
X173715906Y-79580633D01*
X173715906Y-79580633D02*
X173756514Y-79645541D01*
X173756514Y-79645541D02*
X173770581Y-79652897D01*
X173770581Y-79652897D02*
X173899273Y-79679937D01*
X173899273Y-79679937D02*
X173980330Y-79649550D01*
X173980330Y-79649550D02*
X174007078Y-79567481D01*
X174007078Y-79567481D02*
X173984870Y-79468431D01*
X173984870Y-79468431D02*
X173984870Y-79468431D01*
G36*
X173922185Y-79384909D02*
G01*
X173984870Y-79468431D01*
X174007078Y-79567481D01*
X173980330Y-79649550D01*
X173899273Y-79679937D01*
X173770581Y-79652897D01*
X173756514Y-79645541D01*
X173715906Y-79580633D01*
X173714887Y-79490493D01*
X173755662Y-79410893D01*
X173835868Y-79366443D01*
X173922185Y-79384909D01*
G37*
X173922185Y-79384909D02*
X173984870Y-79468431D01*
X174007078Y-79567481D01*
X173980330Y-79649550D01*
X173899273Y-79679937D01*
X173770581Y-79652897D01*
X173756514Y-79645541D01*
X173715906Y-79580633D01*
X173714887Y-79490493D01*
X173755662Y-79410893D01*
X173835868Y-79366443D01*
X173922185Y-79384909D01*
X173919721Y-78214471D02*
X173857083Y-78151122D01*
X173857083Y-78151122D02*
X173744908Y-78140298D01*
X173744908Y-78140298D02*
X173728262Y-78143060D01*
X173728262Y-78143060D02*
X173650593Y-78186400D01*
X173650593Y-78186400D02*
X173630113Y-78261524D01*
X173630113Y-78261524D02*
X173666729Y-78347054D01*
X173666729Y-78347054D02*
X173729412Y-78403746D01*
X173729412Y-78403746D02*
X173820952Y-78447649D01*
X173820952Y-78447649D02*
X173879057Y-78426822D01*
X173879057Y-78426822D02*
X173918453Y-78334912D01*
X173918453Y-78334912D02*
X173922176Y-78320594D01*
X173922176Y-78320594D02*
X173919721Y-78214471D01*
X173919721Y-78214471D02*
X173919721Y-78214471D01*
G36*
X173857083Y-78151122D02*
G01*
X173919721Y-78214471D01*
X173922176Y-78320594D01*
X173918453Y-78334912D01*
X173879057Y-78426822D01*
X173820952Y-78447649D01*
X173729412Y-78403746D01*
X173666729Y-78347054D01*
X173630113Y-78261524D01*
X173650593Y-78186400D01*
X173728262Y-78143060D01*
X173744908Y-78140298D01*
X173857083Y-78151122D01*
G37*
X173857083Y-78151122D02*
X173919721Y-78214471D01*
X173922176Y-78320594D01*
X173918453Y-78334912D01*
X173879057Y-78426822D01*
X173820952Y-78447649D01*
X173729412Y-78403746D01*
X173666729Y-78347054D01*
X173630113Y-78261524D01*
X173650593Y-78186400D01*
X173728262Y-78143060D01*
X173744908Y-78140298D01*
X173857083Y-78151122D01*
X173753230Y-78610473D02*
X173687000Y-78573291D01*
X173687000Y-78573291D02*
X173601308Y-78585703D01*
X173601308Y-78585703D02*
X173534215Y-78642687D01*
X173534215Y-78642687D02*
X173511942Y-78724741D01*
X173511942Y-78724741D02*
X173539436Y-78790872D01*
X173539436Y-78790872D02*
X173593592Y-78811730D01*
X173593592Y-78811730D02*
X173671614Y-78815725D01*
X173671614Y-78815725D02*
X173735289Y-78803446D01*
X173735289Y-78803446D02*
X173750836Y-78787616D01*
X173750836Y-78787616D02*
X173760181Y-78726987D01*
X173760181Y-78726987D02*
X173766666Y-78691631D01*
X173766666Y-78691631D02*
X173753230Y-78610473D01*
X173753230Y-78610473D02*
X173753230Y-78610473D01*
G36*
X173753230Y-78610473D02*
G01*
X173766666Y-78691631D01*
X173760181Y-78726987D01*
X173750836Y-78787616D01*
X173735289Y-78803446D01*
X173671614Y-78815725D01*
X173593592Y-78811730D01*
X173539436Y-78790872D01*
X173511942Y-78724741D01*
X173534215Y-78642687D01*
X173601308Y-78585703D01*
X173687000Y-78573291D01*
X173753230Y-78610473D01*
G37*
X173753230Y-78610473D02*
X173766666Y-78691631D01*
X173760181Y-78726987D01*
X173750836Y-78787616D01*
X173735289Y-78803446D01*
X173671614Y-78815725D01*
X173593592Y-78811730D01*
X173539436Y-78790872D01*
X173511942Y-78724741D01*
X173534215Y-78642687D01*
X173601308Y-78585703D01*
X173687000Y-78573291D01*
X173753230Y-78610473D01*
X173854785Y-79171961D02*
X173829153Y-79077852D01*
X173829153Y-79077852D02*
X173819815Y-79046149D01*
X173819815Y-79046149D02*
X173764675Y-78932810D01*
X173764675Y-78932810D02*
X173690354Y-78895167D01*
X173690354Y-78895167D02*
X173597678Y-78933445D01*
X173597678Y-78933445D02*
X173552462Y-78973231D01*
X173552462Y-78973231D02*
X173487094Y-79065636D01*
X173487094Y-79065636D02*
X173487703Y-79162166D01*
X173487703Y-79162166D02*
X173500188Y-79197923D01*
X173500188Y-79197923D02*
X173542962Y-79223083D01*
X173542962Y-79223083D02*
X173629290Y-79240478D01*
X173629290Y-79240478D02*
X173730570Y-79248222D01*
X173730570Y-79248222D02*
X173818203Y-79244429D01*
X173818203Y-79244429D02*
X173863587Y-79227211D01*
X173863587Y-79227211D02*
X173865077Y-79221996D01*
X173865077Y-79221996D02*
X173854785Y-79171961D01*
X173854785Y-79171961D02*
X173854785Y-79171961D01*
G36*
X173764675Y-78932810D02*
G01*
X173819815Y-79046149D01*
X173829153Y-79077852D01*
X173854785Y-79171961D01*
X173865077Y-79221996D01*
X173863587Y-79227211D01*
X173818203Y-79244429D01*
X173730570Y-79248222D01*
X173629290Y-79240478D01*
X173542962Y-79223083D01*
X173500188Y-79197923D01*
X173487703Y-79162166D01*
X173487094Y-79065636D01*
X173552462Y-78973231D01*
X173597678Y-78933445D01*
X173690354Y-78895167D01*
X173764675Y-78932810D01*
G37*
X173764675Y-78932810D02*
X173819815Y-79046149D01*
X173829153Y-79077852D01*
X173854785Y-79171961D01*
X173865077Y-79221996D01*
X173863587Y-79227211D01*
X173818203Y-79244429D01*
X173730570Y-79248222D01*
X173629290Y-79240478D01*
X173542962Y-79223083D01*
X173500188Y-79197923D01*
X173487703Y-79162166D01*
X173487094Y-79065636D01*
X173552462Y-78973231D01*
X173597678Y-78933445D01*
X173690354Y-78895167D01*
X173764675Y-78932810D01*
X173445406Y-77508190D02*
X173421820Y-77370698D01*
X173421820Y-77370698D02*
X173384769Y-77231103D01*
X173384769Y-77231103D02*
X173340878Y-77112631D01*
X173340878Y-77112631D02*
X173296775Y-77038509D01*
X173296775Y-77038509D02*
X173279331Y-77026034D01*
X173279331Y-77026034D02*
X173218874Y-76988364D01*
X173218874Y-76988364D02*
X173169269Y-76944362D01*
X173169269Y-76944362D02*
X173076871Y-76868395D01*
X173076871Y-76868395D02*
X172963496Y-76798309D01*
X172963496Y-76798309D02*
X172853860Y-76746960D01*
X172853860Y-76746960D02*
X172772683Y-76727205D01*
X172772683Y-76727205D02*
X172756584Y-76729720D01*
X172756584Y-76729720D02*
X172709198Y-76773747D01*
X172709198Y-76773747D02*
X172655628Y-76853124D01*
X172655628Y-76853124D02*
X172619201Y-76930836D01*
X172619201Y-76930836D02*
X172614616Y-76954975D01*
X172614616Y-76954975D02*
X172639771Y-76985641D01*
X172639771Y-76985641D02*
X172706883Y-77058781D01*
X172706883Y-77058781D02*
X172803420Y-77160841D01*
X172803420Y-77160841D02*
X172845415Y-77204597D01*
X172845415Y-77204597D02*
X172981024Y-77356597D01*
X172981024Y-77356597D02*
X173067003Y-77488874D01*
X173067003Y-77488874D02*
X173116176Y-77628691D01*
X173116176Y-77628691D02*
X173141367Y-77803308D01*
X173141367Y-77803308D02*
X173144304Y-77840000D01*
X173144304Y-77840000D02*
X173152162Y-77945150D01*
X173152162Y-77945150D02*
X173157746Y-78017700D01*
X173157746Y-78017700D02*
X173158048Y-78021435D01*
X173158048Y-78021435D02*
X173193025Y-78072811D01*
X173193025Y-78072811D02*
X173222650Y-78089492D01*
X173222650Y-78089492D02*
X173274729Y-78071897D01*
X173274729Y-78071897D02*
X173332323Y-77995568D01*
X173332323Y-77995568D02*
X173386699Y-77878612D01*
X173386699Y-77878612D02*
X173429124Y-77739139D01*
X173429124Y-77739139D02*
X173448899Y-77620354D01*
X173448899Y-77620354D02*
X173445406Y-77508190D01*
X173445406Y-77508190D02*
X173445406Y-77508190D01*
G36*
X172853860Y-76746960D02*
G01*
X172963496Y-76798309D01*
X173076871Y-76868395D01*
X173169269Y-76944362D01*
X173218874Y-76988364D01*
X173279331Y-77026034D01*
X173296775Y-77038509D01*
X173340878Y-77112631D01*
X173384769Y-77231103D01*
X173421820Y-77370698D01*
X173445406Y-77508190D01*
X173448899Y-77620354D01*
X173429124Y-77739139D01*
X173386699Y-77878612D01*
X173332323Y-77995568D01*
X173274729Y-78071897D01*
X173222650Y-78089492D01*
X173193025Y-78072811D01*
X173158048Y-78021435D01*
X173157746Y-78017700D01*
X173152162Y-77945150D01*
X173144304Y-77840000D01*
X173141367Y-77803308D01*
X173116176Y-77628691D01*
X173067003Y-77488874D01*
X172981024Y-77356597D01*
X172845415Y-77204597D01*
X172803420Y-77160841D01*
X172706883Y-77058781D01*
X172639771Y-76985641D01*
X172614616Y-76954975D01*
X172619201Y-76930836D01*
X172655628Y-76853124D01*
X172709198Y-76773747D01*
X172756584Y-76729720D01*
X172772683Y-76727205D01*
X172853860Y-76746960D01*
G37*
X172853860Y-76746960D02*
X172963496Y-76798309D01*
X173076871Y-76868395D01*
X173169269Y-76944362D01*
X173218874Y-76988364D01*
X173279331Y-77026034D01*
X173296775Y-77038509D01*
X173340878Y-77112631D01*
X173384769Y-77231103D01*
X173421820Y-77370698D01*
X173445406Y-77508190D01*
X173448899Y-77620354D01*
X173429124Y-77739139D01*
X173386699Y-77878612D01*
X173332323Y-77995568D01*
X173274729Y-78071897D01*
X173222650Y-78089492D01*
X173193025Y-78072811D01*
X173158048Y-78021435D01*
X173157746Y-78017700D01*
X173152162Y-77945150D01*
X173144304Y-77840000D01*
X173141367Y-77803308D01*
X173116176Y-77628691D01*
X173067003Y-77488874D01*
X172981024Y-77356597D01*
X172845415Y-77204597D01*
X172803420Y-77160841D01*
X172706883Y-77058781D01*
X172639771Y-76985641D01*
X172614616Y-76954975D01*
X172619201Y-76930836D01*
X172655628Y-76853124D01*
X172709198Y-76773747D01*
X172756584Y-76729720D01*
X172772683Y-76727205D01*
X172853860Y-76746960D01*
X172725386Y-79788584D02*
X172689962Y-79713267D01*
X172689962Y-79713267D02*
X172604846Y-79683789D01*
X172604846Y-79683789D02*
X172520633Y-79691750D01*
X172520633Y-79691750D02*
X172501745Y-79742553D01*
X172501745Y-79742553D02*
X172548174Y-79836233D01*
X172548174Y-79836233D02*
X172574298Y-79872000D01*
X172574298Y-79872000D02*
X172646197Y-79931879D01*
X172646197Y-79931879D02*
X172702223Y-79921400D01*
X172702223Y-79921400D02*
X172728291Y-79848340D01*
X172728291Y-79848340D02*
X172725386Y-79788584D01*
X172725386Y-79788584D02*
X172725386Y-79788584D01*
G36*
X172689962Y-79713267D02*
G01*
X172725386Y-79788584D01*
X172728291Y-79848340D01*
X172702223Y-79921400D01*
X172646197Y-79931879D01*
X172574298Y-79872000D01*
X172548174Y-79836233D01*
X172501745Y-79742553D01*
X172520633Y-79691750D01*
X172604846Y-79683789D01*
X172689962Y-79713267D01*
G37*
X172689962Y-79713267D02*
X172725386Y-79788584D01*
X172728291Y-79848340D01*
X172702223Y-79921400D01*
X172646197Y-79931879D01*
X172574298Y-79872000D01*
X172548174Y-79836233D01*
X172501745Y-79742553D01*
X172520633Y-79691750D01*
X172604846Y-79683789D01*
X172689962Y-79713267D01*
X172698942Y-77176332D02*
X172635529Y-77121572D01*
X172635529Y-77121572D02*
X172564828Y-77081508D01*
X172564828Y-77081508D02*
X172526455Y-77090436D01*
X172526455Y-77090436D02*
X172498760Y-77134047D01*
X172498760Y-77134047D02*
X172460770Y-77234388D01*
X172460770Y-77234388D02*
X172478470Y-77299543D01*
X172478470Y-77299543D02*
X172484359Y-77305949D01*
X172484359Y-77305949D02*
X172539016Y-77325038D01*
X172539016Y-77325038D02*
X172621128Y-77332000D01*
X172621128Y-77332000D02*
X172706783Y-77308812D01*
X172706783Y-77308812D02*
X172733124Y-77251031D01*
X172733124Y-77251031D02*
X172698942Y-77176332D01*
X172698942Y-77176332D02*
X172698942Y-77176332D01*
G36*
X172635529Y-77121572D02*
G01*
X172698942Y-77176332D01*
X172733124Y-77251031D01*
X172706783Y-77308812D01*
X172621128Y-77332000D01*
X172539016Y-77325038D01*
X172484359Y-77305949D01*
X172478470Y-77299543D01*
X172460770Y-77234388D01*
X172498760Y-77134047D01*
X172526455Y-77090436D01*
X172564828Y-77081508D01*
X172635529Y-77121572D01*
G37*
X172635529Y-77121572D02*
X172698942Y-77176332D01*
X172733124Y-77251031D01*
X172706783Y-77308812D01*
X172621128Y-77332000D01*
X172539016Y-77325038D01*
X172484359Y-77305949D01*
X172478470Y-77299543D01*
X172460770Y-77234388D01*
X172498760Y-77134047D01*
X172526455Y-77090436D01*
X172564828Y-77081508D01*
X172635529Y-77121572D01*
X172636267Y-79327259D02*
X172557845Y-79276127D01*
X172557845Y-79276127D02*
X172470956Y-79264902D01*
X172470956Y-79264902D02*
X172405346Y-79293774D01*
X172405346Y-79293774D02*
X172389317Y-79325679D01*
X172389317Y-79325679D02*
X172401818Y-79402199D01*
X172401818Y-79402199D02*
X172432903Y-79460278D01*
X172432903Y-79460278D02*
X172475495Y-79508903D01*
X172475495Y-79508903D02*
X172518448Y-79510491D01*
X172518448Y-79510491D02*
X172593630Y-79466234D01*
X172593630Y-79466234D02*
X172662657Y-79414677D01*
X172662657Y-79414677D02*
X172672152Y-79375148D01*
X172672152Y-79375148D02*
X172636267Y-79327259D01*
X172636267Y-79327259D02*
X172636267Y-79327259D01*
G36*
X172557845Y-79276127D02*
G01*
X172636267Y-79327259D01*
X172672152Y-79375148D01*
X172662657Y-79414677D01*
X172593630Y-79466234D01*
X172518448Y-79510491D01*
X172475495Y-79508903D01*
X172432903Y-79460278D01*
X172401818Y-79402199D01*
X172389317Y-79325679D01*
X172405346Y-79293774D01*
X172470956Y-79264902D01*
X172557845Y-79276127D01*
G37*
X172557845Y-79276127D02*
X172636267Y-79327259D01*
X172672152Y-79375148D01*
X172662657Y-79414677D01*
X172593630Y-79466234D01*
X172518448Y-79510491D01*
X172475495Y-79508903D01*
X172432903Y-79460278D01*
X172401818Y-79402199D01*
X172389317Y-79325679D01*
X172405346Y-79293774D01*
X172470956Y-79264902D01*
X172557845Y-79276127D01*
X172701070Y-77545830D02*
X172660912Y-77494617D01*
X172660912Y-77494617D02*
X172644367Y-77488308D01*
X172644367Y-77488308D02*
X172584411Y-77464230D01*
X172584411Y-77464230D02*
X172528846Y-77422801D01*
X172528846Y-77422801D02*
X172458512Y-77383195D01*
X172458512Y-77383195D02*
X172421590Y-77393493D01*
X172421590Y-77393493D02*
X172393388Y-77452649D01*
X172393388Y-77452649D02*
X172369573Y-77548859D01*
X172369573Y-77548859D02*
X172355809Y-77649018D01*
X172355809Y-77649018D02*
X172357762Y-77720017D01*
X172357762Y-77720017D02*
X172363618Y-77732285D01*
X172363618Y-77732285D02*
X172408572Y-77735504D01*
X172408572Y-77735504D02*
X172498188Y-77724314D01*
X172498188Y-77724314D02*
X172601622Y-77704471D01*
X172601622Y-77704471D02*
X172688026Y-77681729D01*
X172688026Y-77681729D02*
X172724530Y-77664958D01*
X172724530Y-77664958D02*
X172728301Y-77615888D01*
X172728301Y-77615888D02*
X172701070Y-77545830D01*
X172701070Y-77545830D02*
X172701070Y-77545830D01*
G36*
X172528846Y-77422801D02*
G01*
X172584411Y-77464230D01*
X172644367Y-77488308D01*
X172660912Y-77494617D01*
X172701070Y-77545830D01*
X172728301Y-77615888D01*
X172724530Y-77664958D01*
X172688026Y-77681729D01*
X172601622Y-77704471D01*
X172498188Y-77724314D01*
X172408572Y-77735504D01*
X172363618Y-77732285D01*
X172357762Y-77720017D01*
X172355809Y-77649018D01*
X172369573Y-77548859D01*
X172393388Y-77452649D01*
X172421590Y-77393493D01*
X172458512Y-77383195D01*
X172528846Y-77422801D01*
G37*
X172528846Y-77422801D02*
X172584411Y-77464230D01*
X172644367Y-77488308D01*
X172660912Y-77494617D01*
X172701070Y-77545830D01*
X172728301Y-77615888D01*
X172724530Y-77664958D01*
X172688026Y-77681729D01*
X172601622Y-77704471D01*
X172498188Y-77724314D01*
X172408572Y-77735504D01*
X172363618Y-77732285D01*
X172357762Y-77720017D01*
X172355809Y-77649018D01*
X172369573Y-77548859D01*
X172393388Y-77452649D01*
X172421590Y-77393493D01*
X172458512Y-77383195D01*
X172528846Y-77422801D01*
X172660024Y-78937059D02*
X172580790Y-78879670D01*
X172580790Y-78879670D02*
X172483569Y-78834030D01*
X172483569Y-78834030D02*
X172401633Y-78816923D01*
X172401633Y-78816923D02*
X172359721Y-78840908D01*
X172359721Y-78840908D02*
X172342364Y-78922076D01*
X172342364Y-78922076D02*
X172341077Y-78970925D01*
X172341077Y-78970925D02*
X172350057Y-79074898D01*
X172350057Y-79074898D02*
X172372362Y-79141441D01*
X172372362Y-79141441D02*
X172379721Y-79148810D01*
X172379721Y-79148810D02*
X172441384Y-79149928D01*
X172441384Y-79149928D02*
X172532398Y-79117607D01*
X172532398Y-79117607D02*
X172622958Y-79067030D01*
X172622958Y-79067030D02*
X172683262Y-79013381D01*
X172683262Y-79013381D02*
X172692769Y-78989321D01*
X172692769Y-78989321D02*
X172660024Y-78937059D01*
X172660024Y-78937059D02*
X172660024Y-78937059D01*
G36*
X172483569Y-78834030D02*
G01*
X172580790Y-78879670D01*
X172660024Y-78937059D01*
X172692769Y-78989321D01*
X172683262Y-79013381D01*
X172622958Y-79067030D01*
X172532398Y-79117607D01*
X172441384Y-79149928D01*
X172379721Y-79148810D01*
X172372362Y-79141441D01*
X172350057Y-79074898D01*
X172341077Y-78970925D01*
X172342364Y-78922076D01*
X172359721Y-78840908D01*
X172401633Y-78816923D01*
X172483569Y-78834030D01*
G37*
X172483569Y-78834030D02*
X172580790Y-78879670D01*
X172660024Y-78937059D01*
X172692769Y-78989321D01*
X172683262Y-79013381D01*
X172622958Y-79067030D01*
X172532398Y-79117607D01*
X172441384Y-79149928D01*
X172379721Y-79148810D01*
X172372362Y-79141441D01*
X172350057Y-79074898D01*
X172341077Y-78970925D01*
X172342364Y-78922076D01*
X172359721Y-78840908D01*
X172401633Y-78816923D01*
X172483569Y-78834030D01*
X172582952Y-78013718D02*
X172507904Y-77934852D01*
X172507904Y-77934852D02*
X172419380Y-77884789D01*
X172419380Y-77884789D02*
X172385340Y-77879077D01*
X172385340Y-77879077D02*
X172330259Y-77891195D01*
X172330259Y-77891195D02*
X172306473Y-77941762D01*
X172306473Y-77941762D02*
X172302000Y-78028872D01*
X172302000Y-78028872D02*
X172307175Y-78130818D01*
X172307175Y-78130818D02*
X172319987Y-78194422D01*
X172319987Y-78194422D02*
X172323723Y-78200390D01*
X172323723Y-78200390D02*
X172375758Y-78207086D01*
X172375758Y-78207086D02*
X172461749Y-78186344D01*
X172461749Y-78186344D02*
X172549583Y-78149972D01*
X172549583Y-78149972D02*
X172607144Y-78109781D01*
X172607144Y-78109781D02*
X172614616Y-78093423D01*
X172614616Y-78093423D02*
X172582952Y-78013718D01*
X172582952Y-78013718D02*
X172582952Y-78013718D01*
G36*
X172419380Y-77884789D02*
G01*
X172507904Y-77934852D01*
X172582952Y-78013718D01*
X172614616Y-78093423D01*
X172607144Y-78109781D01*
X172549583Y-78149972D01*
X172461749Y-78186344D01*
X172375758Y-78207086D01*
X172323723Y-78200390D01*
X172319987Y-78194422D01*
X172307175Y-78130818D01*
X172302000Y-78028872D01*
X172306473Y-77941762D01*
X172330259Y-77891195D01*
X172385340Y-77879077D01*
X172419380Y-77884789D01*
G37*
X172419380Y-77884789D02*
X172507904Y-77934852D01*
X172582952Y-78013718D01*
X172614616Y-78093423D01*
X172607144Y-78109781D01*
X172549583Y-78149972D01*
X172461749Y-78186344D01*
X172375758Y-78207086D01*
X172323723Y-78200390D01*
X172319987Y-78194422D01*
X172307175Y-78130818D01*
X172302000Y-78028872D01*
X172306473Y-77941762D01*
X172330259Y-77891195D01*
X172385340Y-77879077D01*
X172419380Y-77884789D01*
X172629204Y-78505838D02*
X172574034Y-78416202D01*
X172574034Y-78416202D02*
X172486144Y-78350652D01*
X172486144Y-78350652D02*
X172387340Y-78329616D01*
X172387340Y-78329616D02*
X172350846Y-78337778D01*
X172350846Y-78337778D02*
X172323171Y-78383688D01*
X172323171Y-78383688D02*
X172306173Y-78475687D01*
X172306173Y-78475687D02*
X172301502Y-78582233D01*
X172301502Y-78582233D02*
X172310809Y-78671785D01*
X172310809Y-78671785D02*
X172331308Y-78711188D01*
X172331308Y-78711188D02*
X172400690Y-78714958D01*
X172400690Y-78714958D02*
X172497973Y-78687686D01*
X172497973Y-78687686D02*
X172586913Y-78642977D01*
X172586913Y-78642977D02*
X172629848Y-78599132D01*
X172629848Y-78599132D02*
X172629204Y-78505838D01*
X172629204Y-78505838D02*
X172629204Y-78505838D01*
G36*
X172486144Y-78350652D02*
G01*
X172574034Y-78416202D01*
X172629204Y-78505838D01*
X172629848Y-78599132D01*
X172586913Y-78642977D01*
X172497973Y-78687686D01*
X172400690Y-78714958D01*
X172331308Y-78711188D01*
X172310809Y-78671785D01*
X172301502Y-78582233D01*
X172306173Y-78475687D01*
X172323171Y-78383688D01*
X172350846Y-78337778D01*
X172387340Y-78329616D01*
X172486144Y-78350652D01*
G37*
X172486144Y-78350652D02*
X172574034Y-78416202D01*
X172629204Y-78505838D01*
X172629848Y-78599132D01*
X172586913Y-78642977D01*
X172497973Y-78687686D01*
X172400690Y-78714958D01*
X172331308Y-78711188D01*
X172310809Y-78671785D01*
X172301502Y-78582233D01*
X172306173Y-78475687D01*
X172323171Y-78383688D01*
X172350846Y-78337778D01*
X172387340Y-78329616D01*
X172486144Y-78350652D01*
X180134219Y-78045649D02*
X180126518Y-77831958D01*
X180126518Y-77831958D02*
X180114069Y-77656798D01*
X180114069Y-77656798D02*
X180098565Y-77546923D01*
X180098565Y-77546923D02*
X180038464Y-77281687D01*
X180038464Y-77281687D02*
X179983948Y-77065760D01*
X179983948Y-77065760D02*
X179937106Y-76906363D01*
X179937106Y-76906363D02*
X179900028Y-76810718D01*
X179900028Y-76810718D02*
X179878173Y-76784923D01*
X179878173Y-76784923D02*
X179846191Y-76753967D01*
X179846191Y-76753967D02*
X179843763Y-76736077D01*
X179843763Y-76736077D02*
X179824353Y-76669085D01*
X179824353Y-76669085D02*
X179773772Y-76557400D01*
X179773772Y-76557400D02*
X179703293Y-76421949D01*
X179703293Y-76421949D02*
X179624192Y-76283662D01*
X179624192Y-76283662D02*
X179547743Y-76163467D01*
X179547743Y-76163467D02*
X179501661Y-76101077D01*
X179501661Y-76101077D02*
X179403400Y-75988509D01*
X179403400Y-75988509D02*
X179274442Y-75849808D01*
X179274442Y-75849808D02*
X179140921Y-75712488D01*
X179140921Y-75712488D02*
X179033175Y-75607925D01*
X179033175Y-75607925D02*
X178950478Y-75546199D01*
X178950478Y-75546199D02*
X178843648Y-75483026D01*
X178843648Y-75483026D02*
X178837616Y-75479922D01*
X178837616Y-75479922D02*
X178754226Y-75429197D01*
X178754226Y-75429197D02*
X178711924Y-75387333D01*
X178711924Y-75387333D02*
X178710616Y-75381892D01*
X178710616Y-75381892D02*
X178678345Y-75345692D01*
X178678345Y-75345692D02*
X178599912Y-75302770D01*
X178599912Y-75302770D02*
X178592459Y-75299617D01*
X178592459Y-75299617D02*
X178501552Y-75252146D01*
X178501552Y-75252146D02*
X178446453Y-75205648D01*
X178446453Y-75205648D02*
X178445920Y-75204810D01*
X178445920Y-75204810D02*
X178384902Y-75149160D01*
X178384902Y-75149160D02*
X178265191Y-75073343D01*
X178265191Y-75073343D02*
X178101439Y-74984185D01*
X178101439Y-74984185D02*
X177908295Y-74888513D01*
X177908295Y-74888513D02*
X177700411Y-74793156D01*
X177700411Y-74793156D02*
X177492437Y-74704939D01*
X177492437Y-74704939D02*
X177299025Y-74630691D01*
X177299025Y-74630691D02*
X177134826Y-74577239D01*
X177134826Y-74577239D02*
X177059013Y-74558509D01*
X177059013Y-74558509D02*
X176921725Y-74529940D01*
X176921725Y-74529940D02*
X176834536Y-74508745D01*
X176834536Y-74508745D02*
X176770776Y-74487661D01*
X176770776Y-74487661D02*
X176717692Y-74465545D01*
X176717692Y-74465545D02*
X176639097Y-74440657D01*
X176639097Y-74440657D02*
X176507276Y-74407915D01*
X176507276Y-74407915D02*
X176346080Y-74372404D01*
X176346080Y-74372404D02*
X176179359Y-74339211D01*
X176179359Y-74339211D02*
X176030961Y-74313422D01*
X176030961Y-74313422D02*
X175955692Y-74303045D01*
X175955692Y-74303045D02*
X175775841Y-74277706D01*
X175775841Y-74277706D02*
X175628542Y-74247532D01*
X175628542Y-74247532D02*
X175534778Y-74216963D01*
X175534778Y-74216963D02*
X175525846Y-74212151D01*
X175525846Y-74212151D02*
X175452847Y-74185068D01*
X175452847Y-74185068D02*
X175428154Y-74180258D01*
X175428154Y-74180258D02*
X175362546Y-74171002D01*
X175362546Y-74171002D02*
X175243729Y-74154277D01*
X175243729Y-74154277D02*
X175095887Y-74133488D01*
X175095887Y-74133488D02*
X175076462Y-74130758D01*
X175076462Y-74130758D02*
X174919315Y-74108157D01*
X174919315Y-74108157D02*
X174781067Y-74087370D01*
X174781067Y-74087370D02*
X174689908Y-74072644D01*
X174689908Y-74072644D02*
X174685692Y-74071891D01*
X174685692Y-74071891D02*
X174559356Y-74052736D01*
X174559356Y-74052736D02*
X174378843Y-74031561D01*
X174378843Y-74031561D02*
X174136869Y-74007604D01*
X174136869Y-74007604D02*
X173826147Y-73980104D01*
X173826147Y-73980104D02*
X173728308Y-73971871D01*
X173728308Y-73971871D02*
X173491675Y-73951236D01*
X173491675Y-73951236D02*
X173245144Y-73928177D01*
X173245144Y-73928177D02*
X173004487Y-73904328D01*
X173004487Y-73904328D02*
X172785476Y-73881325D01*
X172785476Y-73881325D02*
X172603883Y-73860801D01*
X172603883Y-73860801D02*
X172475479Y-73844392D01*
X172475479Y-73844392D02*
X172432423Y-73837561D01*
X172432423Y-73837561D02*
X172363894Y-73828900D01*
X172363894Y-73828900D02*
X172237184Y-73816323D01*
X172237184Y-73816323D02*
X172072064Y-73801512D01*
X172072064Y-73801512D02*
X171888307Y-73786150D01*
X171888307Y-73786150D02*
X171705684Y-73771919D01*
X171705684Y-73771919D02*
X171543967Y-73760502D01*
X171543967Y-73760502D02*
X171481385Y-73756620D01*
X171481385Y-73756620D02*
X170858012Y-73715691D01*
X170858012Y-73715691D02*
X170229303Y-73665515D01*
X170229303Y-73665515D02*
X169627372Y-73608789D01*
X169627372Y-73608789D02*
X169293077Y-73572805D01*
X169293077Y-73572805D02*
X169116561Y-73554231D01*
X169116561Y-73554231D02*
X168956872Y-73540012D01*
X168956872Y-73540012D02*
X168838642Y-73532236D01*
X168838642Y-73532236D02*
X168804616Y-73531400D01*
X168804616Y-73531400D02*
X168687283Y-73532650D01*
X168687283Y-73532650D02*
X168506820Y-73535243D01*
X168506820Y-73535243D02*
X168273856Y-73538979D01*
X168273856Y-73538979D02*
X167999021Y-73543655D01*
X167999021Y-73543655D02*
X167692944Y-73549071D01*
X167692944Y-73549071D02*
X167366255Y-73555025D01*
X167366255Y-73555025D02*
X167029583Y-73561314D01*
X167029583Y-73561314D02*
X166693557Y-73567739D01*
X166693557Y-73567739D02*
X166368806Y-73574096D01*
X166368806Y-73574096D02*
X166065961Y-73580185D01*
X166065961Y-73580185D02*
X165795650Y-73585804D01*
X165795650Y-73585804D02*
X165568502Y-73590751D01*
X165568502Y-73590751D02*
X165395148Y-73594825D01*
X165395148Y-73594825D02*
X165286216Y-73597824D01*
X165286216Y-73597824D02*
X165268154Y-73598465D01*
X165268154Y-73598465D02*
X165098540Y-73606271D01*
X165098540Y-73606271D02*
X164899562Y-73617120D01*
X164899562Y-73617120D02*
X164688541Y-73629867D01*
X164688541Y-73629867D02*
X164482799Y-73643364D01*
X164482799Y-73643364D02*
X164299657Y-73656468D01*
X164299657Y-73656468D02*
X164156436Y-73668031D01*
X164156436Y-73668031D02*
X164070457Y-73676909D01*
X164070457Y-73676909D02*
X164061610Y-73678269D01*
X164061610Y-73678269D02*
X163993161Y-73687089D01*
X163993161Y-73687089D02*
X163871730Y-73699982D01*
X163871730Y-73699982D02*
X163722205Y-73714323D01*
X163722205Y-73714323D02*
X163705077Y-73715879D01*
X163705077Y-73715879D02*
X163531256Y-73736940D01*
X163531256Y-73736940D02*
X163361214Y-73766325D01*
X163361214Y-73766325D02*
X163236154Y-73796476D01*
X163236154Y-73796476D02*
X163130126Y-73826747D01*
X163130126Y-73826747D02*
X162969554Y-73869793D01*
X162969554Y-73869793D02*
X162774155Y-73920623D01*
X162774155Y-73920623D02*
X162563646Y-73974242D01*
X162563646Y-73974242D02*
X162357743Y-74025658D01*
X162357743Y-74025658D02*
X162176162Y-74069878D01*
X162176162Y-74069878D02*
X162038620Y-74101909D01*
X162038620Y-74101909D02*
X161985692Y-74113149D01*
X161985692Y-74113149D02*
X161869659Y-74137715D01*
X161869659Y-74137715D02*
X161694280Y-74177273D01*
X161694280Y-74177273D02*
X161476036Y-74227884D01*
X161476036Y-74227884D02*
X161231407Y-74285609D01*
X161231407Y-74285609D02*
X160976876Y-74346510D01*
X160976876Y-74346510D02*
X160728922Y-74406648D01*
X160728922Y-74406648D02*
X160504026Y-74462085D01*
X160504026Y-74462085D02*
X160318670Y-74508882D01*
X160318670Y-74508882D02*
X160207692Y-74538058D01*
X160207692Y-74538058D02*
X160008729Y-74591970D01*
X160008729Y-74591970D02*
X159797827Y-74648839D01*
X159797827Y-74648839D02*
X159614232Y-74698087D01*
X159614232Y-74698087D02*
X159580641Y-74707052D01*
X159580641Y-74707052D02*
X159244706Y-74802513D01*
X159244706Y-74802513D02*
X158973490Y-74893258D01*
X158973490Y-74893258D02*
X158754095Y-74983728D01*
X158754095Y-74983728D02*
X158694761Y-75012327D01*
X158694761Y-75012327D02*
X158578385Y-75065127D01*
X158578385Y-75065127D02*
X158483768Y-75098526D01*
X158483768Y-75098526D02*
X158450104Y-75104616D01*
X158450104Y-75104616D02*
X158356885Y-75126581D01*
X158356885Y-75126581D02*
X158213394Y-75187652D01*
X158213394Y-75187652D02*
X158032290Y-75280594D01*
X158032290Y-75280594D02*
X157826231Y-75398169D01*
X157826231Y-75398169D02*
X157607879Y-75533144D01*
X157607879Y-75533144D02*
X157389892Y-75678281D01*
X157389892Y-75678281D02*
X157184929Y-75826344D01*
X157184929Y-75826344D02*
X157177335Y-75832108D01*
X157177335Y-75832108D02*
X157061324Y-75927182D01*
X157061324Y-75927182D02*
X156913052Y-76058507D01*
X156913052Y-76058507D02*
X156747419Y-76211790D01*
X156747419Y-76211790D02*
X156579326Y-76372734D01*
X156579326Y-76372734D02*
X156423670Y-76527045D01*
X156423670Y-76527045D02*
X156295353Y-76660428D01*
X156295353Y-76660428D02*
X156209273Y-76758589D01*
X156209273Y-76758589D02*
X156202308Y-76767561D01*
X156202308Y-76767561D02*
X156146503Y-76838490D01*
X156146503Y-76838490D02*
X156061196Y-76944192D01*
X156061196Y-76944192D02*
X155983153Y-77039526D01*
X155983153Y-77039526D02*
X155871311Y-77190783D01*
X155871311Y-77190783D02*
X155741695Y-77390362D01*
X155741695Y-77390362D02*
X155608039Y-77615063D01*
X155608039Y-77615063D02*
X155484076Y-77841686D01*
X155484076Y-77841686D02*
X155383537Y-78047032D01*
X155383537Y-78047032D02*
X155373692Y-78069157D01*
X155373692Y-78069157D02*
X155306331Y-78246069D01*
X155306331Y-78246069D02*
X155235112Y-78472451D01*
X155235112Y-78472451D02*
X155168050Y-78720528D01*
X155168050Y-78720528D02*
X155113158Y-78962524D01*
X155113158Y-78962524D02*
X155107202Y-78992770D01*
X155107202Y-78992770D02*
X155074260Y-79159031D01*
X155074260Y-79159031D02*
X155037981Y-79335772D01*
X155037981Y-79335772D02*
X155027902Y-79383539D01*
X155027902Y-79383539D02*
X154997797Y-79580077D01*
X154997797Y-79580077D02*
X154979705Y-79814564D01*
X154979705Y-79814564D02*
X154973878Y-80061716D01*
X154973878Y-80061716D02*
X154980563Y-80296245D01*
X154980563Y-80296245D02*
X155000010Y-80492868D01*
X155000010Y-80492868D02*
X155016159Y-80575385D01*
X155016159Y-80575385D02*
X155072219Y-80752421D01*
X155072219Y-80752421D02*
X155149393Y-80939062D01*
X155149393Y-80939062D02*
X155234459Y-81106335D01*
X155234459Y-81106335D02*
X155311024Y-81221502D01*
X155311024Y-81221502D02*
X155461658Y-81387407D01*
X155461658Y-81387407D02*
X155636942Y-81557266D01*
X155636942Y-81557266D02*
X155691674Y-81605835D01*
X155691674Y-81605835D02*
X155768388Y-81662709D01*
X155768388Y-81662709D02*
X155890176Y-81742476D01*
X155890176Y-81742476D02*
X156042032Y-81836412D01*
X156042032Y-81836412D02*
X156208950Y-81935791D01*
X156208950Y-81935791D02*
X156375924Y-82031889D01*
X156375924Y-82031889D02*
X156527949Y-82115982D01*
X156527949Y-82115982D02*
X156650019Y-82179345D01*
X156650019Y-82179345D02*
X156727127Y-82213253D01*
X156727127Y-82213253D02*
X156742195Y-82216616D01*
X156742195Y-82216616D02*
X156798419Y-82231157D01*
X156798419Y-82231157D02*
X156898911Y-82268376D01*
X156898911Y-82268376D02*
X156970837Y-82298275D01*
X156970837Y-82298275D02*
X157092418Y-82348349D01*
X157092418Y-82348349D02*
X157192823Y-82385395D01*
X157192823Y-82385395D02*
X157228077Y-82395968D01*
X157228077Y-82395968D02*
X157519810Y-82460160D01*
X157519810Y-82460160D02*
X157609077Y-82478472D01*
X157609077Y-82478472D02*
X157723833Y-82501934D01*
X157723833Y-82501934D02*
X157782900Y-82515064D01*
X157782900Y-82515064D02*
X157807226Y-82522854D01*
X157807226Y-82522854D02*
X157814231Y-82527336D01*
X157814231Y-82527336D02*
X157854510Y-82541184D01*
X157854510Y-82541184D02*
X157947596Y-82557095D01*
X157947596Y-82557095D02*
X158100746Y-82576029D01*
X158100746Y-82576029D02*
X158321217Y-82598946D01*
X158321217Y-82598946D02*
X158449231Y-82611278D01*
X158449231Y-82611278D02*
X158774161Y-82633411D01*
X158774161Y-82633411D02*
X159094874Y-82635882D01*
X159094874Y-82635882D02*
X159436381Y-82617981D01*
X159436381Y-82617981D02*
X159823694Y-82579001D01*
X159823694Y-82579001D02*
X159895077Y-82570328D01*
X159895077Y-82570328D02*
X160083827Y-82547985D01*
X160083827Y-82547985D02*
X160199634Y-82535277D01*
X160199634Y-82535277D02*
X160199634Y-82318785D01*
X160199634Y-82318785D02*
X160097329Y-82302132D01*
X160097329Y-82302132D02*
X160040778Y-82261883D01*
X160040778Y-82261883D02*
X160038784Y-82256968D01*
X160038784Y-82256968D02*
X160000615Y-82194252D01*
X160000615Y-82194252D02*
X159976022Y-82166374D01*
X159976022Y-82166374D02*
X159905987Y-82049795D01*
X159905987Y-82049795D02*
X159910712Y-81920050D01*
X159910712Y-81920050D02*
X159973520Y-81811632D01*
X159973520Y-81811632D02*
X159973520Y-76374616D01*
X159973520Y-76374616D02*
X159951281Y-76237847D01*
X159951281Y-76237847D02*
X159956178Y-76065772D01*
X159956178Y-76065772D02*
X160015283Y-75895938D01*
X160015283Y-75895938D02*
X160116250Y-75763503D01*
X160116250Y-75763503D02*
X160175659Y-75713776D01*
X160175659Y-75713776D02*
X160223410Y-75688817D01*
X160223410Y-75688817D02*
X160291334Y-75677612D01*
X160291334Y-75677612D02*
X160383539Y-75671020D01*
X160383539Y-75671020D02*
X160545988Y-75690888D01*
X160545988Y-75690888D02*
X160697287Y-75777101D01*
X160697287Y-75777101D02*
X160845148Y-75932347D01*
X160845148Y-75932347D02*
X160875371Y-75992878D01*
X160875371Y-75992878D02*
X160860315Y-76064514D01*
X160860315Y-76064514D02*
X160839379Y-76108132D01*
X160839379Y-76108132D02*
X160771834Y-76219958D01*
X160771834Y-76219958D02*
X160695636Y-76292661D01*
X160695636Y-76292661D02*
X160591968Y-76335218D01*
X160591968Y-76335218D02*
X160442012Y-76356607D01*
X160442012Y-76356607D02*
X160303778Y-76363647D01*
X160303778Y-76363647D02*
X159973520Y-76374616D01*
X159973520Y-76374616D02*
X159973520Y-81811632D01*
X159973520Y-81811632D02*
X159989449Y-81784135D01*
X159989449Y-81784135D02*
X160020553Y-81750070D01*
X160020553Y-81750070D02*
X160075970Y-81698656D01*
X160075970Y-81698656D02*
X160128245Y-81675160D01*
X160128245Y-81675160D02*
X160202365Y-81676098D01*
X160202365Y-81676098D02*
X160323319Y-81697988D01*
X160323319Y-81697988D02*
X160351974Y-81703881D01*
X160351974Y-81703881D02*
X160543071Y-81757035D01*
X160543071Y-81757035D02*
X160657557Y-81821906D01*
X160657557Y-81821906D02*
X160696149Y-81898903D01*
X160696149Y-81898903D02*
X160696154Y-81899883D01*
X160696154Y-81899883D02*
X160666873Y-82010347D01*
X160666873Y-82010347D02*
X160593265Y-82132434D01*
X160593265Y-82132434D02*
X160496685Y-82235411D01*
X160496685Y-82235411D02*
X160434733Y-82276134D01*
X160434733Y-82276134D02*
X160321000Y-82310549D01*
X160321000Y-82310549D02*
X160199634Y-82318785D01*
X160199634Y-82318785D02*
X160199634Y-82535277D01*
X160199634Y-82535277D02*
X160279643Y-82526496D01*
X160279643Y-82526496D02*
X160440513Y-82510468D01*
X160440513Y-82510468D02*
X160442154Y-82510320D01*
X160442154Y-82510320D02*
X160645076Y-82489750D01*
X160645076Y-82489750D02*
X160863503Y-82463978D01*
X160863503Y-82463978D02*
X161080756Y-82435382D01*
X161080756Y-82435382D02*
X161280154Y-82406339D01*
X161280154Y-82406339D02*
X161445016Y-82379229D01*
X161445016Y-82379229D02*
X161558661Y-82356429D01*
X161558661Y-82356429D02*
X161594923Y-82345967D01*
X161594923Y-82345967D02*
X161685814Y-82319735D01*
X161685814Y-82319735D02*
X161712154Y-82315063D01*
X161712154Y-82315063D02*
X161785095Y-82303791D01*
X161785095Y-82303791D02*
X161852955Y-82292510D01*
X161852955Y-82292510D02*
X161852955Y-80794318D01*
X161852955Y-80794318D02*
X161706126Y-80772530D01*
X161706126Y-80772530D02*
X161604555Y-80706395D01*
X161604555Y-80706395D02*
X161529881Y-80644430D01*
X161529881Y-80644430D02*
X161478900Y-80614873D01*
X161478900Y-80614873D02*
X161475645Y-80614462D01*
X161475645Y-80614462D02*
X161458967Y-80585903D01*
X161458967Y-80585903D02*
X161471906Y-80521568D01*
X161471906Y-80521568D02*
X161505180Y-80453466D01*
X161505180Y-80453466D02*
X161530761Y-80424345D01*
X161530761Y-80424345D02*
X161597103Y-80390910D01*
X161597103Y-80390910D02*
X161711807Y-80349661D01*
X161711807Y-80349661D02*
X161846779Y-80308987D01*
X161846779Y-80308987D02*
X161973926Y-80277280D01*
X161973926Y-80277280D02*
X162065154Y-80262928D01*
X162065154Y-80262928D02*
X162071777Y-80262770D01*
X162071777Y-80262770D02*
X162140504Y-80295049D01*
X162140504Y-80295049D02*
X162186696Y-80357189D01*
X162186696Y-80357189D02*
X162205942Y-80424479D01*
X162205942Y-80424479D02*
X162190956Y-80494273D01*
X162190956Y-80494273D02*
X162134764Y-80592567D01*
X162134764Y-80592567D02*
X162115937Y-80620958D01*
X162115937Y-80620958D02*
X162039518Y-80723521D01*
X162039518Y-80723521D02*
X161972450Y-80774824D01*
X161972450Y-80774824D02*
X161887624Y-80792737D01*
X161887624Y-80792737D02*
X161852955Y-80794318D01*
X161852955Y-80794318D02*
X161852955Y-82292510D01*
X161852955Y-82292510D02*
X161898935Y-82284866D01*
X161898935Y-82284866D02*
X161946616Y-82276688D01*
X161946616Y-82276688D02*
X162078444Y-82253923D01*
X162078444Y-82253923D02*
X162193836Y-82234087D01*
X162193836Y-82234087D02*
X162220154Y-82229588D01*
X162220154Y-82229588D02*
X162322748Y-82208437D01*
X162322748Y-82208437D02*
X162450334Y-82177668D01*
X162450334Y-82177668D02*
X162474154Y-82171445D01*
X162474154Y-82171445D02*
X162599811Y-82140030D01*
X162599811Y-82140030D02*
X162709579Y-82115668D01*
X162709579Y-82115668D02*
X162725416Y-82112634D01*
X162725416Y-82112634D02*
X162809671Y-82092673D01*
X162809671Y-82092673D02*
X162848707Y-82077794D01*
X162848707Y-82077794D02*
X162900022Y-82062021D01*
X162900022Y-82062021D02*
X163020318Y-82033406D01*
X163020318Y-82033406D02*
X163201783Y-81993631D01*
X163201783Y-81993631D02*
X163436606Y-81944381D01*
X163436606Y-81944381D02*
X163716975Y-81887339D01*
X163716975Y-81887339D02*
X163920000Y-81846868D01*
X163920000Y-81846868D02*
X164113272Y-81813035D01*
X164113272Y-81813035D02*
X164327235Y-81782083D01*
X164327235Y-81782083D02*
X164467077Y-81765790D01*
X164467077Y-81765790D02*
X164605215Y-81750961D01*
X164605215Y-81750961D02*
X164709859Y-81737449D01*
X164709859Y-81737449D02*
X164759444Y-81728058D01*
X164759444Y-81728058D02*
X164760154Y-81727711D01*
X164760154Y-81727711D02*
X164806521Y-81718034D01*
X164806521Y-81718034D02*
X164907051Y-81704205D01*
X164907051Y-81704205D02*
X165014154Y-81692010D01*
X165014154Y-81692010D02*
X165341923Y-81657987D01*
X165341923Y-81657987D02*
X165606678Y-81631447D01*
X165606678Y-81631447D02*
X165619846Y-81630214D01*
X165619846Y-81630214D02*
X165619846Y-81355090D01*
X165619846Y-81355090D02*
X165521329Y-81343355D01*
X165521329Y-81343355D02*
X165446348Y-81294640D01*
X165446348Y-81294640D02*
X165373351Y-81201690D01*
X165373351Y-81201690D02*
X165315859Y-81093531D01*
X165315859Y-81093531D02*
X165321139Y-81023478D01*
X165321139Y-81023478D02*
X165369042Y-80989874D01*
X165369042Y-80989874D02*
X165490937Y-80965240D01*
X165490937Y-80965240D02*
X165629403Y-80969484D01*
X165629403Y-80969484D02*
X165762772Y-80997348D01*
X165762772Y-80997348D02*
X165869377Y-81043577D01*
X165869377Y-81043577D02*
X165927549Y-81102915D01*
X165927549Y-81102915D02*
X165932462Y-81126552D01*
X165932462Y-81126552D02*
X165900571Y-81188762D01*
X165900571Y-81188762D02*
X165822627Y-81260354D01*
X165822627Y-81260354D02*
X165725221Y-81321890D01*
X165725221Y-81321890D02*
X165634943Y-81353931D01*
X165634943Y-81353931D02*
X165619846Y-81355090D01*
X165619846Y-81355090D02*
X165619846Y-81630214D01*
X165619846Y-81630214D02*
X165823071Y-81611169D01*
X165823071Y-81611169D02*
X166005755Y-81595930D01*
X166005755Y-81595930D02*
X166169383Y-81584509D01*
X166169383Y-81584509D02*
X166328607Y-81575685D01*
X166328607Y-81575685D02*
X166498082Y-81568235D01*
X166498082Y-81568235D02*
X166499077Y-81568195D01*
X166499077Y-81568195D02*
X166735036Y-81556123D01*
X166735036Y-81556123D02*
X166991964Y-81538720D01*
X166991964Y-81538720D02*
X167232235Y-81518714D01*
X167232235Y-81518714D02*
X167358769Y-81505926D01*
X167358769Y-81505926D02*
X167508013Y-81494337D01*
X167508013Y-81494337D02*
X167724220Y-81484696D01*
X167724220Y-81484696D02*
X167996218Y-81477234D01*
X167996218Y-81477234D02*
X168128281Y-81475127D01*
X168128281Y-81475127D02*
X168128281Y-75059303D01*
X168128281Y-75059303D02*
X168000114Y-75047724D01*
X168000114Y-75047724D02*
X167913371Y-75023510D01*
X167913371Y-75023510D02*
X167886526Y-74992597D01*
X167886526Y-74992597D02*
X167896243Y-74941866D01*
X167896243Y-74941866D02*
X167919898Y-74848742D01*
X167919898Y-74848742D02*
X167925361Y-74828836D01*
X167925361Y-74828836D02*
X167996982Y-74684694D01*
X167996982Y-74684694D02*
X168109870Y-74582381D01*
X168109870Y-74582381D02*
X168244789Y-74535695D01*
X168244789Y-74535695D02*
X168327941Y-74540045D01*
X168327941Y-74540045D02*
X168454385Y-74577200D01*
X168454385Y-74577200D02*
X168567922Y-74627071D01*
X168567922Y-74627071D02*
X168646020Y-74678252D01*
X168646020Y-74678252D02*
X168667846Y-74712132D01*
X168667846Y-74712132D02*
X168700668Y-74746320D01*
X168700668Y-74746320D02*
X168745085Y-74759975D01*
X168745085Y-74759975D02*
X168796456Y-74791142D01*
X168796456Y-74791142D02*
X168791446Y-74847757D01*
X168791446Y-74847757D02*
X168740518Y-74914763D01*
X168740518Y-74914763D02*
X168654132Y-74977106D01*
X168654132Y-74977106D02*
X168569538Y-75012610D01*
X168569538Y-75012610D02*
X168432171Y-75042308D01*
X168432171Y-75042308D02*
X168278692Y-75057685D01*
X168278692Y-75057685D02*
X168128281Y-75059303D01*
X168128281Y-75059303D02*
X168128281Y-81475127D01*
X168128281Y-81475127D02*
X168312834Y-81472181D01*
X168312834Y-81472181D02*
X168662896Y-81469768D01*
X168662896Y-81469768D02*
X169035233Y-81470225D01*
X169035233Y-81470225D02*
X169078154Y-81470467D01*
X169078154Y-81470467D02*
X169718863Y-81473952D01*
X169718863Y-81473952D02*
X170289844Y-81476118D01*
X170289844Y-81476118D02*
X170799513Y-81476924D01*
X170799513Y-81476924D02*
X171256286Y-81476329D01*
X171256286Y-81476329D02*
X171263150Y-81476296D01*
X171263150Y-81476296D02*
X171263150Y-81340584D01*
X171263150Y-81340584D02*
X171107633Y-81333339D01*
X171107633Y-81333339D02*
X170960073Y-81264620D01*
X170960073Y-81264620D02*
X170848831Y-81148398D01*
X170848831Y-81148398D02*
X170839171Y-81131740D01*
X170839171Y-81131740D02*
X170788935Y-81018056D01*
X170788935Y-81018056D02*
X170791003Y-80944783D01*
X170791003Y-80944783D02*
X170846486Y-80893284D01*
X170846486Y-80893284D02*
X170853585Y-80889375D01*
X170853585Y-80889375D02*
X170951548Y-80860376D01*
X170951548Y-80860376D02*
X171091564Y-80847342D01*
X171091564Y-80847342D02*
X171253212Y-80848624D01*
X171253212Y-80848624D02*
X171416073Y-80862572D01*
X171416073Y-80862572D02*
X171559723Y-80887536D01*
X171559723Y-80887536D02*
X171663742Y-80921867D01*
X171663742Y-80921867D02*
X171706180Y-80958251D01*
X171706180Y-80958251D02*
X171691836Y-81018483D01*
X171691836Y-81018483D02*
X171627108Y-81100969D01*
X171627108Y-81100969D02*
X171530013Y-81190162D01*
X171530013Y-81190162D02*
X171418570Y-81270511D01*
X171418570Y-81270511D02*
X171310797Y-81326467D01*
X171310797Y-81326467D02*
X171263150Y-81340584D01*
X171263150Y-81340584D02*
X171263150Y-81476296D01*
X171263150Y-81476296D02*
X171668580Y-81474292D01*
X171668580Y-81474292D02*
X172044809Y-81470772D01*
X172044809Y-81470772D02*
X172393389Y-81465729D01*
X172393389Y-81465729D02*
X172722737Y-81459123D01*
X172722737Y-81459123D02*
X173024923Y-81451377D01*
X173024923Y-81451377D02*
X173267435Y-81445530D01*
X173267435Y-81445530D02*
X173572510Y-81439784D01*
X173572510Y-81439784D02*
X173597263Y-81439402D01*
X173597263Y-81439402D02*
X173597263Y-81073637D01*
X173597263Y-81073637D02*
X173363979Y-81036075D01*
X173363979Y-81036075D02*
X173139295Y-80960008D01*
X173139295Y-80960008D02*
X172945156Y-80850340D01*
X172945156Y-80850340D02*
X172836536Y-80753243D01*
X172836536Y-80753243D02*
X172710677Y-80609545D01*
X172710677Y-80609545D02*
X172619977Y-80500201D01*
X172619977Y-80500201D02*
X172546199Y-80402492D01*
X172546199Y-80402492D02*
X172489424Y-80320857D01*
X172489424Y-80320857D02*
X172404570Y-80178970D01*
X172404570Y-80178970D02*
X172323504Y-80013748D01*
X172323504Y-80013748D02*
X172250263Y-79838091D01*
X172250263Y-79838091D02*
X172188885Y-79664899D01*
X172188885Y-79664899D02*
X172143409Y-79507074D01*
X172143409Y-79507074D02*
X172117873Y-79377516D01*
X172117873Y-79377516D02*
X172116315Y-79289125D01*
X172116315Y-79289125D02*
X172142774Y-79254804D01*
X172142774Y-79254804D02*
X172156363Y-79256839D01*
X172156363Y-79256839D02*
X172183745Y-79297634D01*
X172183745Y-79297634D02*
X172225134Y-79396384D01*
X172225134Y-79396384D02*
X172273668Y-79535730D01*
X172273668Y-79535730D02*
X172299822Y-79619712D01*
X172299822Y-79619712D02*
X172375979Y-79858012D01*
X172375979Y-79858012D02*
X172448433Y-80042384D01*
X172448433Y-80042384D02*
X172528251Y-80195647D01*
X172528251Y-80195647D02*
X172626503Y-80340618D01*
X172626503Y-80340618D02*
X172687569Y-80419077D01*
X172687569Y-80419077D02*
X172811224Y-80566021D01*
X172811224Y-80566021D02*
X172916615Y-80669029D01*
X172916615Y-80669029D02*
X173029417Y-80748798D01*
X173029417Y-80748798D02*
X173175304Y-80826025D01*
X173175304Y-80826025D02*
X173217343Y-80846127D01*
X173217343Y-80846127D02*
X173453712Y-80924831D01*
X173453712Y-80924831D02*
X173672908Y-80942597D01*
X173672908Y-80942597D02*
X173672908Y-80760216D01*
X173672908Y-80760216D02*
X173472682Y-80758050D01*
X173472682Y-80758050D02*
X173469993Y-80757563D01*
X173469993Y-80757563D02*
X173256605Y-80682618D01*
X173256605Y-80682618D02*
X173041505Y-80542605D01*
X173041505Y-80542605D02*
X172835064Y-80349671D01*
X172835064Y-80349671D02*
X172647652Y-80115962D01*
X172647652Y-80115962D02*
X172489639Y-79853625D01*
X172489639Y-79853625D02*
X172371394Y-79574805D01*
X172371394Y-79574805D02*
X172327069Y-79418837D01*
X172327069Y-79418837D02*
X172264251Y-79080681D01*
X172264251Y-79080681D02*
X172223831Y-78717074D01*
X172223831Y-78717074D02*
X172206325Y-78349024D01*
X172206325Y-78349024D02*
X172212246Y-77997543D01*
X172212246Y-77997543D02*
X172242109Y-77683642D01*
X172242109Y-77683642D02*
X172245700Y-77665042D01*
X172245700Y-77665042D02*
X172245700Y-76914819D01*
X172245700Y-76914819D02*
X172225387Y-76865234D01*
X172225387Y-76865234D02*
X172223846Y-76822576D01*
X172223846Y-76822576D02*
X172243869Y-76717983D01*
X172243869Y-76717983D02*
X172293702Y-76595146D01*
X172293702Y-76595146D02*
X172311415Y-76562819D01*
X172311415Y-76562819D02*
X172390493Y-76439615D01*
X172390493Y-76439615D02*
X172472441Y-76343627D01*
X172472441Y-76343627D02*
X172582727Y-76247339D01*
X172582727Y-76247339D02*
X172655080Y-76191522D01*
X172655080Y-76191522D02*
X172936352Y-76016539D01*
X172936352Y-76016539D02*
X173216780Y-75918348D01*
X173216780Y-75918348D02*
X173501084Y-75895782D01*
X173501084Y-75895782D02*
X173721515Y-75928222D01*
X173721515Y-75928222D02*
X173911074Y-76001495D01*
X173911074Y-76001495D02*
X174104020Y-76123305D01*
X174104020Y-76123305D02*
X174282487Y-76277374D01*
X174282487Y-76277374D02*
X174428605Y-76447421D01*
X174428605Y-76447421D02*
X174524507Y-76617169D01*
X174524507Y-76617169D02*
X174543886Y-76677462D01*
X174543886Y-76677462D02*
X174553232Y-76760967D01*
X174553232Y-76760967D02*
X174527667Y-76778407D01*
X174527667Y-76778407D02*
X174471900Y-76731084D01*
X174471900Y-76731084D02*
X174402571Y-76638385D01*
X174402571Y-76638385D02*
X174196896Y-76378693D01*
X174196896Y-76378693D02*
X173974310Y-76192124D01*
X173974310Y-76192124D02*
X173728472Y-76074364D01*
X173728472Y-76074364D02*
X173501785Y-76025741D01*
X173501785Y-76025741D02*
X173324237Y-76033899D01*
X173324237Y-76033899D02*
X173120604Y-76086609D01*
X173120604Y-76086609D02*
X172920200Y-76173295D01*
X172920200Y-76173295D02*
X172752341Y-76283382D01*
X172752341Y-76283382D02*
X172727718Y-76304984D01*
X172727718Y-76304984D02*
X172620103Y-76419698D01*
X172620103Y-76419698D02*
X172518265Y-76553769D01*
X172518265Y-76553769D02*
X172436106Y-76685950D01*
X172436106Y-76685950D02*
X172387530Y-76794990D01*
X172387530Y-76794990D02*
X172380154Y-76836170D01*
X172380154Y-76836170D02*
X172347390Y-76890962D01*
X172347390Y-76890962D02*
X172302000Y-76913477D01*
X172302000Y-76913477D02*
X172245700Y-76914819D01*
X172245700Y-76914819D02*
X172245700Y-77665042D01*
X172245700Y-77665042D02*
X172279821Y-77488308D01*
X172279821Y-77488308D02*
X172317781Y-77341175D01*
X172317781Y-77341175D02*
X172350902Y-77228789D01*
X172350902Y-77228789D02*
X172388483Y-77126560D01*
X172388483Y-77126560D02*
X172439823Y-77009895D01*
X172439823Y-77009895D02*
X172514222Y-76854200D01*
X172514222Y-76854200D02*
X172538407Y-76804462D01*
X172538407Y-76804462D02*
X172694368Y-76539929D01*
X172694368Y-76539929D02*
X172872548Y-76347496D01*
X172872548Y-76347496D02*
X173079624Y-76222670D01*
X173079624Y-76222670D02*
X173322270Y-76160959D01*
X173322270Y-76160959D02*
X173506858Y-76152659D01*
X173506858Y-76152659D02*
X173613439Y-76167453D01*
X173613439Y-76167453D02*
X173689709Y-76199186D01*
X173689709Y-76199186D02*
X173690762Y-76200040D01*
X173690762Y-76200040D02*
X173752634Y-76228134D01*
X173752634Y-76228134D02*
X173777821Y-76223934D01*
X173777821Y-76223934D02*
X173828517Y-76234095D01*
X173828517Y-76234095D02*
X173908689Y-76291669D01*
X173908689Y-76291669D02*
X174002300Y-76380539D01*
X174002300Y-76380539D02*
X174093312Y-76484583D01*
X174093312Y-76484583D02*
X174165687Y-76587683D01*
X174165687Y-76587683D02*
X174193031Y-76641247D01*
X174193031Y-76641247D02*
X174253746Y-76860033D01*
X174253746Y-76860033D02*
X174281790Y-77125655D01*
X174281790Y-77125655D02*
X174276078Y-77413462D01*
X174276078Y-77413462D02*
X174238906Y-77682467D01*
X174238906Y-77682467D02*
X174205613Y-77843693D01*
X174205613Y-77843693D02*
X174177806Y-77958347D01*
X174177806Y-77958347D02*
X174145973Y-78053348D01*
X174145973Y-78053348D02*
X174100604Y-78155616D01*
X174100604Y-78155616D02*
X174032189Y-78292073D01*
X174032189Y-78292073D02*
X174004312Y-78346504D01*
X174004312Y-78346504D02*
X173928949Y-78519930D01*
X173928949Y-78519930D02*
X173891757Y-78684600D01*
X173891757Y-78684600D02*
X173892726Y-78860028D01*
X173892726Y-78860028D02*
X173931845Y-79065731D01*
X173931845Y-79065731D02*
X174003809Y-79305385D01*
X174003809Y-79305385D02*
X174058210Y-79474450D01*
X174058210Y-79474450D02*
X174101924Y-79620921D01*
X174101924Y-79620921D02*
X174129482Y-79725836D01*
X174129482Y-79725836D02*
X174136236Y-79764539D01*
X174136236Y-79764539D02*
X174155139Y-79822615D01*
X174155139Y-79822615D02*
X174174258Y-79832923D01*
X174174258Y-79832923D02*
X174206005Y-79868029D01*
X174206005Y-79868029D02*
X174230002Y-79957742D01*
X174230002Y-79957742D02*
X174243216Y-80078659D01*
X174243216Y-80078659D02*
X174242615Y-80207379D01*
X174242615Y-80207379D02*
X174232988Y-80286259D01*
X174232988Y-80286259D02*
X174164055Y-80455545D01*
X174164055Y-80455545D02*
X174036076Y-80598166D01*
X174036076Y-80598166D02*
X173866534Y-80703322D01*
X173866534Y-80703322D02*
X173672908Y-80760216D01*
X173672908Y-80760216D02*
X173672908Y-80942597D01*
X173672908Y-80942597D02*
X173689640Y-80943954D01*
X173689640Y-80943954D02*
X173910911Y-80906783D01*
X173910911Y-80906783D02*
X174103308Y-80816605D01*
X174103308Y-80816605D02*
X174252613Y-80676708D01*
X174252613Y-80676708D02*
X174303750Y-80594923D01*
X174303750Y-80594923D02*
X174390302Y-80354730D01*
X174390302Y-80354730D02*
X174418849Y-80079374D01*
X174418849Y-80079374D02*
X174416649Y-79989231D01*
X174416649Y-79989231D02*
X174413525Y-79869056D01*
X174413525Y-79869056D02*
X174421648Y-79814448D01*
X174421648Y-79814448D02*
X174444080Y-79813248D01*
X174444080Y-79813248D02*
X174457959Y-79825209D01*
X174457959Y-79825209D02*
X174490145Y-79901158D01*
X174490145Y-79901158D02*
X174507248Y-80047260D01*
X174507248Y-80047260D02*
X174509846Y-80157363D01*
X174509846Y-80157363D02*
X174504032Y-80327486D01*
X174504032Y-80327486D02*
X174482250Y-80450167D01*
X174482250Y-80450167D02*
X174437994Y-80555541D01*
X174437994Y-80555541D02*
X174415380Y-80594923D01*
X174415380Y-80594923D02*
X174249876Y-80818857D01*
X174249876Y-80818857D02*
X174066170Y-80976872D01*
X174066170Y-80976872D02*
X174001846Y-81013634D01*
X174001846Y-81013634D02*
X173817200Y-81067792D01*
X173817200Y-81067792D02*
X173597263Y-81073637D01*
X173597263Y-81073637D02*
X173597263Y-81439402D01*
X173597263Y-81439402D02*
X173924558Y-81434340D01*
X173924558Y-81434340D02*
X174307987Y-81429403D01*
X174307987Y-81429403D02*
X174707208Y-81425175D01*
X174707208Y-81425175D02*
X174983880Y-81422878D01*
X174983880Y-81422878D02*
X174983880Y-80493739D01*
X174983880Y-80493739D02*
X174904076Y-80440150D01*
X174904076Y-80440150D02*
X174869496Y-80409308D01*
X174869496Y-80409308D02*
X174736661Y-80245592D01*
X174736661Y-80245592D02*
X174645031Y-80053048D01*
X174645031Y-80053048D02*
X174603876Y-79856624D01*
X174603876Y-79856624D02*
X174612544Y-79717850D01*
X174612544Y-79717850D02*
X174628572Y-79622293D01*
X174628572Y-79622293D02*
X174629499Y-79564462D01*
X174629499Y-79564462D02*
X174628144Y-79561111D01*
X174628144Y-79561111D02*
X174638269Y-79516961D01*
X174638269Y-79516961D02*
X174672802Y-79461262D01*
X174672802Y-79461262D02*
X174703731Y-79425966D01*
X174703731Y-79425966D02*
X174717929Y-79434399D01*
X174717929Y-79434399D02*
X174717693Y-79497914D01*
X174717693Y-79497914D02*
X174705724Y-79624030D01*
X174705724Y-79624030D02*
X174702558Y-79877977D01*
X174702558Y-79877977D02*
X174755941Y-80090636D01*
X174755941Y-80090636D02*
X174871279Y-80279817D01*
X174871279Y-80279817D02*
X174922663Y-80338850D01*
X174922663Y-80338850D02*
X174999026Y-80435334D01*
X174999026Y-80435334D02*
X175017481Y-80489548D01*
X175017481Y-80489548D02*
X174983880Y-80493739D01*
X174983880Y-80493739D02*
X174983880Y-81422878D01*
X174983880Y-81422878D02*
X175106630Y-81421858D01*
X175106630Y-81421858D02*
X175447692Y-81419846D01*
X175447692Y-81419846D02*
X176002614Y-81417288D01*
X176002614Y-81417288D02*
X176002614Y-80859068D01*
X176002614Y-80859068D02*
X175821191Y-80827087D01*
X175821191Y-80827087D02*
X175706599Y-80784416D01*
X175706599Y-80784416D02*
X175585651Y-80734654D01*
X175585651Y-80734654D02*
X175491017Y-80701316D01*
X175491017Y-80701316D02*
X175452387Y-80692616D01*
X175452387Y-80692616D02*
X175378146Y-80661134D01*
X175378146Y-80661134D02*
X175282107Y-80578441D01*
X175282107Y-80578441D02*
X175179475Y-80462168D01*
X175179475Y-80462168D02*
X175085451Y-80329943D01*
X175085451Y-80329943D02*
X175015240Y-80199396D01*
X175015240Y-80199396D02*
X175004891Y-80173703D01*
X175004891Y-80173703D02*
X174958777Y-79995683D01*
X174958777Y-79995683D02*
X174935920Y-79789127D01*
X174935920Y-79789127D02*
X174937496Y-79585438D01*
X174937496Y-79585438D02*
X174964681Y-79416021D01*
X174964681Y-79416021D02*
X174975300Y-79383539D01*
X174975300Y-79383539D02*
X175013991Y-79283175D01*
X175013991Y-79283175D02*
X175041970Y-79212537D01*
X175041970Y-79212537D02*
X175061868Y-79146984D01*
X175061868Y-79146984D02*
X175034206Y-79134803D01*
X175034206Y-79134803D02*
X174989945Y-79145950D01*
X174989945Y-79145950D02*
X174860101Y-79173477D01*
X174860101Y-79173477D02*
X174705517Y-79191077D01*
X174705517Y-79191077D02*
X174549732Y-79197970D01*
X174549732Y-79197970D02*
X174416283Y-79193378D01*
X174416283Y-79193378D02*
X174328706Y-79176522D01*
X174328706Y-79176522D02*
X174314111Y-79168325D01*
X174314111Y-79168325D02*
X174266894Y-79139146D01*
X174266894Y-79139146D02*
X174255846Y-79144034D01*
X174255846Y-79144034D02*
X174230620Y-79138196D01*
X174230620Y-79138196D02*
X174168821Y-79092288D01*
X174168821Y-79092288D02*
X174158154Y-79083157D01*
X174158154Y-79083157D02*
X174078644Y-78988861D01*
X174078644Y-78988861D02*
X174071955Y-78898524D01*
X174071955Y-78898524D02*
X174138498Y-78798955D01*
X174138498Y-78798955D02*
X174167923Y-78769854D01*
X174167923Y-78769854D02*
X174272778Y-78692842D01*
X174272778Y-78692842D02*
X174425821Y-78605802D01*
X174425821Y-78605802D02*
X174600712Y-78522237D01*
X174600712Y-78522237D02*
X174719825Y-78475691D01*
X174719825Y-78475691D02*
X174719825Y-77918154D01*
X174719825Y-77918154D02*
X174690290Y-77883336D01*
X174690290Y-77883336D02*
X174656202Y-77794241D01*
X174656202Y-77794241D02*
X174624415Y-77673911D01*
X174624415Y-77673911D02*
X174601786Y-77545384D01*
X174601786Y-77545384D02*
X174597735Y-77507847D01*
X174597735Y-77507847D02*
X174601945Y-77318694D01*
X174601945Y-77318694D02*
X174640001Y-77121212D01*
X174640001Y-77121212D02*
X174703987Y-76948390D01*
X174703987Y-76948390D02*
X174750424Y-76871705D01*
X174750424Y-76871705D02*
X174892095Y-76705214D01*
X174892095Y-76705214D02*
X175008891Y-76611916D01*
X175008891Y-76611916D02*
X175083830Y-76589539D01*
X175083830Y-76589539D02*
X175142747Y-76609864D01*
X175142747Y-76609864D02*
X175146845Y-76657874D01*
X175146845Y-76657874D02*
X175103650Y-76714121D01*
X175103650Y-76714121D02*
X175020686Y-76759160D01*
X175020686Y-76759160D02*
X175017846Y-76760076D01*
X175017846Y-76760076D02*
X174943196Y-76815500D01*
X174943196Y-76815500D02*
X174863799Y-76922906D01*
X174863799Y-76922906D02*
X174793404Y-77058342D01*
X174793404Y-77058342D02*
X174745760Y-77197859D01*
X174745760Y-77197859D02*
X174735933Y-77251175D01*
X174735933Y-77251175D02*
X174720850Y-77369085D01*
X174720850Y-77369085D02*
X174708026Y-77464793D01*
X174708026Y-77464793D02*
X174707466Y-77468770D01*
X174707466Y-77468770D02*
X174711425Y-77554504D01*
X174711425Y-77554504D02*
X174734799Y-77673111D01*
X174734799Y-77673111D02*
X174745221Y-77710934D01*
X174745221Y-77710934D02*
X174774088Y-77833462D01*
X174774088Y-77833462D02*
X174767085Y-77898339D01*
X174767085Y-77898339D02*
X174722673Y-77918123D01*
X174722673Y-77918123D02*
X174719825Y-77918154D01*
X174719825Y-77918154D02*
X174719825Y-78475691D01*
X174719825Y-78475691D02*
X174771110Y-78455649D01*
X174771110Y-78455649D02*
X174797777Y-78446975D01*
X174797777Y-78446975D02*
X174864919Y-78435862D01*
X174864919Y-78435862D02*
X174874088Y-78466623D01*
X174874088Y-78466623D02*
X174873605Y-78468108D01*
X174873605Y-78468108D02*
X174862028Y-78495258D01*
X174862028Y-78495258D02*
X174839039Y-78520056D01*
X174839039Y-78520056D02*
X174791297Y-78550396D01*
X174791297Y-78550396D02*
X174705460Y-78594172D01*
X174705460Y-78594172D02*
X174568186Y-78659278D01*
X174568186Y-78659278D02*
X174484145Y-78698539D01*
X174484145Y-78698539D02*
X174323603Y-78781685D01*
X174323603Y-78781685D02*
X174227149Y-78854639D01*
X174227149Y-78854639D02*
X174183405Y-78927542D01*
X174183405Y-78927542D02*
X174177692Y-78971686D01*
X174177692Y-78971686D02*
X174212087Y-79009943D01*
X174212087Y-79009943D02*
X174298215Y-79049990D01*
X174298215Y-79049990D02*
X174410491Y-79082217D01*
X174410491Y-79082217D02*
X174509846Y-79096434D01*
X174509846Y-79096434D02*
X174626593Y-79093611D01*
X174626593Y-79093611D02*
X174771923Y-79076889D01*
X174771923Y-79076889D02*
X174924774Y-79050496D01*
X174924774Y-79050496D02*
X175064082Y-79018660D01*
X175064082Y-79018660D02*
X175168786Y-78985607D01*
X175168786Y-78985607D02*
X175217823Y-78955567D01*
X175217823Y-78955567D02*
X175218443Y-78954202D01*
X175218443Y-78954202D02*
X175262525Y-78912640D01*
X175262525Y-78912640D02*
X175356775Y-78856774D01*
X175356775Y-78856774D02*
X175450144Y-78812368D01*
X175450144Y-78812368D02*
X175563416Y-78758819D01*
X175563416Y-78758819D02*
X175640494Y-78713478D01*
X175640494Y-78713478D02*
X175662616Y-78690632D01*
X175662616Y-78690632D02*
X175636278Y-78668231D01*
X175636278Y-78668231D02*
X175633308Y-78668918D01*
X175633308Y-78668918D02*
X175568703Y-78655129D01*
X175568703Y-78655129D02*
X175473236Y-78600393D01*
X175473236Y-78600393D02*
X175370592Y-78519732D01*
X175370592Y-78519732D02*
X175320152Y-78470291D01*
X175320152Y-78470291D02*
X175159760Y-78242051D01*
X175159760Y-78242051D02*
X175057502Y-77971195D01*
X175057502Y-77971195D02*
X175016629Y-77670751D01*
X175016629Y-77670751D02*
X175040396Y-77353749D01*
X175040396Y-77353749D02*
X175040791Y-77351539D01*
X175040791Y-77351539D02*
X175124566Y-77072318D01*
X175124566Y-77072318D02*
X175265050Y-76844749D01*
X175265050Y-76844749D02*
X175459781Y-76671853D01*
X175459781Y-76671853D02*
X175682154Y-76564542D01*
X175682154Y-76564542D02*
X175902503Y-76509986D01*
X175902503Y-76509986D02*
X176126703Y-76489179D01*
X176126703Y-76489179D02*
X176324114Y-76504164D01*
X176324114Y-76504164D02*
X176380420Y-76517999D01*
X176380420Y-76517999D02*
X176481033Y-76547251D01*
X176481033Y-76547251D02*
X176552152Y-76565136D01*
X176552152Y-76565136D02*
X176552512Y-76565206D01*
X176552512Y-76565206D02*
X176654761Y-76611845D01*
X176654761Y-76611845D02*
X176779304Y-76706819D01*
X176779304Y-76706819D02*
X176907276Y-76832022D01*
X176907276Y-76832022D02*
X177019815Y-76969350D01*
X177019815Y-76969350D02*
X177087564Y-77078735D01*
X177087564Y-77078735D02*
X177165374Y-77272580D01*
X177165374Y-77272580D02*
X177195379Y-77466193D01*
X177195379Y-77466193D02*
X177179560Y-77684699D01*
X177179560Y-77684699D02*
X177147833Y-77842746D01*
X177147833Y-77842746D02*
X177093127Y-78014091D01*
X177093127Y-78014091D02*
X177012490Y-78191553D01*
X177012490Y-78191553D02*
X176915878Y-78359927D01*
X176915878Y-78359927D02*
X176813247Y-78504008D01*
X176813247Y-78504008D02*
X176714550Y-78608591D01*
X176714550Y-78608591D02*
X176629745Y-78658473D01*
X176629745Y-78658473D02*
X176612335Y-78660616D01*
X176612335Y-78660616D02*
X176566500Y-78684075D01*
X176566500Y-78684075D02*
X176568535Y-78735108D01*
X176568535Y-78735108D02*
X176612405Y-78784698D01*
X176612405Y-78784698D02*
X176640861Y-78797805D01*
X176640861Y-78797805D02*
X176769380Y-78878010D01*
X176769380Y-78878010D02*
X176893014Y-79035660D01*
X176893014Y-79035660D02*
X176980040Y-79199183D01*
X176980040Y-79199183D02*
X177030785Y-79323718D01*
X177030785Y-79323718D02*
X177060242Y-79445988D01*
X177060242Y-79445988D02*
X177073467Y-79594886D01*
X177073467Y-79594886D02*
X177075769Y-79746260D01*
X177075769Y-79746260D02*
X177074652Y-79927027D01*
X177074652Y-79927027D02*
X177069018Y-80052667D01*
X177069018Y-80052667D02*
X177054492Y-80146206D01*
X177054492Y-80146206D02*
X177026701Y-80230669D01*
X177026701Y-80230669D02*
X176981271Y-80329083D01*
X176981271Y-80329083D02*
X176955052Y-80381767D01*
X176955052Y-80381767D02*
X176874323Y-80509779D01*
X176874323Y-80509779D02*
X176767017Y-80603437D01*
X176767017Y-80603437D02*
X176664948Y-80661580D01*
X176664948Y-80661580D02*
X176408576Y-80778355D01*
X176408576Y-80778355D02*
X176193103Y-80843504D01*
X176193103Y-80843504D02*
X176002614Y-80859068D01*
X176002614Y-80859068D02*
X176002614Y-81417288D01*
X176002614Y-81417288D02*
X177010769Y-81412638D01*
X177010769Y-81412638D02*
X177596923Y-81283120D01*
X177596923Y-81283120D02*
X177892599Y-81212971D01*
X177892599Y-81212971D02*
X177925529Y-81203508D01*
X177925529Y-81203508D02*
X177925529Y-80388232D01*
X177925529Y-80388232D02*
X177836937Y-80382221D01*
X177836937Y-80382221D02*
X177755899Y-80327390D01*
X177755899Y-80327390D02*
X177746958Y-80318664D01*
X177746958Y-80318664D02*
X177651128Y-80222835D01*
X177651128Y-80222835D02*
X177757236Y-80027879D01*
X177757236Y-80027879D02*
X177821413Y-79921713D01*
X177821413Y-79921713D02*
X177876466Y-79850904D01*
X177876466Y-79850904D02*
X177902723Y-79832923D01*
X177902723Y-79832923D02*
X177922631Y-79815499D01*
X177922631Y-79815499D02*
X177916569Y-79807390D01*
X177916569Y-79807390D02*
X177918203Y-79761017D01*
X177918203Y-79761017D02*
X177954895Y-79679285D01*
X177954895Y-79679285D02*
X177965820Y-79660852D01*
X177965820Y-79660852D02*
X178032216Y-79530611D01*
X178032216Y-79530611D02*
X178101707Y-79358962D01*
X178101707Y-79358962D02*
X178161176Y-79180953D01*
X178161176Y-79180953D02*
X178193936Y-79051385D01*
X178193936Y-79051385D02*
X178212574Y-78902837D01*
X178212574Y-78902837D02*
X178220797Y-78721262D01*
X178220797Y-78721262D02*
X178218986Y-78533144D01*
X178218986Y-78533144D02*
X178207520Y-78364970D01*
X178207520Y-78364970D02*
X178186780Y-78243225D01*
X178186780Y-78243225D02*
X178182120Y-78228367D01*
X178182120Y-78228367D02*
X178098726Y-78016095D01*
X178098726Y-78016095D02*
X178007825Y-77825561D01*
X178007825Y-77825561D02*
X177920810Y-77679855D01*
X177920810Y-77679855D02*
X177894122Y-77644616D01*
X177894122Y-77644616D02*
X177827293Y-77563824D01*
X177827293Y-77563824D02*
X177780510Y-77507237D01*
X177780510Y-77507237D02*
X177731244Y-77413101D01*
X177731244Y-77413101D02*
X177694853Y-77285830D01*
X177694853Y-77285830D02*
X177683391Y-77170437D01*
X177683391Y-77170437D02*
X177685309Y-77151739D01*
X177685309Y-77151739D02*
X177728725Y-77074393D01*
X177728725Y-77074393D02*
X177795889Y-77024863D01*
X177795889Y-77024863D02*
X177883823Y-77001692D01*
X177883823Y-77001692D02*
X177969799Y-77029523D01*
X177969799Y-77029523D02*
X177999027Y-77046839D01*
X177999027Y-77046839D02*
X178101369Y-77123506D01*
X178101369Y-77123506D02*
X178205871Y-77221346D01*
X178205871Y-77221346D02*
X178294584Y-77321018D01*
X178294584Y-77321018D02*
X178349561Y-77403186D01*
X178349561Y-77403186D02*
X178358923Y-77434604D01*
X178358923Y-77434604D02*
X178377376Y-77483430D01*
X178377376Y-77483430D02*
X178390480Y-77488308D01*
X178390480Y-77488308D02*
X178423217Y-77520690D01*
X178423217Y-77520690D02*
X178468707Y-77599716D01*
X178468707Y-77599716D02*
X178514053Y-77698205D01*
X178514053Y-77698205D02*
X178546359Y-77788975D01*
X178546359Y-77788975D02*
X178554308Y-77833593D01*
X178554308Y-77833593D02*
X178577796Y-77876565D01*
X178577796Y-77876565D02*
X178589209Y-77879077D01*
X178589209Y-77879077D02*
X178617973Y-77915400D01*
X178617973Y-77915400D02*
X178648710Y-78013655D01*
X178648710Y-78013655D02*
X178678535Y-78157770D01*
X178678535Y-78157770D02*
X178704563Y-78331676D01*
X178704563Y-78331676D02*
X178723909Y-78519300D01*
X178723909Y-78519300D02*
X178733026Y-78680154D01*
X178733026Y-78680154D02*
X178731850Y-78888599D01*
X178731850Y-78888599D02*
X178717166Y-79091607D01*
X178717166Y-79091607D02*
X178691563Y-79270137D01*
X178691563Y-79270137D02*
X178657631Y-79405147D01*
X178657631Y-79405147D02*
X178625637Y-79469750D01*
X178625637Y-79469750D02*
X178603779Y-79532399D01*
X178603779Y-79532399D02*
X178610197Y-79554973D01*
X178610197Y-79554973D02*
X178605730Y-79606371D01*
X178605730Y-79606371D02*
X178591358Y-79619253D01*
X178591358Y-79619253D02*
X178566261Y-79672656D01*
X178566261Y-79672656D02*
X178572130Y-79705772D01*
X178572130Y-79705772D02*
X178563912Y-79777924D01*
X178563912Y-79777924D02*
X178510030Y-79884373D01*
X178510030Y-79884373D02*
X178423166Y-80007422D01*
X178423166Y-80007422D02*
X178316003Y-80129373D01*
X178316003Y-80129373D02*
X178201225Y-80232529D01*
X178201225Y-80232529D02*
X178186959Y-80243231D01*
X178186959Y-80243231D02*
X178037070Y-80342782D01*
X178037070Y-80342782D02*
X177925529Y-80388232D01*
X177925529Y-80388232D02*
X177925529Y-81203508D01*
X177925529Y-81203508D02*
X178133522Y-81143737D01*
X178133522Y-81143737D02*
X178342648Y-81068021D01*
X178342648Y-81068021D02*
X178542935Y-80978425D01*
X178542935Y-80978425D02*
X178543923Y-80977944D01*
X178543923Y-80977944D02*
X178739302Y-80879270D01*
X178739302Y-80879270D02*
X178899841Y-80787413D01*
X178899841Y-80787413D02*
X179044166Y-80688774D01*
X179044166Y-80688774D02*
X179190905Y-80569760D01*
X179190905Y-80569760D02*
X179358684Y-80416774D01*
X179358684Y-80416774D02*
X179503027Y-80277901D01*
X179503027Y-80277901D02*
X179751500Y-80006878D01*
X179751500Y-80006878D02*
X179926215Y-79748545D01*
X179926215Y-79748545D02*
X180029690Y-79498564D01*
X180029690Y-79498564D02*
X180061928Y-79315729D01*
X180061928Y-79315729D02*
X180075351Y-79176793D01*
X180075351Y-79176793D02*
X180092143Y-79055476D01*
X180092143Y-79055476D02*
X180100581Y-79012308D01*
X180100581Y-79012308D02*
X180117017Y-78897288D01*
X180117017Y-78897288D02*
X180128572Y-78723691D01*
X180128572Y-78723691D02*
X180135273Y-78510937D01*
X180135273Y-78510937D02*
X180137146Y-78278449D01*
X180137146Y-78278449D02*
X180134219Y-78045649D01*
X180134219Y-78045649D02*
X180134219Y-78045649D01*
G36*
X175106630Y-81421858D02*
G01*
X174983880Y-81422878D01*
X174707208Y-81425175D01*
X174307987Y-81429403D01*
X173924558Y-81434340D01*
X173597263Y-81439402D01*
X173572510Y-81439784D01*
X173267435Y-81445530D01*
X173024923Y-81451377D01*
X172722737Y-81459123D01*
X172393389Y-81465729D01*
X172044809Y-81470772D01*
X171668580Y-81474292D01*
X171263150Y-81476296D01*
X171256286Y-81476329D01*
X170799513Y-81476924D01*
X170289844Y-81476118D01*
X169718863Y-81473952D01*
X169078154Y-81470467D01*
X169035233Y-81470225D01*
X168662896Y-81469768D01*
X168312834Y-81472181D01*
X168128281Y-81475127D01*
X167996218Y-81477234D01*
X167724220Y-81484696D01*
X167508013Y-81494337D01*
X167358769Y-81505926D01*
X167232235Y-81518714D01*
X166991964Y-81538720D01*
X166735036Y-81556123D01*
X166499077Y-81568195D01*
X166498082Y-81568235D01*
X166328607Y-81575685D01*
X166169383Y-81584509D01*
X166005755Y-81595930D01*
X165823071Y-81611169D01*
X165619846Y-81630214D01*
X165606678Y-81631447D01*
X165341923Y-81657987D01*
X165014154Y-81692010D01*
X164907051Y-81704205D01*
X164806521Y-81718034D01*
X164760154Y-81727711D01*
X164759444Y-81728058D01*
X164709859Y-81737449D01*
X164605215Y-81750961D01*
X164467077Y-81765790D01*
X164327235Y-81782083D01*
X164113272Y-81813035D01*
X163920000Y-81846868D01*
X163716975Y-81887339D01*
X163436606Y-81944381D01*
X163201783Y-81993631D01*
X163020318Y-82033406D01*
X162900022Y-82062021D01*
X162848707Y-82077794D01*
X162809671Y-82092673D01*
X162725416Y-82112634D01*
X162709579Y-82115668D01*
X162599811Y-82140030D01*
X162474154Y-82171445D01*
X162450334Y-82177668D01*
X162322748Y-82208437D01*
X162220154Y-82229588D01*
X162193836Y-82234087D01*
X162078444Y-82253923D01*
X161946616Y-82276688D01*
X161898935Y-82284866D01*
X161852955Y-82292510D01*
X161785095Y-82303791D01*
X161712154Y-82315063D01*
X161685814Y-82319735D01*
X161594923Y-82345967D01*
X161558661Y-82356429D01*
X161445016Y-82379229D01*
X161280154Y-82406339D01*
X161080756Y-82435382D01*
X160863503Y-82463978D01*
X160645076Y-82489750D01*
X160442154Y-82510320D01*
X160440513Y-82510468D01*
X160279643Y-82526496D01*
X160199634Y-82535277D01*
X160083827Y-82547985D01*
X159895077Y-82570328D01*
X159823694Y-82579001D01*
X159436381Y-82617981D01*
X159094874Y-82635882D01*
X158774161Y-82633411D01*
X158449231Y-82611278D01*
X158321217Y-82598946D01*
X158100746Y-82576029D01*
X157947596Y-82557095D01*
X157854510Y-82541184D01*
X157814231Y-82527336D01*
X157807226Y-82522854D01*
X157782900Y-82515064D01*
X157723833Y-82501934D01*
X157609077Y-82478472D01*
X157519810Y-82460160D01*
X157228077Y-82395968D01*
X157192823Y-82385395D01*
X157092418Y-82348349D01*
X156970837Y-82298275D01*
X156898911Y-82268376D01*
X156798419Y-82231157D01*
X156742195Y-82216616D01*
X156727127Y-82213253D01*
X156650019Y-82179345D01*
X156527949Y-82115982D01*
X156408295Y-82049795D01*
X159905987Y-82049795D01*
X159976022Y-82166374D01*
X160000615Y-82194252D01*
X160038784Y-82256968D01*
X160040778Y-82261883D01*
X160097329Y-82302132D01*
X160199634Y-82318785D01*
X160321000Y-82310549D01*
X160434733Y-82276134D01*
X160496685Y-82235411D01*
X160593265Y-82132434D01*
X160666873Y-82010347D01*
X160696154Y-81899883D01*
X160696149Y-81898903D01*
X160657557Y-81821906D01*
X160543071Y-81757035D01*
X160351974Y-81703881D01*
X160323319Y-81697988D01*
X160202365Y-81676098D01*
X160128245Y-81675160D01*
X160075970Y-81698656D01*
X160020553Y-81750070D01*
X159989449Y-81784135D01*
X159973520Y-81811632D01*
X159910712Y-81920050D01*
X159905987Y-82049795D01*
X156408295Y-82049795D01*
X156375924Y-82031889D01*
X156208950Y-81935791D01*
X156042032Y-81836412D01*
X155890176Y-81742476D01*
X155768388Y-81662709D01*
X155691674Y-81605835D01*
X155636942Y-81557266D01*
X155461658Y-81387407D01*
X155311024Y-81221502D01*
X155234459Y-81106335D01*
X155227948Y-81093531D01*
X165315859Y-81093531D01*
X165373351Y-81201690D01*
X165446348Y-81294640D01*
X165521329Y-81343355D01*
X165619846Y-81355090D01*
X165634943Y-81353931D01*
X165725221Y-81321890D01*
X165822627Y-81260354D01*
X165900571Y-81188762D01*
X165932462Y-81126552D01*
X165927549Y-81102915D01*
X165869377Y-81043577D01*
X165810525Y-81018056D01*
X170788935Y-81018056D01*
X170839171Y-81131740D01*
X170848831Y-81148398D01*
X170960073Y-81264620D01*
X171107633Y-81333339D01*
X171263150Y-81340584D01*
X171310797Y-81326467D01*
X171418570Y-81270511D01*
X171530013Y-81190162D01*
X171627108Y-81100969D01*
X171691836Y-81018483D01*
X171706180Y-80958251D01*
X171663742Y-80921867D01*
X171559723Y-80887536D01*
X171416073Y-80862572D01*
X171253212Y-80848624D01*
X171091564Y-80847342D01*
X170951548Y-80860376D01*
X170853585Y-80889375D01*
X170846486Y-80893284D01*
X170791003Y-80944783D01*
X170788935Y-81018056D01*
X165810525Y-81018056D01*
X165762772Y-80997348D01*
X165629403Y-80969484D01*
X165490937Y-80965240D01*
X165369042Y-80989874D01*
X165321139Y-81023478D01*
X165315859Y-81093531D01*
X155227948Y-81093531D01*
X155149393Y-80939062D01*
X155072219Y-80752421D01*
X155019490Y-80585903D01*
X161458967Y-80585903D01*
X161475645Y-80614462D01*
X161478900Y-80614873D01*
X161529881Y-80644430D01*
X161604555Y-80706395D01*
X161706126Y-80772530D01*
X161852955Y-80794318D01*
X161887624Y-80792737D01*
X161972450Y-80774824D01*
X162039518Y-80723521D01*
X162115937Y-80620958D01*
X162134764Y-80592567D01*
X162190956Y-80494273D01*
X162205942Y-80424479D01*
X162186696Y-80357189D01*
X162140504Y-80295049D01*
X162071777Y-80262770D01*
X162065154Y-80262928D01*
X161973926Y-80277280D01*
X161846779Y-80308987D01*
X161711807Y-80349661D01*
X161597103Y-80390910D01*
X161530761Y-80424345D01*
X161505180Y-80453466D01*
X161471906Y-80521568D01*
X161458967Y-80585903D01*
X155019490Y-80585903D01*
X155016159Y-80575385D01*
X155000010Y-80492868D01*
X154980563Y-80296245D01*
X154973878Y-80061716D01*
X154979705Y-79814564D01*
X154997797Y-79580077D01*
X155027902Y-79383539D01*
X155037981Y-79335772D01*
X155047556Y-79289125D01*
X172116315Y-79289125D01*
X172117873Y-79377516D01*
X172143409Y-79507074D01*
X172188885Y-79664899D01*
X172250263Y-79838091D01*
X172323504Y-80013748D01*
X172404570Y-80178970D01*
X172489424Y-80320857D01*
X172546199Y-80402492D01*
X172619977Y-80500201D01*
X172710677Y-80609545D01*
X172836536Y-80753243D01*
X172945156Y-80850340D01*
X173139295Y-80960008D01*
X173363979Y-81036075D01*
X173597263Y-81073637D01*
X173817200Y-81067792D01*
X174001846Y-81013634D01*
X174066170Y-80976872D01*
X174249876Y-80818857D01*
X174415380Y-80594923D01*
X174437994Y-80555541D01*
X174482250Y-80450167D01*
X174504032Y-80327486D01*
X174509846Y-80157363D01*
X174507248Y-80047260D01*
X174490145Y-79901158D01*
X174471272Y-79856624D01*
X174603876Y-79856624D01*
X174645031Y-80053048D01*
X174736661Y-80245592D01*
X174869496Y-80409308D01*
X174904076Y-80440150D01*
X174983880Y-80493739D01*
X175017481Y-80489548D01*
X174999026Y-80435334D01*
X174922663Y-80338850D01*
X174871279Y-80279817D01*
X174755941Y-80090636D01*
X174702558Y-79877977D01*
X174705724Y-79624030D01*
X174717693Y-79497914D01*
X174717929Y-79434399D01*
X174703731Y-79425966D01*
X174672802Y-79461262D01*
X174638269Y-79516961D01*
X174628144Y-79561111D01*
X174629499Y-79564462D01*
X174628572Y-79622293D01*
X174612544Y-79717850D01*
X174603876Y-79856624D01*
X174471272Y-79856624D01*
X174457959Y-79825209D01*
X174444080Y-79813248D01*
X174421648Y-79814448D01*
X174413525Y-79869056D01*
X174416649Y-79989231D01*
X174418849Y-80079374D01*
X174390302Y-80354730D01*
X174303750Y-80594923D01*
X174252613Y-80676708D01*
X174103308Y-80816605D01*
X173910911Y-80906783D01*
X173689640Y-80943954D01*
X173672908Y-80942597D01*
X173453712Y-80924831D01*
X173217343Y-80846127D01*
X173175304Y-80826025D01*
X173029417Y-80748798D01*
X172916615Y-80669029D01*
X172811224Y-80566021D01*
X172687569Y-80419077D01*
X172626503Y-80340618D01*
X172528251Y-80195647D01*
X172448433Y-80042384D01*
X172375979Y-79858012D01*
X172299822Y-79619712D01*
X172273668Y-79535730D01*
X172225134Y-79396384D01*
X172183745Y-79297634D01*
X172156363Y-79256839D01*
X172142774Y-79254804D01*
X172116315Y-79289125D01*
X155047556Y-79289125D01*
X155074260Y-79159031D01*
X155107202Y-78992770D01*
X155113158Y-78962524D01*
X155168050Y-78720528D01*
X155235112Y-78472451D01*
X155273942Y-78349024D01*
X172206325Y-78349024D01*
X172223831Y-78717074D01*
X172264251Y-79080681D01*
X172327069Y-79418837D01*
X172371394Y-79574805D01*
X172489639Y-79853625D01*
X172647652Y-80115962D01*
X172835064Y-80349671D01*
X173041505Y-80542605D01*
X173256605Y-80682618D01*
X173469993Y-80757563D01*
X173472682Y-80758050D01*
X173672908Y-80760216D01*
X173866534Y-80703322D01*
X174036076Y-80598166D01*
X174164055Y-80455545D01*
X174232988Y-80286259D01*
X174242615Y-80207379D01*
X174243216Y-80078659D01*
X174230002Y-79957742D01*
X174206005Y-79868029D01*
X174174258Y-79832923D01*
X174155139Y-79822615D01*
X174136236Y-79764539D01*
X174129482Y-79725836D01*
X174101924Y-79620921D01*
X174058210Y-79474450D01*
X174003809Y-79305385D01*
X173931845Y-79065731D01*
X173900047Y-78898524D01*
X174071955Y-78898524D01*
X174078644Y-78988861D01*
X174158154Y-79083157D01*
X174168821Y-79092288D01*
X174230620Y-79138196D01*
X174255846Y-79144034D01*
X174266894Y-79139146D01*
X174314111Y-79168325D01*
X174328706Y-79176522D01*
X174416283Y-79193378D01*
X174549732Y-79197970D01*
X174705517Y-79191077D01*
X174860101Y-79173477D01*
X174989945Y-79145950D01*
X175034206Y-79134803D01*
X175061868Y-79146984D01*
X175041970Y-79212537D01*
X175013991Y-79283175D01*
X174975300Y-79383539D01*
X174964681Y-79416021D01*
X174937496Y-79585438D01*
X174935920Y-79789127D01*
X174958777Y-79995683D01*
X175004891Y-80173703D01*
X175015240Y-80199396D01*
X175085451Y-80329943D01*
X175179475Y-80462168D01*
X175282107Y-80578441D01*
X175378146Y-80661134D01*
X175452387Y-80692616D01*
X175491017Y-80701316D01*
X175585651Y-80734654D01*
X175706599Y-80784416D01*
X175821191Y-80827087D01*
X176002614Y-80859068D01*
X176193103Y-80843504D01*
X176408576Y-80778355D01*
X176664948Y-80661580D01*
X176767017Y-80603437D01*
X176874323Y-80509779D01*
X176955052Y-80381767D01*
X176981271Y-80329083D01*
X177026701Y-80230669D01*
X177029279Y-80222835D01*
X177651128Y-80222835D01*
X177746958Y-80318664D01*
X177755899Y-80327390D01*
X177836937Y-80382221D01*
X177925529Y-80388232D01*
X178037070Y-80342782D01*
X178186959Y-80243231D01*
X178201225Y-80232529D01*
X178316003Y-80129373D01*
X178423166Y-80007422D01*
X178510030Y-79884373D01*
X178563912Y-79777924D01*
X178572130Y-79705772D01*
X178566261Y-79672656D01*
X178591358Y-79619253D01*
X178605730Y-79606371D01*
X178610197Y-79554973D01*
X178603779Y-79532399D01*
X178625637Y-79469750D01*
X178657631Y-79405147D01*
X178691563Y-79270137D01*
X178717166Y-79091607D01*
X178731850Y-78888599D01*
X178733026Y-78680154D01*
X178723909Y-78519300D01*
X178704563Y-78331676D01*
X178678535Y-78157770D01*
X178648710Y-78013655D01*
X178617973Y-77915400D01*
X178589209Y-77879077D01*
X178577796Y-77876565D01*
X178554308Y-77833593D01*
X178546359Y-77788975D01*
X178514053Y-77698205D01*
X178468707Y-77599716D01*
X178423217Y-77520690D01*
X178390480Y-77488308D01*
X178377376Y-77483430D01*
X178358923Y-77434604D01*
X178349561Y-77403186D01*
X178294584Y-77321018D01*
X178205871Y-77221346D01*
X178101369Y-77123506D01*
X177999027Y-77046839D01*
X177969799Y-77029523D01*
X177883823Y-77001692D01*
X177795889Y-77024863D01*
X177728725Y-77074393D01*
X177685309Y-77151739D01*
X177683391Y-77170437D01*
X177694853Y-77285830D01*
X177731244Y-77413101D01*
X177780510Y-77507237D01*
X177827293Y-77563824D01*
X177894122Y-77644616D01*
X177920810Y-77679855D01*
X178007825Y-77825561D01*
X178098726Y-78016095D01*
X178182120Y-78228367D01*
X178186780Y-78243225D01*
X178207520Y-78364970D01*
X178218986Y-78533144D01*
X178220797Y-78721262D01*
X178212574Y-78902837D01*
X178193936Y-79051385D01*
X178161176Y-79180953D01*
X178101707Y-79358962D01*
X178032216Y-79530611D01*
X177965820Y-79660852D01*
X177954895Y-79679285D01*
X177918203Y-79761017D01*
X177916569Y-79807390D01*
X177922631Y-79815499D01*
X177902723Y-79832923D01*
X177876466Y-79850904D01*
X177821413Y-79921713D01*
X177757236Y-80027879D01*
X177651128Y-80222835D01*
X177029279Y-80222835D01*
X177054492Y-80146206D01*
X177069018Y-80052667D01*
X177074652Y-79927027D01*
X177075769Y-79746260D01*
X177073467Y-79594886D01*
X177060242Y-79445988D01*
X177030785Y-79323718D01*
X176980040Y-79199183D01*
X176893014Y-79035660D01*
X176769380Y-78878010D01*
X176640861Y-78797805D01*
X176612405Y-78784698D01*
X176568535Y-78735108D01*
X176566500Y-78684075D01*
X176612335Y-78660616D01*
X176629745Y-78658473D01*
X176714550Y-78608591D01*
X176813247Y-78504008D01*
X176915878Y-78359927D01*
X177012490Y-78191553D01*
X177093127Y-78014091D01*
X177147833Y-77842746D01*
X177179560Y-77684699D01*
X177195379Y-77466193D01*
X177165374Y-77272580D01*
X177087564Y-77078735D01*
X177019815Y-76969350D01*
X176907276Y-76832022D01*
X176779304Y-76706819D01*
X176654761Y-76611845D01*
X176552512Y-76565206D01*
X176552152Y-76565136D01*
X176481033Y-76547251D01*
X176380420Y-76517999D01*
X176324114Y-76504164D01*
X176126703Y-76489179D01*
X175902503Y-76509986D01*
X175682154Y-76564542D01*
X175459781Y-76671853D01*
X175265050Y-76844749D01*
X175124566Y-77072318D01*
X175040791Y-77351539D01*
X175040396Y-77353749D01*
X175016629Y-77670751D01*
X175057502Y-77971195D01*
X175159760Y-78242051D01*
X175320152Y-78470291D01*
X175370592Y-78519732D01*
X175473236Y-78600393D01*
X175568703Y-78655129D01*
X175633308Y-78668918D01*
X175636278Y-78668231D01*
X175662616Y-78690632D01*
X175640494Y-78713478D01*
X175563416Y-78758819D01*
X175450144Y-78812368D01*
X175356775Y-78856774D01*
X175262525Y-78912640D01*
X175218443Y-78954202D01*
X175217823Y-78955567D01*
X175168786Y-78985607D01*
X175064082Y-79018660D01*
X174924774Y-79050496D01*
X174771923Y-79076889D01*
X174626593Y-79093611D01*
X174509846Y-79096434D01*
X174410491Y-79082217D01*
X174298215Y-79049990D01*
X174212087Y-79009943D01*
X174177692Y-78971686D01*
X174183405Y-78927542D01*
X174227149Y-78854639D01*
X174323603Y-78781685D01*
X174484145Y-78698539D01*
X174568186Y-78659278D01*
X174705460Y-78594172D01*
X174791297Y-78550396D01*
X174839039Y-78520056D01*
X174862028Y-78495258D01*
X174873605Y-78468108D01*
X174874088Y-78466623D01*
X174864919Y-78435862D01*
X174797777Y-78446975D01*
X174771110Y-78455649D01*
X174719825Y-78475691D01*
X174600712Y-78522237D01*
X174425821Y-78605802D01*
X174272778Y-78692842D01*
X174167923Y-78769854D01*
X174138498Y-78798955D01*
X174071955Y-78898524D01*
X173900047Y-78898524D01*
X173892726Y-78860028D01*
X173891757Y-78684600D01*
X173928949Y-78519930D01*
X174004312Y-78346504D01*
X174032189Y-78292073D01*
X174100604Y-78155616D01*
X174145973Y-78053348D01*
X174177806Y-77958347D01*
X174205613Y-77843693D01*
X174238906Y-77682467D01*
X174263036Y-77507847D01*
X174597735Y-77507847D01*
X174601786Y-77545384D01*
X174624415Y-77673911D01*
X174656202Y-77794241D01*
X174690290Y-77883336D01*
X174719825Y-77918154D01*
X174722673Y-77918123D01*
X174767085Y-77898339D01*
X174774088Y-77833462D01*
X174745221Y-77710934D01*
X174734799Y-77673111D01*
X174711425Y-77554504D01*
X174707466Y-77468770D01*
X174708026Y-77464793D01*
X174720850Y-77369085D01*
X174735933Y-77251175D01*
X174745760Y-77197859D01*
X174793404Y-77058342D01*
X174863799Y-76922906D01*
X174943196Y-76815500D01*
X175017846Y-76760076D01*
X175020686Y-76759160D01*
X175103650Y-76714121D01*
X175146845Y-76657874D01*
X175142747Y-76609864D01*
X175083830Y-76589539D01*
X175008891Y-76611916D01*
X174892095Y-76705214D01*
X174750424Y-76871705D01*
X174703987Y-76948390D01*
X174640001Y-77121212D01*
X174601945Y-77318694D01*
X174597735Y-77507847D01*
X174263036Y-77507847D01*
X174276078Y-77413462D01*
X174281790Y-77125655D01*
X174253746Y-76860033D01*
X174193031Y-76641247D01*
X174165687Y-76587683D01*
X174093312Y-76484583D01*
X174002300Y-76380539D01*
X173908689Y-76291669D01*
X173828517Y-76234095D01*
X173777821Y-76223934D01*
X173752634Y-76228134D01*
X173690762Y-76200040D01*
X173689709Y-76199186D01*
X173613439Y-76167453D01*
X173506858Y-76152659D01*
X173322270Y-76160959D01*
X173079624Y-76222670D01*
X172872548Y-76347496D01*
X172694368Y-76539929D01*
X172538407Y-76804462D01*
X172514222Y-76854200D01*
X172439823Y-77009895D01*
X172388483Y-77126560D01*
X172350902Y-77228789D01*
X172317781Y-77341175D01*
X172279821Y-77488308D01*
X172245700Y-77665042D01*
X172242109Y-77683642D01*
X172212246Y-77997543D01*
X172206325Y-78349024D01*
X155273942Y-78349024D01*
X155306331Y-78246069D01*
X155373692Y-78069157D01*
X155383537Y-78047032D01*
X155484076Y-77841686D01*
X155608039Y-77615063D01*
X155741695Y-77390362D01*
X155871311Y-77190783D01*
X155983153Y-77039526D01*
X156061196Y-76944192D01*
X156146503Y-76838490D01*
X156159024Y-76822576D01*
X172223846Y-76822576D01*
X172225387Y-76865234D01*
X172245700Y-76914819D01*
X172302000Y-76913477D01*
X172347390Y-76890962D01*
X172380154Y-76836170D01*
X172387530Y-76794990D01*
X172436106Y-76685950D01*
X172518265Y-76553769D01*
X172620103Y-76419698D01*
X172727718Y-76304984D01*
X172752341Y-76283382D01*
X172920200Y-76173295D01*
X173120604Y-76086609D01*
X173324237Y-76033899D01*
X173501785Y-76025741D01*
X173728472Y-76074364D01*
X173974310Y-76192124D01*
X174196896Y-76378693D01*
X174402571Y-76638385D01*
X174471900Y-76731084D01*
X174527667Y-76778407D01*
X174553232Y-76760967D01*
X174543886Y-76677462D01*
X174524507Y-76617169D01*
X174428605Y-76447421D01*
X174282487Y-76277374D01*
X174104020Y-76123305D01*
X173911074Y-76001495D01*
X173721515Y-75928222D01*
X173501084Y-75895782D01*
X173216780Y-75918348D01*
X172936352Y-76016539D01*
X172655080Y-76191522D01*
X172582727Y-76247339D01*
X172472441Y-76343627D01*
X172390493Y-76439615D01*
X172311415Y-76562819D01*
X172293702Y-76595146D01*
X172243869Y-76717983D01*
X172223846Y-76822576D01*
X156159024Y-76822576D01*
X156202308Y-76767561D01*
X156209273Y-76758589D01*
X156295353Y-76660428D01*
X156423670Y-76527045D01*
X156579326Y-76372734D01*
X156720205Y-76237847D01*
X159951281Y-76237847D01*
X159973520Y-76374616D01*
X160303778Y-76363647D01*
X160442012Y-76356607D01*
X160591968Y-76335218D01*
X160695636Y-76292661D01*
X160771834Y-76219958D01*
X160839379Y-76108132D01*
X160860315Y-76064514D01*
X160875371Y-75992878D01*
X160845148Y-75932347D01*
X160697287Y-75777101D01*
X160545988Y-75690888D01*
X160383539Y-75671020D01*
X160291334Y-75677612D01*
X160223410Y-75688817D01*
X160175659Y-75713776D01*
X160116250Y-75763503D01*
X160015283Y-75895938D01*
X159956178Y-76065772D01*
X159951281Y-76237847D01*
X156720205Y-76237847D01*
X156747419Y-76211790D01*
X156913052Y-76058507D01*
X157061324Y-75927182D01*
X157177335Y-75832108D01*
X157184929Y-75826344D01*
X157389892Y-75678281D01*
X157607879Y-75533144D01*
X157826231Y-75398169D01*
X158032290Y-75280594D01*
X158213394Y-75187652D01*
X158356885Y-75126581D01*
X158450104Y-75104616D01*
X158483768Y-75098526D01*
X158578385Y-75065127D01*
X158694761Y-75012327D01*
X158735695Y-74992597D01*
X167886526Y-74992597D01*
X167913371Y-75023510D01*
X168000114Y-75047724D01*
X168128281Y-75059303D01*
X168278692Y-75057685D01*
X168432171Y-75042308D01*
X168569538Y-75012610D01*
X168654132Y-74977106D01*
X168740518Y-74914763D01*
X168791446Y-74847757D01*
X168796456Y-74791142D01*
X168745085Y-74759975D01*
X168700668Y-74746320D01*
X168667846Y-74712132D01*
X168646020Y-74678252D01*
X168567922Y-74627071D01*
X168454385Y-74577200D01*
X168327941Y-74540045D01*
X168244789Y-74535695D01*
X168109870Y-74582381D01*
X167996982Y-74684694D01*
X167925361Y-74828836D01*
X167919898Y-74848742D01*
X167896243Y-74941866D01*
X167886526Y-74992597D01*
X158735695Y-74992597D01*
X158754095Y-74983728D01*
X158973490Y-74893258D01*
X159244706Y-74802513D01*
X159580641Y-74707052D01*
X159614232Y-74698087D01*
X159797827Y-74648839D01*
X160008729Y-74591970D01*
X160207692Y-74538058D01*
X160318670Y-74508882D01*
X160504026Y-74462085D01*
X160728922Y-74406648D01*
X160976876Y-74346510D01*
X161231407Y-74285609D01*
X161476036Y-74227884D01*
X161694280Y-74177273D01*
X161869659Y-74137715D01*
X161985692Y-74113149D01*
X162038620Y-74101909D01*
X162176162Y-74069878D01*
X162357743Y-74025658D01*
X162563646Y-73974242D01*
X162774155Y-73920623D01*
X162969554Y-73869793D01*
X163130126Y-73826747D01*
X163236154Y-73796476D01*
X163361214Y-73766325D01*
X163531256Y-73736940D01*
X163705077Y-73715879D01*
X163722205Y-73714323D01*
X163871730Y-73699982D01*
X163993161Y-73687089D01*
X164061610Y-73678269D01*
X164070457Y-73676909D01*
X164156436Y-73668031D01*
X164299657Y-73656468D01*
X164482799Y-73643364D01*
X164688541Y-73629867D01*
X164899562Y-73617120D01*
X165098540Y-73606271D01*
X165268154Y-73598465D01*
X165286216Y-73597824D01*
X165395148Y-73594825D01*
X165568502Y-73590751D01*
X165795650Y-73585804D01*
X166065961Y-73580185D01*
X166368806Y-73574096D01*
X166693557Y-73567739D01*
X167029583Y-73561314D01*
X167366255Y-73555025D01*
X167692944Y-73549071D01*
X167999021Y-73543655D01*
X168273856Y-73538979D01*
X168506820Y-73535243D01*
X168687283Y-73532650D01*
X168804616Y-73531400D01*
X168838642Y-73532236D01*
X168956872Y-73540012D01*
X169116561Y-73554231D01*
X169293077Y-73572805D01*
X169627372Y-73608789D01*
X170229303Y-73665515D01*
X170858012Y-73715691D01*
X171481385Y-73756620D01*
X171543967Y-73760502D01*
X171705684Y-73771919D01*
X171888307Y-73786150D01*
X172072064Y-73801512D01*
X172237184Y-73816323D01*
X172363894Y-73828900D01*
X172432423Y-73837561D01*
X172475479Y-73844392D01*
X172603883Y-73860801D01*
X172785476Y-73881325D01*
X173004487Y-73904328D01*
X173245144Y-73928177D01*
X173491675Y-73951236D01*
X173728308Y-73971871D01*
X173826147Y-73980104D01*
X174136869Y-74007604D01*
X174378843Y-74031561D01*
X174559356Y-74052736D01*
X174685692Y-74071891D01*
X174689908Y-74072644D01*
X174781067Y-74087370D01*
X174919315Y-74108157D01*
X175076462Y-74130758D01*
X175095887Y-74133488D01*
X175243729Y-74154277D01*
X175362546Y-74171002D01*
X175428154Y-74180258D01*
X175452847Y-74185068D01*
X175525846Y-74212151D01*
X175534778Y-74216963D01*
X175628542Y-74247532D01*
X175775841Y-74277706D01*
X175955692Y-74303045D01*
X176030961Y-74313422D01*
X176179359Y-74339211D01*
X176346080Y-74372404D01*
X176507276Y-74407915D01*
X176639097Y-74440657D01*
X176717692Y-74465545D01*
X176770776Y-74487661D01*
X176834536Y-74508745D01*
X176921725Y-74529940D01*
X177059013Y-74558509D01*
X177134826Y-74577239D01*
X177299025Y-74630691D01*
X177492437Y-74704939D01*
X177700411Y-74793156D01*
X177908295Y-74888513D01*
X178101439Y-74984185D01*
X178265191Y-75073343D01*
X178384902Y-75149160D01*
X178445920Y-75204810D01*
X178446453Y-75205648D01*
X178501552Y-75252146D01*
X178592459Y-75299617D01*
X178599912Y-75302770D01*
X178678345Y-75345692D01*
X178710616Y-75381892D01*
X178711924Y-75387333D01*
X178754226Y-75429197D01*
X178837616Y-75479922D01*
X178843648Y-75483026D01*
X178950478Y-75546199D01*
X179033175Y-75607925D01*
X179140921Y-75712488D01*
X179274442Y-75849808D01*
X179403400Y-75988509D01*
X179501661Y-76101077D01*
X179547743Y-76163467D01*
X179624192Y-76283662D01*
X179703293Y-76421949D01*
X179773772Y-76557400D01*
X179824353Y-76669085D01*
X179843763Y-76736077D01*
X179846191Y-76753967D01*
X179878173Y-76784923D01*
X179900028Y-76810718D01*
X179937106Y-76906363D01*
X179983948Y-77065760D01*
X180038464Y-77281687D01*
X180098565Y-77546923D01*
X180114069Y-77656798D01*
X180126518Y-77831958D01*
X180134219Y-78045649D01*
X180137146Y-78278449D01*
X180135273Y-78510937D01*
X180128572Y-78723691D01*
X180117017Y-78897288D01*
X180100581Y-79012308D01*
X180092143Y-79055476D01*
X180075351Y-79176793D01*
X180061928Y-79315729D01*
X180029690Y-79498564D01*
X179926215Y-79748545D01*
X179751500Y-80006878D01*
X179503027Y-80277901D01*
X179358684Y-80416774D01*
X179190905Y-80569760D01*
X179044166Y-80688774D01*
X178899841Y-80787413D01*
X178739302Y-80879270D01*
X178543923Y-80977944D01*
X178542935Y-80978425D01*
X178342648Y-81068021D01*
X178133522Y-81143737D01*
X177925529Y-81203508D01*
X177892599Y-81212971D01*
X177596923Y-81283120D01*
X177010769Y-81412638D01*
X176002614Y-81417288D01*
X175447692Y-81419846D01*
X175106630Y-81421858D01*
G37*
X175106630Y-81421858D02*
X174983880Y-81422878D01*
X174707208Y-81425175D01*
X174307987Y-81429403D01*
X173924558Y-81434340D01*
X173597263Y-81439402D01*
X173572510Y-81439784D01*
X173267435Y-81445530D01*
X173024923Y-81451377D01*
X172722737Y-81459123D01*
X172393389Y-81465729D01*
X172044809Y-81470772D01*
X171668580Y-81474292D01*
X171263150Y-81476296D01*
X171256286Y-81476329D01*
X170799513Y-81476924D01*
X170289844Y-81476118D01*
X169718863Y-81473952D01*
X169078154Y-81470467D01*
X169035233Y-81470225D01*
X168662896Y-81469768D01*
X168312834Y-81472181D01*
X168128281Y-81475127D01*
X167996218Y-81477234D01*
X167724220Y-81484696D01*
X167508013Y-81494337D01*
X167358769Y-81505926D01*
X167232235Y-81518714D01*
X166991964Y-81538720D01*
X166735036Y-81556123D01*
X166499077Y-81568195D01*
X166498082Y-81568235D01*
X166328607Y-81575685D01*
X166169383Y-81584509D01*
X166005755Y-81595930D01*
X165823071Y-81611169D01*
X165619846Y-81630214D01*
X165606678Y-81631447D01*
X165341923Y-81657987D01*
X165014154Y-81692010D01*
X164907051Y-81704205D01*
X164806521Y-81718034D01*
X164760154Y-81727711D01*
X164759444Y-81728058D01*
X164709859Y-81737449D01*
X164605215Y-81750961D01*
X164467077Y-81765790D01*
X164327235Y-81782083D01*
X164113272Y-81813035D01*
X163920000Y-81846868D01*
X163716975Y-81887339D01*
X163436606Y-81944381D01*
X163201783Y-81993631D01*
X163020318Y-82033406D01*
X162900022Y-82062021D01*
X162848707Y-82077794D01*
X162809671Y-82092673D01*
X162725416Y-82112634D01*
X162709579Y-82115668D01*
X162599811Y-82140030D01*
X162474154Y-82171445D01*
X162450334Y-82177668D01*
X162322748Y-82208437D01*
X162220154Y-82229588D01*
X162193836Y-82234087D01*
X162078444Y-82253923D01*
X161946616Y-82276688D01*
X161898935Y-82284866D01*
X161852955Y-82292510D01*
X161785095Y-82303791D01*
X161712154Y-82315063D01*
X161685814Y-82319735D01*
X161594923Y-82345967D01*
X161558661Y-82356429D01*
X161445016Y-82379229D01*
X161280154Y-82406339D01*
X161080756Y-82435382D01*
X160863503Y-82463978D01*
X160645076Y-82489750D01*
X160442154Y-82510320D01*
X160440513Y-82510468D01*
X160279643Y-82526496D01*
X160199634Y-82535277D01*
X160083827Y-82547985D01*
X159895077Y-82570328D01*
X159823694Y-82579001D01*
X159436381Y-82617981D01*
X159094874Y-82635882D01*
X158774161Y-82633411D01*
X158449231Y-82611278D01*
X158321217Y-82598946D01*
X158100746Y-82576029D01*
X157947596Y-82557095D01*
X157854510Y-82541184D01*
X157814231Y-82527336D01*
X157807226Y-82522854D01*
X157782900Y-82515064D01*
X157723833Y-82501934D01*
X157609077Y-82478472D01*
X157519810Y-82460160D01*
X157228077Y-82395968D01*
X157192823Y-82385395D01*
X157092418Y-82348349D01*
X156970837Y-82298275D01*
X156898911Y-82268376D01*
X156798419Y-82231157D01*
X156742195Y-82216616D01*
X156727127Y-82213253D01*
X156650019Y-82179345D01*
X156527949Y-82115982D01*
X156408295Y-82049795D01*
X159905987Y-82049795D01*
X159976022Y-82166374D01*
X160000615Y-82194252D01*
X160038784Y-82256968D01*
X160040778Y-82261883D01*
X160097329Y-82302132D01*
X160199634Y-82318785D01*
X160321000Y-82310549D01*
X160434733Y-82276134D01*
X160496685Y-82235411D01*
X160593265Y-82132434D01*
X160666873Y-82010347D01*
X160696154Y-81899883D01*
X160696149Y-81898903D01*
X160657557Y-81821906D01*
X160543071Y-81757035D01*
X160351974Y-81703881D01*
X160323319Y-81697988D01*
X160202365Y-81676098D01*
X160128245Y-81675160D01*
X160075970Y-81698656D01*
X160020553Y-81750070D01*
X159989449Y-81784135D01*
X159973520Y-81811632D01*
X159910712Y-81920050D01*
X159905987Y-82049795D01*
X156408295Y-82049795D01*
X156375924Y-82031889D01*
X156208950Y-81935791D01*
X156042032Y-81836412D01*
X155890176Y-81742476D01*
X155768388Y-81662709D01*
X155691674Y-81605835D01*
X155636942Y-81557266D01*
X155461658Y-81387407D01*
X155311024Y-81221502D01*
X155234459Y-81106335D01*
X155227948Y-81093531D01*
X165315859Y-81093531D01*
X165373351Y-81201690D01*
X165446348Y-81294640D01*
X165521329Y-81343355D01*
X165619846Y-81355090D01*
X165634943Y-81353931D01*
X165725221Y-81321890D01*
X165822627Y-81260354D01*
X165900571Y-81188762D01*
X165932462Y-81126552D01*
X165927549Y-81102915D01*
X165869377Y-81043577D01*
X165810525Y-81018056D01*
X170788935Y-81018056D01*
X170839171Y-81131740D01*
X170848831Y-81148398D01*
X170960073Y-81264620D01*
X171107633Y-81333339D01*
X171263150Y-81340584D01*
X171310797Y-81326467D01*
X171418570Y-81270511D01*
X171530013Y-81190162D01*
X171627108Y-81100969D01*
X171691836Y-81018483D01*
X171706180Y-80958251D01*
X171663742Y-80921867D01*
X171559723Y-80887536D01*
X171416073Y-80862572D01*
X171253212Y-80848624D01*
X171091564Y-80847342D01*
X170951548Y-80860376D01*
X170853585Y-80889375D01*
X170846486Y-80893284D01*
X170791003Y-80944783D01*
X170788935Y-81018056D01*
X165810525Y-81018056D01*
X165762772Y-80997348D01*
X165629403Y-80969484D01*
X165490937Y-80965240D01*
X165369042Y-80989874D01*
X165321139Y-81023478D01*
X165315859Y-81093531D01*
X155227948Y-81093531D01*
X155149393Y-80939062D01*
X155072219Y-80752421D01*
X155019490Y-80585903D01*
X161458967Y-80585903D01*
X161475645Y-80614462D01*
X161478900Y-80614873D01*
X161529881Y-80644430D01*
X161604555Y-80706395D01*
X161706126Y-80772530D01*
X161852955Y-80794318D01*
X161887624Y-80792737D01*
X161972450Y-80774824D01*
X162039518Y-80723521D01*
X162115937Y-80620958D01*
X162134764Y-80592567D01*
X162190956Y-80494273D01*
X162205942Y-80424479D01*
X162186696Y-80357189D01*
X162140504Y-80295049D01*
X162071777Y-80262770D01*
X162065154Y-80262928D01*
X161973926Y-80277280D01*
X161846779Y-80308987D01*
X161711807Y-80349661D01*
X161597103Y-80390910D01*
X161530761Y-80424345D01*
X161505180Y-80453466D01*
X161471906Y-80521568D01*
X161458967Y-80585903D01*
X155019490Y-80585903D01*
X155016159Y-80575385D01*
X155000010Y-80492868D01*
X154980563Y-80296245D01*
X154973878Y-80061716D01*
X154979705Y-79814564D01*
X154997797Y-79580077D01*
X155027902Y-79383539D01*
X155037981Y-79335772D01*
X155047556Y-79289125D01*
X172116315Y-79289125D01*
X172117873Y-79377516D01*
X172143409Y-79507074D01*
X172188885Y-79664899D01*
X172250263Y-79838091D01*
X172323504Y-80013748D01*
X172404570Y-80178970D01*
X172489424Y-80320857D01*
X172546199Y-80402492D01*
X172619977Y-80500201D01*
X172710677Y-80609545D01*
X172836536Y-80753243D01*
X172945156Y-80850340D01*
X173139295Y-80960008D01*
X173363979Y-81036075D01*
X173597263Y-81073637D01*
X173817200Y-81067792D01*
X174001846Y-81013634D01*
X174066170Y-80976872D01*
X174249876Y-80818857D01*
X174415380Y-80594923D01*
X174437994Y-80555541D01*
X174482250Y-80450167D01*
X174504032Y-80327486D01*
X174509846Y-80157363D01*
X174507248Y-80047260D01*
X174490145Y-79901158D01*
X174471272Y-79856624D01*
X174603876Y-79856624D01*
X174645031Y-80053048D01*
X174736661Y-80245592D01*
X174869496Y-80409308D01*
X174904076Y-80440150D01*
X174983880Y-80493739D01*
X175017481Y-80489548D01*
X174999026Y-80435334D01*
X174922663Y-80338850D01*
X174871279Y-80279817D01*
X174755941Y-80090636D01*
X174702558Y-79877977D01*
X174705724Y-79624030D01*
X174717693Y-79497914D01*
X174717929Y-79434399D01*
X174703731Y-79425966D01*
X174672802Y-79461262D01*
X174638269Y-79516961D01*
X174628144Y-79561111D01*
X174629499Y-79564462D01*
X174628572Y-79622293D01*
X174612544Y-79717850D01*
X174603876Y-79856624D01*
X174471272Y-79856624D01*
X174457959Y-79825209D01*
X174444080Y-79813248D01*
X174421648Y-79814448D01*
X174413525Y-79869056D01*
X174416649Y-79989231D01*
X174418849Y-80079374D01*
X174390302Y-80354730D01*
X174303750Y-80594923D01*
X174252613Y-80676708D01*
X174103308Y-80816605D01*
X173910911Y-80906783D01*
X173689640Y-80943954D01*
X173672908Y-80942597D01*
X173453712Y-80924831D01*
X173217343Y-80846127D01*
X173175304Y-80826025D01*
X173029417Y-80748798D01*
X172916615Y-80669029D01*
X172811224Y-80566021D01*
X172687569Y-80419077D01*
X172626503Y-80340618D01*
X172528251Y-80195647D01*
X172448433Y-80042384D01*
X172375979Y-79858012D01*
X172299822Y-79619712D01*
X172273668Y-79535730D01*
X172225134Y-79396384D01*
X172183745Y-79297634D01*
X172156363Y-79256839D01*
X172142774Y-79254804D01*
X172116315Y-79289125D01*
X155047556Y-79289125D01*
X155074260Y-79159031D01*
X155107202Y-78992770D01*
X155113158Y-78962524D01*
X155168050Y-78720528D01*
X155235112Y-78472451D01*
X155273942Y-78349024D01*
X172206325Y-78349024D01*
X172223831Y-78717074D01*
X172264251Y-79080681D01*
X172327069Y-79418837D01*
X172371394Y-79574805D01*
X172489639Y-79853625D01*
X172647652Y-80115962D01*
X172835064Y-80349671D01*
X173041505Y-80542605D01*
X173256605Y-80682618D01*
X173469993Y-80757563D01*
X173472682Y-80758050D01*
X173672908Y-80760216D01*
X173866534Y-80703322D01*
X174036076Y-80598166D01*
X174164055Y-80455545D01*
X174232988Y-80286259D01*
X174242615Y-80207379D01*
X174243216Y-80078659D01*
X174230002Y-79957742D01*
X174206005Y-79868029D01*
X174174258Y-79832923D01*
X174155139Y-79822615D01*
X174136236Y-79764539D01*
X174129482Y-79725836D01*
X174101924Y-79620921D01*
X174058210Y-79474450D01*
X174003809Y-79305385D01*
X173931845Y-79065731D01*
X173900047Y-78898524D01*
X174071955Y-78898524D01*
X174078644Y-78988861D01*
X174158154Y-79083157D01*
X174168821Y-79092288D01*
X174230620Y-79138196D01*
X174255846Y-79144034D01*
X174266894Y-79139146D01*
X174314111Y-79168325D01*
X174328706Y-79176522D01*
X174416283Y-79193378D01*
X174549732Y-79197970D01*
X174705517Y-79191077D01*
X174860101Y-79173477D01*
X174989945Y-79145950D01*
X175034206Y-79134803D01*
X175061868Y-79146984D01*
X175041970Y-79212537D01*
X175013991Y-79283175D01*
X174975300Y-79383539D01*
X174964681Y-79416021D01*
X174937496Y-79585438D01*
X174935920Y-79789127D01*
X174958777Y-79995683D01*
X175004891Y-80173703D01*
X175015240Y-80199396D01*
X175085451Y-80329943D01*
X175179475Y-80462168D01*
X175282107Y-80578441D01*
X175378146Y-80661134D01*
X175452387Y-80692616D01*
X175491017Y-80701316D01*
X175585651Y-80734654D01*
X175706599Y-80784416D01*
X175821191Y-80827087D01*
X176002614Y-80859068D01*
X176193103Y-80843504D01*
X176408576Y-80778355D01*
X176664948Y-80661580D01*
X176767017Y-80603437D01*
X176874323Y-80509779D01*
X176955052Y-80381767D01*
X176981271Y-80329083D01*
X177026701Y-80230669D01*
X177029279Y-80222835D01*
X177651128Y-80222835D01*
X177746958Y-80318664D01*
X177755899Y-80327390D01*
X177836937Y-80382221D01*
X177925529Y-80388232D01*
X178037070Y-80342782D01*
X178186959Y-80243231D01*
X178201225Y-80232529D01*
X178316003Y-80129373D01*
X178423166Y-80007422D01*
X178510030Y-79884373D01*
X178563912Y-79777924D01*
X178572130Y-79705772D01*
X178566261Y-79672656D01*
X178591358Y-79619253D01*
X178605730Y-79606371D01*
X178610197Y-79554973D01*
X178603779Y-79532399D01*
X178625637Y-79469750D01*
X178657631Y-79405147D01*
X178691563Y-79270137D01*
X178717166Y-79091607D01*
X178731850Y-78888599D01*
X178733026Y-78680154D01*
X178723909Y-78519300D01*
X178704563Y-78331676D01*
X178678535Y-78157770D01*
X178648710Y-78013655D01*
X178617973Y-77915400D01*
X178589209Y-77879077D01*
X178577796Y-77876565D01*
X178554308Y-77833593D01*
X178546359Y-77788975D01*
X178514053Y-77698205D01*
X178468707Y-77599716D01*
X178423217Y-77520690D01*
X178390480Y-77488308D01*
X178377376Y-77483430D01*
X178358923Y-77434604D01*
X178349561Y-77403186D01*
X178294584Y-77321018D01*
X178205871Y-77221346D01*
X178101369Y-77123506D01*
X177999027Y-77046839D01*
X177969799Y-77029523D01*
X177883823Y-77001692D01*
X177795889Y-77024863D01*
X177728725Y-77074393D01*
X177685309Y-77151739D01*
X177683391Y-77170437D01*
X177694853Y-77285830D01*
X177731244Y-77413101D01*
X177780510Y-77507237D01*
X177827293Y-77563824D01*
X177894122Y-77644616D01*
X177920810Y-77679855D01*
X178007825Y-77825561D01*
X178098726Y-78016095D01*
X178182120Y-78228367D01*
X178186780Y-78243225D01*
X178207520Y-78364970D01*
X178218986Y-78533144D01*
X178220797Y-78721262D01*
X178212574Y-78902837D01*
X178193936Y-79051385D01*
X178161176Y-79180953D01*
X178101707Y-79358962D01*
X178032216Y-79530611D01*
X177965820Y-79660852D01*
X177954895Y-79679285D01*
X177918203Y-79761017D01*
X177916569Y-79807390D01*
X177922631Y-79815499D01*
X177902723Y-79832923D01*
X177876466Y-79850904D01*
X177821413Y-79921713D01*
X177757236Y-80027879D01*
X177651128Y-80222835D01*
X177029279Y-80222835D01*
X177054492Y-80146206D01*
X177069018Y-80052667D01*
X177074652Y-79927027D01*
X177075769Y-79746260D01*
X177073467Y-79594886D01*
X177060242Y-79445988D01*
X177030785Y-79323718D01*
X176980040Y-79199183D01*
X176893014Y-79035660D01*
X176769380Y-78878010D01*
X176640861Y-78797805D01*
X176612405Y-78784698D01*
X176568535Y-78735108D01*
X176566500Y-78684075D01*
X176612335Y-78660616D01*
X176629745Y-78658473D01*
X176714550Y-78608591D01*
X176813247Y-78504008D01*
X176915878Y-78359927D01*
X177012490Y-78191553D01*
X177093127Y-78014091D01*
X177147833Y-77842746D01*
X177179560Y-77684699D01*
X177195379Y-77466193D01*
X177165374Y-77272580D01*
X177087564Y-77078735D01*
X177019815Y-76969350D01*
X176907276Y-76832022D01*
X176779304Y-76706819D01*
X176654761Y-76611845D01*
X176552512Y-76565206D01*
X176552152Y-76565136D01*
X176481033Y-76547251D01*
X176380420Y-76517999D01*
X176324114Y-76504164D01*
X176126703Y-76489179D01*
X175902503Y-76509986D01*
X175682154Y-76564542D01*
X175459781Y-76671853D01*
X175265050Y-76844749D01*
X175124566Y-77072318D01*
X175040791Y-77351539D01*
X175040396Y-77353749D01*
X175016629Y-77670751D01*
X175057502Y-77971195D01*
X175159760Y-78242051D01*
X175320152Y-78470291D01*
X175370592Y-78519732D01*
X175473236Y-78600393D01*
X175568703Y-78655129D01*
X175633308Y-78668918D01*
X175636278Y-78668231D01*
X175662616Y-78690632D01*
X175640494Y-78713478D01*
X175563416Y-78758819D01*
X175450144Y-78812368D01*
X175356775Y-78856774D01*
X175262525Y-78912640D01*
X175218443Y-78954202D01*
X175217823Y-78955567D01*
X175168786Y-78985607D01*
X175064082Y-79018660D01*
X174924774Y-79050496D01*
X174771923Y-79076889D01*
X174626593Y-79093611D01*
X174509846Y-79096434D01*
X174410491Y-79082217D01*
X174298215Y-79049990D01*
X174212087Y-79009943D01*
X174177692Y-78971686D01*
X174183405Y-78927542D01*
X174227149Y-78854639D01*
X174323603Y-78781685D01*
X174484145Y-78698539D01*
X174568186Y-78659278D01*
X174705460Y-78594172D01*
X174791297Y-78550396D01*
X174839039Y-78520056D01*
X174862028Y-78495258D01*
X174873605Y-78468108D01*
X174874088Y-78466623D01*
X174864919Y-78435862D01*
X174797777Y-78446975D01*
X174771110Y-78455649D01*
X174719825Y-78475691D01*
X174600712Y-78522237D01*
X174425821Y-78605802D01*
X174272778Y-78692842D01*
X174167923Y-78769854D01*
X174138498Y-78798955D01*
X174071955Y-78898524D01*
X173900047Y-78898524D01*
X173892726Y-78860028D01*
X173891757Y-78684600D01*
X173928949Y-78519930D01*
X174004312Y-78346504D01*
X174032189Y-78292073D01*
X174100604Y-78155616D01*
X174145973Y-78053348D01*
X174177806Y-77958347D01*
X174205613Y-77843693D01*
X174238906Y-77682467D01*
X174263036Y-77507847D01*
X174597735Y-77507847D01*
X174601786Y-77545384D01*
X174624415Y-77673911D01*
X174656202Y-77794241D01*
X174690290Y-77883336D01*
X174719825Y-77918154D01*
X174722673Y-77918123D01*
X174767085Y-77898339D01*
X174774088Y-77833462D01*
X174745221Y-77710934D01*
X174734799Y-77673111D01*
X174711425Y-77554504D01*
X174707466Y-77468770D01*
X174708026Y-77464793D01*
X174720850Y-77369085D01*
X174735933Y-77251175D01*
X174745760Y-77197859D01*
X174793404Y-77058342D01*
X174863799Y-76922906D01*
X174943196Y-76815500D01*
X175017846Y-76760076D01*
X175020686Y-76759160D01*
X175103650Y-76714121D01*
X175146845Y-76657874D01*
X175142747Y-76609864D01*
X175083830Y-76589539D01*
X175008891Y-76611916D01*
X174892095Y-76705214D01*
X174750424Y-76871705D01*
X174703987Y-76948390D01*
X174640001Y-77121212D01*
X174601945Y-77318694D01*
X174597735Y-77507847D01*
X174263036Y-77507847D01*
X174276078Y-77413462D01*
X174281790Y-77125655D01*
X174253746Y-76860033D01*
X174193031Y-76641247D01*
X174165687Y-76587683D01*
X174093312Y-76484583D01*
X174002300Y-76380539D01*
X173908689Y-76291669D01*
X173828517Y-76234095D01*
X173777821Y-76223934D01*
X173752634Y-76228134D01*
X173690762Y-76200040D01*
X173689709Y-76199186D01*
X173613439Y-76167453D01*
X173506858Y-76152659D01*
X173322270Y-76160959D01*
X173079624Y-76222670D01*
X172872548Y-76347496D01*
X172694368Y-76539929D01*
X172538407Y-76804462D01*
X172514222Y-76854200D01*
X172439823Y-77009895D01*
X172388483Y-77126560D01*
X172350902Y-77228789D01*
X172317781Y-77341175D01*
X172279821Y-77488308D01*
X172245700Y-77665042D01*
X172242109Y-77683642D01*
X172212246Y-77997543D01*
X172206325Y-78349024D01*
X155273942Y-78349024D01*
X155306331Y-78246069D01*
X155373692Y-78069157D01*
X155383537Y-78047032D01*
X155484076Y-77841686D01*
X155608039Y-77615063D01*
X155741695Y-77390362D01*
X155871311Y-77190783D01*
X155983153Y-77039526D01*
X156061196Y-76944192D01*
X156146503Y-76838490D01*
X156159024Y-76822576D01*
X172223846Y-76822576D01*
X172225387Y-76865234D01*
X172245700Y-76914819D01*
X172302000Y-76913477D01*
X172347390Y-76890962D01*
X172380154Y-76836170D01*
X172387530Y-76794990D01*
X172436106Y-76685950D01*
X172518265Y-76553769D01*
X172620103Y-76419698D01*
X172727718Y-76304984D01*
X172752341Y-76283382D01*
X172920200Y-76173295D01*
X173120604Y-76086609D01*
X173324237Y-76033899D01*
X173501785Y-76025741D01*
X173728472Y-76074364D01*
X173974310Y-76192124D01*
X174196896Y-76378693D01*
X174402571Y-76638385D01*
X174471900Y-76731084D01*
X174527667Y-76778407D01*
X174553232Y-76760967D01*
X174543886Y-76677462D01*
X174524507Y-76617169D01*
X174428605Y-76447421D01*
X174282487Y-76277374D01*
X174104020Y-76123305D01*
X173911074Y-76001495D01*
X173721515Y-75928222D01*
X173501084Y-75895782D01*
X173216780Y-75918348D01*
X172936352Y-76016539D01*
X172655080Y-76191522D01*
X172582727Y-76247339D01*
X172472441Y-76343627D01*
X172390493Y-76439615D01*
X172311415Y-76562819D01*
X172293702Y-76595146D01*
X172243869Y-76717983D01*
X172223846Y-76822576D01*
X156159024Y-76822576D01*
X156202308Y-76767561D01*
X156209273Y-76758589D01*
X156295353Y-76660428D01*
X156423670Y-76527045D01*
X156579326Y-76372734D01*
X156720205Y-76237847D01*
X159951281Y-76237847D01*
X159973520Y-76374616D01*
X160303778Y-76363647D01*
X160442012Y-76356607D01*
X160591968Y-76335218D01*
X160695636Y-76292661D01*
X160771834Y-76219958D01*
X160839379Y-76108132D01*
X160860315Y-76064514D01*
X160875371Y-75992878D01*
X160845148Y-75932347D01*
X160697287Y-75777101D01*
X160545988Y-75690888D01*
X160383539Y-75671020D01*
X160291334Y-75677612D01*
X160223410Y-75688817D01*
X160175659Y-75713776D01*
X160116250Y-75763503D01*
X160015283Y-75895938D01*
X159956178Y-76065772D01*
X159951281Y-76237847D01*
X156720205Y-76237847D01*
X156747419Y-76211790D01*
X156913052Y-76058507D01*
X157061324Y-75927182D01*
X157177335Y-75832108D01*
X157184929Y-75826344D01*
X157389892Y-75678281D01*
X157607879Y-75533144D01*
X157826231Y-75398169D01*
X158032290Y-75280594D01*
X158213394Y-75187652D01*
X158356885Y-75126581D01*
X158450104Y-75104616D01*
X158483768Y-75098526D01*
X158578385Y-75065127D01*
X158694761Y-75012327D01*
X158735695Y-74992597D01*
X167886526Y-74992597D01*
X167913371Y-75023510D01*
X168000114Y-75047724D01*
X168128281Y-75059303D01*
X168278692Y-75057685D01*
X168432171Y-75042308D01*
X168569538Y-75012610D01*
X168654132Y-74977106D01*
X168740518Y-74914763D01*
X168791446Y-74847757D01*
X168796456Y-74791142D01*
X168745085Y-74759975D01*
X168700668Y-74746320D01*
X168667846Y-74712132D01*
X168646020Y-74678252D01*
X168567922Y-74627071D01*
X168454385Y-74577200D01*
X168327941Y-74540045D01*
X168244789Y-74535695D01*
X168109870Y-74582381D01*
X167996982Y-74684694D01*
X167925361Y-74828836D01*
X167919898Y-74848742D01*
X167896243Y-74941866D01*
X167886526Y-74992597D01*
X158735695Y-74992597D01*
X158754095Y-74983728D01*
X158973490Y-74893258D01*
X159244706Y-74802513D01*
X159580641Y-74707052D01*
X159614232Y-74698087D01*
X159797827Y-74648839D01*
X160008729Y-74591970D01*
X160207692Y-74538058D01*
X160318670Y-74508882D01*
X160504026Y-74462085D01*
X160728922Y-74406648D01*
X160976876Y-74346510D01*
X161231407Y-74285609D01*
X161476036Y-74227884D01*
X161694280Y-74177273D01*
X161869659Y-74137715D01*
X161985692Y-74113149D01*
X162038620Y-74101909D01*
X162176162Y-74069878D01*
X162357743Y-74025658D01*
X162563646Y-73974242D01*
X162774155Y-73920623D01*
X162969554Y-73869793D01*
X163130126Y-73826747D01*
X163236154Y-73796476D01*
X163361214Y-73766325D01*
X163531256Y-73736940D01*
X163705077Y-73715879D01*
X163722205Y-73714323D01*
X163871730Y-73699982D01*
X163993161Y-73687089D01*
X164061610Y-73678269D01*
X164070457Y-73676909D01*
X164156436Y-73668031D01*
X164299657Y-73656468D01*
X164482799Y-73643364D01*
X164688541Y-73629867D01*
X164899562Y-73617120D01*
X165098540Y-73606271D01*
X165268154Y-73598465D01*
X165286216Y-73597824D01*
X165395148Y-73594825D01*
X165568502Y-73590751D01*
X165795650Y-73585804D01*
X166065961Y-73580185D01*
X166368806Y-73574096D01*
X166693557Y-73567739D01*
X167029583Y-73561314D01*
X167366255Y-73555025D01*
X167692944Y-73549071D01*
X167999021Y-73543655D01*
X168273856Y-73538979D01*
X168506820Y-73535243D01*
X168687283Y-73532650D01*
X168804616Y-73531400D01*
X168838642Y-73532236D01*
X168956872Y-73540012D01*
X169116561Y-73554231D01*
X169293077Y-73572805D01*
X169627372Y-73608789D01*
X170229303Y-73665515D01*
X170858012Y-73715691D01*
X171481385Y-73756620D01*
X171543967Y-73760502D01*
X171705684Y-73771919D01*
X171888307Y-73786150D01*
X172072064Y-73801512D01*
X172237184Y-73816323D01*
X172363894Y-73828900D01*
X172432423Y-73837561D01*
X172475479Y-73844392D01*
X172603883Y-73860801D01*
X172785476Y-73881325D01*
X173004487Y-73904328D01*
X173245144Y-73928177D01*
X173491675Y-73951236D01*
X173728308Y-73971871D01*
X173826147Y-73980104D01*
X174136869Y-74007604D01*
X174378843Y-74031561D01*
X174559356Y-74052736D01*
X174685692Y-74071891D01*
X174689908Y-74072644D01*
X174781067Y-74087370D01*
X174919315Y-74108157D01*
X175076462Y-74130758D01*
X175095887Y-74133488D01*
X175243729Y-74154277D01*
X175362546Y-74171002D01*
X175428154Y-74180258D01*
X175452847Y-74185068D01*
X175525846Y-74212151D01*
X175534778Y-74216963D01*
X175628542Y-74247532D01*
X175775841Y-74277706D01*
X175955692Y-74303045D01*
X176030961Y-74313422D01*
X176179359Y-74339211D01*
X176346080Y-74372404D01*
X176507276Y-74407915D01*
X176639097Y-74440657D01*
X176717692Y-74465545D01*
X176770776Y-74487661D01*
X176834536Y-74508745D01*
X176921725Y-74529940D01*
X177059013Y-74558509D01*
X177134826Y-74577239D01*
X177299025Y-74630691D01*
X177492437Y-74704939D01*
X177700411Y-74793156D01*
X177908295Y-74888513D01*
X178101439Y-74984185D01*
X178265191Y-75073343D01*
X178384902Y-75149160D01*
X178445920Y-75204810D01*
X178446453Y-75205648D01*
X178501552Y-75252146D01*
X178592459Y-75299617D01*
X178599912Y-75302770D01*
X178678345Y-75345692D01*
X178710616Y-75381892D01*
X178711924Y-75387333D01*
X178754226Y-75429197D01*
X178837616Y-75479922D01*
X178843648Y-75483026D01*
X178950478Y-75546199D01*
X179033175Y-75607925D01*
X179140921Y-75712488D01*
X179274442Y-75849808D01*
X179403400Y-75988509D01*
X179501661Y-76101077D01*
X179547743Y-76163467D01*
X179624192Y-76283662D01*
X179703293Y-76421949D01*
X179773772Y-76557400D01*
X179824353Y-76669085D01*
X179843763Y-76736077D01*
X179846191Y-76753967D01*
X179878173Y-76784923D01*
X179900028Y-76810718D01*
X179937106Y-76906363D01*
X179983948Y-77065760D01*
X180038464Y-77281687D01*
X180098565Y-77546923D01*
X180114069Y-77656798D01*
X180126518Y-77831958D01*
X180134219Y-78045649D01*
X180137146Y-78278449D01*
X180135273Y-78510937D01*
X180128572Y-78723691D01*
X180117017Y-78897288D01*
X180100581Y-79012308D01*
X180092143Y-79055476D01*
X180075351Y-79176793D01*
X180061928Y-79315729D01*
X180029690Y-79498564D01*
X179926215Y-79748545D01*
X179751500Y-80006878D01*
X179503027Y-80277901D01*
X179358684Y-80416774D01*
X179190905Y-80569760D01*
X179044166Y-80688774D01*
X178899841Y-80787413D01*
X178739302Y-80879270D01*
X178543923Y-80977944D01*
X178542935Y-80978425D01*
X178342648Y-81068021D01*
X178133522Y-81143737D01*
X177925529Y-81203508D01*
X177892599Y-81212971D01*
X177596923Y-81283120D01*
X177010769Y-81412638D01*
X176002614Y-81417288D01*
X175447692Y-81419846D01*
X175106630Y-81421858D01*
D11*
%TO.C,R25*%
X118682500Y-91172742D02*
X118682500Y-91647258D01*
X117637500Y-91172742D02*
X117637500Y-91647258D01*
%TO.C,R34*%
X110652500Y-91162742D02*
X110652500Y-91637258D01*
X111697500Y-91162742D02*
X111697500Y-91637258D01*
%TO.C,R33*%
X120202500Y-91172742D02*
X120202500Y-91647258D01*
X119157500Y-91172742D02*
X119157500Y-91647258D01*
%TO.C,R26*%
X110197500Y-91162742D02*
X110197500Y-91637258D01*
X109152500Y-91162742D02*
X109152500Y-91637258D01*
%TO.C,R10*%
X145462258Y-93052500D02*
X144987742Y-93052500D01*
X145462258Y-94097500D02*
X144987742Y-94097500D01*
%TO.C,TP31*%
X162200000Y-89325000D02*
G75*
G03*
X162200000Y-89325000I-700000J0D01*
G01*
%TO.C,TP30*%
X164250000Y-89300000D02*
G75*
G03*
X164250000Y-89300000I-700000J0D01*
G01*
%TO.C,TP17*%
X133290000Y-85260000D02*
G75*
G03*
X133290000Y-85260000I-700000J0D01*
G01*
%TO.C,TP19*%
X130750000Y-85240000D02*
G75*
G03*
X130750000Y-85240000I-700000J0D01*
G01*
%TO.C,R9*%
X145462258Y-95622500D02*
X144987742Y-95622500D01*
X145462258Y-94577500D02*
X144987742Y-94577500D01*
%TO.C,TP32*%
X163600000Y-93800000D02*
G75*
G03*
X163600000Y-93800000I-700000J0D01*
G01*
%TO.C,D6*%
X189570000Y-68202500D02*
X189570000Y-64352500D01*
X189570000Y-68202500D02*
X187570000Y-68202500D01*
X187570000Y-68202500D02*
X187570000Y-64352500D01*
%TO.C,R11*%
X144987742Y-91552500D02*
X145462258Y-91552500D01*
X144987742Y-92597500D02*
X145462258Y-92597500D01*
%TO.C,TP18*%
X135550000Y-85320000D02*
G75*
G03*
X135550000Y-85320000I-700000J0D01*
G01*
%TO.C,Q2*%
X185420000Y-68070000D02*
X183745000Y-68070000D01*
X185420000Y-64950000D02*
X186070000Y-64950000D01*
X185420000Y-64950000D02*
X184770000Y-64950000D01*
X185420000Y-68070000D02*
X186070000Y-68070000D01*
%TO.C,R27*%
X119972742Y-81522500D02*
X120447258Y-81522500D01*
X119972742Y-80477500D02*
X120447258Y-80477500D01*
%TO.C,Q4*%
X119790000Y-74750000D02*
X119790000Y-70990000D01*
X119790000Y-70990000D02*
X121050000Y-70990000D01*
X126610000Y-70990000D02*
X125350000Y-70990000D01*
X126610000Y-77000000D02*
X126610000Y-70990000D01*
%TO.C,U6*%
X178920000Y-65200000D02*
X178920000Y-65950000D01*
X178170000Y-71420000D02*
X178920000Y-71420000D01*
X173450000Y-71420000D02*
X172700000Y-71420000D01*
X173450000Y-65200000D02*
X172700000Y-65200000D01*
X178170000Y-65200000D02*
X178920000Y-65200000D01*
X178920000Y-71420000D02*
X178920000Y-70670000D01*
X172700000Y-65200000D02*
X172700000Y-65950000D01*
%TO.C,C8*%
X122297500Y-93135580D02*
X122297500Y-92854420D01*
X123317500Y-93135580D02*
X123317500Y-92854420D01*
%TO.C,R36*%
X110452742Y-81522500D02*
X110927258Y-81522500D01*
X110452742Y-80477500D02*
X110927258Y-80477500D01*
%TO.C,D8*%
X139880000Y-64740000D02*
X139880000Y-67460000D01*
X139880000Y-67460000D02*
X134900000Y-67460000D01*
X139880000Y-64740000D02*
X134900000Y-64740000D01*
%TO.C,C9*%
X184879420Y-79280000D02*
X185160580Y-79280000D01*
X184879420Y-80300000D02*
X185160580Y-80300000D01*
%TO.C,D10*%
X119570000Y-67560000D02*
X124550000Y-67560000D01*
X119570000Y-67560000D02*
X119570000Y-64840000D01*
X119570000Y-64840000D02*
X124550000Y-64840000D01*
%TO.C,R29*%
X113927258Y-81522500D02*
X113452742Y-81522500D01*
X113927258Y-80477500D02*
X113452742Y-80477500D01*
%TO.C,Q6*%
X111940000Y-74750000D02*
X111940000Y-70990000D01*
X118760000Y-77000000D02*
X118760000Y-70990000D01*
X111940000Y-70990000D02*
X113200000Y-70990000D01*
X118760000Y-70990000D02*
X117500000Y-70990000D01*
%TO.C,C10*%
X183459420Y-76640000D02*
X183740580Y-76640000D01*
X183459420Y-75620000D02*
X183740580Y-75620000D01*
%TO.C,D16*%
X111670000Y-64740000D02*
X116650000Y-64740000D01*
X111670000Y-67460000D02*
X111670000Y-64740000D01*
X111670000Y-67460000D02*
X116650000Y-67460000D01*
%TO.C,C7*%
X122290000Y-88675580D02*
X122290000Y-88394420D01*
X123310000Y-88675580D02*
X123310000Y-88394420D01*
%TO.C,D15*%
X133280000Y-64740000D02*
X133280000Y-67460000D01*
X133280000Y-67460000D02*
X128300000Y-67460000D01*
X133280000Y-64740000D02*
X128300000Y-64740000D01*
%TO.C,R35*%
X116962742Y-81522500D02*
X117437258Y-81522500D01*
X116962742Y-80477500D02*
X117437258Y-80477500D01*
%TO.C,Q3*%
X135390000Y-74750000D02*
X135390000Y-70990000D01*
X135390000Y-70990000D02*
X136650000Y-70990000D01*
X142210000Y-70990000D02*
X140950000Y-70990000D01*
X142210000Y-77000000D02*
X142210000Y-70990000D01*
%TO.C,Q5*%
X127590000Y-74750000D02*
X127590000Y-70990000D01*
X127590000Y-70990000D02*
X128850000Y-70990000D01*
X134410000Y-70990000D02*
X133150000Y-70990000D01*
X134410000Y-77000000D02*
X134410000Y-70990000D01*
%TO.C,R21*%
X131227258Y-87487500D02*
X130752742Y-87487500D01*
X131227258Y-88532500D02*
X130752742Y-88532500D01*
D14*
%TO.C,U5*%
X111825000Y-94075000D02*
G75*
G03*
X111825000Y-94075000I-100000J0D01*
G01*
D15*
X112775000Y-95100000D02*
X113310000Y-95100000D01*
X116775000Y-91100000D02*
X116775000Y-91635000D01*
X112775000Y-91100000D02*
X113310000Y-91100000D01*
X112775000Y-91100000D02*
X112775000Y-91635000D01*
X116775000Y-95100000D02*
X116775000Y-94565000D01*
X116775000Y-91100000D02*
X116240000Y-91100000D01*
X116775000Y-95100000D02*
X116240000Y-95100000D01*
X112775000Y-95100000D02*
X112775000Y-94565000D01*
D11*
%TO.C,R16*%
X131227258Y-89007500D02*
X130752742Y-89007500D01*
X131227258Y-90052500D02*
X130752742Y-90052500D01*
%TO.C,J5*%
X140520000Y-93470000D02*
X140520000Y-92020000D01*
X140520000Y-92020000D02*
X138720000Y-92020000D01*
X139250000Y-96290000D02*
X129570000Y-96290000D01*
X128300000Y-92020000D02*
X130100000Y-92020000D01*
X138720000Y-92020000D02*
X138720000Y-91030000D01*
X128300000Y-93470000D02*
X128300000Y-92020000D01*
%TO.C,JP2*%
X168900000Y-66000000D02*
X168900000Y-64600000D01*
X166900000Y-64600000D02*
X166900000Y-66000000D01*
X167600000Y-66700000D02*
X168200000Y-66700000D01*
X168200000Y-63900000D02*
X167600000Y-63900000D01*
X167600000Y-63900000D02*
G75*
G03*
X166900000Y-64600000I-1J-699999D01*
G01*
X166900000Y-66000000D02*
G75*
G03*
X167600000Y-66700000I699999J-1D01*
G01*
X168200000Y-66700000D02*
G75*
G03*
X168900000Y-66000000I1J699999D01*
G01*
X168900000Y-64600000D02*
G75*
G03*
X168200000Y-63900000I-699999J1D01*
G01*
%TO.C,R22*%
X136977500Y-88572742D02*
X136977500Y-89047258D01*
X138022500Y-88572742D02*
X138022500Y-89047258D01*
%TD*%
M02*
