M48
; DRILL file {KiCad (6.0.1-0)} date Monday, 21 March 2022 at 22:53:42
; FORMAT={-:-/ absolute / metric / decimal}
; #@! TF.CreationDate,2022-03-21T22:53:42+00:00
; #@! TF.GenerationSoftware,Kicad,Pcbnew,(6.0.1-0)
; #@! TF.FileFunction,MixedPlating,1,4
FMAT,2
METRIC
; #@! TA.AperFunction,Plated,PTH,ViaDrill
T1C0.300
; #@! TA.AperFunction,Plated,PTH,ViaDrill
T2C0.400
; #@! TA.AperFunction,Plated,PTH,ComponentDrill
T3C0.400
; #@! TA.AperFunction,Plated,PTH,ComponentDrill
T4C0.460
; #@! TA.AperFunction,Plated,PTH,ComponentDrill
T5C0.600
; #@! TA.AperFunction,Plated,PTH,ComponentDrill
T6C0.750
; #@! TA.AperFunction,Plated,PTH,ComponentDrill
T7C1.000
; #@! TA.AperFunction,Plated,PTH,ComponentDrill
T8C1.100
; #@! TA.AperFunction,Plated,PTH,ComponentDrill
T9C1.300
; #@! TA.AperFunction,Plated,PTH,ComponentDrill
T10C1.400
; #@! TA.AperFunction,Plated,PTH,ComponentDrill
T11C3.200
%
G90
G05
T1
X100.437Y-83.027
X100.47Y-86.42
X100.51Y-70.495
X100.52Y-73.89
X101.14Y-83.025
X101.17Y-86.415
X101.21Y-70.495
X101.22Y-73.89
X101.84Y-83.025
X101.87Y-86.415
X101.92Y-70.495
X101.92Y-73.89
X102.54Y-83.025
X102.57Y-86.415
X102.62Y-70.495
X102.63Y-73.89
X103.24Y-83.025
X103.27Y-86.42
X103.32Y-70.495
X103.33Y-73.89
X103.94Y-83.025
X103.97Y-86.415
X104.02Y-70.495
X104.03Y-73.89
X104.64Y-83.025
X104.67Y-86.42
X104.71Y-70.495
X104.73Y-73.9
X105.338Y-83.025
X105.36Y-86.415
X105.41Y-70.495
X105.44Y-73.885
X105.858Y-82.558
X106.02Y-86.17
X106.053Y-70.784
X106.064Y-73.576
X106.11Y-85.47
X106.114Y-84.765
X106.157Y-72.866
X106.353Y-82.063
X106.553Y-70.283
X106.617Y-84.267
X106.775Y-72.494
X106.848Y-81.568
X107.048Y-69.788
X107.112Y-83.772
X107.167Y-73.09
X107.19Y-74.5
X107.19Y-75.22
X107.194Y-73.797
X107.302Y-72.002
X107.369Y-81.088
X107.543Y-69.293
X107.58Y-75.82
X107.607Y-83.277
X107.802Y-71.502
X107.981Y-80.733
X108.038Y-68.798
X108.097Y-82.787
X108.28Y-75.92
X108.302Y-71.002
X108.516Y-80.28
X108.535Y-68.307
X108.755Y-82.534
X108.807Y-70.497
X108.815Y-75.473
X109.044Y-67.82
X109.22Y-74.18
X109.22Y-74.88
X109.402Y-67.21
X109.92Y-74.15
X112.189Y-81.479
X113.31Y-72.0
X113.31Y-72.71
X113.317Y-71.283
X199.6Y-65.2
X199.6Y-65.8
X199.6Y-66.4
X199.6Y-67.0
X199.6Y-67.6
X199.6Y-68.2
X199.6Y-68.8
X199.6Y-69.4
X199.6Y-70.0
X199.6Y-70.6
X199.6Y-71.2
X199.6Y-71.8
X199.6Y-72.4
X199.6Y-73.0
X199.6Y-73.6
X199.6Y-74.2
X199.6Y-74.8
X199.6Y-75.4
X199.6Y-76.0
X199.6Y-76.6
X199.6Y-77.2
X199.6Y-77.8
X199.6Y-78.4
X199.6Y-79.0
X199.6Y-79.6
X199.6Y-80.2
X199.6Y-80.8
X199.6Y-81.4
X199.6Y-82.0
X199.6Y-82.6
X199.6Y-83.2
X199.6Y-83.8
X199.6Y-84.4
X199.6Y-85.0
X199.6Y-85.6
X199.6Y-86.2
X199.6Y-86.8
X199.6Y-87.4
X199.6Y-88.0
X199.6Y-88.6
X199.6Y-89.2
X199.6Y-89.8
X199.6Y-90.4
X199.6Y-91.0
X199.6Y-91.6
X199.6Y-92.2
T2
X106.99Y-95.72
X107.0Y-94.72
X107.03Y-91.74
X107.03Y-92.74
X107.96Y-78.42
X107.98Y-86.71
X107.99Y-66.69
X108.0Y-64.68
X108.08Y-90.18
X108.16Y-88.53
X108.88Y-84.276
X109.352Y-65.59
X111.723Y-91.526
X111.755Y-93.165
X112.03Y-77.31
X112.1Y-84.95
X112.325Y-94.65
X112.359Y-95.649
X112.805Y-78.695
X112.98Y-87.93
X113.23Y-91.1
X113.474Y-86.313
X114.03Y-77.31
X114.1Y-84.609
X114.64Y-90.225
X115.03Y-78.81
X115.542Y-87.932
X116.33Y-77.77
X116.36Y-90.72
X117.05Y-72.9
X117.33Y-79.27
X117.8Y-71.4
X117.8Y-74.4
X118.33Y-77.77
X118.34Y-87.94
X118.54Y-93.38
X118.8Y-69.9
X118.9Y-72.9
X118.94Y-91.68
X119.33Y-79.27
X119.7Y-74.4
X119.7Y-76.1
X119.8Y-71.4
X120.0Y-69.0
X120.7Y-77.8
X121.1Y-95.3
X121.9Y-83.75
X121.9Y-85.75
X123.298Y-79.1
X123.33Y-90.1
X123.37Y-87.0
X123.4Y-82.75
X123.4Y-84.75
X123.65Y-92.4
X123.65Y-93.4
X123.825Y-95.325
X124.205Y-77.614
X124.5Y-81.3
X125.0Y-72.9
X125.2Y-79.1
X125.53Y-74.65
X125.825Y-88.49
X125.825Y-90.475
X125.825Y-92.475
X126.17Y-86.475
X126.17Y-84.475
X126.2Y-77.65
X127.2Y-79.1
X128.175Y-90.025
X128.175Y-93.175
X128.2Y-77.6
X129.175Y-83.939
X129.2Y-79.1
X130.184Y-77.646
X130.388Y-67.988
X130.4Y-93.125
X131.04Y-83.99
X131.2Y-79.1
X132.125Y-93.15
X132.3Y-77.6
X132.98Y-83.939
X133.46Y-79.07
X134.4Y-77.6
X134.42Y-93.12
X134.8Y-75.9
X134.86Y-83.95
X135.43Y-79.1
X136.4Y-77.6
X136.5Y-95.53
X136.625Y-89.325
X136.675Y-87.575
X136.76Y-84.53
X137.39Y-79.1
X138.39Y-77.65
X139.3Y-86.05
X139.41Y-79.1
X140.54Y-77.549
X140.66Y-92.76
X140.7Y-87.625
X140.95Y-84.35
X141.53Y-79.05
X141.65Y-94.1
X141.975Y-91.196
X142.3Y-75.8
X142.53Y-77.599
X143.125Y-85.3
X143.125Y-86.3
X143.586Y-92.417
X144.5Y-81.775
X145.054Y-87.325
X145.5Y-81.903
X146.21Y-78.455
X146.275Y-85.425
X146.814Y-91.194
X147.0Y-81.3
X147.075Y-92.825
X147.1Y-94.4
X147.275Y-85.425
X148.0Y-96.0
X148.0Y-74.96
X148.6Y-93.45
X148.85Y-76.7
X149.5Y-89.95
X150.25Y-74.95
X150.6Y-78.975
X151.2Y-89.95
X151.925Y-93.45
X152.5Y-96.1
X153.5Y-83.9
X153.8Y-91.9
X153.8Y-93.5
X153.8Y-95.2
X153.875Y-90.225
X155.02Y-80.95
X155.325Y-76.025
X155.65Y-83.826
X156.325Y-76.025
X156.5Y-81.65
X156.65Y-83.85
X157.7Y-73.7
X158.025Y-82.349
X158.533Y-79.512
X158.675Y-77.85
X159.7Y-73.7
X159.9Y-71.4
X160.09Y-88.975
X160.3Y-82.349
X161.52Y-76.463
X162.0Y-73.4
X162.12Y-81.909
X162.3Y-71.6
X162.358Y-83.672
X162.55Y-76.453
X163.9Y-81.209
X164.1Y-73.4
X164.1Y-77.998
X164.17Y-79.028
X164.325Y-83.329
X165.2Y-72.0
X165.2Y-74.8
X166.2Y-73.4
X166.48Y-83.39
X166.6Y-66.1
X166.81Y-76.888
X167.2Y-72.0
X167.2Y-74.8
X167.635Y-93.261
X167.76Y-76.22
X168.125Y-68.575
X168.2Y-70.15
X168.2Y-73.4
X168.29Y-82.64
X169.1Y-74.8
X169.102Y-71.925
X169.247Y-66.906
X170.08Y-82.04
X170.569Y-94.745
X170.65Y-90.58
X170.732Y-95.732
X171.193Y-84.965
X171.59Y-81.42
X172.23Y-84.98
X173.13Y-76.86
X173.14Y-80.11
X173.281Y-75.12
X173.975Y-82.175
X174.13Y-76.85
X174.184Y-84.901
X174.28Y-75.13
X175.187Y-84.929
X175.45Y-82.87
X175.71Y-73.05
X175.75Y-72.05
X175.898Y-64.568
X176.451Y-90.324
X177.1Y-75.1
X177.332Y-95.188
X177.725Y-81.4
X178.099Y-75.096
X178.6Y-88.941
X179.007Y-76.821
X179.03Y-77.82
X179.63Y-73.14
X179.795Y-91.74
X179.839Y-69.74
X179.88Y-68.64
X180.575Y-88.796
X181.425Y-95.8
X181.52Y-68.96
X182.31Y-92.41
X182.44Y-73.16
X182.635Y-83.298
X182.725Y-80.7
X182.78Y-77.7
X183.12Y-75.26
X183.3Y-68.96
X183.875Y-84.7
X184.119Y-75.257
X184.18Y-91.81
X184.518Y-82.907
X184.55Y-80.67
X184.94Y-68.98
X185.05Y-78.9
X185.17Y-77.01
X185.205Y-73.595
X185.549Y-80.658
X185.6Y-65.55
X185.84Y-71.78
X186.06Y-89.38
X186.373Y-82.899
X186.45Y-90.82
X187.25Y-92.95
X187.6Y-73.2
X188.087Y-85.987
X189.64Y-89.39
X189.791Y-84.829
X190.27Y-72.48
X191.04Y-80.77
X191.06Y-74.98
X192.829Y-73.581
X193.921Y-77.822
X194.336Y-75.156
X194.722Y-82.097
X196.02Y-71.77
X196.234Y-67.667
X197.78Y-67.36
X198.54Y-71.75
X198.54Y-85.98
X198.55Y-88.76
X198.55Y-89.77
T3
X157.795Y-90.865
X157.795Y-92.215
X158.645Y-90.865
X158.645Y-92.215
X159.495Y-90.865
X159.495Y-92.215
X160.345Y-90.865
X160.345Y-92.215
X161.195Y-90.865
X161.195Y-92.215
X162.045Y-90.865
X162.045Y-92.215
X162.895Y-90.865
X162.895Y-92.215
X163.745Y-90.865
X163.745Y-92.215
T4
X106.46Y-80.34
X106.46Y-89.1
X106.47Y-67.81
X106.47Y-76.57
T6
X167.77Y-62.25
X169.77Y-62.25
X188.57Y-62.25
X190.57Y-62.25
T7
X109.07Y-61.85
X111.61Y-61.85
X114.15Y-61.85
X174.1Y-61.85
X176.64Y-61.85
X179.18Y-61.85
X181.72Y-61.85
X183.125Y-95.2
X184.26Y-61.85
X185.665Y-95.2
X189.32Y-95.2
X191.86Y-95.2
T8
X119.45Y-62.28
X121.99Y-62.28
X124.53Y-62.28
X127.07Y-62.28
X129.61Y-62.28
X132.15Y-62.28
X134.69Y-62.28
X137.23Y-62.28
T9
X142.3Y-62.35
X147.38Y-62.35
T10
X153.66Y-62.79
X153.66Y-68.29
X157.86Y-62.79
X157.86Y-68.29
X162.06Y-62.79
X162.06Y-68.29
T11
X103.0Y-63.0
X103.0Y-94.0
X197.0Y-63.0
X197.0Y-94.0
T5
G00X156.445Y-91.095
M15
G01X156.445Y-92.595
M16
G05
G00X156.445Y-94.825
M15
G01X156.445Y-95.625
M16
G05
G00X165.095Y-91.095
M15
G01X165.095Y-92.595
M16
G05
G00X165.095Y-94.825
M15
G01X165.095Y-95.625
M16
G05
T0
M30
