%TF.GenerationSoftware,KiCad,Pcbnew,(6.0.1-0)*%
%TF.CreationDate,2022-03-21T22:53:49+00:00*%
%TF.ProjectId,PickleRick,5069636b-6c65-4526-9963-6b2e6b696361,rev?*%
%TF.SameCoordinates,Original*%
%TF.FileFunction,Soldermask,Bot*%
%TF.FilePolarity,Negative*%
%FSLAX46Y46*%
G04 Gerber Fmt 4.6, Leading zero omitted, Abs format (unit mm)*
G04 Created by KiCad (PCBNEW (6.0.1-0)) date 2022-03-21 22:53:49*
%MOMM*%
%LPD*%
G01*
G04 APERTURE LIST*
G04 Aperture macros list*
%AMRoundRect*
0 Rectangle with rounded corners*
0 $1 Rounding radius*
0 $2 $3 $4 $5 $6 $7 $8 $9 X,Y pos of 4 corners*
0 Add a 4 corners polygon primitive as box body*
4,1,4,$2,$3,$4,$5,$6,$7,$8,$9,$2,$3,0*
0 Add four circle primitives for the rounded corners*
1,1,$1+$1,$2,$3*
1,1,$1+$1,$4,$5*
1,1,$1+$1,$6,$7*
1,1,$1+$1,$8,$9*
0 Add four rect primitives between the rounded corners*
20,1,$1+$1,$2,$3,$4,$5,0*
20,1,$1+$1,$4,$5,$6,$7,0*
20,1,$1+$1,$6,$7,$8,$9,0*
20,1,$1+$1,$8,$9,$2,$3,0*%
%AMFreePoly0*
4,1,22,0.500000,-0.750000,0.000000,-0.750000,0.000000,-0.745033,-0.079941,-0.743568,-0.215256,-0.701293,-0.333266,-0.622738,-0.424486,-0.514219,-0.481581,-0.384460,-0.499164,-0.250000,-0.500000,-0.250000,-0.500000,0.250000,-0.499164,0.250000,-0.499963,0.256109,-0.478152,0.396186,-0.417904,0.524511,-0.324060,0.630769,-0.204165,0.706417,-0.067858,0.745374,0.000000,0.744959,0.000000,0.750000,
0.500000,0.750000,0.500000,-0.750000,0.500000,-0.750000,$1*%
%AMFreePoly1*
4,1,20,0.000000,0.744959,0.073905,0.744508,0.209726,0.703889,0.328688,0.626782,0.421226,0.519385,0.479903,0.390333,0.500000,0.250000,0.500000,-0.250000,0.499851,-0.262216,0.476331,-0.402017,0.414519,-0.529596,0.319384,-0.634700,0.198574,-0.708877,0.061801,-0.746166,0.000000,-0.745033,0.000000,-0.750000,-0.500000,-0.750000,-0.500000,0.750000,0.000000,0.750000,0.000000,0.744959,
0.000000,0.744959,$1*%
G04 Aperture macros list end*
%ADD10R,2.100000X2.100000*%
%ADD11C,2.100000*%
%ADD12R,0.800000X1.300000*%
%ADD13RoundRect,0.200000X-0.275000X0.200000X-0.275000X-0.200000X0.275000X-0.200000X0.275000X0.200000X0*%
%ADD14RoundRect,0.200000X0.200000X0.275000X-0.200000X0.275000X-0.200000X-0.275000X0.200000X-0.275000X0*%
%ADD15C,1.000000*%
%ADD16R,1.700000X1.700000*%
%ADD17O,1.700000X1.700000*%
%ADD18R,5.080000X2.420000*%
%ADD19C,5.600000*%
%ADD20RoundRect,0.250001X-1.099999X-1.399999X1.099999X-1.399999X1.099999X1.399999X-1.099999X1.399999X0*%
%ADD21O,2.700000X3.300000*%
%ADD22RoundRect,0.250000X-0.350000X-0.625000X0.350000X-0.625000X0.350000X0.625000X-0.350000X0.625000X0*%
%ADD23O,1.200000X1.750000*%
%ADD24C,0.700000*%
%ADD25O,0.900000X1.700000*%
%ADD26O,0.900000X2.400000*%
%ADD27R,1.100000X1.100000*%
%ADD28RoundRect,0.200000X-0.200000X-0.275000X0.200000X-0.275000X0.200000X0.275000X-0.200000X0.275000X0*%
%ADD29R,2.600000X2.600000*%
%ADD30C,2.600000*%
%ADD31RoundRect,0.150000X-0.587500X-0.150000X0.587500X-0.150000X0.587500X0.150000X-0.587500X0.150000X0*%
%ADD32R,3.800000X2.000000*%
%ADD33R,1.500000X2.000000*%
%ADD34R,4.250000X4.250000*%
%ADD35RoundRect,0.075000X-0.075000X-0.437500X0.075000X-0.437500X0.075000X0.437500X-0.075000X0.437500X0*%
%ADD36RoundRect,0.075000X-0.437500X-0.075000X0.437500X-0.075000X0.437500X0.075000X-0.437500X0.075000X0*%
%ADD37RoundRect,0.225000X0.250000X-0.225000X0.250000X0.225000X-0.250000X0.225000X-0.250000X-0.225000X0*%
%ADD38R,1.400000X2.100000*%
%ADD39RoundRect,0.225000X-0.225000X-0.250000X0.225000X-0.250000X0.225000X0.250000X-0.225000X0.250000X0*%
%ADD40R,2.160000X2.160000*%
%ADD41RoundRect,0.013600X-0.156400X0.481400X-0.156400X-0.481400X0.156400X-0.481400X0.156400X0.481400X0*%
%ADD42RoundRect,0.013600X-0.481400X-0.156400X0.481400X-0.156400X0.481400X0.156400X-0.481400X0.156400X0*%
%ADD43RoundRect,0.250000X0.250000X1.100000X-0.250000X1.100000X-0.250000X-1.100000X0.250000X-1.100000X0*%
%ADD44RoundRect,0.150000X0.150000X0.700000X-0.150000X0.700000X-0.150000X-0.700000X0.150000X-0.700000X0*%
%ADD45FreePoly0,90.000000*%
%ADD46FreePoly1,90.000000*%
G04 APERTURE END LIST*
D10*
%TO.C,J6*%
X119450000Y-62280000D03*
D11*
X121990000Y-62280000D03*
X124530000Y-62280000D03*
X127070000Y-62280000D03*
X129610000Y-62280000D03*
X132150000Y-62280000D03*
X134690000Y-62280000D03*
X137230000Y-62280000D03*
%TD*%
D12*
%TO.C,U4*%
X110450000Y-82675000D03*
X111730000Y-82675000D03*
X112990000Y-82675000D03*
X114260000Y-82675000D03*
X115540000Y-82675000D03*
X116810000Y-82675000D03*
X118070000Y-82675000D03*
X119350000Y-82675000D03*
X119350000Y-88975000D03*
X118070000Y-88975000D03*
X116810000Y-88975000D03*
X115540000Y-88975000D03*
X114260000Y-88975000D03*
X112990000Y-88975000D03*
X111730000Y-88975000D03*
X110450000Y-88975000D03*
%TD*%
D13*
%TO.C,R25*%
X118160000Y-90585000D03*
X118160000Y-92235000D03*
%TD*%
%TO.C,R34*%
X111175000Y-90575000D03*
X111175000Y-92225000D03*
%TD*%
%TO.C,R33*%
X119680000Y-90585000D03*
X119680000Y-92235000D03*
%TD*%
%TO.C,R26*%
X109675000Y-92225000D03*
X109675000Y-90575000D03*
%TD*%
D14*
%TO.C,R10*%
X146050000Y-93575000D03*
X144400000Y-93575000D03*
%TD*%
D15*
%TO.C,TP31*%
X161500000Y-89325000D03*
%TD*%
D16*
%TO.C,J3*%
X183125000Y-95200000D03*
D17*
X185665000Y-95200000D03*
%TD*%
D18*
%TO.C,J18*%
X103020000Y-89100000D03*
X103020000Y-80340000D03*
%TD*%
D15*
%TO.C,TP30*%
X163550000Y-89300000D03*
%TD*%
D16*
%TO.C,J10*%
X109070000Y-61850000D03*
D17*
X111610000Y-61850000D03*
X114150000Y-61850000D03*
%TD*%
D19*
%TO.C,H3*%
X197000000Y-94000000D03*
%TD*%
D20*
%TO.C,J1*%
X153660000Y-62790000D03*
D21*
X157860000Y-62790000D03*
X162060000Y-62790000D03*
X153660000Y-68290000D03*
X157860000Y-68290000D03*
X162060000Y-68290000D03*
%TD*%
D22*
%TO.C,J11*%
X188570000Y-62250000D03*
D23*
X190570000Y-62250000D03*
%TD*%
D15*
%TO.C,TP17*%
X132590000Y-85260000D03*
%TD*%
D24*
%TO.C,J17*%
X157795000Y-90865000D03*
X158645000Y-90865000D03*
X159495000Y-90865000D03*
X160345000Y-90865000D03*
X161195000Y-90865000D03*
X162045000Y-90865000D03*
X162895000Y-90865000D03*
X163745000Y-90865000D03*
X163745000Y-92215000D03*
X162895000Y-92215000D03*
X162045000Y-92215000D03*
X161195000Y-92215000D03*
X160345000Y-92215000D03*
X159495000Y-92215000D03*
X158645000Y-92215000D03*
X157795000Y-92215000D03*
D25*
X165095000Y-95225000D03*
D26*
X156445000Y-91845000D03*
D25*
X156445000Y-95225000D03*
D26*
X165095000Y-91845000D03*
%TD*%
D15*
%TO.C,TP19*%
X130050000Y-85240000D03*
%TD*%
D14*
%TO.C,R9*%
X144400000Y-95100000D03*
X146050000Y-95100000D03*
%TD*%
D16*
%TO.C,J12*%
X174100000Y-61850000D03*
D17*
X176640000Y-61850000D03*
X179180000Y-61850000D03*
X181720000Y-61850000D03*
X184260000Y-61850000D03*
%TD*%
D15*
%TO.C,TP32*%
X162900000Y-93800000D03*
%TD*%
D27*
%TO.C,D6*%
X188570000Y-64602500D03*
X188570000Y-67402500D03*
%TD*%
D19*
%TO.C,H4*%
X103000000Y-63000000D03*
%TD*%
D16*
%TO.C,J2*%
X189320000Y-95200000D03*
D17*
X191860000Y-95200000D03*
%TD*%
D19*
%TO.C,H1*%
X197000000Y-63000000D03*
%TD*%
D28*
%TO.C,R11*%
X144400000Y-92075000D03*
X146050000Y-92075000D03*
%TD*%
D15*
%TO.C,TP18*%
X134850000Y-85320000D03*
%TD*%
D22*
%TO.C,J15*%
X167770000Y-62250000D03*
D23*
X169770000Y-62250000D03*
%TD*%
D18*
%TO.C,J16*%
X103030000Y-67810000D03*
X103030000Y-76570000D03*
%TD*%
D19*
%TO.C,H2*%
X103000000Y-94000000D03*
%TD*%
D29*
%TO.C,J14*%
X147380000Y-62350000D03*
D30*
X142300000Y-62350000D03*
%TD*%
D31*
%TO.C,Q2*%
X184482500Y-67460000D03*
X184482500Y-65560000D03*
X186357500Y-66510000D03*
%TD*%
D28*
%TO.C,R27*%
X119385000Y-81000000D03*
X121035000Y-81000000D03*
%TD*%
D32*
%TO.C,Q4*%
X123200000Y-69750000D03*
D33*
X120900000Y-76050000D03*
X123200000Y-76050000D03*
X125500000Y-76050000D03*
%TD*%
D34*
%TO.C,U6*%
X175810000Y-68310000D03*
D35*
X173860000Y-71147500D03*
X174510000Y-71147500D03*
X175160000Y-71147500D03*
X175810000Y-71147500D03*
X176460000Y-71147500D03*
X177110000Y-71147500D03*
X177760000Y-71147500D03*
D36*
X178647500Y-70260000D03*
X178647500Y-69610000D03*
X178647500Y-68960000D03*
X178647500Y-68310000D03*
X178647500Y-67660000D03*
X178647500Y-67010000D03*
X178647500Y-66360000D03*
D35*
X177760000Y-65472500D03*
X177110000Y-65472500D03*
X176460000Y-65472500D03*
X175810000Y-65472500D03*
X175160000Y-65472500D03*
X174510000Y-65472500D03*
X173860000Y-65472500D03*
D36*
X172972500Y-66360000D03*
X172972500Y-67010000D03*
X172972500Y-67660000D03*
X172972500Y-68310000D03*
X172972500Y-68960000D03*
X172972500Y-69610000D03*
X172972500Y-70260000D03*
%TD*%
D37*
%TO.C,C8*%
X122807500Y-92220000D03*
X122807500Y-93770000D03*
%TD*%
D28*
%TO.C,R36*%
X109865000Y-81000000D03*
X111515000Y-81000000D03*
%TD*%
D38*
%TO.C,D8*%
X139000000Y-66100000D03*
X134600000Y-66100000D03*
%TD*%
D39*
%TO.C,C9*%
X184245000Y-79790000D03*
X185795000Y-79790000D03*
%TD*%
D38*
%TO.C,D10*%
X124850000Y-66200000D03*
X120450000Y-66200000D03*
%TD*%
D14*
%TO.C,R29*%
X114515000Y-81000000D03*
X112865000Y-81000000D03*
%TD*%
D32*
%TO.C,Q6*%
X115350000Y-69750000D03*
D33*
X113050000Y-76050000D03*
X115350000Y-76050000D03*
X117650000Y-76050000D03*
%TD*%
D39*
%TO.C,C10*%
X182825000Y-76130000D03*
X184375000Y-76130000D03*
%TD*%
D38*
%TO.C,D16*%
X116950000Y-66100000D03*
X112550000Y-66100000D03*
%TD*%
D37*
%TO.C,C7*%
X122800000Y-89310000D03*
X122800000Y-87760000D03*
%TD*%
D38*
%TO.C,D15*%
X128000000Y-66100000D03*
X132400000Y-66100000D03*
%TD*%
D28*
%TO.C,R35*%
X116375000Y-81000000D03*
X118025000Y-81000000D03*
%TD*%
D32*
%TO.C,Q3*%
X138800000Y-69750000D03*
D33*
X136500000Y-76050000D03*
X138800000Y-76050000D03*
X141100000Y-76050000D03*
%TD*%
D32*
%TO.C,Q5*%
X131000000Y-69750000D03*
D33*
X128700000Y-76050000D03*
X131000000Y-76050000D03*
X133300000Y-76050000D03*
%TD*%
D14*
%TO.C,R21*%
X131815000Y-88010000D03*
X130165000Y-88010000D03*
%TD*%
D40*
%TO.C,U5*%
X114775000Y-93100000D03*
D41*
X113800000Y-94960000D03*
X114450000Y-94960000D03*
X115100000Y-94960000D03*
X115750000Y-94960000D03*
D42*
X116635000Y-94075000D03*
X116635000Y-93425000D03*
X116635000Y-92775000D03*
X116635000Y-92125000D03*
D41*
X115750000Y-91240000D03*
X115100000Y-91240000D03*
X114450000Y-91240000D03*
X113800000Y-91240000D03*
D42*
X112915000Y-92125000D03*
X112915000Y-92775000D03*
X112915000Y-93425000D03*
X112915000Y-94075000D03*
%TD*%
D14*
%TO.C,R16*%
X131815000Y-89530000D03*
X130165000Y-89530000D03*
%TD*%
D43*
%TO.C,J5*%
X128810000Y-95080000D03*
X140010000Y-95080000D03*
D44*
X130660000Y-91880000D03*
X131910000Y-91880000D03*
X133160000Y-91880000D03*
X134410000Y-91880000D03*
X135660000Y-91880000D03*
X136910000Y-91880000D03*
X138160000Y-91880000D03*
%TD*%
D45*
%TO.C,JP2*%
X167900000Y-65950000D03*
D46*
X167900000Y-64650000D03*
%TD*%
D13*
%TO.C,R22*%
X137500000Y-87985000D03*
X137500000Y-89635000D03*
%TD*%
M02*
