M48
; DRILL file {KiCad (6.0.1-0)} date Tuesday, 05 April 2022 at 13:09:33
; FORMAT={-:-/ absolute / metric / decimal}
; #@! TF.CreationDate,2022-04-05T13:09:33+01:00
; #@! TF.GenerationSoftware,Kicad,Pcbnew,(6.0.1-0)
; #@! TF.FileFunction,Plated,1,4,PTH
FMAT,2
METRIC
; #@! TA.AperFunction,Plated,PTH,ViaDrill
T1C0.300
; #@! TA.AperFunction,Plated,PTH,ViaDrill
T2C0.400
; #@! TA.AperFunction,Plated,PTH,ComponentDrill
T3C0.400
; #@! TA.AperFunction,Plated,PTH,ComponentDrill
T4C0.460
; #@! TA.AperFunction,Plated,PTH,ComponentDrill
T5C0.600
; #@! TA.AperFunction,Plated,PTH,ComponentDrill
T6C0.750
; #@! TA.AperFunction,Plated,PTH,ComponentDrill
T7C1.000
; #@! TA.AperFunction,Plated,PTH,ComponentDrill
T8C1.100
; #@! TA.AperFunction,Plated,PTH,ComponentDrill
T9C1.300
; #@! TA.AperFunction,Plated,PTH,ComponentDrill
T10C1.400
; #@! TA.AperFunction,Plated,PTH,ComponentDrill
T11C3.200
%
G90
G05
T1
X100.437Y-83.027
X100.47Y-86.42
X100.51Y-70.495
X100.52Y-73.89
X101.14Y-83.025
X101.17Y-86.415
X101.21Y-70.495
X101.22Y-73.89
X101.84Y-83.025
X101.87Y-86.415
X101.92Y-70.495
X101.92Y-73.89
X102.54Y-83.025
X102.57Y-86.415
X102.62Y-70.495
X102.63Y-73.89
X103.24Y-83.025
X103.27Y-86.42
X103.32Y-70.495
X103.33Y-73.89
X103.94Y-83.025
X103.97Y-86.415
X104.02Y-70.495
X104.03Y-73.89
X104.64Y-83.025
X104.67Y-86.42
X104.71Y-70.495
X104.73Y-73.9
X105.338Y-83.025
X105.36Y-86.415
X105.41Y-70.495
X105.44Y-73.885
X105.858Y-82.558
X106.02Y-86.17
X106.053Y-70.784
X106.064Y-73.576
X106.11Y-85.47
X106.114Y-84.765
X106.157Y-72.866
X106.353Y-82.063
X106.553Y-70.283
X106.617Y-84.267
X106.775Y-72.494
X106.848Y-81.568
X107.048Y-69.788
X107.112Y-83.772
X107.167Y-73.09
X107.19Y-74.5
X107.19Y-75.22
X107.194Y-73.797
X107.302Y-72.002
X107.369Y-81.088
X107.543Y-69.293
X107.58Y-75.82
X107.607Y-83.277
X107.802Y-71.502
X107.981Y-80.733
X108.038Y-68.798
X108.097Y-82.787
X108.28Y-75.92
X108.302Y-71.002
X108.516Y-80.28
X108.535Y-68.307
X108.755Y-82.534
X108.807Y-70.497
X108.815Y-75.473
X109.044Y-67.82
X109.22Y-74.18
X109.22Y-74.88
X109.402Y-67.21
X112.189Y-81.479
X199.6Y-65.2
X199.6Y-66.4
X199.6Y-67.6
X199.6Y-68.8
X199.6Y-70.0
X199.6Y-71.2
X199.6Y-72.4
X199.6Y-73.6
X199.6Y-74.8
X199.6Y-76.0
X199.6Y-77.2
X199.6Y-78.4
X199.6Y-79.6
X199.6Y-80.8
X199.6Y-82.0
X199.6Y-83.2
X199.6Y-84.4
X199.6Y-85.6
X199.6Y-86.8
X199.6Y-88.0
X199.6Y-89.2
X199.6Y-90.4
X199.6Y-91.6
T2
X106.99Y-95.72
X107.0Y-94.72
X107.03Y-91.74
X107.03Y-92.74
X107.96Y-78.42
X108.16Y-88.53
X108.375Y-65.4
X108.487Y-90.542
X108.88Y-84.276
X111.723Y-91.526
X111.755Y-93.165
X112.325Y-94.65
X112.359Y-95.649
X112.98Y-87.93
X113.05Y-77.65
X113.23Y-91.1
X113.359Y-71.725
X113.474Y-86.313
X114.1Y-84.609
X114.527Y-79.081
X114.64Y-90.225
X115.542Y-87.932
X116.075Y-77.65
X116.36Y-90.72
X117.675Y-79.65
X117.8Y-74.4
X118.34Y-87.94
X118.54Y-93.38
X118.94Y-91.68
X119.05Y-77.65
X119.625Y-73.175
X119.625Y-75.575
X120.025Y-69.275
X120.7Y-79.6
X121.1Y-95.3
X123.33Y-90.1
X123.37Y-87.0
X123.617Y-92.38
X123.617Y-93.38
X123.825Y-95.325
X124.1Y-79.05
X124.5Y-81.3
X125.53Y-74.65
X125.825Y-88.49
X125.85Y-77.65
X126.17Y-86.475
X126.17Y-84.475
X126.325Y-90.475
X127.28Y-92.775
X127.775Y-79.1
X127.974Y-90.225
X129.675Y-77.575
X130.388Y-67.988
X130.575Y-91.05
X131.04Y-83.99
X131.381Y-79.1
X132.95Y-77.65
X132.98Y-83.939
X133.775Y-90.325
X134.425Y-76.0
X134.5Y-79.1
X134.86Y-83.95
X135.0Y-93.775
X136.425Y-77.675
X136.7Y-84.025
X138.525Y-79.1
X138.8Y-86.55
X139.7Y-84.025
X140.5Y-77.65
X141.45Y-84.9
X142.3Y-75.8
X142.4Y-79.175
X143.125Y-85.3
X143.125Y-86.3
X143.586Y-92.417
X144.5Y-81.775
X145.054Y-87.325
X145.188Y-93.42
X145.5Y-81.903
X146.21Y-78.455
X146.275Y-85.425
X147.0Y-81.3
X147.075Y-92.825
X147.1Y-94.4
X147.128Y-91.09
X147.275Y-85.425
X148.0Y-74.96
X148.6Y-93.45
X148.85Y-76.7
X149.5Y-89.95
X150.25Y-74.95
X150.6Y-78.975
X151.2Y-89.95
X151.875Y-91.6
X151.925Y-93.45
X153.5Y-83.9
X153.8Y-91.9
X153.8Y-93.5
X153.875Y-90.225
X155.02Y-80.95
X155.325Y-76.025
X155.65Y-83.826
X156.325Y-76.025
X156.5Y-81.65
X156.65Y-83.85
X157.45Y-72.2
X158.025Y-82.349
X158.533Y-79.512
X158.675Y-77.85
X159.55Y-73.3
X160.09Y-88.975
X160.3Y-82.349
X161.52Y-76.463
X162.05Y-83.85
X162.12Y-81.909
X162.55Y-76.453
X163.8Y-73.175
X163.8Y-83.329
X163.9Y-81.209
X164.05Y-88.951
X164.1Y-77.998
X164.17Y-79.028
X166.1Y-65.9
X166.48Y-83.39
X166.81Y-76.888
X167.45Y-89.45
X167.735Y-93.367
X167.76Y-76.22
X168.125Y-68.575
X168.2Y-70.15
X168.29Y-82.64
X169.102Y-71.925
X169.247Y-66.906
X169.65Y-90.25
X170.08Y-82.04
X170.7Y-95.85
X170.95Y-90.8
X171.193Y-84.965
X171.59Y-81.42
X171.675Y-63.75
X172.23Y-84.98
X173.13Y-76.86
X173.14Y-80.11
X173.281Y-75.12
X173.975Y-82.175
X174.13Y-76.85
X174.184Y-84.901
X174.28Y-75.13
X175.187Y-84.929
X175.45Y-82.87
X175.71Y-73.05
X175.75Y-72.05
X175.898Y-64.568
X176.5Y-90.079
X177.1Y-75.1
X177.579Y-95.084
X177.725Y-81.4
X178.099Y-75.096
X178.265Y-88.941
X179.007Y-76.821
X179.03Y-77.82
X179.63Y-73.14
X179.795Y-91.74
X179.839Y-69.74
X179.88Y-68.64
X180.6Y-88.796
X181.425Y-95.8
X181.52Y-68.96
X182.31Y-92.41
X182.44Y-73.16
X182.635Y-83.298
X182.725Y-80.7
X182.78Y-77.7
X183.12Y-75.26
X183.3Y-68.96
X183.875Y-84.7
X184.119Y-75.257
X184.18Y-91.81
X184.518Y-82.907
X184.55Y-80.67
X184.94Y-68.98
X185.05Y-78.9
X185.17Y-77.01
X185.205Y-73.595
X185.549Y-80.658
X185.6Y-65.55
X185.84Y-71.78
X186.06Y-89.38
X186.373Y-82.899
X186.45Y-90.82
X187.25Y-92.95
X187.6Y-73.2
X188.375Y-85.975
X188.95Y-75.775
X188.95Y-77.875
X188.95Y-79.975
X189.64Y-89.39
X189.675Y-84.829
X190.27Y-72.48
X191.05Y-75.775
X191.05Y-77.875
X191.05Y-79.975
X192.5Y-73.279
X193.15Y-75.775
X193.15Y-77.875
X193.15Y-79.975
X194.334Y-74.368
X195.75Y-84.925
X196.02Y-71.77
X196.234Y-67.667
X197.78Y-67.36
X198.54Y-71.75
X198.54Y-85.98
X198.55Y-88.76
X198.55Y-89.77
T3
X157.795Y-90.865
X157.795Y-92.215
X158.645Y-90.865
X158.645Y-92.215
X159.495Y-90.865
X159.495Y-92.215
X160.345Y-90.865
X160.345Y-92.215
X161.195Y-90.865
X161.195Y-92.215
X162.045Y-90.865
X162.045Y-92.215
X162.895Y-90.865
X162.895Y-92.215
X163.745Y-90.865
X163.745Y-92.215
T4
X106.46Y-80.34
X106.46Y-89.1
X106.47Y-67.81
X106.47Y-76.57
T6
X167.77Y-62.25
X169.77Y-62.25
X188.57Y-62.25
X190.57Y-62.25
T7
X109.07Y-62.1
X111.61Y-62.1
X114.15Y-62.1
X174.1Y-61.85
X176.64Y-61.85
X179.18Y-61.85
X181.72Y-61.85
X183.125Y-95.2
X184.26Y-61.85
X185.665Y-95.2
X189.32Y-95.2
X191.86Y-95.2
T8
X119.45Y-62.28
X121.99Y-62.28
X124.53Y-62.28
X127.07Y-62.28
X129.61Y-62.28
X132.15Y-62.28
X134.69Y-62.28
X137.23Y-62.28
T9
X142.3Y-62.35
X147.38Y-62.35
T10
X153.66Y-62.79
X153.66Y-68.29
X157.86Y-62.79
X157.86Y-68.29
X162.06Y-62.79
X162.06Y-68.29
T11
X103.0Y-63.0
X103.0Y-94.0
X197.0Y-63.0
X197.0Y-94.0
T5
G00X156.445Y-91.095
M15
G01X156.445Y-92.595
M16
G05
G00X156.445Y-94.825
M15
G01X156.445Y-95.625
M16
G05
G00X165.095Y-91.095
M15
G01X165.095Y-92.595
M16
G05
G00X165.095Y-94.825
M15
G01X165.095Y-95.625
M16
G05
T0
M30
